<svg width="800" height="250" viewBox="0 0 800 250" fill="none" xmlns="http://www.w3.org/2000/svg">
<g clip-path="url(#clip0_13_104)">
<path d="M298 127.04V119.171C298 118.88 298 118.589 298.291 118.006C298.874 113.634 299.166 108.971 300.04 104.6C303.537 85.9486 311.989 69.6286 324.811 55.9314C343.171 36.4057 365.903 25.6229 392.714 23.2914C393.88 23.2914 395.046 23 396.211 23H404.371C404.663 23 404.954 23 405.537 23.2914C413.406 23.5829 420.983 24.7486 428.56 27.08C460.034 36.9886 481.891 57.0971 494.714 87.1143C499.669 98.48 502 110.137 502 122.377C502 129.371 501.417 136.366 499.96 143.069C495.88 163.177 487.429 180.954 473.149 195.526C451 218.549 423.897 228.749 392.131 226.709C382.514 226.126 373.48 223.794 364.446 220.297C348.709 214.177 335.594 204.56 324.52 192.029C309.074 174.251 300.04 153.851 298.291 130.537C298.291 129.371 298 128.206 298 127.04Z" fill="#EB1E23"/>
<path d="M376.394 151.811C376.686 151.229 376.686 151.229 376.977 150.937C379.309 148.606 381.64 146.274 383.971 143.651C389.8 136.949 395.046 129.663 398.251 121.503C400.874 115.383 402.04 108.971 400.874 102.269C399.709 94.1086 396.211 86.8229 390.383 80.9943C378.143 68.4629 363.28 64.6743 346.377 69.3371C337.343 71.6686 330.057 76.9143 325.103 84.7829C322.189 89.4457 320.44 94.4 319.274 99.3543C318.983 101.394 318.983 101.394 321.023 101.394C329.183 101.394 337.343 101.394 345.503 101.103C346.669 101.103 347.251 100.811 347.834 99.9371C351.04 95.2743 355.703 92.9429 361.531 93.5257C369.4 94.1086 375.229 102.269 373.771 109.554C373.189 113.343 371.44 116.84 368.526 119.754C351.914 137.531 335.594 155.309 319.274 173.086C318.691 173.377 318.109 173.669 318.4 174.543C318.691 175.417 319.566 175.126 320.149 175.126C361.531 175.126 402.623 175.126 444.006 175.126C446.92 175.126 449.834 174.834 452.749 174.251C462.074 172.503 469.651 168.131 475.189 160.263C482.474 150.063 485.389 138.697 483.057 126.457C480.434 112.76 472.274 103.434 458.577 99.3543C456.537 98.7714 454.497 98.48 452.166 97.8971C450.709 97.6057 450.709 97.0229 451.583 95.8571C453.04 94.4 454.206 92.9429 455.663 91.7771C462.366 84.7829 468.777 77.7886 475.48 70.7943C475.771 70.5029 476.354 69.92 476.063 69.3371C475.771 68.7543 475.189 68.7543 474.606 68.7543C474.314 68.7543 474.314 68.7543 474.023 68.7543C464.989 68.7543 456.246 68.7543 447.211 68.7543C444.589 68.7543 442.257 69.6286 440.509 71.6686C435.554 76.9143 430.6 82.16 425.646 87.6971C421.566 92.0686 417.777 96.1486 413.989 100.52C408.16 107.514 403.789 115.091 401.749 123.834C400.291 129.954 399.709 136.074 401.166 142.194C401.749 145.109 402.914 147.731 403.789 150.354C404.371 151.52 404.08 151.811 402.914 151.811C394.463 151.811 386.011 151.811 377.56 151.811C376.977 151.811 376.686 151.811 376.394 151.811Z" fill="white"/>
<path d="M458.869 131.12C458.869 139.28 452.166 145.983 444.006 145.983C435.846 145.983 429.143 139.28 429.143 131.12C429.143 122.669 435.846 116.257 444.006 116.257C452.457 116.257 458.869 122.96 458.869 131.12Z" fill="#EB1E23"/>
</g>
<defs>
<clipPath id="clip0_13_104">
<rect width="204" height="204" fill="white" transform="translate(298 23)"/>
</clipPath>
</defs>
</svg>
