<svg width="800" height="250" viewBox="0 0 800 250" fill="none" xmlns="http://www.w3.org/2000/svg">
<g clip-path="url(#clip0_17_1528)">
<path d="M574.627 35.047H482.41C475.604 35.047 470.037 40.6489 470.037 47.4792V202.55C470.037 209.398 475.604 214.994 482.41 214.994H574.627C581.415 214.994 586.994 209.392 586.994 202.55V47.4851C587 40.6547 581.415 35.047 574.627 35.047Z" fill="#EB122B"/>
<mask id="mask0_17_1528" style="mask-type:luminance" maskUnits="userSpaceOnUse" x="470" y="35" width="117" height="180">
<path d="M574.627 35.047H482.41C475.604 35.047 470.037 40.6489 470.037 47.4792V202.55C470.037 209.398 475.604 214.994 482.41 214.994H574.627C581.415 214.994 586.994 209.392 586.994 202.55V47.4851C587 40.6547 581.415 35.047 574.627 35.047Z" fill="white"/>
</mask>
<g mask="url(#mask0_17_1528)">
<path d="M471.03 194.967V57.5778" stroke="url(#paint0_linear_17_1528)" stroke-width="5" stroke-miterlimit="10"/>
<path d="M490.033 214.001H482.41C476.136 214.001 471.03 208.863 471.03 202.556V194.973" stroke="url(#paint1_linear_17_1528)" stroke-width="5" stroke-miterlimit="10"/>
<path d="M564.743 214.001H490.033" stroke="url(#paint2_linear_17_1528)" stroke-width="5" stroke-miterlimit="10"/>
<path d="M586.001 194.967V202.55C586.001 208.863 580.895 213.995 574.627 213.995H564.743" stroke="url(#paint3_linear_17_1528)" stroke-width="5" stroke-miterlimit="10"/>
<path d="M586.001 63.1973V194.967" stroke="url(#paint4_linear_17_1528)" stroke-width="5" stroke-miterlimit="10"/>
<path d="M565.462 36.0463H574.627C580.901 36.0463 586.001 41.1779 586.001 47.4792V63.1915" stroke="url(#paint5_linear_17_1528)" stroke-width="5" stroke-miterlimit="10"/>
<path d="M494.473 36.0463H565.462" stroke="url(#paint6_linear_17_1528)" stroke-width="5" stroke-miterlimit="10"/>
<path d="M471.03 57.5777V47.485C471.03 41.1777 476.136 36.052 482.41 36.052H494.467" stroke="url(#paint7_linear_17_1528)" stroke-width="5" stroke-miterlimit="10"/>
</g>
<path d="M482.41 214.001C476.136 214.001 471.03 208.863 471.03 202.556V47.4851C471.03 41.1779 476.136 36.0522 482.41 36.0522H574.627C580.901 36.0522 586.001 41.1838 586.001 47.4851V202.556C586.001 208.869 580.895 214.001 574.627 214.001H482.41Z" fill="#EB122B"/>
<path d="M531.825 84.2764C508.213 84.2764 489.076 103.533 489.076 127.287C489.076 139.215 493.916 150.011 501.728 157.802C501.75 157.825 501.772 157.847 501.794 157.869C503.342 159.45 504.887 161.021 506.429 162.594C506.471 162.637 506.512 162.681 506.554 162.724C514.3 170.584 525.039 175.457 536.913 175.457C548.24 175.457 558.545 170.997 566.174 163.767C566.624 163.214 566.601 162.379 566.104 161.856L565.954 161.705C565.948 161.699 565.947 161.691 565.941 161.685C561.22 156.851 556.437 152.063 551.646 147.249C551.639 147.243 551.632 147.238 551.625 147.232L551.483 147.09C550.922 146.537 549.951 146.537 549.384 147.09C544.56 151.438 538.308 153.837 531.831 153.826C525.783 153.826 520.212 151.77 515.759 148.324C512.473 143.899 510.526 138.413 510.526 132.477C510.526 117.811 522.349 105.943 536.918 105.943C543.66 105.937 549.811 108.483 554.473 112.668C555.046 113.238 556.009 113.238 556.57 112.68L566.104 103.081C566.607 102.557 566.629 101.74 566.174 101.164L566.011 100.993C564.415 99.3783 562.821 97.7634 561.249 96.138C561.2 96.091 561.147 96.047 561.098 96.0003C561.093 95.9938 561.091 95.986 561.086 95.9796C553.434 88.726 543.152 84.2764 531.825 84.2764Z" fill="#1D1D1B"/>
<path d="M549.385 107.477C544.723 103.292 538.572 100.747 531.831 100.747C517.261 100.747 505.438 112.615 505.438 127.275C505.438 141.905 517.261 153.809 531.831 153.809C538.572 153.809 544.723 151.269 549.385 147.072C549.958 146.52 550.921 146.52 551.482 147.072L561.016 156.654C561.518 157.177 561.542 158.012 561.086 158.564C553.457 165.794 543.152 170.256 531.825 170.256C508.213 170.256 489.075 150.993 489.075 127.269C489.075 103.51 508.213 84.2587 531.825 84.2587C543.152 84.2587 553.433 88.7084 561.086 95.962C561.536 96.5381 561.513 97.3551 561.016 97.8783L551.482 107.477C550.921 108.047 549.958 108.047 549.385 107.477Z" fill="url(#paint8_linear_17_1528)"/>
<path d="M531.826 94.4265C513.798 94.4265 499.186 109.125 499.186 127.266C499.186 145.38 513.798 160.087 531.826 160.087L531.829 153.808C517.261 153.807 505.438 141.905 505.438 127.275C505.438 112.616 517.261 100.748 531.829 100.747L531.826 94.4265Z" fill="url(#paint9_linear_17_1528)"/>
<path d="M561.016 156.654C561.518 157.177 561.542 158.012 561.086 158.564C553.457 165.794 543.152 170.256 531.825 170.256L544.13 160.087L561.016 156.654Z" fill="#A8A8A8"/>
<path d="M549.614 146.893C550.19 146.528 550.991 146.588 551.482 147.072L561.016 156.654L544.13 160.087L550.288 148.75L549.614 146.893Z" fill="url(#paint10_linear_17_1528)"/>
<path d="M531.831 153.809C538.572 153.809 544.723 151.269 549.385 147.072C549.454 147.005 549.531 146.946 549.614 146.893L550.288 148.75L544.13 160.087H531.826L531.831 153.809Z" fill="url(#paint11_linear_17_1528)"/>
<path d="M561.016 97.8899C561.519 97.3668 561.542 96.5321 561.086 95.9796C553.457 88.7495 543.152 84.288 531.825 84.288L544.13 94.4567L561.016 97.8899Z" fill="url(#paint12_linear_17_1528)"/>
<path d="M549.612 107.66C550.188 108.025 550.991 107.956 551.482 107.471L561.016 97.8899L559.094 96.6608L550.289 105.793L549.612 107.66Z" fill="url(#paint13_linear_17_1528)"/>
<path d="M531.829 100.747C538.57 100.747 544.723 103.28 549.385 107.477C549.454 107.545 549.529 107.607 549.612 107.66L550.289 105.793L544.13 94.4567L531.826 94.4265L531.829 100.747Z" fill="#A8A8A8"/>
<path d="M531.831 168.433C509.264 168.433 490.904 149.97 490.904 127.281C490.904 104.573 509.264 86.0985 531.831 86.0985C541.902 86.0985 551.517 89.8017 559.03 96.5557C559.24 96.7497 559.252 97.0847 559.047 97.2846L550.752 105.632C550.571 105.814 550.279 105.826 550.08 105.655C544.986 101.297 538.517 98.9073 531.831 98.9128C516.274 98.9128 503.615 111.639 503.615 127.275C503.615 142.916 516.274 155.643 531.831 155.643C538.543 155.643 544.992 153.256 550.074 148.9C550.273 148.73 550.559 148.742 550.746 148.924L559.042 157.259C559.246 157.465 559.234 157.8 559.024 157.988C551.517 164.736 541.908 168.433 531.831 168.433Z" fill="white"/>
<path d="M318.59 35H226.373C219.567 35 214 40.6019 214 47.4322V202.503C214 209.351 219.567 214.947 226.373 214.947H318.59C325.378 214.947 330.957 209.345 330.957 202.503V47.4322C330.963 40.6019 325.378 35 318.59 35Z" fill="#EB122B"/>
<mask id="mask1_17_1528" style="mask-type:luminance" maskUnits="userSpaceOnUse" x="214" y="35" width="117" height="180">
<path d="M318.59 35H226.373C219.567 35 214 40.6019 214 47.4322V202.503C214 209.351 219.567 214.947 226.373 214.947H318.59C325.378 214.947 330.957 209.345 330.957 202.503V47.4322C330.963 40.6019 325.378 35 318.59 35Z" fill="white"/>
</mask>
<g mask="url(#mask1_17_1528)">
<path d="M214.993 194.92V57.5308" stroke="url(#paint14_linear_17_1528)" stroke-width="5" stroke-miterlimit="10"/>
<path d="M233.996 213.954H226.373C220.099 213.954 214.993 208.816 214.993 202.509V194.926" stroke="url(#paint15_linear_17_1528)" stroke-width="5" stroke-miterlimit="10"/>
<path d="M308.706 213.954H233.996" stroke="url(#paint16_linear_17_1528)" stroke-width="5" stroke-miterlimit="10"/>
<path d="M329.97 194.92V202.503C329.97 208.816 324.864 213.948 318.596 213.948H308.712" stroke="url(#paint17_linear_17_1528)" stroke-width="5" stroke-miterlimit="10"/>
<path d="M329.97 63.1445V194.92" stroke="url(#paint18_linear_17_1528)" stroke-width="5" stroke-miterlimit="10"/>
<path d="M309.425 35.9993H318.59C324.864 35.9993 329.964 41.1309 329.964 47.4322V63.1445" stroke="url(#paint19_linear_17_1528)" stroke-width="5" stroke-miterlimit="10"/>
<path d="M238.436 35.9993H309.425" stroke="url(#paint20_linear_17_1528)" stroke-width="5" stroke-miterlimit="10"/>
<path d="M214.993 57.5308V47.4322C214.993 41.1309 220.099 35.9993 226.373 35.9993H238.43" stroke="url(#paint21_linear_17_1528)" stroke-width="5" stroke-miterlimit="10"/>
</g>
<path d="M226.373 213.954C220.099 213.954 214.993 208.816 214.993 202.509V47.4322C214.993 41.1309 220.099 35.9993 226.373 35.9993H318.59C324.864 35.9993 329.964 41.1309 329.964 47.4322V202.503C329.964 208.816 324.858 213.948 318.59 213.948H226.373V213.954Z" fill="#EB122B"/>
<path d="M236.637 84.5875C235.848 84.5875 235.193 85.2348 235.193 86.0284V99.5951C235.193 100.034 235.401 100.415 235.709 100.681C235.763 100.745 235.817 100.803 235.88 100.857C237.424 102.419 238.937 104.006 240.483 105.549C240.53 105.605 240.578 105.654 240.633 105.702C240.9 106.021 241.284 106.237 241.725 106.237H261.938C262.27 106.237 262.593 106.271 262.911 106.322C262.953 106.615 262.983 106.913 262.983 107.218V168.51C262.983 168.957 263.191 169.34 263.503 169.606C265.147 171.284 266.785 172.96 268.426 174.623C268.69 174.937 269.07 175.146 269.513 175.146H283.002C283.802 175.146 284.44 174.499 284.44 173.694V112.403C284.44 108.994 287.179 106.231 290.573 106.231H309.95C310.751 106.231 311.411 105.579 311.411 104.78H311.417V91.213C311.417 90.7837 311.211 90.4078 310.903 90.1442C309.302 88.5278 307.735 86.8855 306.135 85.2856C306.085 85.2272 306.036 85.1737 305.978 85.1237C305.709 84.8045 305.319 84.5875 304.869 84.5875H236.637Z" fill="#1D1D1B"/>
<path d="M306.323 99.5947C306.323 100.394 305.663 101.047 304.862 101.047H285.485C282.091 101.047 279.351 103.809 279.351 107.219V168.51C279.351 169.315 278.715 169.962 277.914 169.962H264.426C263.625 169.962 262.983 169.315 262.983 168.51V107.219C262.983 103.809 260.249 101.047 256.849 101.047H236.637C235.848 101.047 235.194 100.394 235.194 99.5947V86.028C235.194 85.2345 235.848 84.5879 236.637 84.5879H304.868C305.668 84.5879 306.328 85.2345 306.328 86.0222V99.5947H306.323Z" fill="url(#paint22_linear_17_1528)"/>
<path d="M271.17 96.6572V166.282H266.634L263.404 169.538C263.664 169.8 264.026 169.962 264.426 169.962H266.332H277.914C278.715 169.962 279.351 169.316 279.351 168.51V107.218C279.351 103.809 282.091 101.046 285.485 101.046H304.862C305.662 101.046 306.322 100.395 306.322 99.5951H306.329V96.6572H271.17Z" fill="url(#paint23_linear_17_1528)"/>
<path fill-rule="evenodd" clip-rule="evenodd" d="M262.983 166.711V168.51C262.983 169.316 263.626 169.962 264.426 169.962H266.557V166.711H262.983Z" fill="url(#paint24_linear_17_1528)"/>
<path d="M301.066 99.5948L306.329 99.5951V86.0226L301.066 86.0223V99.5948Z" fill="url(#paint25_linear_17_1528)"/>
<path d="M301.066 96.6568V101.046H304.861C305.662 101.046 306.322 100.394 306.322 99.5951H306.328V96.6568H301.066Z" fill="url(#paint26_linear_17_1528)"/>
<path d="M236.665 84.5875C235.845 84.5875 235.194 85.2349 235.194 86.0226V88.9778H306.329V86.0226C306.329 85.2349 305.669 84.5875 304.869 84.5875H236.665Z" fill="url(#paint27_linear_17_1528)"/>
<path d="M301.066 84.5875V88.9778H306.329V86.0226C306.329 85.2349 305.669 84.5875 304.868 84.5875H301.066Z" fill="url(#paint28_linear_17_1528)"/>
<path d="M240.457 99.5948L235.194 99.5951V86.0226L240.457 86.0223V99.5948Z" fill="url(#paint29_linear_17_1528)"/>
<path d="M240.474 84.5875V88.9778H235.211V86.0226C235.211 85.2349 235.871 84.5875 236.671 84.5875H240.474Z" fill="url(#paint30_linear_17_1528)"/>
<path d="M240.457 96.6568V101.046H236.661C235.861 101.046 235.194 100.394 235.194 99.5947L235.194 96.6568H240.457Z" fill="url(#paint31_linear_17_1528)"/>
<path d="M264.805 167.622V107.219C264.805 102.798 261.242 99.2127 256.849 99.2127H237.507C237.442 99.2127 237.377 99.1998 237.317 99.1746C237.257 99.1495 237.202 99.1127 237.156 99.0663C237.11 99.0199 237.073 98.9649 237.048 98.9042C237.023 98.8436 237.011 98.7787 237.011 98.713V86.9215C237.011 86.6452 237.233 86.4219 237.507 86.4219H304.003C304.278 86.4219 304.5 86.6452 304.5 86.9215V98.713C304.5 98.9893 304.278 99.2127 304.003 99.2127H285.485C281.092 99.2127 277.529 102.798 277.529 107.219V167.622C277.529 167.899 277.307 168.122 277.032 168.122H265.302C265.17 168.122 265.044 168.069 264.951 167.976C264.858 167.882 264.805 167.755 264.805 167.622Z" fill="white"/>
<path d="M446.536 35H354.324C347.518 35 341.951 40.6019 341.951 47.4322V202.503C341.951 209.351 347.518 214.947 354.324 214.947H446.542C453.33 214.947 458.908 209.345 458.908 202.503V47.4322C458.908 40.6019 453.324 35 446.536 35Z" fill="#EB122B"/>
<mask id="mask2_17_1528" style="mask-type:luminance" maskUnits="userSpaceOnUse" x="341" y="35" width="118" height="180">
<path d="M446.536 35H354.324C347.518 35 341.951 40.6019 341.951 47.4322V202.503C341.951 209.351 347.518 214.947 354.324 214.947H446.542C453.33 214.947 458.908 209.345 458.908 202.503V47.4322C458.908 40.6019 453.324 35 446.536 35Z" fill="white"/>
</mask>
<g mask="url(#mask2_17_1528)">
<path d="M342.939 194.92V57.5308" stroke="url(#paint32_linear_17_1528)" stroke-width="5" stroke-miterlimit="10"/>
<path d="M361.942 213.954H354.318C348.044 213.954 342.939 208.816 342.939 202.509V194.926" stroke="url(#paint33_linear_17_1528)" stroke-width="5" stroke-miterlimit="10"/>
<path d="M436.657 213.954H361.942" stroke="url(#paint34_linear_17_1528)" stroke-width="5" stroke-miterlimit="10"/>
<path d="M457.915 194.92V202.503C457.915 208.816 452.81 213.948 446.542 213.948H436.657" stroke="url(#paint35_linear_17_1528)" stroke-width="5" stroke-miterlimit="10"/>
<path d="M457.915 63.1445V194.92" stroke="url(#paint36_linear_17_1528)" stroke-width="5" stroke-miterlimit="10"/>
<path d="M437.37 35.9993H446.536C452.81 35.9993 457.91 41.1309 457.91 47.4322V63.1445" stroke="url(#paint37_linear_17_1528)" stroke-width="5" stroke-miterlimit="10"/>
<path d="M366.381 35.9993H437.37" stroke="url(#paint38_linear_17_1528)" stroke-width="5" stroke-miterlimit="10"/>
<path d="M342.939 57.5308V47.4322C342.939 41.125 348.044 35.9993 354.318 35.9993H366.376" stroke="url(#paint39_linear_17_1528)" stroke-width="5" stroke-miterlimit="10"/>
</g>
<path d="M354.324 213.954C348.05 213.954 342.944 208.816 342.944 202.509V47.4322C342.944 41.125 348.05 35.9993 354.324 35.9993H446.542C452.816 35.9993 457.915 41.1309 457.915 47.4322V202.503C457.915 208.816 452.81 213.948 446.542 213.948H354.324V213.954Z" fill="#EB122B"/>
<path d="M377.475 84.5875C376.68 84.5875 376.031 85.2348 376.031 86.0284V150.829C376.031 156.624 377.64 161.702 381.117 165.168C381.152 165.205 381.187 165.241 381.223 165.277C382.768 166.846 384.299 168.421 385.838 169.98C385.903 170.047 385.967 170.114 386.033 170.18C389.045 173.284 393.508 175.146 399.609 175.146H430.191C431.003 175.146 431.627 174.494 431.627 173.682V160.14H431.621C431.621 159.694 431.42 159.29 431.103 159.017C431.054 158.958 430.999 158.904 430.941 158.854L426.356 154.179C426.302 154.114 426.244 154.054 426.18 153.999C425.919 153.689 425.537 153.486 425.096 153.486H400.228C399.385 153.486 398.576 153.349 397.816 153.103C397.592 152.369 397.471 151.591 397.471 150.782V91.213C397.471 90.7778 397.271 90.3878 396.961 90.1224C395.32 88.4414 393.679 86.769 392.038 85.1042C391.774 84.7918 391.386 84.5875 390.946 84.5875H377.475Z" fill="#1D1D1B"/>
<path d="M426.534 168.498C426.534 169.303 425.909 169.962 425.097 169.962H394.515C381.605 169.962 376.026 161.638 376.026 150.829V86.028C376.026 85.2345 376.674 84.5879 377.469 84.5879H390.94C391.74 84.5879 392.377 85.2345 392.377 86.028V145.603C392.377 149.964 395.882 153.491 400.222 153.491H425.091C425.903 153.491 426.528 154.161 426.528 154.961V168.498H426.534Z" fill="url(#paint40_linear_17_1528)"/>
<path d="M387.114 86.0226V146.517V151.279L392.036 153.699L394.907 151.397C393.355 149.957 392.377 147.899 392.377 145.603V140.036V86.0226H387.114Z" fill="#A8A8A8"/>
<path d="M387.114 84.5875V91.6994H392.377L392.377 86.0226C392.377 85.2872 391.779 84.5875 390.94 84.5875L387.114 84.5875Z" fill="url(#paint41_linear_17_1528)"/>
<path d="M426.534 168.498C426.534 169.303 425.909 169.962 425.097 169.962L413.954 169.962L416.37 153.491H425.091C425.903 153.491 426.528 154.161 426.528 154.961V168.498H426.534Z" fill="#A8A8A8"/>
<path d="M394.908 151.397L392.036 153.699L397.471 158.752H423.935V153.491H400.222C398.166 153.491 396.305 152.693 394.908 151.397Z" fill="url(#paint42_linear_17_1528)"/>
<path d="M421.269 153.486V160.598H426.533L426.533 154.921C426.533 154.185 425.935 153.486 425.096 153.486L421.269 153.486Z" fill="url(#paint43_linear_17_1528)"/>
<path d="M394.515 168.128C388.288 168.128 377.843 165.882 377.843 150.829V86.9215C377.843 86.6452 378.065 86.4219 378.339 86.4219H390.058C390.332 86.4219 390.554 86.6452 390.554 86.9215V145.597C390.554 150.964 394.883 155.319 400.217 155.319H424.214C424.489 155.319 424.711 155.543 424.711 155.819V167.622C424.711 167.899 424.489 168.122 424.214 168.122H394.515V168.128Z" fill="white"/>
</g>
<defs>
<linearGradient id="paint0_linear_17_1528" x1="-nan" y1="-nan" x2="-nan" y2="-nan" gradientUnits="userSpaceOnUse">
<stop stop-color="#EB576B"/>
<stop offset="1" stop-color="#EB576B"/>
</linearGradient>
<linearGradient id="paint1_linear_17_1528" x1="469.57" y1="205.221" x2="490.033" y2="205.221" gradientUnits="userSpaceOnUse">
<stop stop-color="#EB576B"/>
<stop offset="1" stop-color="#AF192C"/>
</linearGradient>
<linearGradient id="paint2_linear_17_1528" x1="-nan" y1="-nan" x2="-nan" y2="-nan" gradientUnits="userSpaceOnUse">
<stop stop-color="#AF192C"/>
<stop offset="1" stop-color="#AF192C"/>
</linearGradient>
<linearGradient id="paint3_linear_17_1528" x1="564.745" y1="205.221" x2="587.464" y2="205.221" gradientUnits="userSpaceOnUse">
<stop stop-color="#AF192C"/>
<stop offset="1" stop-color="#AF192C"/>
</linearGradient>
<linearGradient id="paint4_linear_17_1528" x1="-nan" y1="-nan" x2="-nan" y2="-nan" gradientUnits="userSpaceOnUse">
<stop stop-color="#AF192C"/>
<stop offset="1" stop-color="#AF192C"/>
</linearGradient>
<linearGradient id="paint5_linear_17_1528" x1="565.46" y1="48.887" x2="587.464" y2="48.887" gradientUnits="userSpaceOnUse">
<stop stop-color="#EB576B"/>
<stop offset="0.595" stop-color="#E73045"/>
<stop offset="1" stop-color="#AF192C"/>
</linearGradient>
<linearGradient id="paint6_linear_17_1528" x1="-nan" y1="-nan" x2="-nan" y2="-nan" gradientUnits="userSpaceOnUse">
<stop stop-color="#EB576B"/>
<stop offset="1" stop-color="#EB576B"/>
</linearGradient>
<linearGradient id="paint7_linear_17_1528" x1="469.57" y1="46.0783" x2="494.47" y2="46.0783" gradientUnits="userSpaceOnUse">
<stop stop-color="#EB576B"/>
<stop offset="1" stop-color="#EB576B"/>
</linearGradient>
<linearGradient id="paint8_linear_17_1528" x1="531.825" y1="170.256" x2="531.825" y2="84.2587" gradientUnits="userSpaceOnUse">
<stop stop-color="#A8A8A8"/>
<stop offset="0.0881649" stop-color="#ADADAD"/>
<stop offset="0.181444" stop-color="#B9B9B9"/>
<stop offset="0.3" stop-color="#D3D3D3"/>
<stop offset="0.411487" stop-color="#D7D7D7"/>
<stop offset="0.4953" stop-color="#D7D7D7"/>
<stop offset="0.577692" stop-color="#D9D9D9"/>
<stop offset="0.657244" stop-color="#DADADA"/>
<stop offset="0.733954" stop-color="#DCDCDC"/>
<stop offset="0.818677" stop-color="#DFDFDF"/>
<stop offset="0.905132" stop-color="#E3E3E3"/>
<stop offset="0.979001" stop-color="#E7E7E7"/>
<stop offset="1" stop-color="#E9E9E9"/>
</linearGradient>
<linearGradient id="paint9_linear_17_1528" x1="531.831" y1="99.6015" x2="531.831" y2="154.586" gradientUnits="userSpaceOnUse">
<stop stop-color="#A8A8A8"/>
<stop offset="0.1" stop-color="#A8A8A8"/>
<stop offset="0.2" stop-color="#ABABAB"/>
<stop offset="0.3" stop-color="#B8B8B8"/>
<stop offset="0.4" stop-color="#C5C5C5"/>
<stop offset="0.5" stop-color="#CBCBCB"/>
<stop offset="0.6" stop-color="#D2D2D2"/>
<stop offset="0.7" stop-color="#DEDEDE"/>
<stop offset="0.8" stop-color="#E4E4E4"/>
<stop offset="0.9" stop-color="#E8E8E8"/>
<stop offset="1" stop-color="#EAEAEA"/>
</linearGradient>
<linearGradient id="paint10_linear_17_1528" x1="561.313" y1="158.373" x2="549.816" y2="146.856" gradientUnits="userSpaceOnUse">
<stop stop-color="#A8A8A8"/>
<stop offset="0.462491" stop-color="#A8A8A8"/>
<stop offset="0.566638" stop-color="#B2B2B2"/>
<stop offset="0.661322" stop-color="#BDBDBD"/>
<stop offset="0.75146" stop-color="#C9C9C9"/>
<stop offset="0.876358" stop-color="#D9D9D9"/>
<stop offset="0.919589" stop-color="#DEDEDE"/>
<stop offset="0.975241" stop-color="#E2E2E2"/>
<stop offset="1" stop-color="#E3E3E3"/>
</linearGradient>
<linearGradient id="paint11_linear_17_1528" x1="531.932" y1="154.922" x2="550.04" y2="146.897" gradientUnits="userSpaceOnUse">
<stop stop-color="#EAEAEA"/>
<stop offset="0.119871" stop-color="#EAEAEA"/>
<stop offset="0.131654" stop-color="#EBEBEB"/>
<stop offset="0.476394" stop-color="#EDEDED"/>
<stop offset="0.708767" stop-color="#EEEEEE"/>
<stop offset="0.92875" stop-color="#EEEEEE"/>
<stop offset="0.968125" stop-color="#E3E3E3"/>
<stop offset="0.98211" stop-color="#E1E1E1"/>
<stop offset="1" stop-color="#E1E1E1"/>
</linearGradient>
<linearGradient id="paint12_linear_17_1528" x1="531.825" y1="91.089" x2="561.411" y2="91.089" gradientUnits="userSpaceOnUse">
<stop stop-color="#EAEAEA"/>
<stop offset="0.119871" stop-color="#EAEAEA"/>
<stop offset="0.131654" stop-color="#EBEBEB"/>
<stop offset="0.476394" stop-color="#EDEDED"/>
<stop offset="0.708767" stop-color="#EFEFEF"/>
<stop offset="0.83124" stop-color="#E9E9E9"/>
<stop offset="0.92875" stop-color="#D4D4D4"/>
<stop offset="0.968125" stop-color="#CDCDCD"/>
<stop offset="0.98211" stop-color="#CCCCCC"/>
<stop offset="1" stop-color="#CCCCCC"/>
</linearGradient>
<linearGradient id="paint13_linear_17_1528" x1="549.86" y1="107.78" x2="561.394" y2="96.2321" gradientUnits="userSpaceOnUse">
<stop stop-color="#A8A8A8"/>
<stop offset="0.462491" stop-color="#A8A8A8"/>
<stop offset="0.566638" stop-color="#A8A8A8"/>
<stop offset="0.661322" stop-color="#A8A8A8"/>
<stop offset="0.75146" stop-color="#B3B3B3"/>
<stop offset="0.876358" stop-color="#C8C8C8"/>
<stop offset="0.919589" stop-color="#CDCDCD"/>
<stop offset="0.975241" stop-color="#E2E2E2"/>
<stop offset="1" stop-color="#E3E3E3"/>
</linearGradient>
<linearGradient id="paint14_linear_17_1528" x1="-nan" y1="-nan" x2="-nan" y2="-nan" gradientUnits="userSpaceOnUse">
<stop stop-color="#EB576B"/>
<stop offset="1" stop-color="#EB576B"/>
</linearGradient>
<linearGradient id="paint15_linear_17_1528" x1="213.533" y1="205.172" x2="233.997" y2="205.172" gradientUnits="userSpaceOnUse">
<stop stop-color="#EB576B"/>
<stop offset="1" stop-color="#AF192C"/>
</linearGradient>
<linearGradient id="paint16_linear_17_1528" x1="-nan" y1="-nan" x2="-nan" y2="-nan" gradientUnits="userSpaceOnUse">
<stop stop-color="#AF192C"/>
<stop offset="1" stop-color="#AF192C"/>
</linearGradient>
<linearGradient id="paint17_linear_17_1528" x1="308.708" y1="205.172" x2="331.428" y2="205.172" gradientUnits="userSpaceOnUse">
<stop stop-color="#AF192C"/>
<stop offset="1" stop-color="#AF192C"/>
</linearGradient>
<linearGradient id="paint18_linear_17_1528" x1="-nan" y1="-nan" x2="-nan" y2="-nan" gradientUnits="userSpaceOnUse">
<stop stop-color="#AF192C"/>
<stop offset="1" stop-color="#AF192C"/>
</linearGradient>
<linearGradient id="paint19_linear_17_1528" x1="309.424" y1="48.8377" x2="331.428" y2="48.8377" gradientUnits="userSpaceOnUse">
<stop stop-color="#EB576B"/>
<stop offset="0.595" stop-color="#E73045"/>
<stop offset="1" stop-color="#AF192C"/>
</linearGradient>
<linearGradient id="paint20_linear_17_1528" x1="-nan" y1="-nan" x2="-nan" y2="-nan" gradientUnits="userSpaceOnUse">
<stop stop-color="#EB576B"/>
<stop offset="1" stop-color="#EB576B"/>
</linearGradient>
<linearGradient id="paint21_linear_17_1528" x1="213.533" y1="46.0291" x2="238.434" y2="46.0291" gradientUnits="userSpaceOnUse">
<stop stop-color="#EB576B"/>
<stop offset="1" stop-color="#EB576B"/>
</linearGradient>
<linearGradient id="paint22_linear_17_1528" x1="264.236" y1="166.538" x2="264.236" y2="100.101" gradientUnits="userSpaceOnUse">
<stop stop-color="#E2E2E2"/>
<stop offset="0.172749" stop-color="#E2E2E2"/>
<stop offset="1" stop-color="#A8A8A8"/>
</linearGradient>
<linearGradient id="paint23_linear_17_1528" x1="278.475" y1="169.05" x2="278.475" y2="100.101" gradientUnits="userSpaceOnUse">
<stop stop-color="#A6A6A6"/>
<stop offset="1" stop-color="#989898"/>
</linearGradient>
<linearGradient id="paint24_linear_17_1528" x1="263.046" y1="168.323" x2="265.648" y2="169.478" gradientUnits="userSpaceOnUse">
<stop stop-color="#E2E2E2"/>
<stop offset="0.439858" stop-color="#DBDBDB"/>
<stop offset="0.555015" stop-color="#D0CFCF"/>
<stop offset="0.835942" stop-color="#AFAFAF"/>
<stop offset="1" stop-color="#A7A7A7"/>
</linearGradient>
<linearGradient id="paint25_linear_17_1528" x1="304.003" y1="88.9777" x2="304.003" y2="96.6568" gradientUnits="userSpaceOnUse">
<stop stop-color="#C7C7C7"/>
<stop offset="1" stop-color="#C6C6C6"/>
</linearGradient>
<linearGradient id="paint26_linear_17_1528" x1="303.684" y1="100.348" x2="306.488" y2="99.1636" gradientUnits="userSpaceOnUse">
<stop stop-color="#999999"/>
<stop offset="0.832675" stop-color="#C6C6C6"/>
<stop offset="1" stop-color="#C6C6C6"/>
</linearGradient>
<linearGradient id="paint27_linear_17_1528" x1="298.773" y1="84.5879" x2="238.345" y2="84.5879" gradientUnits="userSpaceOnUse">
<stop stop-color="#EFEFEF"/>
<stop offset="1" stop-color="#F5F5F5"/>
</linearGradient>
<linearGradient id="paint28_linear_17_1528" x1="303.055" y1="85.3247" x2="306.341" y2="87.4814" gradientUnits="userSpaceOnUse">
<stop stop-color="#EFEFEF"/>
<stop offset="0.968594" stop-color="#C7C7C7"/>
<stop offset="1" stop-color="#C7C7C7"/>
</linearGradient>
<linearGradient id="paint29_linear_17_1528" x1="237.519" y1="88.9777" x2="237.519" y2="96.6568" gradientUnits="userSpaceOnUse">
<stop stop-color="#ECECEC"/>
<stop offset="1" stop-color="#DCDCDC"/>
</linearGradient>
<linearGradient id="paint30_linear_17_1528" x1="238.484" y1="85.3247" x2="235.198" y2="87.4814" gradientUnits="userSpaceOnUse">
<stop stop-color="#F5F5F5"/>
<stop offset="0.968594" stop-color="#EBEBEB"/>
<stop offset="1" stop-color="#EBEBEB"/>
</linearGradient>
<linearGradient id="paint31_linear_17_1528" x1="238.22" y1="100.229" x2="235.864" y2="98.7316" gradientUnits="userSpaceOnUse">
<stop stop-color="#A8A8A8"/>
<stop offset="0.627414" stop-color="#C8C8C8"/>
<stop offset="1" stop-color="#DCDCDC"/>
</linearGradient>
<linearGradient id="paint32_linear_17_1528" x1="-nan" y1="-nan" x2="-nan" y2="-nan" gradientUnits="userSpaceOnUse">
<stop stop-color="#EB576B"/>
<stop offset="1" stop-color="#EB576B"/>
</linearGradient>
<linearGradient id="paint33_linear_17_1528" x1="341.479" y1="205.172" x2="361.943" y2="205.172" gradientUnits="userSpaceOnUse">
<stop stop-color="#EB576B"/>
<stop offset="1" stop-color="#AF192C"/>
</linearGradient>
<linearGradient id="paint34_linear_17_1528" x1="-nan" y1="-nan" x2="-nan" y2="-nan" gradientUnits="userSpaceOnUse">
<stop stop-color="#AF192C"/>
<stop offset="1" stop-color="#AF192C"/>
</linearGradient>
<linearGradient id="paint35_linear_17_1528" x1="436.655" y1="205.172" x2="459.374" y2="205.172" gradientUnits="userSpaceOnUse">
<stop stop-color="#AF192C"/>
<stop offset="1" stop-color="#AF192C"/>
</linearGradient>
<linearGradient id="paint36_linear_17_1528" x1="-nan" y1="-nan" x2="-nan" y2="-nan" gradientUnits="userSpaceOnUse">
<stop stop-color="#AF192C"/>
<stop offset="1" stop-color="#AF192C"/>
</linearGradient>
<linearGradient id="paint37_linear_17_1528" x1="437.37" y1="48.8377" x2="459.374" y2="48.8377" gradientUnits="userSpaceOnUse">
<stop stop-color="#EB576B"/>
<stop offset="0.595" stop-color="#E73045"/>
<stop offset="1" stop-color="#AF192C"/>
</linearGradient>
<linearGradient id="paint38_linear_17_1528" x1="-nan" y1="-nan" x2="-nan" y2="-nan" gradientUnits="userSpaceOnUse">
<stop stop-color="#EB576B"/>
<stop offset="1" stop-color="#EB576B"/>
</linearGradient>
<linearGradient id="paint39_linear_17_1528" x1="341.479" y1="46.0291" x2="366.38" y2="46.0291" gradientUnits="userSpaceOnUse">
<stop stop-color="#EB576B"/>
<stop offset="1" stop-color="#EB576B"/>
</linearGradient>
<linearGradient id="paint40_linear_17_1528" x1="377.538" y1="168.032" x2="377.538" y2="135.154" gradientUnits="userSpaceOnUse">
<stop stop-color="#A8A8A8"/>
<stop offset="0.115829" stop-color="#B4B4B4"/>
<stop offset="0.215142" stop-color="#C2C2C2"/>
<stop offset="0.315637" stop-color="#D3D3D3"/>
<stop offset="0.354653" stop-color="#D4D4D4"/>
<stop offset="0.582837" stop-color="#D5D5D5"/>
<stop offset="0.663126" stop-color="#DDDDDD"/>
<stop offset="0.705031" stop-color="#DFDFDF"/>
<stop offset="0.747867" stop-color="#E1E1E1"/>
<stop offset="1" stop-color="#EFEFEF"/>
</linearGradient>
<linearGradient id="paint41_linear_17_1528" x1="390.04" y1="85.9227" x2="390.592" y2="89.8804" gradientUnits="userSpaceOnUse">
<stop stop-color="#EFEFEF"/>
<stop offset="0.468242" stop-color="#C0C0C0"/>
<stop offset="1" stop-color="#A8A8A8"/>
</linearGradient>
<linearGradient id="paint42_linear_17_1528" x1="393.472" y1="152.548" x2="410.224" y2="156.079" gradientUnits="userSpaceOnUse">
<stop stop-color="#A8A8A8"/>
<stop offset="0.213227" stop-color="#B4B4B4"/>
<stop offset="0.434194" stop-color="#C2C2C2"/>
<stop offset="0.5601" stop-color="#CECECE"/>
<stop offset="0.723457" stop-color="#DADADA"/>
<stop offset="1" stop-color="#E2E2E2"/>
</linearGradient>
<linearGradient id="paint43_linear_17_1528" x1="423.935" y1="154.688" x2="425.639" y2="157.431" gradientUnits="userSpaceOnUse">
<stop stop-color="#E2E2E2"/>
<stop offset="0.468242" stop-color="#C0C0C0"/>
<stop offset="1" stop-color="#A8A8A8"/>
</linearGradient>
<clipPath id="clip0_17_1528">
<rect width="373" height="180" fill="white" transform="translate(214 35)"/>
</clipPath>
</defs>
</svg>
