<svg width="800" height="250" viewBox="0 0 800 250" fill="none" xmlns="http://www.w3.org/2000/svg">
<g clip-path="url(#clip0_17_1144)">
<path d="M498.28 70.2838H445.682C444.99 70.2838 444.663 69.9167 444.481 69.2559L427.992 19L411.83 69.2559C411.684 69.9534 411.32 70.2838 410.629 70.2838H358.031L400.473 101.487C400.983 101.854 401.492 101.854 402.038 101.487C413.723 94.2187 424.206 89.0059 446.01 83.4627C426.062 99.0644 406.479 116.722 390.318 137.206C389.808 137.904 389.626 138.087 389.298 139.115L384.639 153.505L427.082 122.485C427.773 121.971 428.101 121.971 428.792 122.485L471.235 153.505L455.073 102.882C454.928 102.185 455.073 101.854 455.583 101.487L498.28 70.2838Z" fill="url(#paint0_linear_17_1144)"/>
<path d="M527.145 56.7745H541.414C550.004 56.7745 555.501 61.2531 555.501 69.0723C555.501 77.5891 550.004 83.1323 541.414 83.1323H527.145V56.7745ZM551.715 100.276C566.494 98.3669 578.688 85.5551 578.688 69.2559C578.688 48.111 564.419 36.5106 541.414 36.5106H504.286V142.933H527.145V100.276L555.501 142.896H581.964L551.715 100.276Z" fill="white"/>
<path d="M297.388 36.5106V57.472H320.575V142.896H343.798V57.472H366.985V36.5106H297.388Z" fill="white"/>
<path d="M254.436 75.6802C247.557 72.5599 244.972 69.1091 244.972 64.5938C244.972 59.381 249.268 55.0492 256.147 55.2328C262.153 55.3796 266.812 58.6835 270.088 66.5027L289.854 57.6556C284.357 43.4489 273.182 35.1524 255.164 35.1524C236.091 35.1524 222.004 47.8173 222.004 64.7773C222.004 76.3777 227.682 85.5552 241.078 92.3465L255.856 99.7986C264.082 103.984 268.05 107.067 268.05 113.124C268.05 119.695 262.736 124.394 255.856 124.394C248.467 124.394 241.769 120.209 238.675 110.885L218 116.942C222.805 134.453 237.074 144.695 255.638 144.695C275.73 144.695 291.2 131.7 291.2 112.978C291.2 98.5872 283.484 89.0426 268.669 82.3247L254.436 75.6802Z" fill="white"/>
<path d="M277.223 198.438C275.366 196.236 272.673 194.951 269.215 194.951C262.19 194.951 257.021 200.714 257.021 208.644C257.021 216.573 262.19 222.336 268.924 222.336C272.673 222.336 275.73 220.648 277.623 217.748L285.376 223.585C281.846 228.651 275.912 230.963 270.125 230.963C256.948 230.963 247.375 222.263 247.375 208.607C247.375 194.951 256.948 186.251 270.125 186.251C274.82 186.251 280.79 187.866 284.394 192.491L277.223 198.438Z" fill="white"/>
<path d="M294.076 187.389H303.358V203.247H321.412V187.389H330.694V229.935H321.412V211.544H303.358V229.935H294.076V187.389Z" fill="white"/>
<path d="M356.757 187.389H364.437L382.783 229.935H372.3L368.66 220.905H352.28L348.749 229.935H338.484L356.757 187.389ZM360.324 199.76L355.192 213.012H365.493L360.324 199.76Z" fill="white"/>
<path d="M390.609 187.389H403.24L421.185 216.94H421.294V187.389H430.576V229.935H418.418L400 199.65H399.891V229.935H390.609V187.389Z" fill="white"/>
<path d="M442.734 187.389H455.364L473.31 216.94H473.419V187.389H482.774V229.935H470.616L452.161 199.65H452.052V229.935H442.77V187.389H442.734Z" fill="white"/>
<path d="M495.222 187.389H523.869V196.052H504.504V203.981H522.814V212.645H504.504V221.309H524.961V229.972H495.222V187.389Z" fill="white"/>
<path d="M536.354 187.389H545.636V221.272H562.854V229.935H536.354V187.389Z" fill="white"/>
</g>
<defs>
<linearGradient id="paint0_linear_17_1144" x1="381.984" y1="151.176" x2="470.393" y2="46.7031" gradientUnits="userSpaceOnUse">
<stop offset="0.28" stop-color="#FA1660"/>
<stop offset="0.78" stop-color="#FF7D17"/>
</linearGradient>
<clipPath id="clip0_17_1144">
<rect width="364" height="212" fill="white" transform="translate(218 19)"/>
</clipPath>
</defs>
</svg>
