<svg width="800" height="250" viewBox="0 0 800 250" fill="none" xmlns="http://www.w3.org/2000/svg">
<g clip-path="url(#clip0_17_1717)">
<path d="M241.423 127.195C241.182 125.353 240.57 123.713 239.549 122.257C238.083 120.286 235.837 119.291 232.774 119.291C228.413 119.291 225.425 121.428 223.828 125.721C222.975 128.006 222.548 131.009 222.548 134.768C222.548 138.526 222.975 141.253 223.828 143.427C225.369 147.499 228.264 149.544 232.533 149.544C235.558 149.544 237.711 148.733 238.992 147.112C240.273 145.491 241.034 143.39 241.312 140.811H254.508C254.211 144.717 252.782 148.402 250.239 151.884C246.193 157.503 240.198 160.304 232.236 160.304C224.274 160.304 218.446 157.982 214.678 153.284C210.929 148.604 209.055 142.543 209.055 135.081C209.055 126.679 211.115 120.139 215.254 115.459C219.393 110.779 225.109 108.439 232.385 108.439C238.584 108.439 243.651 109.821 247.604 112.566C251.557 115.311 253.877 120.194 254.601 127.177L241.423 127.195ZM287.396 134.804C286.58 135.32 285.745 135.726 284.891 136.039C284.056 136.352 282.905 136.647 281.42 136.923L278.488 137.476C275.741 137.955 273.755 138.526 272.548 139.226C270.525 140.387 269.486 142.211 269.486 144.661C269.486 146.854 270.117 148.438 271.361 149.415C272.604 150.391 274.107 150.889 275.889 150.889C278.71 150.889 281.309 150.078 283.703 148.457C286.097 146.835 287.304 143.888 287.396 139.595V134.804ZM279.49 128.835C281.884 128.54 283.61 128.172 284.65 127.711C286.506 126.937 287.434 125.721 287.434 124.081C287.434 122.073 286.728 120.691 285.299 119.917C283.87 119.162 281.773 118.775 279.026 118.775C275.926 118.775 273.736 119.531 272.474 121.023C271.546 122.128 270.952 123.639 270.637 125.518H258.164C258.424 121.226 259.649 117.707 261.802 114.943C265.236 110.613 271.119 108.457 279.453 108.457C284.872 108.457 289.716 109.508 293.93 111.645C298.143 113.782 300.259 117.78 300.259 123.694V146.172C300.259 147.72 300.296 149.618 300.351 151.847C300.444 153.524 300.704 154.666 301.112 155.274C301.539 155.882 302.17 156.361 303.024 156.748V158.646H288.974C288.584 157.651 288.324 156.729 288.157 155.863C288.009 154.997 287.898 154.003 287.805 152.897C285.986 154.832 283.907 156.49 281.606 157.798C278.822 159.382 275.648 160.175 272.122 160.175C267.63 160.175 263.899 158.903 260.967 156.379C258.035 153.837 256.568 150.262 256.568 145.619C256.568 139.595 258.925 135.228 263.64 132.52C266.219 131.046 270.024 129.996 275.054 129.369L279.49 128.835ZM347.698 112.437C350.927 115.09 352.561 119.494 352.561 125.647V158.664H339.327V128.835C339.327 126.255 338.993 124.284 338.288 122.902C337.026 120.378 334.632 119.125 331.087 119.125C326.725 119.125 323.755 120.968 322.141 124.653C321.306 126.587 320.879 129.074 320.879 132.114V158.664H307.979V109.71H320.47V116.859C322.122 114.335 323.681 112.529 325.166 111.424C327.82 109.452 331.179 108.457 335.226 108.457C340.33 108.457 344.487 109.784 347.698 112.437ZM387.899 134.804C387.064 135.32 386.247 135.726 385.393 136.039C384.558 136.352 383.407 136.647 381.923 136.923L378.99 137.476C376.243 137.955 374.257 138.526 373.051 139.226C371.028 140.387 369.988 142.211 369.988 144.661C369.988 146.854 370.62 148.438 371.863 149.415C373.107 150.391 374.61 150.889 376.392 150.889C379.213 150.889 381.811 150.078 384.205 148.457C386.6 146.835 387.806 143.888 387.899 139.595V134.804ZM380.011 128.835C382.405 128.54 384.131 128.172 385.171 127.711C387.027 126.937 387.955 125.721 387.955 124.081C387.955 122.073 387.249 120.691 385.82 119.917C384.391 119.162 382.294 118.775 379.547 118.775C376.447 118.775 374.257 119.531 372.995 121.023C372.067 122.128 371.473 123.639 371.158 125.518H358.685C358.945 121.226 360.17 117.707 362.323 114.943C365.757 110.613 371.64 108.457 379.974 108.457C385.393 108.457 390.237 109.508 394.451 111.645C398.664 113.782 400.78 117.78 400.78 123.694V146.172C400.78 147.72 400.817 149.618 400.872 151.847C400.965 153.524 401.225 154.666 401.633 155.274C402.06 155.882 402.691 156.361 403.545 156.748V158.646H389.495C389.105 157.651 388.845 156.729 388.678 155.863C388.511 154.997 388.419 154.003 388.326 152.897C386.507 154.832 384.428 156.49 382.127 157.798C379.343 159.382 376.169 160.175 372.643 160.175C368.151 160.175 364.42 158.903 361.488 156.379C358.555 153.837 357.089 150.262 357.089 145.619C357.089 139.595 359.446 135.228 364.161 132.52C366.74 131.046 370.545 129.996 375.575 129.369L380.011 128.835ZM421.567 158.664H408.668V92.3361H421.567V158.664ZM430.661 92.3361H444.618V146.707H477.952V158.646H430.661V92.3361ZM481.905 92.3361H496.085V133.054C496.085 137.605 496.623 140.921 497.7 143.022C499.389 146.743 503.045 148.604 508.724 148.604C514.404 148.604 518.004 146.743 519.693 143.022C520.77 140.921 521.308 137.605 521.308 133.054V92.3361H535.488V133.091C535.488 140.129 534.393 145.619 532.184 149.562C528.083 156.766 520.25 160.359 508.706 160.359C497.162 160.359 489.311 156.766 485.19 149.562C482.982 145.619 481.887 140.147 481.887 133.091V92.3361H481.905ZM539.348 146.946L573.48 104.072H540.202V92.3361H590.815V103.464L556.238 146.946H590.908V158.646H539.348V146.946Z" fill="white"/>
<path d="M632 53.0184H168V197.982H632V53.0184ZM624.038 60.9225V190.078H175.962V60.9225H624.038Z" fill="white"/>
</g>
<defs>
<clipPath id="clip0_17_1717">
<rect width="464" height="145" fill="white" transform="translate(168 53)"/>
</clipPath>
</defs>
</svg>
