<svg width="800" height="250" viewBox="0 0 800 250" fill="none" xmlns="http://www.w3.org/2000/svg">
<g clip-path="url(#clip0_17_1233)">
<path d="M459.606 74.7639C459.606 88.5042 452.517 97.7538 441.698 105.73C441.698 105.73 433.6 111.963 429.198 114.98L463.974 156.737C464.949 155.396 476.171 142.025 476.171 142.025H562.288V104.758H476.205V78.1822L568 78.1152V38H438.203C451.744 44.9707 459.606 58.4095 459.606 74.7639ZM491.392 169.338C485.478 176.107 485.243 176.945 483.093 179.392L510.208 212H567.832V169.371L491.392 169.338ZM314.286 137.936L331.624 86.4264L348.525 137.936H314.286ZM390.357 38H301.653L232 212L290.934 212.033L302.325 179.76L357.462 179.794C355.48 173.829 354.438 167.126 354.438 159.72C354.438 136.998 370.634 122.252 385.821 112.03C378.731 103.786 368.416 91.2858 368.416 74.3282C368.416 57.9738 376.312 44.8702 390.357 38ZM418.48 90.0123C424.125 86.0243 428.526 81.2654 428.526 75.032C428.526 66.7877 423.15 60.5543 414.078 60.5543C404.502 60.5543 399.63 66.7877 399.63 75.032C399.63 81.5335 405.006 87.7669 411.122 95.0058C413.574 93.4977 418.48 90.0123 418.48 90.0123ZM387.064 160.423C387.064 175.169 400.773 188.507 415.49 188.507C425.771 188.507 433.398 185.257 441.462 178.018L404.704 133.211C394.154 140.684 387.064 147.688 387.064 160.423Z" fill="white"/>
</g>
<defs>
<clipPath id="clip0_17_1233">
<rect width="336" height="174" fill="white" transform="translate(232 38)"/>
</clipPath>
</defs>
</svg>
