<svg width="800" height="250" viewBox="0 0 800 250" fill="none" xmlns="http://www.w3.org/2000/svg">
<g clip-path="url(#clip0_17_1262)">
<path d="M222.008 25.0104V26.5151V226.01H577.999V25.0104H222.008ZM225.003 28.0199H574.984V222.98H225.003V28.0199Z" fill="white"/>
<path d="M303.966 80.2247C275.228 80.2247 266.41 98.4315 266.41 108.542H286.25C286.931 103.225 291.861 97.1022 304.647 97.1022C317.673 97.1022 322.764 105.319 322.764 115.712H313.104C280.799 115.712 262.602 124.694 262.602 144.674C262.602 158.933 276.59 171.621 294.707 171.621C306.13 171.621 318.475 166.143 322.724 162.679L323.004 169.325H342.203V120.183C342.163 95.491 332.383 80.2247 303.966 80.2247ZM315.99 131.22H322.403V136.134C322.403 146.365 313.024 153.978 298.715 153.978C289.977 153.978 283.284 151.36 283.284 145.197C283.284 136.738 289.336 131.22 315.99 131.22Z" fill="white"/>
<path d="M353.466 169.285V82.0776H384.449L400.481 145.439L416.553 82.0776H447.536V169.285H427.335V106.447L409.7 169.245H391.062L373.587 106.568V169.245H353.466V169.285Z" fill="white"/>
<path d="M519.722 136.577H539.442C536.516 153.052 521.806 171.621 498.68 171.621C469.541 171.621 456.755 146.003 456.755 126.145C456.755 99.1968 473.509 80.3052 498.519 80.3052C520.484 80.3052 535.915 96.498 539.161 115.269H519.802C517.558 108.059 510.584 98.3106 498.519 98.3106C484.932 98.3106 475.673 112.046 475.673 125.742C475.673 142.176 486.695 153.535 498.479 153.535C509.301 153.535 517.157 145.036 519.722 136.577Z" fill="white"/>
</g>
<defs>
<clipPath id="clip0_17_1262">
<rect width="356" height="201" fill="white" transform="translate(222 25)"/>
</clipPath>
</defs>
</svg>
