<svg width="800" height="250" viewBox="0 0 800 250" fill="none" xmlns="http://www.w3.org/2000/svg">
<g clip-path="url(#clip0_13_122)">
<path d="M307.2 76.3H208.8V172.3H307.2V76.3Z" fill="white"/>
<path d="M450.6 76.3H352.2V172.3H450.6V76.3Z" fill="white"/>
<path d="M591.4 76.3H493V172.3H591.4V76.3Z" fill="white"/>
<path d="M262.5 115.9C260.7 110.5 258.8 105 256.9 99.6C253.3 110.3 249.7 121.2 246.1 132.2H267.8C266.1 126.8 264.3 121.3 262.5 115.9Z" fill="#B40000"/>
<path d="M194 188.2H320.2V62H194V188.2ZM233 124.7C237.8 111.4 242.6 98 247.7 84.7H266.9C271.9 98 276.8 111.4 281.6 124.7C286.4 138 291 151.4 295.6 164.7H278.2C277.2 161.5 276.2 158.2 275.2 155C274.2 151.8 273.2 148.5 272.1 145.3H242C239.9 151.7 237.9 158.2 235.8 164.8H218.9C223.5 151.3 228.2 138 233 124.7Z" fill="#B40000"/>
<path d="M337.4 188.2H463.6V62H337.4V188.2ZM372.9 153C373.8 149.5 375.2 146.2 377.1 143.2C379.3 139.9 381.8 136.8 384.6 134C387.7 130.9 391.4 127.6 395.8 124C400.7 120 404.1 116.8 406 114.3C407.8 112.2 408.8 109.5 408.9 106.7C409 103.8 407.7 101 405.4 99.2C403.1 97.3 399.9 96.4 395.7 96.4C392 96.4 388.3 97.3 384.8 98.8C380.9 100.5 377.4 102.8 374.3 105.6L373.3 90.5C376.8 88.2 380.7 86.4 384.7 85.2C389 83.9 393.5 83.2 397.9 83.3C403 83.2 408.1 84.2 412.8 86.2C416.7 88 420 90.8 422.4 94.4C424.7 98.1 425.9 102.4 425.7 106.8C425.7 109.8 425.2 112.7 424 115.5C422.7 118.5 420.8 121.3 418.5 123.7C415.4 127 412 130 408.5 132.8C404.5 135.8 400.7 139.1 397.3 142.8C394.9 145.4 393.1 148.4 392 151.7H427.7L426.3 164.8H371.4C371.5 160.8 371.9 156.8 372.9 153Z" fill="#B40000"/>
<path d="M549.1 135.1V103.4L526.6 135.1H549.1Z" fill="#B40000"/>
<path d="M480.2 62V188.2H606.4V62H480.2ZM573.2 147.8H564.5V164.7H549V147.8H510V136.9L548.1 84.6H564.4V135.1H574.2L573.2 147.8Z" fill="#B40000"/>
</g>
<defs>
<clipPath id="clip0_13_122">
<rect width="412.4" height="126.2" fill="white" transform="translate(194 62)"/>
</clipPath>
</defs>
</svg>
