<svg width="800" height="250" viewBox="0 0 800 250" fill="none" xmlns="http://www.w3.org/2000/svg">
<g clip-path="url(#clip0_17_1208)">
<path d="M261.012 73.1664L168 165.952H214.506L226.118 154.368H307.518L284.235 131.202H249.4L284.295 96.3926L261.012 73.1664Z" fill="white"/>
<path d="M261.012 73.1664L237.789 96.3329L307.518 165.892H354.024L261.012 73.1664Z" fill="white"/>
<path d="M423.753 50L377.247 96.3926L354.024 73.2262H307.518L354.024 119.619L272.384 201H318.89L377.247 142.785L400.47 165.952H446.976L400.47 119.559L470.259 50H423.753Z" fill="white"/>
<path d="M493.542 73.1664L400.53 165.952H447.036L493.542 119.559L540.048 165.952L633 73.1664H586.494L539.988 119.559L493.542 73.1664Z" fill="white"/>
<path d="M458.647 165.952H528.376L493.542 131.202L458.647 165.952Z" fill="#E4051E"/>
<path d="M505.153 165.952H528.376L493.542 131.202L505.153 165.952Z" fill="#8C2B1D"/>
</g>
<defs>
<clipPath id="clip0_17_1208">
<rect width="465" height="151" fill="white" transform="translate(168 50)"/>
</clipPath>
</defs>
</svg>
