<svg width="800" height="250" viewBox="0 0 800 250" fill="none" xmlns="http://www.w3.org/2000/svg">
<g clip-path="url(#clip0_17_872)">
<path d="M488.408 202.748C488.408 208.778 483.608 213.682 477.608 213.763C436.088 214.245 393.768 213.843 352.408 214.004C342.488 213.924 332.648 213.763 322.728 213.682C316.728 213.682 311.928 208.698 311.928 202.668C312.008 150.812 311.928 98.7945 311.848 46.9381C311.848 40.8279 316.728 35.9236 322.808 35.9236C374.168 35.9236 426.008 36.1648 477.288 35.9236C483.288 35.9236 488.168 40.7475 488.248 46.7773C488.328 53.7719 488.328 61.2488 488.328 67.1179C487.848 106.915 488.248 163.997 488.408 202.748Z" fill="#2ECCF2"/>
<path d="M388.808 118.974C388.088 109.085 383.368 99.5984 374.488 94.3726C364.808 88.7448 349.608 88.3428 339.848 93.8902C328.488 100.242 322.488 113.025 323.768 125.728C324.968 137.546 330.728 148.802 342.888 152.58C353.928 156.037 368.568 155.877 378.328 149.204C388.488 142.45 389.608 129.989 388.808 118.974Z" fill="white"/>
<path d="M441.608 90.2723C431.688 90.5135 421.848 94.7746 416.248 103.297C410.088 112.703 409.048 127.657 414.168 137.626C420.088 149.123 432.648 155.716 445.448 154.992C457.368 154.349 468.968 149.123 473.288 137.305C477.288 126.532 477.768 112.06 471.528 102.01C465.208 91.7195 452.728 89.9507 441.608 90.2723Z" fill="white"/>
<path d="M360.248 103.056C359.528 102.895 358.888 102.814 358.248 102.814C351.688 102.091 345.048 103.618 341.208 109.568C337.608 115.196 337.128 123.637 339.208 129.828C341.608 136.983 347.688 141.968 355.368 142.289C362.008 142.531 369.848 140.44 373.288 134.491C376.248 129.426 376.408 121.306 374.808 115.678C372.968 109.005 366.888 104.422 360.248 103.056Z" fill="black"/>
<path d="M461.128 110.854C457.608 105.387 450.968 103.216 444.808 102.814C443.688 102.734 442.488 102.734 441.368 102.814C435.528 103.297 430.008 106.111 427.208 111.658C422.968 120.019 424.168 132.24 431.848 137.868C439.208 143.254 452.168 144.943 459.048 137.787C465.368 131.195 466.088 118.411 461.128 110.854Z" fill="black"/>
<path d="M400.648 162.952C400.328 162.952 400.088 162.952 399.928 162.952C399.688 162.952 399.448 162.952 399.288 162.952C399.288 162.952 399.288 162.952 399.208 162.952C398.888 162.952 398.488 162.871 398.168 162.871C397.928 162.871 397.768 162.791 397.528 162.791C397.448 162.791 397.368 162.791 397.288 162.791C391.848 161.987 389.048 159.495 389.048 159.495C388.328 158.932 387.768 158.369 387.288 157.726C386.168 156.198 385.928 154.108 386.648 152.902C387.368 151.857 388.648 151.214 390.008 151.535C390.008 151.535 390.088 151.535 390.328 151.616C390.328 151.616 390.328 151.616 390.408 151.616C390.568 151.696 390.808 151.776 391.048 151.857C391.128 151.857 391.208 151.937 391.208 151.937C391.528 152.098 391.848 152.339 392.248 152.58C392.248 152.58 392.328 152.58 392.328 152.661C392.408 152.661 392.408 152.741 392.488 152.741C392.488 152.741 392.568 152.822 392.648 152.902C393.208 153.304 394.168 154.027 395.288 154.59C396.728 155.314 398.568 155.877 400.648 155.877H400.808C402.888 155.877 404.728 155.314 406.168 154.59C407.288 154.027 408.248 153.304 408.808 152.902C408.888 152.822 408.968 152.741 408.968 152.741C409.048 152.661 409.048 152.661 409.128 152.661C409.208 152.58 409.208 152.58 409.208 152.58C409.608 152.259 409.928 152.098 410.248 151.937C410.328 151.937 410.408 151.857 410.408 151.857C410.648 151.696 410.888 151.616 411.048 151.616C411.048 151.616 411.048 151.616 411.128 151.616C411.288 151.535 411.448 151.535 411.448 151.535C412.808 151.214 414.088 151.776 414.808 152.902C415.608 154.108 415.288 156.279 414.168 157.726C413.688 158.369 413.128 158.932 412.408 159.495C412.408 159.495 409.608 161.987 404.168 162.791C404.088 162.791 404.008 162.791 403.928 162.791C403.688 162.791 403.528 162.871 403.288 162.871C402.968 162.871 402.568 162.952 402.248 162.952C402.248 162.952 402.248 162.952 402.168 162.952C401.928 162.952 401.688 162.952 401.448 162.952C401.128 162.952 400.888 162.952 400.648 162.952Z" fill="#ED1C99"/>
<path d="M207.448 127.657C215.528 123.557 219.848 111.256 216.248 102.573C213.128 95.1765 205.928 91.7194 198.408 90.5135C191.128 89.3075 182.568 89.0663 175.288 90.4331C171.448 91.1567 167.688 92.845 165.848 96.5433C163.128 102.01 163.608 109.326 163.368 115.276C163.368 115.356 163.368 115.517 163.368 115.597C163.048 122.833 163.688 129.587 163.928 136.903C164.088 142.45 164.808 149.927 169.288 153.545C172.808 156.359 177.768 156.922 181.448 154.108C185.208 151.133 185.848 144.701 185.928 140.199C185.928 139.315 185.928 138.43 185.928 137.546C189.528 141.968 192.728 146.792 196.968 150.57C197.928 151.374 198.888 152.178 199.928 152.902C204.648 156.52 211.928 156.761 215.608 151.133C219.688 144.541 211.768 131.838 207.448 127.657ZM184.808 120.18C184.968 113.346 184.808 108.201 184.728 106.191C185.368 106.03 187.368 105.95 187.688 105.95C190.568 105.95 193.928 105.869 196.008 108.121C197.208 109.407 197.688 111.095 197.768 112.784C197.848 115.678 195.688 118.572 192.728 119.376C190.088 120.1 187.848 120.1 185.128 120.1C185.128 120.18 184.808 120.18 184.808 120.18Z" fill="white"/>
<path d="M795.208 104.583C784.248 88.3428 763.128 85.5289 747.288 94.6138C733.368 102.573 727.688 123.878 735.528 138.993C740.888 149.445 753.288 155.635 764.088 155.796C770.728 155.877 777.528 154.832 783.688 151.374C799.688 142.45 804.728 119.778 795.208 104.583ZM756.888 127.577C752.808 117.286 763.448 108.523 772.488 115.276C777.048 118.813 777.128 127.094 772.568 130.873C768.008 134.652 759.448 133.124 756.888 127.577Z" fill="white"/>
<path d="M697.928 89.7899C687.608 89.3879 679.528 89.3879 669.208 89.8703C661.048 90.2723 654.408 94.6942 656.488 103.699C657.928 109.97 666.648 110.934 673.208 111.095C673.128 117.849 672.888 127.094 673.208 133.848C673.368 137.948 673.288 142.129 674.248 146.229C675.368 151.053 677.688 155.153 684.008 155.796C690.088 156.439 693.928 153.465 695.848 148.721C698.968 140.923 697.688 129.587 697.768 121.386C697.768 118.492 697.848 113.909 697.928 111.015C705.128 111.015 713.848 109.327 714.568 102.332C715.608 91.2371 706.008 90.1115 697.928 89.7899Z" fill="white"/>
<path d="M543.608 141.405C545.288 143.415 546.968 145.425 548.808 147.274C550.728 149.284 553.128 151.133 555.528 152.5C558.008 153.867 561.048 154.671 563.928 154.671C572.328 154.51 574.888 146.953 575.368 140.119C575.768 134.491 575.688 128.059 575.608 122.512C575.528 118.251 575.528 114.311 575.528 110.211C575.528 106.191 575.688 102.01 574.648 98.1513C573.688 94.6138 570.728 90.9155 567.048 89.8704C563.368 88.9056 559.208 89.5488 556.328 91.6391C551.208 95.3374 550.568 103.538 550.648 110.131C546.168 104.422 542.248 100.081 539.608 97.4277C535.528 93.3274 530.648 89.3076 524.088 89.6292C519.128 89.8704 515.848 92.7647 514.328 97.3473C512.328 103.297 512.728 113.427 512.808 121.869C512.808 127.336 512.488 132.722 512.808 138.189C513.128 142.772 513.768 147.917 516.648 151.616C519.448 155.153 522.488 156.439 527.128 156.118C530.248 155.957 532.968 154.43 534.808 151.857C538.328 146.792 538.328 139.717 538.008 133.928C537.928 133.767 541.368 138.591 543.608 141.405Z" fill="white"/>
<path d="M292.328 96.6237C291.368 94.855 289.848 93.3274 288.008 92.2823C283.528 89.7095 277.928 89.6291 272.888 89.6291C265.368 89.6291 258.568 89.3075 251.048 89.6291C249.368 89.7095 246.728 89.9507 244.888 90.5939C239.368 92.5234 236.408 97.8297 238.168 104.101C239.608 109.085 244.888 110.613 249.608 111.417C250.808 111.658 253.128 111.738 254.328 111.819C254.408 120.904 253.848 133.607 254.808 142.691C255.608 149.847 258.728 156.279 267.688 155.957C270.168 155.877 272.328 154.349 273.768 152.42C276.728 148.4 276.728 143.576 276.968 138.993C277.048 137.064 277.528 111.819 277.528 111.819C280.408 111.819 282.168 111.658 284.648 111.256C287.608 110.693 290.488 109.809 292.088 107.156C294.168 103.859 294.088 99.8396 292.328 96.6237Z" fill="white"/>
<path d="M40.088 131.034C38.808 131.597 37.528 132.24 36.168 132.642C33.128 133.526 30.168 133.044 27.768 130.953C25.528 128.944 24.328 125.245 24.328 122.753C24.408 119.135 25.928 115.276 29.128 113.346C30.648 112.462 32.408 111.98 34.168 112.14C36.568 112.301 38.248 113.427 40.408 114.231C44.328 115.758 49.528 115.356 52.488 113.346C55.848 111.015 57.448 108.442 57.208 103.618C57.048 99.7592 54.648 96.3825 51.768 94.2922C48.648 92.0411 44.808 90.3527 41.048 89.7899C39.288 89.4684 37.448 89.388 35.608 89.3076C25.128 89.2272 14.728 93.0862 7.84801 101.287C-0.31199 111.095 -2.55198 126.773 3.20802 138.35C7.04802 145.988 14.008 152.018 22.168 154.51C28.808 156.52 35.928 156.761 42.648 155.234C48.248 153.947 53.768 151.294 56.248 145.747C57.368 143.174 57.848 140.199 57.128 137.466C55.448 130.873 48.968 129.506 44.008 130.149C42.568 130.149 41.288 130.471 40.088 131.034Z" fill="white"/>
<path d="M125.688 103.056C123.048 97.4277 118.968 88.986 110.888 88.6644C110.088 88.6644 109.448 88.6644 109.368 88.6644C102.168 88.9056 98.328 95.4178 95.528 101.046C94.808 102.412 94.088 103.859 93.368 105.226C90.488 110.452 88.008 115.919 85.608 121.386C82.968 127.577 80.168 133.848 78.008 140.28C77.448 142.048 77.128 143.978 77.288 145.827C77.528 149.686 78.568 152.822 82.008 154.912C84.728 156.52 88.088 157.083 91.128 156.279C96.088 154.992 98.488 150.57 100.168 145.184C102.728 145.184 107.128 145.184 109.688 145.264H110.648C113.128 145.264 117.608 145.264 120.088 145.184C120.248 145.747 120.488 146.39 120.728 146.953C122.328 151.535 124.728 155.153 129.128 156.279C130.088 156.52 131.128 156.681 132.088 156.681H132.248C135.048 156.681 137.768 155.475 139.848 153.626C139.928 153.545 140.008 153.465 140.088 153.465C141.128 152.5 141.928 151.455 142.408 150.168C142.888 148.882 143.048 147.515 143.208 146.229C143.448 143.415 142.808 140.682 141.368 137.546L137.608 128.863C133.928 120.1 129.928 111.497 125.688 103.056ZM110.168 127.738C107.368 127.738 107.048 127.738 103.128 127.657C104.808 122.914 108.488 114.552 110.168 111.578C112.248 115.598 115.688 123.798 117.208 127.657C113.288 127.738 112.968 127.738 110.168 127.738Z" fill="white"/>
<path d="M626.888 94.051C624.888 91.3979 621.448 89.3076 617.528 89.4683C613.688 89.6291 610.568 91.1567 608.168 94.051C604.728 98.2317 604.408 104.422 604.008 109.487C603.608 115.437 603.768 121.547 603.768 127.577C603.768 133.365 603.368 139.395 604.648 145.103C606.328 152.902 615.448 159.012 623.688 153.947C632.408 148.56 631.048 136.903 631.288 128.3C631.448 122.351 631.288 117.045 631.288 111.417C631.128 106.352 630.488 98.8749 626.888 94.051Z" fill="white"/>
</g>
<defs>
<clipPath id="clip0_17_872">
<rect width="800" height="178" fill="white" transform="translate(0 36)"/>
</clipPath>
</defs>
</svg>
