<svg width="800" height="250" viewBox="0 0 800 250" fill="none" xmlns="http://www.w3.org/2000/svg">
<g clip-path="url(#clip0_17_1072)">
<path d="M240.823 86.9551C251.623 82.7865 264.066 83.1975 274.514 88.1881C281.674 91.5934 288.013 96.9363 292.298 103.688C286.37 107.446 280.618 111.38 274.748 115.196C272.518 111.908 269.583 109.031 265.944 107.27C259.253 103.864 250.86 104.275 244.58 108.385C237.302 112.906 233.252 121.889 234.484 130.344C235.365 137.213 239.649 143.554 245.754 146.901C251.623 150.189 259.018 150.482 265.123 147.723C268.996 146.02 272.166 143.084 274.572 139.62C280.618 143.143 286.722 146.725 292.767 150.306C285.959 161.227 274.044 168.742 261.249 170.151C256.377 171.149 251.447 170.268 246.634 169.329C236.949 167.157 228.087 161.462 222.041 153.535C216.7 146.666 213.648 138.094 213.12 129.404V124.766C213.707 117.897 215.585 111.086 219.224 105.156C224.096 96.9363 231.843 90.3605 240.823 86.9551Z" fill="white"/>
<path d="M475.188 90.0669C483.816 84.9002 494.322 83.0214 504.241 84.7241C516.215 86.6616 527.191 94.0007 533.588 104.275C531.006 105.978 528.365 107.681 525.841 109.442C521.732 102.69 515.276 97.3473 507.763 94.8227C499.605 92.0045 490.39 92.5916 482.642 96.4079C475.247 99.9894 469.26 106.389 466.09 113.963C462.451 122.594 462.569 132.751 466.325 141.323C469.788 149.249 476.303 155.766 484.286 159.054C492.561 162.518 502.246 162.46 510.404 158.82C516.626 156.119 521.908 151.422 525.547 145.668C528.247 147.194 530.889 148.78 533.588 150.365C529.01 157.645 522.202 163.458 514.337 166.922C508.937 169.329 503.009 170.386 497.14 170.738C489.803 170.327 482.407 168.683 475.951 164.984C467.675 160.346 461.043 153.007 457.345 144.259C453.471 135.276 452.826 125.001 455.526 115.607C458.519 104.921 465.738 95.6446 475.188 90.0669Z" fill="white"/>
<path d="M294.352 85.8396C301.571 85.8983 308.791 85.7809 316.01 85.8983C315.951 113.493 316.01 141.088 315.951 168.742C308.732 168.742 301.513 168.742 294.352 168.742C294.352 141.088 294.352 113.435 294.352 85.8396Z" fill="white"/>
<path d="M324.051 85.7809C329.275 85.7809 334.44 85.7809 339.664 85.7809C349.348 99.5784 358.974 113.376 368.717 127.115C368.776 113.317 368.717 99.5197 368.717 85.7809C375.937 85.7809 383.097 85.7809 390.317 85.7809C390.375 113.435 390.434 141.088 390.258 168.742C384.975 168.683 379.693 168.742 374.411 168.742C373.589 168.859 373.354 167.979 372.885 167.509C363.787 154.886 354.865 142.145 345.592 129.639C345.474 142.674 345.592 155.708 345.533 168.742C338.373 168.742 331.153 168.742 323.934 168.742C324.051 141.088 324.051 113.435 324.051 85.7809Z" fill="white"/>
<path d="M397.947 85.7809C415.496 85.8396 433.104 85.7809 450.654 85.7809C450.654 92.5916 450.654 99.4022 450.654 106.213C440.265 106.33 429.876 106.213 419.487 106.272C419.487 109.794 419.487 113.258 419.487 116.781C429.113 116.781 438.68 116.781 448.306 116.781C448.306 123.533 448.306 130.285 448.306 137.037C438.68 137.037 429.113 137.037 419.487 137.037C419.487 140.853 419.487 144.611 419.487 148.427C429.876 148.427 440.265 148.427 450.654 148.427C450.654 155.179 450.654 161.931 450.654 168.683C433.046 168.683 415.438 168.683 397.888 168.683C397.888 141.03 397.771 113.435 397.947 85.7809Z" fill="white"/>
<path d="M563.64 85.8396C566.809 85.8396 569.979 85.8396 573.148 85.8396C582.128 109.912 591.167 134.043 600.147 158.115C601.38 161.638 602.906 165.16 604.021 168.742C600.969 168.742 597.917 168.742 594.865 168.742C592.341 161.99 589.817 155.297 587.352 148.545C574.733 148.486 562.114 148.545 549.494 148.545C546.971 155.297 544.447 162.049 541.923 168.801C538.812 168.801 535.76 168.801 532.649 168.801C542.979 141.088 553.31 113.435 563.64 85.8396ZM566.692 102.397C561.938 115.137 557.183 127.878 552.37 140.619C563.053 140.677 573.735 140.677 584.359 140.619C579.017 126.41 573.676 112.202 568.453 97.9344C567.69 99.4022 567.279 100.929 566.692 102.397Z" fill="white"/>
<path d="M609.303 85.7809C611.534 85.7809 613.823 85.7809 616.053 85.8396C631.49 107.857 647.044 129.757 662.48 151.774C662.539 129.757 662.421 107.798 662.539 85.7809C665.591 85.8396 668.702 85.7809 671.754 85.7809C671.754 113.435 671.754 141.03 671.754 168.683C668.819 168.683 665.943 168.683 663.008 168.683C648.218 147.077 633.368 125.412 618.518 103.806C618.518 125.412 618.518 147.077 618.518 168.683C615.466 168.683 612.356 168.683 609.303 168.683C609.303 141.088 609.303 113.435 609.303 85.7809Z" fill="white"/>
<path d="M707.322 85.7809C710.492 85.8396 713.661 85.7222 716.831 85.8396C727.102 113.493 737.491 141.088 747.762 168.683C744.71 168.683 741.6 168.683 738.547 168.683C736.024 161.99 733.441 155.297 731.035 148.545C718.415 148.369 705.738 148.486 693.118 148.486C690.595 155.238 688.071 161.931 685.606 168.683C682.495 168.801 679.384 168.683 676.332 168.742C686.662 141.088 696.992 113.435 707.322 85.7809ZM711.372 99.6958C706.266 113.376 701.159 126.997 696.053 140.677C706.735 140.677 717.418 140.677 728.1 140.677C722.759 126.528 717.418 112.378 712.253 98.1693C711.842 98.5803 711.548 99.1087 711.372 99.6958Z" fill="white"/>
<path d="M753.28 85.8396C756.39 85.8396 759.443 85.8396 762.553 85.8396C762.553 110.91 762.553 135.922 762.553 160.992C775.055 160.992 787.557 160.992 800 160.992V168.742C784.387 168.742 768.834 168.742 753.221 168.742C753.221 141.088 753.221 113.435 753.28 85.8396Z" fill="white"/>
<path d="M90.5082 32H98.5492C118.505 32.9981 138.109 40.3959 153.604 53.1366C169.628 66.1708 181.19 84.6066 185.768 104.745C190.581 125.529 187.94 147.958 178.314 167.039C169.217 185.358 153.956 200.506 135.585 209.489C116.275 219.059 93.5603 221.525 72.6065 216.358C57.8157 212.776 43.9639 205.437 32.636 195.339C18.6668 183.009 8.45411 166.393 3.93468 148.251C-0.702138 129.933 0.413046 110.205 7.10415 92.5328C13.8539 74.4493 26.5318 58.6556 42.614 47.8524C56.7005 38.2823 73.4869 32.8807 90.5082 32ZM67.6176 95.1749C60.8678 101.751 56.3483 110.616 55.1744 120.01C53.9419 129.463 55.9375 139.327 60.9264 147.429C66.0915 155.943 74.25 162.577 83.6997 165.748C91.0364 168.272 99.0188 168.683 106.59 166.981C117.155 164.632 126.781 158.056 132.709 148.956C126.898 145.55 121.264 141.91 115.453 138.564C110.405 145.668 101.014 149.308 92.5038 147.312C85.4605 145.785 79.415 140.677 76.6564 134.043C74.1326 128.171 74.426 121.185 77.302 115.489C81.0584 107.916 89.3343 102.808 97.7862 103.101C104.947 103.16 111.873 107.035 115.864 112.965C121.616 109.501 127.368 106.037 133.061 102.514C125.372 90.5366 111.403 82.7278 97.1406 82.9626C86.2235 82.9626 75.3651 87.4835 67.6176 95.1749Z" fill="white"/>
</g>
<defs>
<clipPath id="clip0_17_1072">
<rect width="799" height="187" fill="white" transform="translate(1 32)"/>
</clipPath>
</defs>
</svg>
