<svg width="800" height="250" viewBox="0 0 800 250" fill="none" xmlns="http://www.w3.org/2000/svg">
<g clip-path="url(#clip0_13_90)">
<path d="M595.635 186.842H204.452C196.619 186.842 190.164 180.48 190.164 172.57V78.4299C190.164 70.5204 196.533 64.1584 204.452 64.1584H595.635C603.467 64.1584 609.922 70.5204 609.922 78.4299V172.656C609.922 180.48 603.467 186.842 595.635 186.842Z" fill="#C12227" stroke="white" stroke-width="11.9767" stroke-miterlimit="10"/>
<path d="M355.009 95.629C359.317 95.4441 362.969 98.3441 363.248 102.219C363.229 103.336 363.036 104.537 362.417 105.473C361.444 107.004 360.131 108.272 358.651 109.279C356.739 110.278 354.576 110.93 352.335 111.064C351.217 111.045 351.736 110.881 351.737 110.795C351.745 110.366 351.752 109.936 351.762 109.334C351.6 108.729 351.179 108.206 350.668 107.853C350.499 107.678 350.327 107.676 350.156 107.587C349.644 107.32 349.22 106.969 348.883 106.533L348.711 106.53C347.611 105.393 347.033 103.922 346.888 102.371C347.127 98.4193 350.707 95.4701 355.009 95.629Z" fill="white"/>
<path d="M463.638 96.8717C466.998 96.7567 469.975 98.8712 470.787 101.723C471.327 105.43 468.425 108.993 464.193 109.781C463.587 109.943 462.725 110.014 462.123 110.004C458.763 110.119 455.786 108.004 454.974 105.153C454.434 101.446 457.336 97.8828 461.568 97.0946C462.175 96.8469 462.863 96.8586 463.638 96.8717Z" fill="white"/>
<path d="M583.865 134.943C584.037 134.946 585.586 134.973 583.122 138.113C580.658 141.254 574.42 148.63 568.952 151.204C565.394 152.864 561.503 153.83 557.541 153.935C556.939 153.924 556.078 153.91 555.479 153.728C552.732 153.251 550.344 151.92 549.003 149.747C548.504 148.707 548.265 147.585 548.284 146.467C547.17 146.19 546.652 146.267 546.214 146.69C545.078 147.703 538.37 152.319 532.342 152.389C525.633 152.017 522.488 149.642 521.059 147.639C520.144 145.731 519.4 143.913 518.919 141.84C518.75 141.665 518.754 141.407 518.324 141.4C517.721 141.39 516.509 141.799 514.07 143.478C509.718 146.243 498.915 153.714 488.326 153.706C487.81 153.698 487.379 153.69 486.691 153.679C476.888 152.996 473.431 148.723 472.083 146.98C470.828 144.809 469.921 142.471 469.357 140.225C469.192 139.793 468.765 139.613 468.248 139.605C467.643 139.766 466.778 140.01 466.426 140.434C464.156 142.287 450.497 150.656 446.602 151.88C444.696 152.536 442.539 152.844 440.472 152.895C437.545 152.845 435.061 152.115 434.158 149.519C433.259 146.752 433.651 143.92 435.244 141.367C435.869 140.087 437.386 136.931 436.611 136.918C434.349 138.341 422.244 151.467 411.112 152.999C409.214 153.224 407.232 153.363 405.335 153.503C400.343 153.418 397.783 152.084 396.716 149.056C395.146 145.159 398.337 139.795 399.485 138.094C400.633 136.393 407.638 124.471 407.906 123.873C407.909 123.702 408.887 121.912 407.596 121.89C406.99 122.052 406.125 122.295 405.688 122.718C401.773 125.06 392.154 133.841 389.517 136.979C385.387 141.897 381.595 147.165 378.317 152.614C377.961 153.296 377.176 153.885 376.399 154.044C375.882 154.035 374.333 154.009 372.264 154.146C368.133 154.076 362.622 154.154 362.278 154.148C362.105 154.145 361.764 153.968 362.651 152.434C363.63 150.559 372.456 132.819 372.987 131.968C373.162 131.799 374.684 128.384 373.565 128.365C371.309 129.359 368.342 131.717 366.954 132.296C365.135 132.953 363.404 133.525 361.589 133.925C360.984 134.086 358.601 137.486 357.456 139.015C356.311 140.544 347.067 152.514 337.577 153.643C336.111 153.79 334.647 153.852 333.097 153.825C326.811 153.891 324.003 151.951 322.567 150.378C321.136 148.462 320.226 146.296 320.09 144.144C319.937 143.023 320.146 140.876 320.146 140.876C320.146 140.876 319.813 140.183 319.209 140.258C317.906 140.924 304.036 151.612 297.803 153.571C295.032 154.556 292.183 155.023 289.253 155.146C286.064 155.35 282.997 153.491 282.1 150.552C280.14 144.326 284.732 137.523 287.72 133.962C290.708 130.4 294.586 125.133 294.762 124.878C294.765 124.706 296.08 123.352 294.795 122.987C294.281 122.806 293.679 122.796 293.162 122.787C292.646 122.778 292.215 122.771 291.696 122.934C291.521 123.103 288.629 126.064 283.373 131.394C278.117 136.723 261.84 152.186 246.82 154.512C243.883 155.064 240.867 155.271 237.94 155.221C228.298 155.23 222.152 152.115 218.183 147.575C213.117 141.727 215.618 131.362 219.758 125.842C224.341 119.641 234.679 109.152 248.497 106.634C251.261 106.079 253.934 105.866 256.688 105.913C264.523 105.874 268.177 108.688 269.609 110.518C272.537 115.556 271.14 121.725 266.259 125.255C259.1 131.068 254.871 131.684 250.568 131.611C245.576 131.527 242.949 129.074 242.457 127.603C241.888 125.615 242.355 123.473 244.016 122.039C245.683 120.175 248.281 119.273 250.777 119.316C251.122 119.321 251.552 119.329 251.896 119.335C253.793 119.195 255.41 120.254 256.16 121.729C256.493 122.423 256.482 123.025 256.647 123.458C257.594 123.474 258.458 123.316 259.239 122.899C259.415 122.73 263.329 120.389 263.377 117.551C263.612 113.857 259.599 111.897 256.07 111.837C255.296 111.824 254.432 111.981 253.828 112.057C249.765 113.02 238.169 116.521 233.351 126.417C228.534 136.312 234.211 141.655 237.721 142.832C238.835 143.109 240.123 143.303 241.242 143.322C247.184 143.251 258.414 141.033 270.183 132.46C285.005 121.53 286.561 121.127 286.166 119.056C285.683 117.07 285.31 113.709 286.635 111.753C287.96 109.797 290.219 108.546 292.804 108.418C293.579 108.431 294.437 108.617 295.035 108.885C298.365 110.49 299.275 112.656 300.209 113.446C300.721 113.712 300.804 113.886 301.148 113.892C301.668 113.728 302.272 113.653 302.794 113.317C304.267 112.74 305.738 112.335 307.287 112.362C308.406 112.381 309.52 112.657 310.285 113.273C313.005 115.297 313.893 118.752 312.723 121.743C311.366 125.59 307.417 129.995 305.131 132.795C302.845 135.594 299.842 140.016 299.645 141.475C299.623 142.764 299.935 144.662 301.485 144.688C301.829 144.694 302.087 144.698 302.434 144.532C305.031 143.716 314.966 136.66 318.727 133.198C321.521 130.923 323.802 128.381 325.916 125.579C327.593 123.199 335.558 115.507 343.32 114.693C344.787 114.546 346.251 114.485 347.628 114.508C353.054 114.428 357.249 115.789 358.772 117.363C360.381 118.939 361.464 121.021 361.512 123.258C361.655 124.981 361.301 125.577 361.982 126.019C362.323 126.196 362.581 126.201 363.098 126.21C366.029 126.001 368.545 124.84 370.726 123.157C373.338 121.481 375.609 119.541 377.71 117.513C378.848 116.414 379.815 115.226 380.784 113.952L397.143 113.886C397.143 113.886 398.775 114.086 398.588 114.943C397.425 117.503 396.263 120.064 394.758 122.446C394.23 123.125 393.959 123.895 393.944 124.755C394.888 124.943 396.014 124.532 396.544 123.767C397.51 122.665 408.768 113.739 414.197 113.401C414.8 113.411 415.663 113.254 416.266 113.264C421.086 113.346 426.063 114.291 426.269 117.39C426.379 121.005 422.557 128.078 420.257 131.652C418.402 134.458 416.801 137.442 415.115 140.423C414.308 142.302 413.761 144.099 414.701 144.459C416.423 144.488 422.585 141.582 427.043 137.615C431.761 133.567 442.081 124.109 444.988 120.288C447.894 116.467 450.609 113.761 451.818 113.523C452.335 113.532 453.715 113.384 455.694 113.417C459.395 113.48 464.215 113.562 464.473 113.566C464.645 113.569 467.052 113.782 466.076 115.485C465.1 117.189 454.114 135.408 453.496 136.344C453.321 136.513 451.637 139.323 451.966 140.188C452.127 140.879 452.457 141.745 453.834 141.768C454.608 141.781 455.473 141.538 456.082 141.204C460.948 138.535 465.478 135.429 469.754 132.061C471.244 130.538 477.51 121.528 483.681 118.106C489.678 114.768 494.174 113.64 498.564 113.714C500.027 113.739 501.573 113.937 503.035 114.048C508.615 115.003 514.308 119.4 514.395 124.39C514.659 129.125 510.679 135.336 503.433 136.159C502.655 136.318 501.795 136.303 501.192 136.293C495.767 136.373 493.4 133.839 492.942 130.391C492.487 126.771 496.386 125.289 497.68 125.138C499.577 124.999 501.721 125.465 503.078 126.692C503.584 127.303 504.182 127.571 504.957 127.584C505.301 127.59 505.734 127.425 506.08 127.345C507.988 126.517 509.057 124.385 508.054 122.648C507.886 122.387 507.548 122.038 507.466 121.778C505.597 120.284 503.027 119.553 500.442 119.681C498.721 119.652 496.906 120.051 495.26 120.625C490.581 122.438 485.171 126.646 483.537 131.607C481.817 136.566 481.667 145.337 489.317 146.069C490.092 146.082 491.035 146.27 491.896 146.284C498.011 146.13 503.981 144.425 509.201 141.245C512.417 139.408 515.38 137.308 518.343 135.208C518.526 134.609 522.26 122.631 534.243 116.642C539.103 114.316 544.379 112.943 550.059 113.04C551.694 113.068 553.244 113.094 554.702 113.377C556.758 114.014 558.543 115.334 559.811 116.732C560.571 117.605 561.507 118.223 562.794 118.502C564.434 118.272 564.126 116.117 564.139 115.343C564.154 114.483 564.505 114.059 567.088 114.103C567.432 114.109 567.69 114.113 568.034 114.119C568.981 114.135 571.563 114.179 573.973 114.22C576.899 114.269 579.57 114.143 579.742 114.145C579.915 114.148 581.808 114.181 579.866 116.986C577.749 119.96 566.747 139.125 565.768 141.001C564.789 142.876 563.297 144.571 563.787 146.128C563.944 146.991 564.709 147.606 565.656 147.622C566.172 147.63 566.605 147.466 567.126 147.217C570.171 145.376 572.789 143.27 575.074 140.557C576.566 138.862 578.081 135.877 578.688 135.63C579.982 135.48 581.274 135.415 582.393 135.434C583.092 134.844 583.866 134.857 583.865 134.943ZM550.946 136.793C556.46 131.468 558.394 124.104 555.093 120.78C553.993 119.643 552.199 118.839 550.474 118.981C547.118 118.924 542.779 120.915 539.276 124.382C533.762 129.707 531.828 137.071 535.129 140.395C536.229 141.532 538.023 142.336 539.748 142.194C543.19 142.252 547.357 140.259 550.946 136.793ZM352.978 134.037C353.162 133.352 352.057 132.473 351.296 131.686C350.027 130.374 349.623 128.819 349.737 127.187C350.121 124.871 351.104 122.738 352.598 120.957C353.126 120.278 352.44 120.094 351.494 120.078C350.547 120.062 349.597 120.218 348.56 120.458C345.356 121.522 342.401 123.192 340.121 125.648C334.259 131.139 331.901 138.152 334.687 141.381C335.616 142.429 337.243 142.973 338.707 142.911C342.064 142.968 346.576 140.895 350.515 137.091L350.69 136.922C351.039 136.67 351.304 136.244 351.482 135.903C352.353 135.316 352.88 134.723 352.978 134.037Z" fill="white"/>
</g>
<defs>
<clipPath id="clip0_13_90">
<rect width="430" height="133" fill="white" transform="translate(185 59)"/>
</clipPath>
</defs>
</svg>
