<svg width="800" height="250" viewBox="0 0 800 250" fill="none" xmlns="http://www.w3.org/2000/svg">
<path d="M634.673 93.2733C634.649 81.181 634.616 69.0887 634.69 57.0005C649.97 56.943 665.198 62.1032 677.344 71.3488C687.708 79.2162 695.805 90.0574 700.216 102.301C705.478 116.748 705.499 133.024 700.27 147.488C695.628 160.474 686.833 171.89 675.594 179.872C663.756 188.338 649.223 192.924 634.673 192.899C634.636 180.893 634.644 168.883 634.669 156.877C622.81 156.823 610.947 156.856 599.092 156.86C598.706 151.13 599.026 145.359 599.026 139.612C599.026 124.164 599.026 108.721 599.026 93.2733C610.91 93.2733 622.789 93.2733 634.673 93.2733ZM634.92 93.2897C634.916 114.304 634.936 135.317 634.911 156.335C642.511 156.409 650.11 153.624 655.824 148.616C661.373 143.825 665.128 137.024 666.221 129.78C667.519 121.576 665.42 112.897 660.462 106.223C657.233 101.916 652.953 98.1996 647.925 96.1897C648.122 95.4186 646.75 95.0207 646.245 95.4678C642.712 93.8927 638.769 93.3758 634.92 93.2897Z" fill="#0094FF"/>
<path d="M300.586 84.7086C309.41 81.8989 319.145 82.0629 327.866 85.1762C335.182 87.7604 341.75 92.4037 346.618 98.4376C350.693 103.393 353.416 109.336 354.957 115.538C354.854 105.714 354.952 95.8903 354.907 86.0664C366.064 85.8736 377.225 86.1853 388.381 86.091C396.983 85.8818 405.441 89.918 410.982 96.4359C411.015 92.9657 410.929 89.4955 411.031 86.0294C440.094 85.9679 469.152 86.1443 498.214 86.0869C498.855 87.785 499.561 89.4873 499.886 91.2839L499.656 91.9607C499.824 92.211 500.001 92.4612 500.186 92.7114C500.354 93.6917 500.58 94.7008 501.237 95.4842C502.412 98.4704 503.217 101.612 504.281 104.648C506.931 112.601 509.568 120.559 512.287 128.488C516.769 114.349 521.295 100.226 525.793 86.091C533.828 86.0664 541.863 86.1607 549.898 86.0417C549.61 86.735 549.154 87.342 548.862 88.0311C548.924 88.1665 549.047 88.4413 549.105 88.5808L549.203 88.8023C548.719 89.8934 548.361 91.0337 548.008 92.1699C548 92.1904 547.987 92.2274 547.983 92.2438C540.224 115.747 532.748 139.341 525.165 162.898C516.058 162.722 506.947 162.911 497.84 162.796C489.793 138.611 481.836 114.394 473.613 90.2667C473.65 95.5089 473.621 100.747 473.629 105.989C467.8 106.001 461.967 105.965 456.138 106.001C454.2 106.375 452.224 106.231 450.26 106.301C451.87 107.224 453.501 108.134 455.235 108.819C455.231 126.818 455.259 144.817 455.218 162.812C446.543 162.788 437.867 162.8 429.192 162.808C429.167 143.87 429.187 124.927 429.179 105.989C424.254 105.989 419.329 105.989 414.404 105.989C414.86 110.091 414.942 114.357 413.492 118.282C412.054 122.77 409.142 126.617 405.658 129.731C412.946 140.818 420.204 151.926 427.507 163.001C418.047 162.948 408.575 163.12 399.123 162.919C393.335 153.993 387.49 145.092 381.69 136.171C380.991 136.154 380.297 136.138 379.607 136.126C379.611 145.072 379.587 154.018 379.619 162.96C371.383 163.063 363.147 162.976 354.915 163.005C354.957 153.124 354.829 143.242 354.981 133.365C353.396 139.542 350.721 145.49 346.647 150.437C341.997 156.2 335.81 160.708 328.889 163.358C319.322 167.05 308.416 167.132 298.791 163.588C286.604 159.162 276.647 148.866 272.872 136.45C271.906 133.262 271.368 129.956 271.183 126.634C270.378 127.237 269.614 127.889 268.899 128.595C267.384 129.517 266.081 130.732 264.59 131.683C261.522 133.693 258.03 135.034 254.424 135.674C249.7 136.528 244.877 136.429 240.104 136.302C240.104 145.203 240.104 154.104 240.104 163.005C214.566 163.005 189.033 163.005 163.495 163.005C163.487 155.113 163.507 147.225 163.487 139.333C159.954 147.968 153.246 155.265 144.874 159.42C140.508 161.606 135.726 162.964 130.855 163.366C127.1 163.813 123.313 163.555 119.542 163.62C119.538 155.962 119.542 148.308 119.542 140.65C111.405 140.658 103.263 140.629 95.1255 140.666C95.068 128.287 95.1132 115.903 95.105 103.524C94.916 97.691 95.0475 91.85 95.0105 86.013C104.208 86.0089 113.409 86.013 122.61 86.013C127.552 86.0664 132.563 86.1812 137.365 87.4774C147.212 90.0206 155.904 96.6328 161.005 105.411C161.893 106.834 162.455 108.442 163.482 109.779C163.54 101.854 163.425 93.9214 163.544 85.9966C179.687 86.0458 195.831 85.972 211.978 86.0335C211.954 92.9616 211.974 99.8855 211.966 106.809C204.437 106.814 196.903 106.805 189.374 106.809C189.374 109.135 189.374 111.457 189.374 113.783C195.33 113.783 201.286 113.783 207.242 113.783C207.242 120.891 207.242 128.004 207.242 135.112C201.286 135.112 195.33 135.112 189.374 135.112C189.374 137.368 189.374 139.624 189.374 141.88C198.135 141.88 206.901 141.88 215.663 141.88C215.655 123.225 215.679 104.57 215.647 85.9146C227.506 85.8736 239.361 85.8818 251.22 85.9064C256.716 86.5627 262.442 87.6579 266.985 91.0296C271.191 94.1306 274.506 98.2899 277.312 102.658C282.738 94.2701 290.999 87.6743 300.586 84.7086ZM235.039 104.422C236.707 105.279 238.354 106.19 240.063 106.974C240.158 110.538 240.075 114.111 240.104 117.679C242.832 117.569 245.613 117.958 248.299 117.351C252.111 116.396 254.333 111.551 252.374 108.093C251.257 105.829 248.788 104.484 246.307 104.435C242.552 104.393 238.794 104.43 235.039 104.422ZM373.647 104.414C375.421 105.333 377.2 106.248 378.979 107.162C378.97 110.632 378.974 114.099 378.974 117.569C382.786 117.565 387.486 118.508 390.386 115.374C392.579 113.491 392.842 109.943 391.248 107.609C389.848 105.911 387.835 104.508 385.567 104.459C381.595 104.357 377.619 104.455 373.647 104.414ZM309.771 107.523C305.162 108.627 301.281 112.002 299.219 116.219C295.793 123.073 297.083 132.102 302.686 137.438C305.848 140.543 310.404 142.217 314.832 141.692C319.166 141.249 323.15 138.747 325.672 135.235C329.304 130.243 330.047 123.402 327.85 117.667C326.375 113.77 323.426 110.419 319.659 108.598C316.619 107.113 313.062 106.723 309.771 107.523ZM114.485 108.311C116.165 109.23 117.895 110.046 119.567 110.985C119.513 120.805 119.558 130.625 119.542 140.441C121.267 140.445 123.005 140.51 124.718 140.252C129.129 139.678 133.356 137.233 135.788 133.476C137.653 130.453 138.889 126.855 138.355 123.27C137.838 119.874 136.733 116.428 134.478 113.77C132.403 111.432 129.487 110.095 126.632 108.967C122.701 107.687 118.527 108.52 114.485 108.311Z" fill="#0094FF"/>
</svg>
