<svg width="800" height="250" viewBox="0 0 800 250" fill="none" xmlns="http://www.w3.org/2000/svg">
<path fill-rule="evenodd" clip-rule="evenodd" d="M496.528 205.903L503.125 220.486L509.028 205.903H518.056L501.389 243.403H492.708L498.958 229.514L487.5 205.903H496.528ZM340.625 204.861C348.611 204.861 351.042 209.722 351.389 212.847L344.444 214.236C344.097 212.5 343.056 210.764 340.625 210.764C338.889 210.764 337.847 211.806 337.847 213.194C337.847 214.236 338.889 214.931 339.931 215.278L343.403 215.972C348.958 217.014 351.736 220.486 351.736 224.653C351.736 229.167 348.264 233.681 340.972 233.681C332.639 233.681 329.861 228.125 329.514 225.347L336.458 223.958C336.458 226.042 337.847 227.778 340.625 227.778C342.708 227.778 343.75 226.736 343.75 225.347C343.75 224.306 343.056 223.611 340.972 223.264L338.194 222.222C332.292 220.833 330.208 217.708 330.208 213.889C330.208 209.028 334.375 204.861 340.625 204.861ZM368.056 204.861C375.347 204.861 379.861 209.375 380.903 214.236L373.611 216.319C372.917 213.889 370.833 212.153 368.056 212.153C364.583 212.153 361.806 214.583 361.806 218.75C361.806 222.917 364.583 225.347 368.056 225.347C371.181 225.347 373.264 223.264 373.611 221.181L380.903 223.264C379.167 229.167 373.958 232.986 368.056 232.639C364.236 232.639 360.417 231.25 357.639 228.472C354.861 225.694 353.472 222.222 353.472 218.403C353.819 210.764 360.069 204.861 368.056 204.861ZM396.875 204.861C405.208 204.861 411.458 210.764 411.458 219.097C411.458 222.917 410.069 226.736 407.292 229.514C404.514 232.292 400.694 233.681 396.875 233.681C393.056 233.681 389.236 232.292 386.458 229.514C383.681 226.736 382.292 223.264 382.292 219.097C382.639 210.764 388.889 204.861 396.875 204.861ZM452.083 204.861C460.417 204.861 465.625 210.069 465.625 218.75C465.625 219.792 465.625 221.181 465.278 221.181H446.528C446.875 224.306 449.653 226.389 452.778 226.389C455.903 226.389 457.639 225 458.333 222.917L465.278 225C463.889 229.861 459.722 233.681 452.778 233.681C448.958 233.681 445.139 232.292 442.708 229.514C439.931 226.736 438.542 222.917 438.889 219.097C438.889 215.278 439.931 211.806 442.708 209.028C444.792 206.597 448.611 204.861 452.083 204.861ZM327.083 205.903V232.986H318.75V205.903H327.083ZM419.097 205.903L425.347 222.917L431.25 205.903H439.931L429.514 232.986H421.181L410.069 205.903H419.097ZM484.028 205.556C484.722 205.556 485.764 205.556 486.111 205.903V214.236C485.417 213.889 484.375 213.889 483.681 213.889C480.208 213.889 477.431 215.972 477.431 221.181V232.986H469.097V205.903H477.083V209.375C478.472 206.25 481.597 205.556 484.028 205.556ZM296.181 194.097C307.639 194.097 315.625 201.389 315.625 213.542C315.625 225.694 307.986 232.986 296.181 232.986H281.944V194.097H296.181ZM396.875 212.5C393.75 212.5 390.972 214.583 390.972 219.097C390.972 223.611 394.097 225.694 396.875 225.694C400 225.694 403.125 223.611 403.125 219.097C403.125 214.931 400 212.5 396.875 212.5ZM295.833 202.431H290.625V224.653H295.833C301.736 224.653 306.597 221.181 306.597 213.542C306.597 205.903 301.736 202.431 295.833 202.431ZM452.431 211.458C449.653 211.111 447.222 213.194 446.875 215.972H457.639C457.639 213.889 456.25 211.458 452.431 211.458ZM322.917 194.444C325 194.444 326.736 196.181 326.736 198.264C326.736 200.347 325 202.083 322.917 202.083C320.833 202.083 319.097 200.347 319.097 198.264C319.097 196.181 320.833 194.444 322.917 194.444ZM387.153 6.59723C434.028 6.59723 471.181 40.9722 471.181 87.5C471.181 134.028 434.028 168.403 387.153 168.403H338.542V136.111H387.153C400 136.111 412.5 130.903 421.528 121.875C430.556 112.847 435.764 100.347 435.764 87.5C435.764 74.6528 430.556 62.1528 421.528 53.125C412.5 44.0972 400 38.8889 387.153 38.8889H338.542V6.59723H387.153ZM367.708 48.6111C389.236 48.6111 406.597 65.9722 406.597 87.5C406.597 109.028 389.236 126.389 367.708 126.389C346.181 126.389 328.819 109.028 328.819 87.5C328.819 65.9722 346.181 48.6111 367.708 48.6111ZM389.236 117.014C388.889 117.014 388.889 117.361 388.889 117.014H388.542L388.194 117.361C387.847 117.361 387.847 117.361 387.847 117.361C387.5 117.361 387.5 117.361 387.153 117.361H386.806H386.458C386.458 117.361 386.458 117.708 386.111 117.708C386.111 117.708 385.764 117.708 385.764 118.056C385.417 118.403 385.417 118.403 385.417 118.056C385.069 118.403 384.722 118.403 384.375 118.403H384.028C384.028 118.403 383.681 118.403 383.681 118.75C383.681 118.75 383.333 118.75 382.986 118.75C382.639 118.75 382.639 118.75 382.292 119.097C382.292 119.097 381.944 119.097 381.944 119.444C381.597 119.444 381.25 119.792 380.903 119.792L380.556 120.139C380.208 120.139 380.208 120.486 379.861 120.486C379.514 120.486 379.514 120.486 379.514 120.833H379.167C378.819 121.181 378.472 121.181 378.472 121.181C378.472 121.181 378.472 121.181 378.472 120.833L378.819 120.486L379.167 120.139H378.819H377.431C377.083 119.792 376.389 120.139 376.389 120.486H375.694C375.694 120.486 375.694 120.486 375.347 120.486H375C375 120.486 374.653 120.486 374.653 120.833C374.306 120.833 373.958 121.181 373.958 121.181C373.958 121.181 373.611 121.528 373.611 121.181H373.264H372.917C372.917 120.833 372.917 120.833 372.569 121.181C372.222 121.528 372.222 121.528 371.528 121.528C371.181 121.528 370.833 121.528 370.139 121.528C369.444 121.528 369.097 121.528 368.403 121.528H368.056C367.361 121.528 367.014 121.528 366.319 121.528C365.972 121.528 365.972 121.528 365.625 121.528V121.181H365.278C365.278 120.833 364.931 121.181 364.931 121.181C364.931 121.528 364.583 121.528 364.583 121.181H364.236H363.889C363.889 121.528 363.889 121.528 363.889 121.528C363.889 121.528 363.889 121.528 363.542 121.528H363.194L362.847 121.875H363.194C363.542 121.875 363.542 121.875 363.194 121.875L362.847 122.222H362.5C361.806 122.222 359.722 122.222 359.722 122.569L360.417 122.917H361.111H361.458C370.833 125.347 381.25 122.917 389.236 117.014ZM357.292 121.875C356.944 122.222 356.944 122.222 356.597 122.222H356.25L356.944 122.569L357.639 122.917H358.333V122.569C358.333 122.222 357.639 121.875 357.292 121.875ZM346.875 117.014L347.222 117.361H346.875L347.222 117.708C348.611 118.403 350 119.097 351.389 119.792C352.083 120.139 352.431 120.139 352.778 120.139L352.431 119.792C352.083 119.444 351.389 119.444 351.736 119.097L352.083 119.444C352.431 119.792 353.125 119.792 353.125 119.792H354.167H354.514V119.444H354.861L354.514 119.097V118.75C354.514 118.75 354.514 118.403 354.167 118.403V118.056C354.167 118.056 353.819 117.708 353.472 117.708L353.125 117.361C353.125 117.361 353.125 117.361 353.125 117.014C353.125 116.667 353.472 116.667 353.472 116.667L353.819 116.319H353.472H353.125H352.778H352.431H352.083C352.083 116.667 352.083 116.667 352.431 116.667V117.014V117.361C352.083 117.361 352.083 117.361 352.778 117.708L353.125 118.056C353.125 118.056 353.125 118.403 352.431 118.056C352.083 118.056 351.736 118.056 351.736 117.708C351.736 117.708 351.389 117.361 351.389 117.708C351.389 117.708 351.389 117.361 351.042 117.361H350.694H350.347H350C350 117.361 350 117.361 349.653 117.361C349.653 117.361 349.306 117.361 349.306 117.014H348.958C348.958 117.014 348.611 117.014 348.611 116.667H348.264H347.917L347.569 116.319L347.222 115.972H346.875C346.875 117.361 346.875 117.361 346.875 117.014ZM351.736 118.056V118.403C352.083 118.403 352.083 118.403 351.736 118.403H351.389C351.389 118.403 351.736 118.75 351.736 118.403H352.083C352.083 118.403 352.083 118.403 352.431 118.75C353.125 118.75 353.125 118.75 352.431 118.056C352.083 118.056 352.083 118.056 351.736 118.056ZM347.222 117.708L347.917 118.056H347.569C347.569 117.708 347.222 117.708 347.222 117.708ZM358.681 113.542C359.028 113.889 359.375 113.889 359.028 113.542C358.681 113.542 358.681 113.542 358.681 113.542C358.333 113.194 358.333 113.194 358.681 113.542ZM352.431 59.375C352.083 59.375 352.083 59.375 352.431 59.375C352.083 59.7222 352.083 59.375 352.431 59.375C352.083 59.375 352.083 59.375 351.736 59.7222C351.389 59.7222 351.042 60.0695 351.042 60.0695V60.4167C351.042 60.4167 351.042 60.4167 350.694 60.4167V60.0695V59.7222L351.042 59.375C351.389 59.375 351.389 59.375 351.042 59.375C350.694 59.375 350.347 59.7222 350 60.0695C349.653 60.4167 349.653 60.4167 349.653 60.4167C349.653 60.4167 349.653 60.7639 350 60.7639C350.347 60.7639 350.347 60.7639 350.347 60.7639L350 61.1111L349.653 61.4583C349.653 61.8056 349.306 61.8056 349.306 61.8056V62.1528C349.306 62.5 348.958 62.5 348.958 62.1528L349.306 61.8056C349.306 61.8056 349.306 61.8056 348.958 61.8056C348.611 62.1528 348.611 62.1528 348.611 61.8056C348.611 61.8056 348.611 61.8056 348.611 61.4583V61.1111L348.958 60.7639L349.306 60.4167L350 60.0695C350 60.0695 349.306 60.0695 348.958 60.4167C348.958 60.4167 348.958 60.7639 348.611 60.7639C348.611 61.1111 348.264 61.1111 348.264 61.1111L347.917 61.4583C347.917 61.8056 347.917 61.8056 347.917 61.8056L347.569 62.1528C347.569 62.1528 347.222 62.1528 347.222 62.5V62.8472C347.222 62.8472 347.222 62.5 347.569 62.5V62.1528H347.917V61.8056C347.917 61.4583 347.917 61.4583 347.569 61.8056H347.222C347.222 61.8056 347.222 61.8056 347.222 62.1528C346.875 62.5 346.181 62.5 346.181 62.1528C346.181 62.1528 345.833 62.1528 345.486 62.1528H345.833C345.833 62.1528 345.486 62.1528 345.486 62.5L345.139 62.8472C345.486 62.5 345.139 62.5 344.444 62.8472H344.097C344.097 62.8472 344.097 62.8472 344.444 62.8472C344.792 62.8472 344.444 62.5 344.097 62.8472H343.056C342.708 63.1945 342.708 63.1945 342.708 62.8472L342.361 63.1945C342.014 63.1945 341.667 63.5417 341.319 63.5417C340.972 63.5417 340.972 63.8889 340.972 63.5417C340.625 63.5417 340.972 63.1945 340.278 63.5417H340.972H340.625L340.278 63.8889L339.931 64.5833L339.583 64.9306C339.583 64.9306 339.583 64.9306 339.583 65.2778H339.236L338.889 65.625L338.542 65.9722H338.889L338.542 66.3195L338.194 65.9722C337.847 66.3195 337.5 67.0139 337.5 67.3611C337.5 67.3611 337.5 67.3611 337.847 67.3611C337.847 67.3611 337.847 67.3611 337.847 67.7083C337.847 68.0556 337.5 68.0556 337.5 68.0556L337.847 67.7083C337.847 67.7083 337.847 67.7083 338.194 67.3611L338.542 67.0139C338.542 67.0139 338.542 66.6667 338.889 66.6667V66.3195C338.889 65.9722 339.236 65.9722 339.583 65.9722C339.236 65.9722 338.889 66.3195 339.236 66.3195H339.583C339.583 66.3195 339.583 66.3195 339.931 65.9722C339.931 65.9722 339.931 65.9722 339.931 65.625C339.931 65.625 340.278 65.2778 340.278 65.625V65.9722H340.625C340.278 66.3195 340.278 66.6667 340.278 66.6667L340.625 65.9722L340.972 65.625V65.9722L340.625 66.3195V66.6667L340.972 66.3195C340.972 66.3195 340.972 67.0139 340.972 66.6667H340.625V67.0139V67.3611H340.972V67.7083V68.0556V68.4028C340.972 68.4028 340.972 68.4028 340.625 68.4028C340.625 68.4028 340.625 69.0972 340.972 69.0972V68.75C340.972 68.4028 340.972 68.4028 341.319 68.4028V68.75V69.0972C341.319 69.4445 341.319 69.4445 340.972 69.0972V69.4445C340.972 69.7917 340.625 70.1389 340.625 70.4861L339.583 72.5695V72.9167C339.583 73.2639 339.236 73.6111 339.583 73.2639C339.583 73.6111 339.583 73.6111 339.236 73.9583V74.6528V75C339.236 75 339.236 75.3472 339.236 76.0417C339.236 76.3889 339.236 76.7361 338.889 77.0833C338.889 77.4306 338.889 77.4306 338.889 77.4306C338.889 77.7778 338.889 77.4306 338.889 78.125V78.4722V79.5139C338.889 79.5139 339.236 79.1667 338.889 79.1667V78.8195C339.236 78.125 339.236 77.7778 339.236 77.0833V76.7361C339.236 76.3889 339.236 76.3889 339.583 76.3889V76.7361C339.583 77.0833 339.583 77.4306 339.583 77.7778V78.4722V79.1667C339.583 79.8611 339.583 80.5556 339.236 80.5556C339.236 80.5556 339.236 80.9028 338.889 80.9028C338.889 81.25 338.889 81.5972 339.236 81.9445V82.2917C339.236 82.2917 339.583 82.6389 339.583 82.9861C337.5 83.3333 337.5 83.3333 337.847 83.3333H338.194C338.194 83.3333 338.542 83.3333 338.542 83.6806C338.542 84.0278 338.889 84.375 339.236 84.375V85.7639C339.583 85.7639 339.583 86.1111 339.583 86.1111C339.583 86.4583 339.583 86.4583 339.931 86.4583L340.278 86.8056C340.278 87.1528 340.625 87.1528 340.625 86.8056C340.625 86.4583 340.972 86.1111 340.972 86.4583V87.1528C340.972 87.5 340.972 89.2361 340.625 89.2361C340.625 89.2361 340.625 89.2361 340.625 89.5833V89.9306C340.625 89.9306 340.278 90.9722 340.278 91.3195C340.278 91.3195 340.278 91.6667 340.625 91.6667C340.625 91.6667 340.972 92.0139 340.625 92.0139C340.278 92.3611 340.625 93.0556 340.972 93.4028L341.667 94.4445C342.014 95.1389 342.361 95.8333 342.708 96.5278C342.708 96.875 343.056 97.2222 343.75 97.9167C344.444 98.2639 344.792 98.9583 344.792 99.6528C344.792 100.694 345.139 101.389 345.139 102.431V103.125V103.472V103.819C345.139 104.514 345.486 104.861 345.139 105.556C345.139 105.903 345.139 106.25 345.139 106.25V106.597V107.639V108.333V107.986C345.139 107.986 345.486 108.333 345.486 109.028V109.375C345.486 109.722 345.486 109.722 345.486 109.722H345.139C345.486 109.722 345.486 110.069 345.486 110.417V110.069H345.139V110.417L345.486 110.764C345.486 111.111 345.486 111.111 345.486 110.764V111.111L345.833 111.458L346.181 111.806C346.181 111.806 346.181 111.806 346.528 111.806L346.875 111.458C346.875 111.458 346.875 111.458 346.875 111.806C346.875 111.806 346.875 111.806 346.875 112.153H347.222C347.222 112.153 347.569 112.153 347.569 112.5H347.917L348.264 112.847C348.611 112.847 348.611 112.847 348.264 112.5C347.917 112.5 347.569 112.153 347.569 111.806C347.569 111.806 347.569 111.458 347.222 111.458V111.111C346.875 110.764 346.875 110.764 347.222 110.764V110.417V110.069C347.569 110.069 347.569 109.722 347.222 109.722C346.875 109.722 346.528 109.028 346.875 109.028L347.222 108.681V107.986L346.875 107.639C346.875 107.292 346.875 107.292 347.222 107.639C347.569 107.639 347.569 107.639 347.569 107.292V106.944C347.569 106.944 347.569 106.944 347.917 106.944C348.264 106.944 348.611 106.944 348.958 106.597C348.958 106.25 348.958 106.25 348.958 106.25L348.611 105.903C348.611 105.903 348.611 105.556 348.264 105.556C348.264 105.556 347.917 105.556 347.917 105.208C347.917 105.208 348.264 105.556 348.611 105.556H348.958C348.958 105.208 348.958 105.208 349.306 105.208C349.306 104.861 349.306 104.514 349.653 104.514V104.861L350 104.514C350 104.167 350.347 103.819 350 103.819V103.125C350.347 102.778 351.042 102.431 351.389 102.431C351.736 102.431 352.083 102.083 352.083 102.083V101.389C352.083 101.042 352.431 101.042 352.083 101.042V100.694C352.083 100.347 352.083 100 352.083 99.6528V98.6111C352.431 97.9167 352.778 97.5695 353.125 96.5278C353.125 96.5278 353.125 96.1806 353.125 95.8333C353.125 95.4861 352.778 95.4861 352.778 95.4861C352.431 95.4861 352.083 95.1389 352.083 94.7917C351.736 93.75 351.736 93.75 351.389 93.75C351.042 93.75 351.042 93.75 350.694 93.4028H350.347C350 93.4028 350 93.4028 350 93.0556C350 92.7083 350 92.7083 349.306 92.3611L348.958 92.0139L348.611 92.3611L348.264 92.7083V92.3611C348.611 92.0139 348.264 92.0139 347.917 91.6667C347.569 91.6667 347.569 91.6667 347.569 92.0139C347.569 92.3611 347.569 92.3611 347.569 92.0139C347.569 92.0139 347.569 91.6667 347.569 91.3195C347.917 90.9722 347.917 90.9722 347.569 90.625C347.569 90.2778 347.222 90.2778 347.222 89.9306C347.222 89.5833 346.875 89.2361 346.875 88.8889C346.528 88.5417 346.528 88.5417 346.181 88.1945C345.833 88.1945 345.486 88.1945 345.486 87.5C345.139 87.1528 345.139 86.8056 345.139 86.8056C344.792 86.8056 344.792 86.8056 345.139 86.4583C345.139 86.1111 345.139 86.1111 345.139 86.1111C345.139 86.1111 344.792 86.1111 344.792 85.7639C344.792 85.4167 344.792 85.4167 344.444 85.7639H344.097L343.75 85.4167C343.403 85.4167 343.403 85.4167 343.403 85.0695C343.403 85.0695 343.403 84.7222 343.056 84.7222C343.056 84.7222 343.056 85.0695 342.708 85.0695H342.361C342.014 85.4167 342.014 85.0695 342.361 84.7222C342.708 84.375 342.708 84.375 342.361 84.375L342.014 84.7222H341.667H341.319H340.972L340.625 85.0695C340.625 85.0695 340.625 85.4167 340.278 85.4167C339.931 85.7639 339.931 85.7639 339.931 85.4167C339.931 85.0695 339.583 85.0695 339.236 85.0695C338.889 85.4167 338.889 85.0695 338.889 85.0695V84.7222V84.375C338.889 84.7222 338.542 84.375 338.542 84.0278V83.6806C338.542 83.6806 338.889 83.6806 338.889 84.0278L339.236 83.3333C339.583 82.6389 339.583 82.6389 339.583 82.2917C339.583 81.9445 339.583 81.9445 339.236 81.9445C338.542 81.9445 338.542 81.9445 338.889 81.5972C338.889 81.25 339.236 81.25 339.236 80.9028L339.583 80.5556L339.931 80.2083C339.931 79.8611 340.278 79.8611 340.278 79.8611C340.625 79.5139 340.625 79.5139 340.278 79.5139C339.931 79.5139 339.583 79.8611 339.583 80.2083C339.583 80.5556 339.236 80.9028 339.236 80.9028H338.889C338.542 81.25 338.542 80.9028 338.542 80.2083C338.542 79.8611 338.542 79.5139 338.889 78.8195L339.236 78.125V77.7778V77.4306C339.236 77.0833 339.583 76.3889 339.931 76.3889L340.278 76.0417C340.625 75.6945 340.972 75.6945 341.319 76.0417C341.667 76.0417 341.667 76.0417 341.667 75.6945C341.667 75.3472 341.667 75.3472 342.014 75.3472C342.361 75.3472 342.361 75.3472 342.361 75.6945C342.361 75.6945 342.361 75.6945 342.708 75.6945C343.056 75.6945 343.056 76.0417 342.708 76.3889V76.7361V77.0833V77.4306L343.056 77.0833C343.056 76.7361 343.403 76.3889 343.403 75.6945V75L344.097 74.3056L344.444 73.9583L344.792 73.6111L345.139 73.2639L345.486 72.9167C345.486 72.9167 345.486 72.9167 345.833 72.5695V72.2222V71.875C345.833 71.5278 345.833 71.1806 346.181 70.8333V71.1806C346.181 71.5278 346.181 71.5278 346.181 71.5278C346.181 71.5278 346.181 71.1806 346.528 71.1806C346.528 71.1806 346.528 70.8333 346.875 70.8333L347.222 70.4861C347.222 70.1389 347.569 70.1389 347.569 70.1389L347.917 69.7917C348.264 69.7917 348.264 69.7917 348.264 69.7917V69.4445C348.264 69.0972 348.611 68.75 348.958 68.75L349.653 68.4028C349.653 68.4028 349.653 68.4028 350 68.4028H350.347C350.694 68.4028 350.694 68.4028 350.347 68.4028C350.347 68.4028 350.347 68.4028 350 68.75C350 68.75 349.653 69.0972 350 69.0972C350 69.0972 350 69.0972 350.347 68.75L350.694 68.4028C351.042 68.4028 351.042 68.4028 351.042 68.0556V67.7083H351.389C351.389 67.7083 351.042 67.7083 351.042 67.3611L350.694 67.0139V67.3611C350.694 67.3611 350.694 67.3611 350.694 67.7083L350.347 67.3611V67.0139V66.6667C350.694 66.6667 350.694 66.6667 350.694 66.3195C350.694 66.3195 350.694 65.9722 350.347 65.9722C350 65.9722 349.653 66.3195 348.958 66.6667V66.3195C349.306 65.9722 349.653 65.625 350 65.2778C350.347 65.2778 350.347 64.9306 351.042 65.2778H351.736L352.083 64.9306L352.431 64.5833C352.778 64.5833 352.778 64.5833 352.778 64.2361C352.778 63.8889 352.778 63.8889 352.778 63.8889C352.778 63.8889 352.431 63.5417 352.778 63.5417H352.431V63.1945V62.8472V65.9722V65.2778V64.5833L352.083 64.9306C351.736 65.2778 351.389 65.2778 351.389 65.2778H351.042C351.042 65.2778 351.042 65.2778 351.042 64.9306C351.389 64.5833 351.389 64.5833 351.042 64.5833C351.042 64.2361 351.042 64.2361 350.694 64.2361H350.347H350C350 64.2361 349.653 64.2361 349.653 64.5833V64.9306C349.653 64.9306 349.653 64.9306 350 64.9306C350 65.2778 350 65.2778 349.653 65.625L349.306 65.9722C348.958 66.3195 348.958 66.3195 349.306 66.3195C349.306 66.3195 349.306 67.0139 348.958 67.3611L348.611 67.7083H348.264L347.917 68.0556C347.917 68.4028 347.917 68.4028 347.917 68.4028C347.569 69.0972 347.569 69.0972 347.569 69.4445C347.569 69.4445 347.222 69.4445 347.222 69.0972V68.75C347.569 68.0556 347.569 68.0556 347.222 68.0556C346.875 68.0556 346.875 68.0556 346.875 68.0556C346.875 68.0556 346.528 68.0556 346.528 67.7083L346.181 67.3611C345.833 67.3611 345.833 67.3611 345.833 67.0139V66.6667C345.486 66.6667 345.833 66.3195 346.181 65.625C346.528 65.2778 346.875 64.9306 347.222 64.5833L347.569 64.2361L347.917 63.8889V63.5417C347.917 63.1945 348.264 63.5417 348.264 63.5417L348.611 63.1945H348.958H349.306C349.306 62.8472 349.306 62.8472 349.653 62.8472H350H350.347H350.694V62.5V62.1528V61.8056C350.694 61.8056 350.694 61.8056 350.347 61.8056H350.694C351.042 61.8056 351.389 61.8056 351.389 61.4583C351.389 61.1111 351.389 61.1111 351.389 61.4583V61.8056L351.042 62.1528L351.389 61.4583L351.736 61.1111H352.083C352.083 61.1111 352.083 61.1111 352.083 61.4583L352.431 61.8056V62.1528L352.083 62.5H351.736L351.389 62.8472C351.389 62.8472 351.389 62.8472 351.042 63.1945H350.694C350.694 63.1945 350.347 63.1945 350.347 63.5417H351.389V63.8889C351.389 64.2361 351.389 64.2361 351.736 64.2361L352.083 64.5833H352.431C352.778 64.5833 352.778 64.2361 352.431 64.2361C352.083 63.8889 352.431 63.8889 352.778 64.2361C353.125 64.5833 353.125 64.5833 353.125 64.2361L353.472 63.8889V63.5417V63.1945C353.472 63.1945 353.125 63.1945 353.125 63.5417C352.778 63.5417 352.778 63.5417 353.125 63.1945C353.125 62.8472 353.472 62.8472 353.472 62.8472C353.819 62.5 353.819 62.8472 353.819 63.1945C353.819 63.5417 354.167 63.5417 354.167 63.1945L354.514 62.8472V62.5H354.167C354.167 62.5 353.819 62.5 353.819 62.1528L353.472 61.8056C353.125 61.8056 352.778 61.4583 353.125 61.4583C353.125 61.4583 353.125 61.4583 353.472 61.1111H353.125L352.778 61.4583C352.431 61.4583 352.431 61.4583 352.778 61.4583C352.778 61.4583 352.778 61.4583 353.125 61.1111C353.125 61.1111 352.778 60.7639 352.778 61.1111C352.778 61.1111 352.778 61.1111 352.431 60.7639C352.431 60.7639 352.431 60.4167 352.083 60.4167C352.778 59.375 352.778 59.375 352.431 59.375ZM383.333 111.458C382.986 111.458 382.986 111.458 382.986 111.806C382.639 112.153 382.986 112.153 383.333 111.458ZM386.458 58.6806L386.111 59.0278C386.111 59.0278 386.111 59.0278 385.764 59.0278C385.417 59.0278 384.722 59.0278 384.375 59.0278H384.028C384.028 59.0278 384.028 59.0278 383.681 59.0278H382.986L383.333 59.375C383.681 59.375 383.681 59.375 383.333 59.7222H382.986L382.639 59.375C382.292 59.375 382.292 59.375 382.639 59.375C382.986 59.7222 382.986 59.7222 382.639 59.375C382.292 59.375 382.292 59.375 382.639 59.7222C382.292 59.7222 382.292 59.7222 382.292 59.375V59.7222C382.292 60.0695 382.292 60.0695 382.639 60.0695C382.986 60.0695 383.333 60.4167 383.333 60.4167C383.333 60.0695 382.986 60.0695 382.639 60.0695V60.4167C382.639 60.7639 382.639 60.7639 382.639 60.7639C382.292 61.1111 381.944 61.1111 381.944 60.7639C382.292 60.7639 382.292 60.7639 382.292 60.4167V60.0695C382.292 59.7222 381.944 59.7222 381.944 59.375C381.944 59.375 381.944 59.0278 381.597 59.0278V58.6806C381.597 58.3333 381.597 58.3333 381.25 58.3333C381.25 58.3333 381.25 58.3333 381.25 58.6806V59.0278V59.375V59.7222C381.25 59.7222 381.25 59.7222 381.597 60.0695C381.944 60.4167 381.944 60.4167 381.25 60.0695C380.903 59.7222 380.556 59.7222 380.208 59.7222C379.861 59.7222 379.861 59.7222 379.514 59.375C379.861 59.7222 379.861 59.7222 379.861 60.0695H379.514C379.514 60.0695 379.167 59.7222 378.819 60.0695H378.125H377.778C377.431 60.0695 377.083 60.4167 377.083 60.4167C377.083 60.7639 376.736 60.7639 376.389 60.4167V60.0695V59.7222C376.042 59.7222 375.694 59.7222 376.042 59.7222V60.0695V60.4167C376.042 60.4167 376.042 60.7639 375.694 60.7639H375.347C375 61.1111 375 61.1111 375 61.1111C375 61.4583 375 61.4583 374.653 61.1111C374.306 61.1111 374.306 61.1111 374.306 60.7639L374.653 61.1111C374.653 61.1111 375 61.4583 374.653 61.4583C374.306 61.4583 373.958 61.1111 373.958 61.1111V60.7639C373.958 60.7639 373.958 60.4167 373.611 60.4167C373.264 60.0695 373.611 60.0695 374.306 60.4167C375 60.4167 375 60.4167 375.347 60.4167C375.347 60.4167 375.694 60.0695 375.347 60.0695C375 59.7222 375 59.7222 374.653 59.375C373.958 59.0278 373.611 58.6806 372.917 58.6806C372.569 58.6806 372.569 58.6806 372.569 58.3333C372.917 58.3333 372.917 58.3333 372.569 57.9861H372.222C372.222 57.9861 372.222 57.9861 371.875 57.9861H371.528V57.6389C371.528 57.6389 371.181 57.6389 371.181 57.9861H370.833H370.486H370.139C369.792 57.9861 369.792 57.9861 369.792 57.9861H369.444C369.792 58.3333 369.444 58.3333 369.097 57.9861H369.444C369.792 57.9861 369.444 58.3333 369.097 58.3333C368.75 58.3333 368.75 58.6806 368.403 59.0278C368.403 59.375 368.403 59.375 368.056 59.375L367.708 59.7222L367.361 60.0695V60.4167C367.014 60.4167 367.014 60.4167 367.014 60.7639C366.667 61.1111 366.667 61.4583 366.667 61.8056V62.1528C367.014 62.1528 367.014 62.1528 366.667 62.1528C366.667 62.5 366.667 62.5 367.014 62.5C367.361 62.5 367.361 62.5 367.708 62.1528L368.056 61.8056V62.1528C368.056 62.1528 368.056 62.1528 368.056 62.5C368.056 62.5 368.056 62.8472 368.403 62.8472V63.1945V63.5417H368.056H367.708C367.708 63.5417 367.708 63.5417 367.708 63.8889C368.056 63.8889 368.056 63.8889 368.056 63.5417H368.403V63.1945H368.75C369.097 63.1945 369.097 62.8472 369.097 62.5C369.097 62.1528 369.097 62.1528 369.444 62.1528L369.792 61.8056V61.4583L369.444 61.1111C369.444 61.1111 369.444 61.1111 369.444 60.7639C369.444 60.4167 369.792 60.0695 370.139 59.7222C370.486 59.375 370.486 59.375 370.486 59.0278C370.486 58.6806 370.833 58.6806 371.181 58.6806C371.528 58.6806 371.875 59.0278 371.528 59.0278C370.833 59.7222 370.486 59.7222 370.486 60.0695V60.4167C370.486 60.7639 370.833 61.1111 371.528 60.7639H372.222C372.569 60.7639 372.917 60.7639 372.569 61.1111H371.875C371.181 61.1111 370.833 61.1111 370.833 61.4583C370.486 61.4583 370.486 61.4583 370.486 61.4583V61.8056V62.1528V62.5V62.8472H370.139H369.792C369.792 62.8472 369.444 62.8472 369.097 62.8472C368.75 63.1945 368.403 63.1945 368.403 63.1945H367.708C367.361 63.1945 367.014 62.8472 367.014 62.8472L367.361 62.5C367.708 62.5 367.708 62.5 367.361 62.1528V61.8056C367.361 61.4583 367.014 61.4583 367.014 61.8056C367.014 61.8056 367.014 62.1528 366.667 61.8056C366.667 61.8056 366.667 61.8056 366.667 62.1528C366.667 63.1945 366.667 63.1945 366.319 63.1945C365.625 63.1945 365.625 63.1945 365.625 63.5417C365.625 63.8889 365.625 63.8889 365.625 63.5417C365.625 63.5417 365.625 63.5417 365.278 63.8889C365.278 64.2361 364.931 64.2361 364.931 64.2361L364.583 64.5833L364.236 64.9306C363.889 65.2778 363.889 65.2778 363.889 64.9306C363.889 64.5833 363.542 64.9306 363.542 64.9306C363.542 65.2778 363.542 65.2778 363.194 65.2778C362.847 65.2778 362.5 65.2778 362.5 65.625V65.9722C362.847 65.9722 363.194 66.6667 363.194 67.0139C363.194 67.0139 363.194 67.3611 363.194 67.7083C363.194 68.0556 363.194 68.0556 362.153 68.0556H361.111H360.764C360.417 68.0556 360.417 68.4028 360.417 68.75C360.417 69.0972 360.417 69.4445 360.069 69.7917C360.069 70.1389 360.069 70.1389 360.069 70.4861V70.8333C360.069 71.1806 360.069 71.1806 360.417 71.1806C360.764 71.1806 360.764 71.1806 360.764 71.5278C360.764 71.875 361.111 71.875 361.111 71.5278C361.458 71.5278 361.458 71.5278 361.806 71.5278C362.153 71.5278 362.153 71.5278 362.153 71.1806C362.153 71.1806 362.153 70.8333 362.5 70.8333L362.847 70.1389C362.847 70.1389 363.194 69.4445 363.889 69.0972C364.236 69.0972 364.236 68.75 364.236 68.75C364.236 68.4028 364.583 68.0556 364.931 68.4028C364.931 68.4028 365.278 68.4028 365.625 68.0556C365.972 68.0556 365.972 67.7083 366.319 67.7083L366.667 68.4028C367.014 68.75 367.361 69.0972 367.708 69.4445C368.403 69.7917 368.403 70.1389 368.403 70.4861C368.403 70.8333 368.403 70.8333 368.75 70.4861C369.097 70.1389 369.097 70.1389 368.75 70.1389V69.7917C368.75 69.7917 368.75 69.7917 369.097 69.7917H369.444L368.75 69.0972V68.75C368.75 68.75 368.403 68.4028 368.056 68.4028C368.056 68.0556 367.708 68.0556 367.708 68.0556V67.7083C367.708 67.3611 368.056 67.0139 368.056 67.3611C368.056 67.3611 368.056 67.7083 368.403 67.3611C368.403 67.3611 368.75 67.3611 368.75 67.7083C368.75 68.0556 369.097 68.0556 369.097 68.0556C369.097 68.0556 369.444 68.4028 369.792 68.4028C370.139 68.75 370.139 68.75 370.139 69.0972C370.139 69.4445 370.486 69.4445 370.486 69.7917L370.833 70.4861L371.181 71.1806V70.8333C371.181 70.8333 371.181 70.4861 371.528 70.4861C371.875 70.1389 371.875 70.1389 371.181 70.1389V69.7917V69.4445H371.528C371.875 69.0972 372.569 69.4445 372.222 69.7917V70.1389V70.4861C372.222 70.4861 372.222 70.4861 372.222 70.8333L372.569 71.1806L372.917 71.5278C373.264 71.5278 373.264 71.5278 373.264 71.5278C373.264 71.1806 373.611 71.1806 373.611 71.5278C373.958 71.5278 373.958 71.875 374.306 71.5278H374.653H375H375.347V71.875C375.347 72.2222 375.347 72.5695 375 73.2639C374.653 73.9583 374.653 74.3056 373.958 73.9583C373.611 73.6111 373.611 73.6111 373.264 73.9583C372.917 74.3056 372.569 74.3056 372.222 73.9583C372.917 76.7361 372.222 76.3889 371.875 76.3889C371.875 76.3889 371.875 76.3889 371.528 76.3889C371.181 76.3889 370.833 76.3889 370.833 76.7361V77.0833C370.833 77.4306 370.486 77.4306 370.139 77.0833C369.792 77.0833 369.792 76.7361 369.444 76.7361C369.444 76.7361 369.097 76.7361 369.097 76.3889C369.097 76.0417 368.403 75.6945 368.056 76.0417L367.014 75.6945L367.361 75.3472C367.708 75 367.708 75 367.361 75V74.6528C367.361 74.3056 367.361 74.3056 367.361 74.6528H367.014C367.014 74.6528 367.014 74.6528 366.667 74.6528H365.278C364.583 74.6528 363.542 75 362.847 75.3472C362.847 75.3472 361.806 75.3472 361.458 75.3472C361.458 75 361.458 75.3472 361.111 75.6945C361.111 76.0417 360.764 76.0417 360.764 76.3889C360.417 76.7361 359.722 77.4306 359.722 77.7778C359.722 78.125 359.375 78.4722 358.681 78.8195C358.333 79.1667 357.639 79.5139 357.639 80.2083L357.292 80.5556L356.944 81.25C356.597 81.5972 356.597 81.9445 356.597 81.9445C356.597 82.2917 356.597 82.2917 356.597 83.3333C356.597 83.6806 356.25 84.375 356.25 84.7222C356.25 84.7222 356.25 84.7222 356.25 85.0695V85.7639C356.25 86.1111 356.25 86.1111 356.25 86.1111C356.25 86.1111 356.597 86.1111 356.597 86.4583L356.944 87.1528C357.292 87.5 357.292 87.8472 357.292 87.8472C357.292 88.5417 358.333 88.8889 358.681 89.5833C359.028 89.9306 359.028 89.9306 360.069 89.5833H361.111C361.458 89.5833 361.806 89.5833 362.153 89.2361C362.847 88.8889 363.542 88.5417 364.236 88.8889C364.583 88.8889 364.583 89.2361 364.583 89.2361C364.583 89.5833 364.931 89.5833 365.278 89.5833C365.625 89.5833 365.972 89.5833 366.319 89.9306C366.667 90.2778 366.667 90.2778 366.667 90.2778V90.9722V91.6667C366.667 92.0139 366.667 92.3611 367.361 93.0556C368.056 93.75 368.403 94.4445 368.75 95.4861V96.5278C368.75 96.875 368.75 96.875 368.75 97.2222C368.403 97.5695 368.403 98.2639 368.403 98.9583C368.403 99.6528 369.097 100.347 369.444 100.694C369.444 100.694 369.792 101.389 369.792 101.736C369.792 102.431 370.139 103.125 370.486 103.125C370.833 103.472 371.181 104.514 371.181 104.514C371.181 104.514 371.181 105.208 371.528 105.208H371.875C372.222 105.208 372.222 105.208 372.569 104.861C373.611 104.861 374.653 104.514 375 103.472L375.694 102.778C376.042 102.431 376.042 102.083 376.042 101.736C376.042 101.389 376.042 101.389 376.389 101.042C376.736 100.694 376.736 100.694 376.736 100.347V99.3056C376.736 98.9583 376.736 98.9583 377.083 98.6111C377.431 98.6111 377.431 98.2639 377.431 98.2639C377.778 97.9167 377.778 97.9167 378.125 97.9167C378.472 97.9167 378.472 97.5695 378.819 97.5695C379.167 97.2222 379.167 97.2222 379.167 96.1806V95.1389V94.4445V93.75C379.167 93.4028 379.167 93.4028 379.514 92.7083C379.861 92.3611 379.861 92.0139 380.208 91.6667L381.25 90.625C381.597 90.2778 381.944 89.9306 382.292 89.5833C382.986 88.8889 383.333 88.1945 383.681 87.5L384.028 86.4583V85.7639C384.028 85.0695 384.028 85.0695 383.681 85.4167L382.639 85.7639L381.944 86.1111H381.597L381.25 85.7639C380.903 85.4167 380.903 85.4167 380.903 85.4167C380.903 85.4167 380.208 84.375 379.861 84.0278C379.514 83.6806 379.167 83.6806 379.167 83.3333C379.167 82.9861 378.819 82.6389 378.819 82.6389C378.472 82.2917 378.472 82.2917 378.472 81.5972C378.472 81.25 378.125 80.9028 378.125 80.5556C378.125 80.2083 377.778 80.2083 377.778 79.8611C377.778 79.5139 377.431 79.5139 377.431 79.1667C377.083 78.4722 377.083 78.125 376.736 77.4306C377.083 77.7778 377.083 78.125 377.083 77.7778C377.083 77.4306 377.083 77.4306 377.083 77.7778C377.083 77.7778 377.431 78.125 377.778 78.8195C378.125 79.1667 378.125 79.5139 378.125 79.5139L378.472 79.8611C378.819 80.2083 379.167 80.5556 379.167 80.9028C379.167 81.25 379.514 81.25 379.514 81.5972L379.861 81.9445C379.861 81.9445 380.208 82.2917 380.208 82.6389C380.556 82.9861 380.556 83.3333 380.556 83.3333C380.556 83.6806 380.903 84.7222 381.25 84.7222H381.597C381.597 84.7222 381.597 84.7222 381.944 84.7222L382.292 84.375H382.639L382.986 84.0278L383.333 83.6806H383.681C384.028 83.6806 384.028 83.3333 384.028 83.3333C384.028 82.9861 384.375 82.9861 384.375 82.9861C384.722 82.9861 384.722 82.6389 384.722 82.6389V83.3333H385.069L385.417 82.9861V82.6389V82.2917C385.417 81.9445 385.764 81.5972 385.764 81.5972L385.417 81.25L385.069 80.9028C384.722 80.9028 384.722 80.5556 384.375 80.2083V79.8611H382.986C382.639 80.5556 381.944 80.5556 381.944 79.8611C381.944 79.5139 381.597 79.5139 381.597 79.8611C381.597 80.2083 381.597 80.2083 381.25 79.5139C381.25 79.1667 380.903 79.1667 380.903 78.8195C380.556 78.8195 380.556 78.4722 380.556 78.125C380.208 77.7778 380.208 77.7778 380.556 77.4306C380.903 77.0833 380.903 77.4306 381.25 77.7778C381.597 78.125 382.292 79.1667 382.639 78.8195H382.986C382.986 78.4722 383.333 78.4722 383.333 78.8195L383.681 79.1667C384.375 79.8611 385.417 79.8611 386.111 79.8611L386.458 80.2083C386.806 80.9028 387.5 81.25 387.5 80.9028C387.5 80.9028 387.5 80.9028 387.847 81.25C388.194 81.5972 388.542 81.5972 388.542 81.25C388.542 80.9028 388.542 80.9028 388.542 81.25V81.5972C388.542 82.2917 388.889 83.3333 389.236 84.0278L389.583 84.7222C389.583 84.7222 389.583 85.0695 389.931 85.4167L390.278 86.4583C390.625 87.1528 390.625 87.1528 390.972 86.4583C390.972 85.7639 390.972 85.0695 390.972 84.375V83.6806C390.972 83.6806 391.319 83.3333 391.319 82.6389L391.667 82.2917C391.667 82.2917 392.014 81.9445 391.667 81.9445V81.5972H392.014H392.361V81.25C392.361 80.9028 392.708 81.25 392.708 81.5972C392.708 81.9445 393.056 81.9445 393.056 82.2917L393.403 82.6389V82.9861C393.403 82.9861 393.75 83.6806 393.75 84.0278C393.75 84.375 393.75 84.375 393.75 84.375C394.097 84.375 394.097 84.375 394.097 84.0278V83.6806C394.444 84.7222 394.792 85.4167 395.139 86.4583L395.486 87.5L396.181 88.5417C396.181 89.2361 396.528 89.9306 396.875 89.9306V89.5833V88.8889C396.875 88.5417 396.528 87.8472 396.181 87.8472C396.181 87.8472 395.833 87.8472 395.833 87.5C395.833 87.5 395.833 87.1528 395.486 87.1528C395.139 86.8056 395.139 86.8056 395.139 86.1111C395.139 85.4167 395.139 85.0695 395.139 85.4167V85.7639L395.486 86.1111L395.833 86.4583L396.181 86.8056V87.1528V86.4583C396.181 86.4583 396.528 86.4583 396.528 86.1111V85.4167C396.528 84.7222 396.181 84.375 395.833 84.0278C395.486 83.3333 395.139 82.9861 395.486 82.6389C395.486 82.2917 395.833 82.2917 395.833 82.2917L396.181 82.6389C395.833 82.6389 395.833 82.9861 396.181 83.3333C396.181 83.3333 396.528 83.3333 396.528 82.9861V82.6389C396.181 82.2917 396.181 82.2917 396.528 81.9445C396.528 81.5972 396.875 81.5972 396.528 81.5972C396.528 81.9445 396.875 81.5972 396.875 81.25C396.875 80.9028 396.875 80.5556 396.875 80.5556V80.2083V79.8611C396.875 79.1667 396.875 78.8195 396.528 78.8195C396.528 78.8195 396.528 78.4722 396.181 77.7778C396.181 77.4306 395.833 77.0833 395.833 77.0833V76.3889C395.833 76.3889 395.833 76.0417 395.486 76.0417H395.139C395.139 76.3889 395.139 76.0417 394.792 76.0417C394.792 76.0417 394.792 76.0417 394.444 75.6945C394.444 75.6945 394.097 75.3472 394.444 75.3472V75V74.6528C394.444 74.6528 394.444 74.6528 394.444 75C394.444 75.3472 394.444 75.3472 394.792 75.3472C394.792 75.3472 394.792 75.3472 395.139 75.3472C395.139 75.3472 395.139 75.3472 395.486 75.6945C395.486 76.0417 395.486 76.0417 395.833 76.0417L396.181 76.3889L396.528 77.4306H396.875C396.875 77.4306 396.875 77.0833 396.875 76.7361C396.875 76.3889 396.528 76.0417 396.528 75.6945L396.181 75.3472C396.181 75.3472 396.181 75 396.181 74.6528V74.3056C396.181 73.9583 396.181 73.9583 396.528 74.3056C396.875 74.6528 396.875 74.3056 396.875 73.2639C396.875 72.9167 396.875 72.2222 396.528 71.875C396.528 71.5278 396.528 71.5278 396.181 71.1806C396.181 70.8333 395.486 69.7917 395.486 70.1389C395.486 69.7917 395.486 69.7917 395.486 70.1389L395.139 69.7917V69.4445V69.0972C395.139 68.0556 394.792 68.0556 395.486 68.4028H395.833C395.833 68.4028 396.181 68.4028 396.181 68.75C396.181 68.75 396.181 68.75 396.528 68.75C396.528 68.75 396.528 68.75 396.528 68.4028C396.528 68.0556 396.528 68.0556 396.528 68.0556C396.528 68.0556 396.875 68.0556 396.875 68.4028C396.875 68.75 396.875 68.75 397.222 68.75V68.4028C397.222 68.4028 397.569 68.75 397.569 69.0972V69.4445V69.7917C397.569 69.7917 397.569 70.1389 397.569 70.8333C397.917 71.1806 397.917 71.875 398.264 72.2222C398.264 72.5695 398.264 72.2222 398.264 71.875V71.5278V69.4445V69.0972C398.264 68.75 398.264 68.75 398.264 68.75V68.4028C398.264 68.4028 398.264 68.4028 398.264 68.0556V67.7083C398.264 67.7083 398.264 67.7083 397.917 67.3611V67.0139C397.917 67.0139 397.917 67.0139 398.264 67.0139C397.569 65.9722 396.528 64.5833 395.833 63.5417L395.486 63.1945V62.8472C395.486 62.8472 395.486 62.8472 395.139 62.5H394.792L394.444 62.1528C394.097 62.1528 394.444 62.1528 394.097 61.8056C393.75 61.4583 393.403 61.4583 393.75 61.4583C393.75 61.4583 393.75 61.4583 393.403 61.1111C393.056 60.7639 392.708 60.4167 392.708 60.7639V61.1111C392.708 61.1111 392.708 61.1111 392.708 61.4583C392.708 61.8056 392.708 61.8056 392.708 61.4583L392.361 61.1111H392.014C392.014 61.4583 392.014 61.1111 391.667 60.7639C391.667 60.7639 391.667 60.4167 391.319 60.4167L390.972 60.0695C390.625 60.0695 390.625 60.0695 390.625 60.0695C390.625 60.0695 390.625 60.0695 390.278 60.0695C390.278 60.0695 389.931 60.0695 389.931 59.7222C389.931 59.7222 389.583 59.7222 389.583 59.375H389.236H388.889V59.0278H388.542C388.542 59.375 388.542 59.375 388.542 59.375C388.194 59.375 388.194 59.375 388.194 59.375H388.542H388.889C388.889 59.375 388.889 59.375 388.889 59.0278L388.542 58.6806C388.542 58.6806 388.194 58.6806 388.194 58.3333C387.847 58.3333 387.5 57.9861 387.5 57.9861L386.458 58.6806ZM399.653 102.431C399.306 102.778 399.306 103.125 398.958 103.472C399.306 103.472 399.306 103.125 399.306 102.778C399.306 102.778 399.306 102.431 399.653 102.431ZM398.264 102.431L397.917 102.778C397.917 103.125 397.917 103.125 397.917 103.472V103.125L398.264 102.431ZM401.042 92.7083L400.694 93.75L400.347 94.4445C400.347 94.7917 400 94.7917 400 94.7917V94.4445C399.653 94.0972 399.653 94.0972 400 93.75C400 93.4028 400 93.4028 400.347 93.0556C400.347 93.0556 400.347 93.4028 400 93.4028C400 93.4028 400 93.4028 399.653 93.75V94.0972V94.4445C399.653 94.4445 399.653 94.7917 399.306 94.7917V94.4445H398.958L398.611 94.7917C398.611 94.7917 398.611 94.7917 398.611 95.1389V95.4861C398.611 95.1389 398.264 95.4861 398.264 95.8333C398.264 96.1806 397.917 96.5278 397.917 96.5278L397.569 96.875C397.222 97.2222 397.222 97.2222 396.875 97.5695V97.9167L396.528 98.9583C396.528 99.3056 396.528 99.3056 396.528 99.3056C396.528 99.3056 396.528 99.6528 396.181 100C396.181 100.694 395.833 101.389 395.833 102.083V102.431C395.833 102.431 395.833 102.431 396.181 102.083C396.181 101.736 396.528 101.736 396.875 101.736C397.222 101.736 397.222 101.736 397.222 101.389C397.222 101.042 397.569 101.042 398.264 100.347H398.611C398.611 100.347 398.611 100.694 398.611 101.042C398.611 101.389 398.611 101.042 398.958 100.694C399.306 100.347 399.306 100.347 398.958 100.694C398.958 101.042 398.611 101.042 398.958 101.042C398.958 100.694 398.958 101.042 398.958 101.389V101.736H398.611V102.083L398.958 101.736C398.958 101.736 398.958 101.736 399.306 101.389L399.653 101.042V100.694C400 100 400.347 99.3056 400.694 98.6111L401.042 97.9167C401.042 97.9167 401.042 97.5695 401.389 97.5695V97.2222C401.389 96.875 401.389 96.875 401.389 96.5278V96.1806V95.8333V95.4861V95.1389V94.7917V94.4445V94.0972V93.0556L401.042 92.7083ZM400.694 99.6528V100V100.694V101.042V101.389V101.736V102.083L401.042 101.389L401.389 101.042V99.6528H400.694ZM381.597 96.5278L381.25 96.875V97.2222L380.903 97.5695C380.903 97.5695 380.556 97.9167 380.208 97.9167C379.861 98.2639 379.514 98.6111 379.514 99.3056C379.514 99.6528 379.514 99.6528 379.167 100C379.167 100.347 379.167 100.347 379.167 100.694C379.167 101.389 379.167 101.736 379.861 101.389H380.208C380.556 100.694 381.25 99.3056 381.597 98.6111V98.2639V97.9167C381.597 97.5695 381.597 97.5695 381.944 97.5695C381.944 97.5695 381.944 97.5695 381.944 97.2222C381.944 97.2222 381.944 96.5278 381.597 96.5278ZM343.75 98.2639C344.097 98.6111 344.097 98.6111 343.75 98.2639C343.403 98.6111 343.403 98.2639 343.403 98.2639C343.056 97.9167 343.403 97.9167 343.75 98.2639ZM376.736 95.8333V96.5278C376.736 96.5278 376.736 96.875 376.736 97.2222C376.736 97.5695 376.736 97.9167 376.389 97.5695L376.042 97.2222V96.5278C376.389 95.8333 376.736 95.8333 376.736 95.8333ZM375 94.0972C375 94.4445 375 94.7917 375.347 94.7917C375.694 95.1389 375.694 95.4861 375.347 95.4861V95.1389C375.347 94.7917 375.347 94.7917 375 94.7917C374.653 94.4445 374.653 94.0972 375 94.0972C375 93.4028 374.653 93.0556 375 94.0972ZM399.306 92.3611C398.958 92.3611 398.958 92.3611 399.306 92.3611L398.958 92.7083V93.0556H399.306H399.653C399.653 93.4028 399.653 93.4028 400 93.0556C398.958 92.7083 398.958 92.7083 399.306 92.3611ZM396.181 92.3611C396.181 92.7083 396.181 92.7083 396.528 92.7083H396.875C397.222 92.7083 397.569 92.7083 397.569 92.7083C397.569 92.7083 397.569 92.7083 397.222 92.7083C397.222 92.7083 397.222 92.7083 396.875 92.7083C396.875 92.7083 396.875 92.7083 396.528 92.7083C396.528 92.0139 396.181 92.0139 396.181 92.3611ZM376.736 91.6667C377.083 91.6667 377.083 92.0139 377.083 92.3611C377.083 92.7083 376.736 92.7083 376.736 92.7083H376.389C376.042 92.7083 376.042 92.7083 376.042 92.3611C376.042 92.0139 376.042 91.6667 376.389 91.6667C376.042 91.6667 376.389 91.6667 376.736 91.6667ZM394.792 88.1945L395.139 88.8889C395.139 89.2361 395.486 89.5833 395.486 89.5833V89.9306V90.625C395.486 90.9722 395.833 92.0139 395.833 92.0139L396.181 91.6667C396.181 91.3195 396.181 91.3195 396.181 90.625C396.181 90.2778 396.181 90.2778 396.181 89.9306V89.5833C396.181 89.5833 396.181 89.2361 395.833 89.2361L395.486 88.8889L395.139 88.5417C395.486 88.5417 395.139 88.1945 394.792 88.1945ZM400.694 89.2361V89.5833V90.2778L401.042 90.625V91.3195C401.042 91.3195 401.042 91.3195 401.042 91.6667C401.042 91.6667 401.042 91.6667 401.389 91.6667C401.389 92.0139 401.736 91.6667 401.736 91.6667V91.3195C401.736 90.9722 402.083 91.3195 402.083 91.6667C402.083 92.0139 402.083 92.0139 402.083 92.0139V91.6667V91.3195V90.9722V90.625V90.2778C402.083 90.2778 402.083 90.2778 402.083 89.9306C402.083 89.5833 402.083 89.5833 401.736 89.2361H401.389L401.042 89.5833C400.694 90.2778 400.694 90.2778 400.694 90.2778V89.2361ZM399.653 88.8889C399.653 88.8889 399.306 89.2361 399.306 88.8889C399.306 88.8889 398.958 89.2361 398.958 89.5833V89.9306C398.958 90.2778 398.611 90.625 398.611 90.9722V91.3195V91.6667L398.958 91.3195C399.306 90.9722 398.958 90.9722 398.958 91.3195V90.2778V89.9306C398.958 90.2778 398.958 90.2778 398.958 89.9306V89.5833C398.958 89.5833 398.958 89.2361 399.306 89.2361C399.653 89.2361 399.653 89.2361 399.653 88.8889ZM398.264 87.5V87.8472C398.264 87.8472 398.264 87.8472 398.264 88.1945L397.917 88.5417L397.569 88.8889C397.569 88.8889 397.569 89.2361 397.222 88.8889C397.222 88.8889 397.222 88.8889 396.875 88.8889C396.875 89.2361 396.875 89.5833 396.875 89.9306V90.2778C396.875 90.625 396.875 90.625 396.875 90.625H397.222H397.569C397.569 90.2778 397.917 90.2778 397.917 89.9306L398.264 89.5833V89.2361L398.611 88.8889C398.611 88.8889 398.958 88.5417 398.611 88.5417V88.1945C398.611 87.8472 398.611 87.8472 398.611 87.8472V87.5C398.958 87.5 398.611 87.5 398.264 87.5C398.611 87.1528 398.611 87.1528 398.264 87.5ZM400.347 90.2778C400 90.2778 400 90.2778 400 90.625V90.9722V91.3195H400.694L400.347 90.2778ZM402.778 89.9306C402.431 90.2778 402.431 90.2778 402.083 90.2778L402.778 89.9306ZM377.778 89.5833C377.778 89.9306 378.125 90.2778 378.125 90.2778C378.472 90.625 378.472 90.625 378.125 90.2778C377.778 90.2778 377.778 89.9306 377.778 89.5833ZM400.347 88.5417C400 88.8889 400 89.2361 400 89.5833L400.347 88.5417C400.347 88.8889 400.347 88.8889 400.347 88.5417ZM362.153 87.8472L362.5 88.1945V88.5417C362.5 88.5417 362.5 88.8889 362.153 88.8889C362.153 88.8889 361.806 88.8889 362.153 88.5417C362.153 88.5417 362.153 88.1945 362.5 88.1945L361.806 87.8472H362.153ZM391.319 86.8056C391.319 87.1528 391.667 87.8472 391.667 88.1945C391.667 88.1945 391.667 88.1945 392.014 88.1945C392.014 87.8472 392.014 87.8472 391.319 86.8056ZM399.306 85.7639L399.653 86.1111V86.4583V86.8056V87.1528C399.653 87.1528 399.653 87.5 400 87.5V86.8056C399.653 86.8056 399.653 86.4583 399.306 85.7639ZM398.611 85.7639C398.611 85.7639 398.611 85.7639 398.611 86.1111C398.611 86.8056 398.264 86.4583 398.611 86.1111V85.7639ZM398.958 85.4167C398.958 85.7639 398.958 85.7639 398.958 85.4167C399.306 85.4167 399.306 85.4167 399.306 85.7639C399.306 86.1111 399.306 86.1111 399.306 86.1111C399.306 85.7639 399.306 85.7639 399.306 85.7639V85.4167C399.306 85.4167 399.306 85.4167 398.958 85.4167ZM399.306 85.0695C398.958 85.0695 398.958 85.0695 399.306 85.0695C399.306 85.4167 399.653 85.4167 399.306 85.4167V85.7639C399.653 86.1111 399.653 86.1111 399.306 85.7639C399.653 85.0695 399.306 85.0695 399.306 85.0695ZM398.264 82.6389C397.917 82.6389 397.917 82.6389 398.264 82.6389V83.3333V83.6806V84.0278L398.611 84.375L398.958 84.7222H399.306C399.306 85.0695 399.306 85.0695 399.306 84.7222C399.306 84.7222 399.306 84.375 398.958 84.375C398.958 84.375 398.611 84.0278 398.611 83.6806L398.264 82.6389ZM342.014 82.9861L342.361 83.3333C342.708 83.3333 342.708 83.3333 342.708 82.9861C342.361 82.6389 342.014 82.6389 342.014 82.9861ZM343.403 82.2917C343.403 82.6389 343.403 82.6389 343.056 82.6389H342.708L343.403 82.9861H343.75H344.444V82.6389C344.097 82.2917 343.403 81.9445 343.403 82.2917ZM341.667 80.5556C341.319 80.5556 341.319 80.9028 340.972 80.9028C340.972 81.25 340.972 81.25 340.972 80.9028C341.319 80.9028 341.319 80.9028 341.667 80.5556V80.9028V81.25C341.667 81.25 341.667 81.25 341.667 81.5972V81.9445C341.667 81.9445 341.667 81.9445 341.667 82.2917C341.667 82.2917 341.667 82.6389 342.014 82.6389C342.361 82.6389 342.708 82.6389 342.361 82.2917L342.014 81.9445C342.361 80.9028 342.014 80.5556 341.667 80.5556ZM332.639 80.9028C332.292 81.5972 332.292 81.5972 332.292 81.5972L332.639 80.9028ZM397.569 79.8611V80.2083C397.569 80.5556 397.569 80.5556 397.917 80.9028L398.264 81.25V80.9028C397.917 80.9028 397.569 79.8611 397.569 79.8611ZM397.917 73.9583C398.264 74.3056 398.264 73.9583 397.917 73.9583V74.6528C397.917 75 397.917 75.3472 397.917 75.6945C397.917 76.0417 397.917 76.3889 397.917 76.3889C397.569 76.3889 397.569 76.3889 397.569 77.0833C397.569 77.4306 397.569 77.4306 397.569 77.4306V77.7778C397.569 78.125 397.917 78.125 397.917 77.7778C397.917 77.4306 397.917 77.4306 397.569 77.4306C397.569 77.4306 397.569 77.4306 397.569 77.7778C397.917 78.125 397.569 78.125 397.569 77.7778C397.569 77.4306 397.569 77.4306 397.569 77.4306C397.569 77.4306 397.569 77.4306 397.569 77.0833C397.569 76.7361 397.222 76.3889 397.222 76.0417C397.222 75.6945 397.222 75.6945 396.875 75.3472C398.264 74.3056 398.264 73.9583 397.917 73.9583ZM380.208 70.1389C380.208 70.4861 380.208 70.4861 380.208 70.4861C380.208 70.4861 380.208 70.4861 379.861 70.4861C379.861 70.4861 379.861 70.8333 380.208 70.8333L380.556 71.1806V71.5278C380.556 71.875 380.556 71.875 380.556 71.5278H380.903C381.25 71.875 381.25 71.875 380.903 71.875H380.556C380.556 71.875 380.556 71.875 380.556 72.2222C380.556 72.5695 380.556 72.5695 380.556 72.5695V72.9167C380.903 72.9167 380.903 73.9583 380.903 73.9583C380.556 74.3056 379.514 73.6111 379.514 73.2639V72.5695V72.9167L379.167 72.2222C378.819 71.875 378.819 71.5278 378.472 71.1806C378.125 70.8333 378.472 70.4861 378.819 70.1389C379.861 69.7917 380.208 69.7917 380.208 70.1389ZM378.819 73.9583C379.167 74.3056 379.167 74.6528 379.167 74.6528C379.167 74.3056 379.167 74.3056 378.819 73.9583ZM368.403 73.6111C368.056 73.6111 367.708 73.6111 367.708 73.6111C367.708 73.6111 367.708 73.9583 368.056 73.9583L368.403 74.3056V73.9583V73.6111ZM397.569 72.5695V73.2639V73.6111L397.917 73.9583C398.264 73.9583 397.917 73.6111 397.569 73.6111V72.5695C397.569 72.2222 397.569 72.2222 397.569 72.5695ZM367.014 72.2222C366.667 72.2222 366.667 72.5695 366.667 72.5695V72.9167C367.014 72.9167 367.361 72.5695 367.361 72.5695L367.014 72.2222ZM373.264 72.2222C373.611 72.5695 373.611 72.2222 373.264 72.2222C373.611 72.5695 373.264 72.9167 373.264 72.9167C372.917 72.9167 372.917 72.9167 372.917 72.5695L373.264 72.2222ZM386.806 72.2222C387.153 72.2222 387.153 72.2222 386.806 72.2222C387.153 72.5695 387.153 72.5695 386.806 72.5695C386.458 72.5695 386.806 72.5695 386.806 72.2222ZM346.181 71.875C345.833 72.2222 345.486 72.2222 345.139 72.5695C344.792 72.5695 345.139 72.2222 345.486 72.2222C346.181 71.875 346.181 71.875 346.181 71.875ZM345.833 70.8333C346.181 70.4861 346.181 70.4861 345.833 70.8333C346.181 71.1806 346.181 71.5278 345.833 71.1806C346.181 71.1806 346.181 70.8333 345.833 70.8333L345.486 71.5278V71.875C345.486 71.5278 345.486 71.5278 345.486 71.875C345.486 71.875 345.486 71.5278 345.833 71.5278V71.1806C345.833 70.8333 345.833 70.8333 345.486 71.1806C345.139 71.5278 345.139 71.5278 345.139 71.875C344.792 72.2222 344.444 72.9167 344.444 72.5695C344.792 71.875 344.792 71.5278 345.139 70.8333C345.139 70.4861 346.181 70.4861 345.833 70.8333ZM376.042 69.7917C376.042 70.1389 375.694 70.1389 376.042 70.1389C376.042 70.1389 376.042 70.4861 375.694 70.4861L376.042 70.8333L376.389 71.1806C376.736 71.5278 377.431 71.875 377.083 72.2222C376.736 72.5695 376.042 72.2222 375.347 71.875C375 71.5278 374.653 71.5278 374.306 71.875C373.958 72.2222 372.917 72.2222 372.917 71.5278C372.917 71.1806 373.264 70.1389 373.264 70.1389V69.7917C373.264 69.4445 373.958 68.75 373.958 69.4445H374.306C374.653 69.4445 374.653 69.4445 374.653 69.4445C374.653 69.4445 374.653 69.4445 374.653 69.7917C375 70.1389 375 70.1389 375 69.7917H375.347H375.694C375.694 69.7917 375.694 69.7917 375.347 69.7917H375C374.653 69.7917 374.653 69.4445 375 69.4445C375.347 69.4445 375.347 69.4445 375.347 69.0972C376.042 69.7917 376.042 69.4445 376.042 69.7917ZM396.181 69.0972C396.181 69.4445 396.528 69.7917 396.528 69.7917L396.875 71.1806L397.222 71.875V71.5278L396.875 71.1806C396.875 70.8333 396.875 70.8333 396.875 70.8333V70.4861C396.875 70.1389 396.528 69.7917 396.181 69.0972ZM346.875 71.5278C346.875 71.875 346.528 71.875 346.528 71.875C345.833 71.875 345.833 71.5278 346.875 71.5278ZM382.292 70.1389C382.639 70.1389 382.639 70.1389 382.292 70.1389L382.639 70.8333V71.1806V71.5278C382.639 71.5278 382.639 71.5278 382.292 71.5278C381.944 71.5278 381.944 71.1806 381.944 71.1806C381.597 70.4861 381.944 70.1389 382.292 70.1389ZM386.111 70.4861C385.764 70.8333 385.764 70.8333 385.764 70.8333C385.764 71.1806 385.764 71.1806 385.417 70.8333C385.417 70.4861 385.417 70.4861 386.111 70.4861ZM345.833 69.0972L345.486 69.4445V69.7917V70.1389H345.139C344.792 70.1389 344.792 70.1389 344.792 69.7917H344.444C344.097 70.1389 343.75 70.1389 343.75 70.1389L344.444 69.7917C344.792 69.4445 345.139 69.4445 345.139 69.4445C345.486 69.4445 345.486 69.0972 345.833 69.0972C345.833 68.75 345.833 68.75 345.833 69.0972ZM352.778 68.4028L352.431 68.75L352.083 69.0972L351.736 69.4445C351.736 69.4445 351.736 69.4445 351.389 69.4445H351.736C352.083 69.4445 352.083 69.4445 352.083 69.4445C351.736 69.7917 352.083 69.4445 352.431 69.0972L352.778 68.75C352.778 68.75 352.778 68.75 352.778 68.4028C353.125 68.0556 353.125 68.0556 352.778 68.0556C352.431 68.0556 352.431 68.0556 352.431 68.0556C352.431 68.0556 352.431 68.0556 352.083 68.0556C352.431 68.75 352.778 68.75 352.778 68.4028C353.472 68.0556 353.125 68.0556 352.778 68.4028ZM344.792 69.0972C344.444 69.4445 344.444 69.7917 344.097 69.7917C343.75 69.7917 344.097 69.7917 344.097 69.4445C344.444 69.0972 344.444 69.0972 344.792 69.0972ZM351.042 69.0972C351.389 69.4445 351.389 69.4445 351.389 69.0972C351.389 68.75 350.694 68.75 351.042 69.0972ZM391.319 67.3611C391.667 68.0556 391.667 68.4028 391.319 68.4028V68.75L390.972 69.0972C390.972 69.0972 391.319 68.4028 391.319 68.0556V67.3611ZM344.792 67.3611L344.444 68.0556C344.444 68.4028 344.097 68.75 344.097 68.75V68.4028C344.097 68.4028 344.097 68.0556 344.097 67.7083L344.792 67.3611ZM344.444 67.7083L344.097 68.0556L343.75 68.4028C343.75 68.4028 343.75 68.4028 343.75 68.0556C343.75 68.0556 343.75 68.0556 343.75 67.7083C344.097 68.0556 344.097 67.7083 344.444 67.7083C344.444 67.3611 344.444 67.3611 344.444 67.7083ZM363.542 64.2361H363.194C363.194 64.2361 362.847 64.2361 362.847 64.5833V64.9306C362.847 65.2778 362.5 65.2778 362.847 65.2778V65.625C362.847 65.2778 363.194 65.2778 362.847 65.9722C362.847 66.3195 362.847 66.3195 363.194 66.3195C363.542 66.3195 363.542 66.3195 363.542 66.3195V66.6667C363.542 66.6667 363.542 66.6667 363.542 67.0139L363.194 67.3611H362.847V67.7083C362.847 67.7083 362.5 67.7083 362.5 68.0556H362.847C363.194 68.0556 363.194 68.0556 362.847 68.0556L362.5 68.4028C362.153 68.75 362.153 68.75 362.5 68.75L363.194 68.4028C363.542 68.4028 363.889 68.0556 364.236 68.0556V67.7083C364.583 67.3611 364.236 67.3611 364.236 67.3611L363.889 67.0139V66.6667V66.3195C363.889 66.3195 363.889 66.3195 363.889 65.9722C363.889 65.9722 363.889 65.9722 363.889 65.625C364.236 65.2778 364.236 64.9306 363.889 65.2778C363.542 64.9306 363.542 64.9306 363.542 64.2361C363.889 64.2361 363.889 64.2361 363.542 64.2361ZM362.153 65.9722C362.153 66.3195 361.806 66.3195 362.153 65.9722C361.806 66.3195 361.806 66.3195 361.806 66.3195V66.6667C361.806 66.6667 361.806 66.6667 361.806 67.0139C361.458 67.3611 361.458 67.3611 361.806 67.3611H362.153L362.5 67.0139C362.847 67.0139 362.847 66.6667 362.847 66.3195V65.9722V65.625C362.847 65.625 362.153 65.9722 362.153 65.9722ZM378.819 65.9722C378.472 66.3195 378.472 66.3195 378.819 66.6667C379.167 66.6667 379.167 66.6667 378.819 67.0139C378.472 67.0139 378.472 66.3195 378.819 65.9722ZM344.792 65.9722C344.444 66.3195 344.444 66.6667 344.097 66.6667C344.097 66.6667 344.444 66.3195 344.097 66.3195L344.792 65.9722ZM343.75 65.9722C343.403 66.3195 343.403 66.3195 343.75 65.9722C344.097 65.625 344.097 65.625 343.75 65.9722ZM344.444 64.2361L344.097 64.5833L343.75 64.9306H343.403H343.056H342.708L343.056 64.5833C343.403 64.2361 343.403 64.2361 343.403 64.2361C343.75 64.5833 343.75 64.5833 344.444 64.2361ZM368.75 64.2361C368.75 64.5833 368.056 64.5833 368.056 64.5833L368.403 64.2361C368.75 63.8889 368.75 63.8889 368.75 64.2361ZM343.75 63.1945C344.097 63.1945 344.097 63.1945 343.75 63.1945C343.75 63.5417 343.403 63.5417 343.403 63.5417L343.75 63.1945L343.056 63.5417H342.708L343.056 63.1945C343.75 63.1945 344.097 63.1945 343.75 63.1945ZM373.264 63.1945C373.611 63.5417 373.611 63.5417 373.264 63.5417C372.917 63.5417 372.917 63.1945 372.917 62.8472C372.917 62.8472 372.917 62.8472 373.264 63.1945ZM361.806 53.8195C361.458 53.8195 361.458 53.8195 361.458 54.1667C361.458 54.1667 361.111 54.1667 360.764 54.1667C360.417 54.1667 360.069 54.1667 360.069 54.1667C360.417 54.1667 360.417 54.5139 360.069 54.5139C360.069 54.5139 360.069 54.5139 359.375 54.5139C359.028 54.5139 358.681 54.5139 358.681 54.5139C358.681 54.5139 358.681 54.8611 358.333 54.5139L356.944 54.8611C356.944 54.8611 356.944 54.8611 356.597 55.2083C356.25 55.2083 355.903 55.5556 355.556 55.5556H355.903C355.903 55.5556 355.556 55.9028 355.208 55.9028C354.514 56.25 354.167 56.25 354.167 56.25C354.167 56.25 354.514 56.5972 354.861 56.25L354.514 56.5972C354.167 56.5972 354.167 56.5972 354.167 56.5972H354.514H354.861C355.556 56.25 355.903 56.5972 355.903 56.9445V57.2917V57.9861C355.556 58.3333 355.556 58.3333 355.903 58.3333C356.25 58.3333 356.25 58.3333 356.25 58.3333C356.597 58.6806 356.597 58.6806 356.25 58.6806H355.903C355.903 58.6806 355.556 58.6806 355.556 59.0278V59.375C355.556 59.7222 355.556 59.7222 355.903 59.7222V59.375H356.25L355.903 59.7222L355.556 60.0695C355.208 60.4167 355.208 60.4167 355.208 60.4167V60.7639V61.4583C355.208 61.8056 355.208 61.8056 355.556 61.4583C355.903 61.4583 355.903 61.4583 355.556 61.8056C355.208 62.1528 355.208 62.1528 355.556 62.5C355.556 62.8472 355.903 63.1945 355.903 63.1945H356.25H356.597C356.597 63.1945 356.944 63.1945 356.944 62.8472C356.944 62.5 357.292 62.5 357.292 62.1528L357.639 61.8056C357.986 61.4583 357.986 61.4583 357.986 61.4583C357.986 61.4583 358.333 61.4583 357.986 61.1111C357.986 61.1111 357.986 60.7639 358.333 60.7639C358.681 60.7639 358.681 60.7639 358.681 60.4167C358.681 60.7639 358.681 60.7639 358.681 60.4167C358.681 60.4167 359.028 60.4167 359.028 60.0695C359.028 60.0695 359.375 59.7222 359.722 59.7222C359.722 59.375 358.681 59.375 358.681 59.375C358.681 59.375 360.069 59.375 360.069 59.0278C360.069 59.0278 361.111 59.0278 361.806 58.6806C362.153 58.3333 362.153 58.3333 362.153 58.3333H361.806C361.458 58.3333 361.458 58.3333 361.806 58.3333C361.806 58.3333 362.153 58.3333 362.153 57.9861C362.153 57.6389 362.153 57.6389 362.153 57.9861V58.3333C362.153 58.3333 362.847 58.6806 362.847 58.3333L362.5 57.9861C362.153 57.9861 362.153 57.6389 362.153 57.6389L362.5 57.9861V57.6389C362.153 57.6389 362.153 57.2917 362.153 57.2917H362.5C362.847 57.2917 363.194 57.2917 363.194 57.2917C363.194 57.2917 363.194 56.9445 363.542 56.9445C363.194 56.9445 363.194 56.5972 363.542 56.5972H363.889C363.889 56.25 363.889 56.25 363.542 56.25C363.194 56.25 363.194 55.9028 363.542 55.9028H363.889C364.236 55.9028 364.236 55.9028 364.236 55.9028C364.236 55.5556 364.236 55.5556 364.236 55.5556H363.889C363.889 55.5556 363.889 55.5556 363.542 55.5556L363.889 55.2083C363.889 54.8611 364.236 54.8611 364.236 54.8611L364.583 54.5139C364.931 54.5139 364.931 54.1667 365.278 54.1667H365.625C365.278 54.1667 365.278 54.1667 364.931 54.1667H364.583H364.236H363.889L364.236 53.8195C364.236 53.8195 364.236 53.8195 363.889 53.8195H363.542L363.889 53.4722H363.542C363.194 53.8195 362.5 53.8195 361.806 53.8195ZM349.653 62.5C349.306 62.5 349.306 62.8472 349.306 62.8472V63.1945V63.5417H349.653C349.653 63.5417 349.653 63.5417 350 63.5417C350.347 63.1945 350.347 63.1945 350.347 63.5417H350.694C350 62.8472 349.653 62.8472 349.653 62.5ZM393.403 61.8056C393.056 61.8056 393.056 61.8056 393.403 61.8056ZM365.972 60.7639L365.278 61.1111C364.931 61.1111 364.931 61.1111 364.931 61.4583H364.583C364.583 61.4583 364.583 61.4583 364.236 61.4583C363.889 61.4583 363.889 61.8056 364.236 61.8056C364.583 61.8056 364.583 61.8056 364.236 62.1528V62.5C364.583 62.5 364.236 62.8472 364.236 62.8472C364.236 62.8472 364.236 62.8472 364.583 62.8472C365.278 62.8472 366.319 62.8472 366.319 62.1528L365.972 60.7639ZM346.875 60.0695C346.528 60.0695 346.528 60.0695 346.528 60.4167C346.528 60.7639 346.181 60.7639 346.181 60.4167C346.181 60.0695 346.181 60.0695 345.833 60.4167H345.486C345.139 60.4167 345.139 60.4167 345.486 60.4167C345.486 60.4167 345.486 60.0695 345.139 60.0695H344.792H344.444V60.7639L344.097 61.1111L343.75 61.4583C343.75 61.4583 344.097 61.4583 344.444 61.1111C344.792 61.1111 344.792 61.1111 344.792 61.1111H344.444H344.097H343.75C343.75 61.1111 344.444 60.7639 344.792 60.7639H345.139C345.486 60.7639 345.833 60.7639 345.833 60.4167V60.0695H346.875C347.222 60.0695 347.222 60.0695 347.222 60.0695C347.222 59.7222 346.875 59.7222 346.875 60.0695ZM352.083 61.1111C351.389 61.4583 351.389 61.8056 351.389 61.8056C351.736 61.8056 352.083 61.8056 352.083 61.1111ZM392.014 61.1111V61.4583L392.708 61.8056C392.708 61.8056 392.708 61.4583 392.361 61.4583C392.361 61.1111 392.361 61.1111 392.014 61.1111ZM376.736 60.4167V60.7639C377.083 61.1111 377.431 60.7639 377.083 60.4167C377.431 60.0695 377.083 60.0695 376.736 60.4167ZM347.917 59.375C347.917 59.7222 347.569 59.7222 347.917 59.375C347.569 59.7222 347.569 59.7222 347.569 59.7222H347.222L347.569 60.0695C347.569 60.0695 347.569 60.0695 347.917 60.0695H348.264C348.264 60.0695 348.611 59.7222 347.917 59.375C348.264 59.7222 348.264 59.7222 347.917 59.375H348.264C348.611 59.375 348.264 59.375 347.917 59.375ZM386.806 60.0695C387.153 60.4167 387.153 60.4167 386.806 60.0695C386.458 60.0695 386.458 59.7222 386.458 59.7222C386.458 59.375 386.806 59.7222 386.806 60.0695ZM352.083 59.375C352.431 59.7222 352.083 59.7222 352.083 59.375C352.431 59.375 352.431 59.375 352.431 59.7222C352.431 59.7222 352.431 59.7222 352.083 60.0695L351.736 60.4167C351.389 60.4167 351.389 60.4167 351.736 60.4167C352.083 60.0695 352.083 59.7222 352.083 59.375ZM346.875 58.6806C346.875 59.0278 346.528 59.0278 346.875 58.6806V59.0278C346.875 59.0278 346.875 59.0278 346.528 59.0278H346.181H345.833H345.486L345.139 59.375H345.486H345.833H346.181C346.528 59.375 346.528 59.0278 346.875 59.0278C347.222 59.0278 347.222 58.6806 347.569 58.6806H347.222C347.222 59.0278 347.222 59.0278 346.875 58.6806ZM345.486 59.375C345.486 59.7222 345.486 59.7222 345.486 59.375C345.833 59.375 345.833 59.375 345.833 59.375C345.833 59.375 346.181 59.375 346.181 59.0278C346.528 59.0278 345.833 59.0278 345.486 59.375ZM379.861 57.6389H379.167C378.472 57.6389 378.125 57.9861 377.778 57.9861L377.431 58.3333V58.6806C377.431 58.6806 377.431 58.6806 377.431 59.0278C377.431 59.0278 377.431 59.375 377.083 59.375C376.736 59.375 377.083 59.7222 377.431 59.7222C377.431 59.7222 377.778 59.7222 377.778 60.0695L378.125 60.4167H378.472L378.125 60.0695L377.778 59.7222C377.778 59.375 378.125 58.6806 378.472 58.6806C378.819 57.9861 379.167 57.9861 379.861 57.6389C380.208 57.9861 380.208 57.9861 380.208 57.6389H379.861ZM349.306 58.6806C349.653 59.0278 349.306 59.375 349.306 58.6806C349.653 58.6806 349.653 58.6806 349.306 58.6806ZM348.958 58.3333L348.611 58.6806C348.611 58.6806 348.611 58.6806 348.264 58.6806C348.264 58.6806 347.917 58.6806 347.917 59.0278H348.264C348.611 59.0278 348.611 59.0278 348.264 59.0278C348.611 59.0278 348.958 58.6806 348.958 58.3333ZM385.764 57.9861V58.3333C386.111 58.3333 386.458 58.3333 386.458 58.6806C386.458 58.6806 386.458 58.3333 386.111 58.3333L385.764 57.9861ZM348.958 57.6389H348.611C348.611 57.6389 348.264 57.6389 348.264 57.9861H348.611C348.611 58.3333 348.958 57.9861 348.958 57.9861C349.306 57.9861 348.958 57.6389 348.958 57.6389ZM353.819 55.5556C353.472 55.5556 353.472 55.9028 353.125 55.9028H352.778H352.431L352.083 56.25C351.736 56.25 351.736 56.5972 351.736 56.5972H352.083L352.431 56.25C352.778 56.25 353.125 56.25 353.125 56.25H352.778L352.431 56.5972C352.431 56.5972 352.083 56.25 352.083 56.5972L351.736 56.9445L351.389 57.2917C351.389 57.6389 351.389 57.6389 351.736 57.2917C352.083 57.2917 352.083 57.2917 351.736 57.2917C351.389 57.6389 351.389 57.6389 351.736 57.6389C351.736 57.6389 352.083 57.6389 352.778 57.2917H353.125L353.472 56.9445V56.5972C353.819 56.9445 353.472 56.9445 353.125 56.9445H351.389C351.389 57.2917 351.389 57.2917 351.042 57.2917C350.694 57.2917 350.694 57.2917 350.694 57.2917L350.347 57.6389H350.694H351.042C352.083 57.2917 352.431 57.2917 352.083 57.2917C352.083 57.2917 352.431 57.2917 352.431 56.9445H352.778L353.125 56.5972C353.472 56.5972 353.472 56.5972 353.125 56.5972C353.125 56.5972 353.125 56.5972 353.125 56.25C353.472 56.25 354.167 55.9028 354.514 55.5556C354.861 55.5556 355.208 55.2083 355.208 55.2083L355.556 54.8611L355.903 54.5139C356.25 54.5139 356.25 54.5139 356.25 54.1667C355.903 54.8611 354.514 55.2083 353.819 55.5556ZM384.375 56.9445C384.028 57.2917 384.028 57.2917 384.375 57.2917H384.722C384.722 57.2917 385.069 57.6389 385.417 57.6389C385.764 57.6389 385.764 57.6389 385.764 57.6389L385.417 57.2917C385.417 57.2917 385.069 57.2917 385.069 56.9445C385.069 57.2917 384.722 57.2917 384.375 56.9445ZM368.056 54.8611C367.708 54.8611 367.014 54.8611 367.014 55.2083C367.014 55.5556 367.361 55.5556 367.708 55.5556H368.056C368.056 55.5556 368.056 55.5556 367.708 55.5556C367.361 55.5556 367.361 55.5556 367.708 55.9028C367.708 55.9028 367.708 55.9028 368.056 56.25C368.403 56.5972 368.403 56.5972 368.403 56.25L368.75 55.9028L369.097 55.5556L369.444 55.2083L369.792 55.5556C369.792 55.9028 370.486 55.9028 370.486 55.5556H370.139C369.792 55.5556 369.792 55.2083 369.444 55.2083C369.444 55.2083 369.097 55.2083 369.097 54.8611C368.403 54.8611 368.056 54.8611 368.056 54.8611ZM376.042 55.5556C375.694 55.5556 375.694 55.5556 375.694 55.5556C375.694 55.9028 375.694 55.9028 376.042 55.5556ZM369.444 54.5139H368.75C368.056 54.5139 368.403 54.8611 368.75 54.8611C369.097 54.8611 369.097 54.8611 369.097 55.2083C369.444 55.2083 370.139 54.8611 370.139 54.8611L369.444 54.5139ZM350.694 58.3333H350.347C350.347 58.3333 350.347 58.3333 350.347 57.9861H350V58.3333V58.6806C349.653 58.6806 350 59.0278 350.347 58.6806H350.694V59.0278C350.694 59.0278 350.694 59.0278 351.736 59.0278L352.778 58.6806H353.125H352.083H350.694V58.3333Z" fill="white"/>
</svg>
