<svg width="800" height="250" viewBox="0 0 800 250" fill="none" xmlns="http://www.w3.org/2000/svg">
<g clip-path="url(#clip0_17_1460)">
<path fill-rule="evenodd" clip-rule="evenodd" d="M483.835 194.87L489.306 211.969L495.193 194.87H500.663C500.663 194.87 490.622 221.37 489.375 224.095C488.198 226.547 487.783 227.024 486.051 228.182C485.013 228.864 482.312 228.932 480.234 229H478.503V224.64C479.542 224.708 482.312 224.776 483.558 224.163C484.943 223.141 486.536 219.122 486.744 218.373L486.813 218.236L486.882 218.1L478.364 194.938H483.835V194.87Z" fill="#E9521F"/>
<path fill-rule="evenodd" clip-rule="evenodd" d="M457.935 202.159C457.45 200.66 456.758 199.298 455.858 198.139C454.957 196.981 453.78 196.096 452.464 195.415C451.079 194.733 449.486 194.393 447.686 194.393C446.024 194.393 444.5 194.733 443.184 195.346C441.799 195.96 440.622 196.845 439.653 197.935C438.614 199.025 437.852 200.319 437.298 201.818C436.744 203.317 436.467 204.884 436.467 206.587V206.655C436.467 208.426 436.744 210.129 437.367 211.56C437.991 213.059 438.822 214.353 439.86 215.375C440.899 216.465 442.146 217.283 443.6 217.896C445.054 218.441 446.578 218.781 448.24 218.781C450.317 218.781 452.187 218.373 453.641 217.555C455.165 216.738 456.481 215.716 457.589 214.353L454.472 211.56C453.572 212.446 452.603 213.195 451.633 213.672C450.664 214.149 449.556 214.353 448.24 214.353C446.509 214.353 445.124 213.808 443.877 212.854C442.7 211.833 441.938 210.334 441.661 208.426H458.489C458.489 208.154 458.558 207.881 458.558 207.677C458.558 207.404 458.558 207.2 458.558 206.928C458.628 205.293 458.42 203.658 457.935 202.159ZM441.73 204.339C441.938 202.499 442.63 201.614 443.669 200.456C444.777 199.298 446.093 198.753 447.686 198.753C448.517 198.753 449.348 198.889 450.04 199.229C450.733 199.57 451.287 199.979 451.772 200.524C452.256 201.069 452.672 201.75 452.949 202.499C453.226 203.249 453.434 203.521 453.503 204.339H441.73Z" fill="#E9521F"/>
<path fill-rule="evenodd" clip-rule="evenodd" d="M411.398 201.818C410.775 200.388 409.944 199.093 408.905 198.003C407.797 196.913 406.55 196.028 405.096 195.414C403.573 194.801 401.98 194.461 400.179 194.461C398.448 194.461 396.786 194.801 395.332 195.414C393.808 196.096 392.562 196.913 391.453 198.071C390.345 199.161 389.514 200.456 388.891 201.954C388.268 203.453 387.991 205.02 387.991 206.723V206.791C387.991 208.426 388.268 209.993 388.891 211.492C389.514 212.991 390.345 214.217 391.453 215.307C392.562 216.397 393.808 217.283 395.332 217.896C396.786 218.509 398.448 218.849 400.179 218.849C401.911 218.849 403.573 218.509 405.096 217.896C406.62 217.214 407.866 216.329 408.974 215.239C410.013 214.149 410.913 212.854 411.536 211.356C412.16 209.857 412.437 208.358 412.437 206.655V206.587C412.367 204.816 412.021 203.249 411.398 201.818ZM407.104 206.723C407.104 207.745 406.966 208.699 406.62 209.584C406.273 210.47 405.858 211.288 405.235 211.969C404.611 212.65 403.919 213.195 403.088 213.604C402.257 214.013 401.287 214.217 400.179 214.217C399.21 214.217 398.24 214.013 397.409 213.604C396.578 213.195 395.816 212.65 395.193 211.969C394.57 211.288 394.085 210.47 393.739 209.584C393.393 208.699 393.185 207.745 393.185 206.723V206.655C393.185 205.633 393.323 204.679 393.67 203.726C394.016 202.84 394.431 202.023 395.055 201.409C395.678 200.728 396.37 200.183 397.271 199.774C398.102 199.366 399.071 199.229 400.11 199.229C401.149 199.229 402.118 199.434 402.949 199.774C403.78 200.183 404.542 200.728 405.165 201.409C405.789 202.091 406.273 202.908 406.62 203.794C406.966 204.679 407.174 205.701 407.174 206.723H407.104Z" fill="#E9521F"/>
<path fill-rule="evenodd" clip-rule="evenodd" d="M377.395 194.393C381.273 194.393 383.836 195.687 385.844 197.731L386.467 198.412L383.213 202.023C381.62 200.319 379.958 199.093 377.326 199.093C373.517 199.093 370.747 202.431 370.747 206.587C370.747 210.811 373.587 214.149 377.603 214.149C379.75 214.149 381.412 213.263 382.936 211.833L383.559 211.219L386.744 214.421C384.528 217.01 381.827 218.781 377.395 218.781C370.609 218.781 365.553 213.331 365.553 206.655C365.553 199.979 370.609 194.393 377.395 194.393Z" fill="#E9521F"/>
<path fill-rule="evenodd" clip-rule="evenodd" d="M354.265 194.529C355.72 194.529 357.174 194.801 358.628 195.21C359.736 195.551 360.775 196.028 361.744 196.573L362.645 197.186L360.567 201.001C359.459 200.319 358.351 199.774 357.243 199.366C356.135 198.957 355.096 198.753 354.127 198.753C353.088 198.753 352.326 198.957 351.772 199.434C351.357 199.774 351.08 200.183 351.01 200.66L350.941 201.137V201.205C350.941 201.614 351.08 201.954 351.357 202.295C351.634 202.636 352.049 202.908 352.534 203.113C353.019 203.385 353.573 203.589 354.196 203.794C354.819 203.998 355.443 204.203 356.135 204.475C356.966 204.748 357.797 205.02 358.628 205.429C359.459 205.769 360.221 206.246 360.913 206.723C361.606 207.268 362.16 207.881 362.576 208.631C362.922 209.176 363.13 209.789 363.199 210.538L363.268 211.288V211.356C363.268 212.582 363.06 213.672 362.645 214.558C362.229 215.443 361.606 216.261 360.844 216.806C360.082 217.419 359.182 217.896 358.143 218.168C357.105 218.441 355.997 218.645 354.819 218.645C353.157 218.645 351.495 218.373 349.833 217.759C348.587 217.283 347.34 216.738 346.232 215.988L345.124 215.171L347.479 211.56C348.725 212.514 349.972 213.195 351.287 213.672C352.534 214.149 353.781 214.421 354.958 214.421C356.066 214.421 356.966 214.149 357.589 213.74C358.074 213.399 358.351 212.991 358.49 212.446L358.559 211.901V211.833C358.559 211.424 358.42 211.015 358.143 210.674C357.866 210.334 357.52 210.061 357.035 209.789C356.551 209.516 355.997 209.312 355.373 209.108C354.75 208.903 354.127 208.699 353.434 208.494C352.603 208.29 351.772 207.949 350.941 207.677C350.11 207.336 349.348 206.928 348.656 206.451C347.963 205.906 347.409 205.293 346.994 204.543C346.648 203.998 346.44 203.317 346.371 202.499L346.301 201.682V201.614C346.301 200.524 346.509 199.502 346.925 198.616C347.34 197.731 347.894 196.981 348.656 196.368C349.418 195.755 350.249 195.278 351.218 194.938C352.118 194.665 353.157 194.529 354.265 194.529Z" fill="#E9521F"/>
<path fill-rule="evenodd" clip-rule="evenodd" d="M421.924 218.441L412.575 194.87H418.185L424.348 212.037L430.511 194.87H436.052L426.703 218.441H421.924Z" fill="#E9521F"/>
<path fill-rule="evenodd" clip-rule="evenodd" d="M299.903 193.575C306.551 193.575 311.952 199.093 311.952 205.906C311.952 212.718 306.551 218.236 299.903 218.236C293.255 218.236 287.853 212.718 287.853 205.906C287.853 199.161 293.255 193.575 299.903 193.575Z" fill="#E9521F"/>
<path d="M341.523 194.87H336.26V218.236H341.523V194.87Z" fill="#E9521F"/>
<path fill-rule="evenodd" clip-rule="evenodd" d="M467.769 194.87V198.753C469.5 196.573 472.201 195.619 474.071 195.142L474.833 195.006L476.633 199.502C474.348 199.843 469.985 201.069 468.392 205.293C468.046 206.11 467.907 207.132 467.838 208.222V209.38V218.236H462.575V194.87H467.769Z" fill="#E9521F"/>
<path fill-rule="evenodd" clip-rule="evenodd" d="M317.077 187.103C326.634 187.103 333.144 193.779 333.144 202.499C333.144 211.219 326.565 218.032 317.077 218.032H307.867C309.736 216.806 311.26 215.103 312.368 213.059H317.077C323.448 213.059 327.603 208.699 327.603 202.568C327.603 196.504 323.448 192.008 317.077 192.008H311.122V196.573C310.221 195.483 309.182 194.461 308.074 193.643C307.382 193.098 306.62 192.689 305.789 192.349V187.035H317.077V187.103Z" fill="#E9521F"/>
<path fill-rule="evenodd" clip-rule="evenodd" d="M239 22.0001V154.963H260.911V123.123C260.911 115.972 260.911 114.014 261.109 109.941C261.306 105.868 261.7 99.6801 264.173 95.1437C266.647 90.6073 271.2 87.7232 275.351 86.339C279.502 84.9547 283.251 85.0701 286.464 85.8202C289.678 86.5702 292.355 87.9544 294.344 90.531C296.333 93.1077 297.634 96.8769 298.226 100.53C298.819 104.183 298.705 107.721 298.647 113.008C298.59 118.295 298.59 125.333 298.59 130.178C298.59 135.023 298.59 137.676 299.355 140.906C300.12 144.136 301.65 147.943 305.361 151.077C309.072 154.211 314.964 156.671 320.989 156.709C325.907 156.74 330.892 155.161 334.626 153.752V135.95C331.777 136.967 327.861 137.905 325.445 137.348C322.69 136.714 321.888 134.138 321.486 130.696C321.084 127.255 321.084 122.947 321.084 116.564C321.084 110.181 321.084 101.722 320.299 95.3196C319.515 88.9171 317.948 84.5708 315.404 80.3409C312.86 76.1109 309.34 71.997 304.559 69.1897C299.777 66.3823 293.733 64.883 287.918 64.6522C282.103 64.4213 276.517 65.4594 271.831 67.1899C267.585 68.7576 264.079 70.8987 260.911 74.5607V22.0001H239Z" fill="#E9521F"/>
<path fill-rule="evenodd" clip-rule="evenodd" d="M466.374 22V154.963H488.284V123.123C488.284 115.972 488.285 114.014 488.482 109.941C488.68 105.868 489.073 99.68 491.547 95.1436C494.021 90.6072 498.573 87.7232 502.724 86.3389C506.875 84.9547 510.625 85.0701 513.838 85.8202C517.052 86.5702 519.728 87.9544 521.717 90.5309C523.706 93.1076 525.007 96.8769 525.6 100.53C526.193 104.183 526.078 107.721 526.021 113.008C525.964 118.295 525.964 125.332 525.964 130.178C525.964 135.023 525.963 137.675 526.728 140.906C527.494 144.136 529.024 147.943 532.735 151.077C536.446 154.21 542.338 156.671 548.363 156.709C553.281 156.74 558.266 155.161 562 153.752V135.95C559.151 136.967 555.235 137.905 552.818 137.348C550.064 136.714 549.262 134.138 548.86 130.696C548.458 127.255 548.458 122.947 548.458 116.564C548.458 110.181 548.457 101.722 547.673 95.3195C546.889 88.9171 545.321 84.5707 542.777 80.3408C540.233 76.1108 536.714 71.997 531.932 69.1896C527.15 66.3822 521.106 64.883 515.291 64.6522C509.476 64.4213 503.891 65.4594 499.204 67.1898C494.959 68.7575 491.453 70.8986 488.284 74.5607V22H466.374Z" fill="#E9521F"/>
<path d="M391.812 27.8987C386.913 27.8451 381.904 28.7913 376.957 31.0278C371.303 33.5837 365.731 37.8243 362.323 42.0528C358.914 46.2812 357.038 50.2655 356.064 54.6569C355.091 59.0484 355.019 63.8469 357.251 70.0193C358.536 73.5735 360.802 77.6639 364.271 82.5777C361.562 84.1557 358.617 86.2218 355.884 88.9301C351.096 93.6751 346.985 100.337 345.024 108.603C343.063 116.869 343.252 126.74 346.904 134.557C350.556 142.374 357.67 148.139 365.772 152.081C373.874 156.024 382.962 158.144 392.105 157.573C401.248 157.002 410.445 153.739 417.005 150.354C419.573 149.029 421.722 147.69 423.456 146.495L431.653 154.963H461.212L436.579 130.584L436.363 130.417C437.961 127.119 439.421 122.3 440.228 117.631C441.229 111.839 441.228 106.319 441.228 101.112V88.3999H422.399C422.396 93.5084 422.368 100.615 421.982 106.02C421.736 109.466 421.34 112.172 420.736 114.534C413.34 107.145 404.662 98.4911 397.91 91.7571C388.701 82.5722 384.415 78.2839 381.364 74.2752C378.313 70.2664 376.497 66.5366 376.334 62.739C376.171 58.9415 377.662 55.0764 379.767 52.3844C381.871 49.6924 384.587 48.1747 387.801 47.5691C391.014 46.9635 394.725 47.271 397.707 48.4371C400.69 49.6032 402.943 51.6269 404.07 54.7054C404.741 56.54 405.009 58.7424 405.119 60.6653H426.02C426.089 59.8011 426.118 58.9159 426.094 58.0142C425.945 52.481 423.97 46.4184 421.022 41.9317C418.074 37.445 414.152 34.536 409.5 32.2654C404.847 29.9948 399.464 28.3624 393.905 27.9815C393.21 27.934 392.512 27.9064 391.812 27.8987ZM375.355 96.4615C384.617 107.146 397.206 120.268 404.211 127.569C406.192 129.633 407.666 131.168 408.868 132.409C407.553 133.425 406.064 134.33 404.224 135.114C400.328 136.773 394.891 137.914 389.143 137.859C383.395 137.805 377.336 136.554 373.13 134.244C368.923 131.933 366.57 128.562 365.407 124.171C364.243 119.779 364.271 114.367 366.178 109.609C368.085 104.85 375.057 96.8404 375.355 96.4615Z" fill="#E9521F"/>
</g>
<defs>
<clipPath id="clip0_17_1460">
<rect width="323" height="207" fill="white" transform="translate(239 22)"/>
</clipPath>
</defs>
</svg>
