<svg width="800" height="250" viewBox="0 0 800 250" fill="none" xmlns="http://www.w3.org/2000/svg">
<g clip-path="url(#clip0_17_738)">
<path d="M592.204 118.424C589.548 104.665 576.347 98.0893 570.391 96.531C563.753 94.8206 556.621 95.3147 550.362 98.0133C547.327 99.3056 543.268 101.624 540.764 103.867C538.147 101.358 532.267 97.8993 525.628 97.8993C519.786 98.1653 495.925 100.94 489.78 104.209C486.404 98.2794 481.131 91.6278 474.758 91.1337C471.761 90.9056 468.84 92.1219 467.057 94.5545C464.553 97.9753 464.743 102.612 465.54 107.668C456.435 98.5074 435.951 97.9373 422.939 97.8233C410.572 97.7472 394.412 100.94 389.822 103.449C392.136 102.042 401.088 96.835 406.627 89.2332C412.241 90.1074 418.652 87.1047 421.877 82.4676C425.367 77.3744 425.556 70.5708 422.749 65.1355C420.435 60.6504 416.224 57.2676 411.407 55.8993C406.21 54.4169 400.444 55.4812 396.233 58.902C395.626 53.1246 391.491 48.2215 386.18 46.0929C380.49 43.8124 373.737 44.6486 368.882 48.4495C366.264 50.502 364.254 53.3527 363.343 56.5454C362.319 60.3083 362.85 64.4133 364.747 67.7581C364.747 67.7581 364.709 67.7961 364.709 67.8341C359.891 72.2052 355.567 78.6667 355.984 85.4703C344.452 73.9916 330.909 64.9074 318.277 58.3699C305.493 51.7563 281.025 41.6079 255.836 41.0377C248.401 40.8477 231.899 41.5319 224.388 43.8124C208.38 48.6015 206.824 60.2703 208.532 65.3255C210.466 70.9889 217.105 73.2314 225.602 71.7491C228.751 71.1789 232.013 68.5563 232.772 64.4513C245.139 63.7291 259.402 64.7554 273.059 68.4423C269.91 76.8803 267.899 87.8649 266.761 100.408C259.857 101.89 251.55 104.285 245.177 107.402C239.486 110.176 233.227 114.205 231.027 120.515C228.637 127.242 232.582 133.856 236.755 138.911C241.155 144.27 251.891 154.305 266.534 161.336C267.141 164.947 268.772 172.511 276.473 174.982C281.784 176.692 288.536 175.476 292.405 169.888C297.261 170.991 306.252 171.599 311.714 171.637V179.277C311.714 188.741 319.377 196.495 328.823 196.495H521.835C524.263 201.55 529.194 207.593 534.846 208.696C545.013 210.71 546.189 201.246 546.758 198.281C547.327 195.164 547.782 192.048 548.769 189.007L556.204 164.073C562.691 163.085 570.05 160.006 575.285 156.167C580.444 152.404 584.882 147.653 588.145 142.18C592.356 135.072 594.176 126.634 592.204 118.424Z" fill="#1369CE"/>
<path d="M381.476 74.2199C373.32 75.5883 368.199 80.3394 369.45 84.1403C372.523 80.4914 377.037 76.8045 381.476 74.2199ZM375.33 89.0435C376.848 89.4996 378.669 89.8036 380.793 89.8036C385.952 89.8036 397.939 85.0145 397.939 79.1611C397.939 78.1729 397.37 75.6643 394.222 75.6643C389.366 75.6643 379.465 84.4064 375.33 89.0435ZM375.406 69.1647C372.827 68.1385 370.626 66.2 369.64 63.6154C368.54 60.7647 369.071 57.572 370.93 55.1774C374.344 50.7683 381.096 49.9702 385.686 52.9349C388.152 54.5312 389.897 57.1919 390.011 60.1566C390.125 62.5512 389.176 64.8697 387.545 66.5801C391.756 66.8082 394.639 68.9747 396.65 70.8751C396.688 70.8751 396.763 70.8751 396.801 70.8751C396.877 69.4688 397.219 68.0245 397.901 66.8082C399.495 64.0715 402.264 62.2471 405.375 61.905C408.485 61.5249 412.127 62.6272 415.2 65.7819C416.945 67.5683 417.969 70.0769 418.121 72.6235C418.31 75.5883 417.172 78.591 414.934 80.5674C412.62 82.6199 409.396 83.3421 406.399 82.81C405.109 82.6959 403.895 82.2778 402.795 81.6697C399.381 89.3095 387.621 97.0254 379.731 96.8733C366.264 96.6453 362.926 88.8534 362.926 84.4064C363.001 79.9593 367.667 72.9276 375.406 69.1647Z" fill="white"/>
<path d="M330.416 190.414C327.001 190.414 322.184 188.665 320.932 184.902C319.908 181.824 321.387 178.593 325.37 175.286C334.285 167.798 339.52 166.506 343.086 166.24C347.41 165.898 349.155 168.634 349.497 170.155C349.8 171.561 348.89 172.929 347.524 173.233C346.234 173.5 344.945 172.739 344.527 171.523C344.413 171.447 344.11 171.371 343.503 171.409C340.696 171.637 336.485 172.739 328.67 179.277C326.091 181.405 325.712 182.812 325.863 183.268C326.167 184.142 328.253 185.13 329.998 185.244C333.754 185.434 348.548 184.598 351.583 183.572C352.949 183.116 354.39 183.838 354.845 185.168C355.301 186.537 354.58 187.981 353.214 188.437C349.421 189.691 335.575 190.414 330.416 190.414Z" fill="white"/>
<path d="M377.151 178.783L377.644 189.805C377.72 191.25 376.62 192.428 375.179 192.504C375.141 192.504 375.103 192.504 375.065 192.504C373.699 192.504 372.561 191.44 372.485 190.034L372.03 180.189C369.792 180.835 367.136 181.595 364.519 182.394V188.741C364.519 190.148 363.381 191.326 361.939 191.326C360.498 191.326 359.36 190.148 359.36 188.741V183.952C359.094 184.028 358.867 184.104 358.639 184.18C358.373 184.256 358.146 184.294 357.918 184.294C356.818 184.294 355.794 183.572 355.452 182.47C355.035 181.101 355.794 179.657 357.16 179.239C357.615 179.087 358.411 178.859 359.398 178.555V169.053C359.398 167.608 360.536 166.468 361.977 166.468C363.419 166.468 364.557 167.608 364.557 169.053V177.034C366.985 176.312 369.602 175.552 371.84 174.906L371.461 166.772C371.385 165.366 372.485 164.149 373.927 164.073C375.33 164.035 376.544 165.1 376.62 166.544L376.924 173.576C377.075 173.538 377.227 173.5 377.341 173.5C378.744 173.272 380.186 174.26 380.3 175.666C380.376 177.3 379.465 178.441 377.151 178.783Z" fill="white"/>
<path d="M414.024 193.834C412.544 193.986 411.52 193.226 411.179 192.124C411.103 191.934 410.913 191.326 410.875 180.873C410.837 169.471 411.065 168.71 412.924 167.95C414.972 167.076 416.262 168.71 418.197 171.219C419.448 172.777 421.004 174.906 422.673 177.148C424.19 179.201 426.163 181.824 427.718 183.8C427.794 179.505 428.401 166.734 428.553 165.518C428.742 164.111 429.994 163.123 431.436 163.275C432.839 163.465 433.864 164.757 433.674 166.164C433.56 167.038 432.953 177.262 432.915 181.595C432.877 186.043 432.839 189.691 430.753 190.946C429.767 191.554 428.591 191.592 427.491 191.022C426.277 190.414 424.759 188.589 418.538 180.227C417.779 179.201 416.907 178.023 416.072 176.92C416.034 182.356 416.148 189.729 416.224 191.022C416.3 192.2 415.503 193.682 414.024 193.834Z" fill="white"/>
<path d="M459.318 190.68C456.814 191.82 454.273 189.539 449.986 185.434L449.607 185.054C448.506 183.99 446.761 182.166 444.941 180.227C444.296 179.543 443.499 178.707 442.74 177.909C442.892 181.215 443.196 185.586 443.499 189.653C443.613 191.06 442.551 192.314 441.109 192.428C441.033 192.428 440.995 192.428 440.919 192.428C439.592 192.428 438.454 191.402 438.34 190.033C438.34 190.033 437.998 185.586 437.733 181.139C437.202 171.903 437.088 170.231 439.44 169.509C441.375 168.938 442.058 169.661 448.658 176.692C450.365 178.479 452.11 180.341 453.134 181.329L453.514 181.71C454.083 182.242 454.879 183.002 455.714 183.762C455.297 179.201 454.538 171.979 454.083 167.76C453.931 166.354 454.955 165.062 456.359 164.91C457.763 164.757 459.052 165.784 459.204 167.228C459.28 167.912 461.025 184.142 461.139 187.259C461.29 189.539 459.887 190.414 459.318 190.68Z" fill="white"/>
<path d="M486.214 188.817C483.634 190.566 478.058 190.033 472.519 190.566C469.864 190.832 467.815 190.338 466.981 189.349C466.26 188.475 465.615 185.016 465.16 181.291C465.122 181.101 465.084 180.873 465.084 180.645C465.084 180.607 465.084 180.569 465.084 180.531C464.553 175.856 464.249 171.067 464.249 170.991C464.249 169.775 464.818 168.976 465.274 168.52C466.563 167.266 468.384 167.228 471.495 167.304C474.644 167.38 482.003 166.924 482.951 166.848C484.165 166.62 485.379 167.342 485.796 168.52C486.252 169.889 485.569 171.333 484.203 171.827C483.217 172.169 473.43 172.511 471.381 172.511C471.002 172.511 470.243 172.473 469.522 172.511C469.636 173.842 469.674 174.45 469.902 176.578C474.112 176.426 479.385 176.046 481.775 175.628C482.913 175.438 484.241 176.578 484.279 178.023C484.317 179.125 483.558 180.265 482.155 180.531C478.589 181.215 474.302 181.443 470.547 181.595C470.66 182.584 470.964 185.054 471.078 185.662C473.392 185.891 477.716 185.358 483.786 184.18C485.189 183.914 486.365 183.876 487.086 185.092C487.693 186.271 487.39 188.019 486.214 188.817Z" fill="white"/>
<path d="M493.838 165.442C495.242 165.442 496.418 166.544 496.418 167.988C496.418 168.672 496.722 184.104 496.759 186.765C496.835 186.765 496.949 186.727 497.025 186.727C500.174 186.195 507.95 185.016 515.651 185.815C517.055 185.967 518.117 187.221 517.965 188.665C517.813 190.072 516.561 191.136 515.12 190.984C507.988 190.262 500.781 191.364 497.897 191.858C494.635 192.428 491.6 191.022 491.6 187.107C491.6 186.157 491.373 174.298 491.259 168.14C491.259 166.658 492.435 165.442 493.838 165.442Z" fill="white"/>
<path d="M385.383 192.998C383.79 192.808 382.841 191.25 383.183 189.843C383.486 188.475 383.828 187.221 384.093 186.005C383.107 185.929 382.234 185.358 381.855 184.37C381.324 183.04 381.969 181.557 383.335 181.025C383.448 180.987 384.283 180.645 385.573 180.151C389.783 164.149 391.301 164.073 393.046 164.035C394.411 163.997 395.739 163.959 401.695 174.754C402.795 174.83 403.743 175.59 404.047 176.692C404.237 177.376 404.123 178.061 403.781 178.631C405.147 181.253 406.74 184.37 408.561 188.019C409.206 189.311 408.675 190.87 407.385 191.478C406.095 192.124 404.578 191.592 403.933 190.338C402.378 187.183 400.633 183.876 399.002 180.797C396.156 181.71 392.704 183.002 389.973 184.028C389.366 186.347 388.759 188.741 388.228 190.984C387.925 192.238 386.749 193.188 385.383 192.998ZM391.566 177.947C393.198 177.338 394.905 176.73 396.46 176.236C395.36 174.298 394.411 172.587 393.615 171.295C393.008 173.005 392.325 175.324 391.566 177.947Z" fill="white"/>
<path d="M451.086 154.647C447.027 154.647 445.472 151.606 445.434 143.776C445.396 137.695 448.127 115.688 452.983 110.785C453.552 110.214 454.121 109.91 454.652 109.91C454.69 109.91 454.728 109.91 454.766 109.91C458.483 110.176 466.222 121.693 471.381 129.295C476.123 136.327 477.337 137.961 478.323 137.961C478.399 137.961 478.475 137.961 478.551 137.923C479.727 137.581 480.296 135.985 480.296 132.868C480.296 128.953 478.171 121.921 476.161 115.118C474.492 109.53 472.898 104.247 472.898 101.891C472.898 99.1158 473.733 99.1158 474.112 99.1158C479.651 99.1158 490.538 118.348 490.614 134.73C490.614 141.838 486.252 152.138 479.385 152.176C475.326 152.176 468.574 141.572 464.098 134.578C460.266 128.535 458.901 126.596 457.838 126.596C456.093 126.596 455.904 129.675 455.676 136.631C455.486 143.776 455.145 154.647 451.086 154.647Z" fill="white"/>
<path d="M418.69 155.331C408.334 155.331 402.15 152.405 398.812 149.972C396.043 147.957 393.235 144.651 393.235 141.876C393.198 132.678 403.668 132.146 405.754 132.108C408.447 132.108 413.834 132.64 418.462 133.628C426.315 135.3 426.922 137.087 426.922 137.581C426.922 138.113 426.542 138.607 426.239 138.911C425.025 140.128 422.104 141.382 418.386 141.42H418.348C415.731 141.42 412.355 140.09 409.358 138.911C406.626 137.847 404.237 136.897 402.529 136.897C398.774 136.897 396.763 139.481 396.763 141.344C396.763 141.952 396.763 143.358 398.319 144.461C399.912 145.601 402.719 146.133 406.968 146.133H407.12C410.382 146.095 434.698 144.005 434.66 136.783C434.66 135.148 432.498 133.666 428.022 132.26C424.456 131.157 419.752 130.207 415.389 129.751C413.113 129.523 410.572 129.447 408.068 129.409C399.229 129.219 390.087 128.991 390.049 121.427C390.011 115.194 394.753 110.747 404.123 108.162C411.406 106.148 419.524 105.919 422.673 105.881C423.318 105.881 423.963 105.881 424.645 105.881C429.463 105.881 442.323 105.881 442.361 110.215C442.361 114.167 429.805 114.966 419.714 115.612C407.878 116.372 400.633 116.98 400.595 120.325C400.557 122.377 404.843 122.91 415.427 123.746C416.489 123.822 417.59 123.898 418.69 124.012C424.608 124.506 430.298 125.152 434.736 127.281C439.781 129.675 442.209 133.666 442.247 139.519C442.247 140.812 441.944 145.335 437.657 149.402C433.56 153.317 427.111 155.369 418.955 155.407L418.69 155.331Z" fill="white"/>
<path d="M281.252 168.064C275.676 168.064 274.348 163.921 273.969 156.738L273.551 156.167C252.232 146.893 238.12 131.309 238.12 125.038C238.12 121.693 241.838 117.968 248.628 114.623C255.343 111.317 264.219 108.732 273.665 107.288L274.234 106.642C274.993 88.3592 277.534 81.8597 279.659 81.8597C283.187 81.8597 285.577 90.6778 286.07 105.501L286.715 106.147C302.723 106.147 314.862 108.124 322.753 112.039C328.784 115.042 332.123 119.185 332.123 123.708C332.123 126.71 330.34 129.105 328.86 130.587C327.191 132.26 325.408 133.21 324.991 133.324C324.27 133.286 323.549 133.248 322.867 133.248C320.818 133.172 318.011 133.096 318.011 132.26C318.011 131.347 318.959 130.435 319.983 129.447C321.197 128.307 322.449 127.09 322.449 125.532C322.411 121.427 303.52 117.436 292.557 117.436H292.367C290.736 117.436 288.915 117.436 286.942 117.474L286.297 118.158C286.487 128.459 286.942 144.385 287.208 151.948L287.739 152.595C293.695 153.735 299.612 154.343 305.303 154.343H305.53C310.879 154.343 324.536 153.735 336.371 148.566C348.397 143.32 354.466 135.148 354.428 124.278C354.39 109.53 340.544 92.5022 317.442 78.6289C294.34 64.8316 265.888 56.5837 241.269 56.5837H240.965C238.993 56.5837 233.909 56.6597 229.433 57.1538C224.198 57.724 221.96 58.5982 221.96 60.0805C221.96 61.4868 223.098 62.019 223.895 62.4371C224.767 62.8552 225.109 63.0832 225.109 63.6154C225.109 63.7674 225.071 63.8434 224.995 63.9194C224.388 64.5276 222.036 64.5276 221.239 64.5276H221.05C218.622 64.5276 217.066 64.1475 216.27 63.3113C215.853 62.8552 215.625 62.323 215.663 61.6009C215.663 58.4841 219.039 54.3411 223.022 52.5927C227.536 50.6923 237.513 49.362 249.766 49.0199C250.677 48.9819 251.625 48.9819 252.535 48.9819C265.547 48.9819 279.355 51.4525 293.581 56.3936C306.63 60.8407 319.49 67.2642 330.909 74.9801C353.935 90.5258 368.236 109.226 368.274 123.86C368.312 134.92 362.432 145.107 351.735 152.557C341.113 159.93 326.698 164.035 311.107 164.073H310.917C303.178 164.073 295.516 163.123 288.118 161.223L287.284 161.793C286.715 166.05 284.78 168.102 281.328 168.102L281.252 168.064ZM273.286 117.968C251.208 119.071 240.51 122.035 240.51 127.014C240.51 131.081 254.129 141.952 272.906 148.604L273.779 147.957C273.779 139.291 273.855 126.672 273.969 118.614L273.286 117.968Z" fill="white"/>
<path d="M380.793 154.723C378.972 154.723 377.91 154.381 377.075 153.507C374.989 151.378 374.154 145.677 374.42 134.996L374.458 133.666C374.534 129.371 374.685 122.149 375.444 116.144C376.582 107.098 378.479 105.729 379.503 105.729C380.983 105.729 382.5 106.452 383.638 111.621C384.738 116.638 385.383 125.304 385.724 139.634C385.952 148.604 385.535 152.633 384.207 153.963C383.524 154.685 382.462 154.761 380.945 154.761L380.793 154.723Z" fill="white"/>
<path d="M504.308 158.334C496.077 158.334 493.497 148.946 493.459 145.525C493.459 143.738 494.711 139.976 495.735 136.935C496.228 135.452 496.684 134.046 496.987 133.02C497.215 132.146 496.759 131.309 496.342 130.587C496.152 130.245 495.887 129.751 495.887 129.561C496.077 127.509 498.201 126.558 499.87 125.798C501.046 125.266 501.956 124.848 502.222 124.088C502.488 123.328 503.967 118.766 503.701 117.322C503.55 116.638 502.715 116.22 501.16 115.536C498.998 114.547 495.697 113.065 495.697 110.861C495.697 108.276 506.357 107.478 514.93 106.832C518.155 106.604 521.455 106.338 524.566 105.995C524.945 105.957 525.362 105.919 525.742 105.919C529.876 105.919 533.784 108.466 535.832 111.013C536.819 112.229 536.932 112.913 536.894 113.027C536.515 114.395 535.339 115.346 533.442 115.84C533.101 115.916 530.635 116.068 528.283 116.182C521.265 116.562 515.31 116.942 513.754 117.588C513.223 117.816 512.806 118.424 512.426 119.451C511.895 121.009 511.478 123.86 512.047 124.848C512.578 125.684 514.892 125.988 522.821 126.216C524.035 126.254 524.983 126.292 525.362 126.33C526.728 126.444 527.562 128.117 527.525 129.637C527.525 130.359 527.259 132.716 524.338 132.906C523.807 132.944 522.365 132.944 520.696 132.944C515.196 132.982 510.112 133.02 508.823 133.438C507.116 134.008 506.053 138.227 505.788 139.519C505.371 141.458 505.029 143.928 505.826 144.689C506.091 144.917 506.471 145.031 507.154 145.031C509.088 145.031 513.413 144.271 517.586 143.548C520.772 142.978 523.807 142.446 524.793 142.446C526.159 142.446 528.018 143.396 529.194 144.727C529.952 145.601 530.332 146.475 530.256 147.197C529.876 148.528 518.306 157.878 504.612 158.334C504.536 158.334 504.422 158.334 504.308 158.334Z" fill="white"/>
<path d="M537.464 201.398C535.719 201.398 533.442 200.03 531.546 197.863C529.459 195.469 528.245 192.58 528.207 189.919C528.018 178.707 533.518 161.147 536.819 150.656C537.198 149.44 537.539 148.338 537.843 147.311L537.805 146.817C536.174 143.586 535.225 139.786 535.225 136.441C535.187 122.872 547.516 108.238 551.803 104.741C551.955 104.627 552.106 104.551 552.258 104.551C552.486 104.551 552.751 104.779 552.979 105.121C553.7 106.3 553.927 108.618 553.055 110.519C552.637 111.393 551.727 113.027 550.665 114.89C547.364 120.781 542.85 128.839 542.85 132.336C542.85 133.362 543.154 134.502 543.761 135.757L544.899 135.871C549.906 129.447 555.558 123.1 560.338 118.5C566.597 112.457 571.605 109.15 574.753 108.96C574.791 108.96 574.829 108.96 574.905 108.96C577.105 108.96 585.299 111.849 585.337 126.064C585.337 132.374 581.771 139.748 575.74 145.791C568.949 152.633 560.452 156.548 552.524 156.548C551.955 156.548 551.423 156.51 550.854 156.472L550.172 156.966C548.616 163.465 544.216 178.631 541.409 186.993C540.498 189.653 539.929 192.808 539.474 195.583C539.057 197.901 538.564 200.828 538.07 201.246C537.843 201.398 537.653 201.398 537.464 201.398ZM575.512 118.006C574.374 118.006 572.212 118.919 566.635 126.9C562.766 132.374 558.783 139.101 556.089 143.738L556.658 144.727C556.734 144.727 556.81 144.727 556.924 144.727C562.5 144.727 569.101 141.686 573.767 137.011C577.485 133.286 579.495 128.877 579.495 124.62C579.457 120.249 578.13 118.044 575.512 118.006Z" fill="white"/>
</g>
<defs>
<clipPath id="clip0_17_738">
<rect width="385" height="168" fill="white" transform="translate(208 41)"/>
</clipPath>
</defs>
</svg>
