<svg width="800" height="250" viewBox="0 0 800 250" fill="none" xmlns="http://www.w3.org/2000/svg">
<g clip-path="url(#clip0_13_520)">
<path d="M411.6 71H252.68C236.44 71 226 80.2766 223.68 93.0319L222.52 101.149H434.8L435.96 95.3511C437.12 82.5957 432.48 71 411.6 71ZM433.64 112.745L432.48 122.021C431.32 131.298 424.36 138.255 411.6 138.255H366.36L361.72 178.84H325.76L333.88 112.745H433.64ZM219.04 71L215.56 101.149H119.28L122.76 71H219.04ZM118.12 112.745H214.4L210.92 138.255H150.6L149.44 151.011H209.76L206.28 178.84H110L118.12 112.745ZM446.4 71H524.12C536.88 71 549.64 76.7979 547.32 96.5106V101.149H442.92L446.4 71ZM440.6 112.745H476.56L468.44 178.84H432.48L440.6 112.745ZM509.04 112.745H545L536.88 178.84H500.92L509.04 112.745ZM300.24 112.745H221.36C219.04 130.138 227.16 138.255 239.92 138.255H288.64L287.48 149.851H216.72L213.24 178.84H293.28C295.6 178.84 313 178.84 318.8 163.766C321.12 159.128 323.44 141.734 323.44 138.255C325.76 117.383 311.84 112.745 300.24 112.745Z" fill="#ED1C24"/>
<path d="M593.372 71H673.76C673.76 71 691.16 70.1883 689.884 84.4511L685.708 125.848C685.708 125.848 684.2 138.255 672.368 138.255H624.46L623.184 151.474H683.156L680.256 180H580.496L586.644 128.399C586.644 128.399 587.34 113.556 600.796 113.556H648.24L649.284 100.453H589.892" fill="#ED1C24"/>
</g>
<defs>
<clipPath id="clip0_13_520">
<rect width="580" height="109" fill="white" transform="translate(110 71)"/>
</clipPath>
</defs>
</svg>
