<svg width="800" height="250" viewBox="0 0 800 250" fill="none" xmlns="http://www.w3.org/2000/svg">
<g clip-path="url(#clip0_13_513)">
<path d="M324.147 71C307.827 71 296.87 79.6731 295.471 92.6828C295.121 95.7301 294.772 98.6602 294.305 101.708H507.161C507.161 101.708 507.511 98.543 507.86 96.0817C509.492 82.9548 504.014 71.2344 483.847 71.2344C483.964 71 332.773 71 324.147 71ZM194.289 71L190.559 101.59H287.078L290.808 71H194.289ZM518.352 71L514.621 101.59H619.184C619.184 101.59 619.301 100.418 619.767 96.9021C622.215 76.8602 609.392 71 596.919 71H518.352ZM513.106 113.194L504.946 180H541.083L549.242 113.311L513.106 113.194ZM581.649 113.194L573.489 180H609.625L617.785 113.311L581.649 113.194ZM189.16 113.194L181 180H277.519L281.133 151.051H220.634L222.149 138.627H282.532L285.679 113.311L189.16 113.194ZM293.023 113.194C290.459 130.54 299.085 138.51 311.324 138.51C317.969 138.51 360.167 138.51 360.167 138.51L358.652 151.051H288.36L284.863 180C284.863 180 361.333 180 364.364 180C366.928 179.883 384.88 179.414 390.825 164.646C392.806 159.841 394.555 142.729 395.021 139.213C397.819 118.351 383.481 113.311 372.174 113.311C365.995 113.311 305.263 113.194 293.023 113.194ZM405.279 113.194L397.119 179.883H433.256L438.385 138.51H483.73C496.553 138.51 503.547 131.595 504.713 122.218C505.063 119.171 505.529 116.241 505.879 113.194H405.279Z" fill="#ED1C24"/>
</g>
<defs>
<clipPath id="clip0_13_513">
<rect width="439" height="109" fill="white" transform="translate(181 71)"/>
</clipPath>
</defs>
</svg>
