<svg width="800" height="250" viewBox="0 0 800 250" fill="none" xmlns="http://www.w3.org/2000/svg">
<path d="M406.626 28.1819H317.644C288.587 28.1819 265.233 51.7275 265.233 80.8187V170.365C265.233 199.547 288.678 223.002 317.644 223.002H406.807C435.864 223.002 459.218 199.456 459.218 170.365V80.8187C459.128 51.7275 435.774 28.1819 406.626 28.1819Z" fill="#01216A"/>
<path d="M540.506 175.274C540.506 189.365 534.713 202.547 524.212 212.547C513.802 222.456 499.772 228.002 485.017 228.002H435.955C439.123 225.911 442.11 223.456 444.916 220.82C451.162 214.911 456.05 208.002 459.4 200.365C462.93 192.456 464.74 184.001 464.74 175.274V75.9095C464.74 67.2731 462.93 58.7276 459.4 50.8184C456.05 43.182 451.072 36.2728 444.916 30.3637C442.11 27.7273 439.123 25.3637 435.955 23.1818H485.017C499.772 23.1818 513.712 28.6364 524.212 38.6365C534.713 48.6366 540.506 61.8185 540.506 75.9095V175.274Z" fill="#EE0AF6"/>
<path d="M488.004 21H407.622C410.156 21 412.6 21.1818 414.954 21.4545C412.51 21.1818 410.066 21 407.622 21H312.213C281.165 21 256 46.2729 256 77.455V173.365C256 204.547 281.165 229.82 312.213 229.82H407.712C410.247 229.82 412.691 229.638 415.044 229.365C412.6 229.638 410.156 229.82 407.712 229.82H488.094C519.143 229.82 544.308 204.547 544.308 173.365V77.455C544.217 46.2729 519.052 21 488.004 21ZM436.679 166.638H422.467L421.924 166.092L420.566 164.729L419.661 163.819L419.299 163.456V154.819L422.92 151.183H443.558V155.183L442.11 156.728H427.174L426.631 157.274V160.638L426.722 160.728L426.993 161.001H441.205L443.92 163.729L444.373 164.183V172.91L444.283 173.001L441.657 175.638L440.752 176.547H419.389V172.91L420.295 172.092L421.29 171.183H436.588L436.679 171.092L437.131 170.638V167.183L436.679 166.638ZM379.651 75.0005H401.828L410.609 90.3642L419.48 75.0005H440.933L431.338 91.8188L421.381 109.273L442.834 146.365H420.657L410.247 128.365L408.618 131.274L400.018 146.456H378.474L399.475 109.546L379.651 75.0005ZM277.182 74.9096H320.088L320.36 79.0914L321.356 94.4552H297.368V103.819H316.92V123.365H297.187V146.456H277.182V74.9096ZM300.536 173.001L298.997 174.547L298.364 175.183L297.911 175.638L296.825 176.729H275.462V172.91L277.363 171.092H292.661L292.751 171.001L293.294 170.547V167.092L293.204 167.001L292.932 166.729H278.721L275.552 163.547V154.91L279.173 151.274H299.812V155.274L298.364 156.819H283.337L283.156 157.001L282.704 157.456V160.819L283.156 161.274H297.368L300.536 164.456V173.001ZM330.498 164.547L330.227 164.819L326.425 168.638H312.304V176.638H305.062V151.183H326.425L328.054 152.819L330.498 155.274V164.547ZM320.813 110.728C320.813 91.5461 336.02 76.0005 354.758 76.0005C373.496 76.0005 388.703 91.5461 388.703 110.728C388.703 129.91 373.496 145.456 354.758 145.456C336.02 145.547 320.813 130.001 320.813 110.728ZM360.28 172.638L356.206 176.729H338.555L334.572 172.638V155.274L338.555 151.183H356.297L356.84 151.728L360.37 155.274V172.638H360.28ZM391.419 176.638H383.362L379.923 167.547H372.228V176.638H364.987V151.183H386.621L390.242 154.819V162.819L386.802 166.274L389.427 172.183L391.419 176.638ZM408.527 176.638H401.285V157.274H392.867V151.183H416.855V157.274H408.527V176.638ZM538.605 173.274C538.605 186.82 533.355 199.638 523.76 209.183C514.164 218.82 501.491 224.093 488.004 224.093H443.287C446.183 222.093 448.899 219.729 451.434 217.184C457.136 211.456 461.572 204.82 464.65 197.456C467.908 189.82 469.538 181.638 469.538 173.274V77.455C469.538 69.0913 467.908 60.9094 464.65 53.273C461.572 45.9093 457.046 39.2729 451.434 33.5456C448.899 31.0001 446.183 28.7273 443.287 26.6364H488.004C501.491 26.6364 514.255 31.9092 523.76 41.5456C533.355 51.0912 538.605 63.8186 538.605 77.455V173.274Z" fill="white"/>
<path d="M522.003 78.4655C517.724 75.1885 511.898 73.55 504.343 73.55H503.342C495.786 73.55 489.96 75.1885 485.682 78.4655C481.404 81.7426 479.31 87.2953 479.31 95.2148V106.593H495.422V96.9444C495.422 93.3032 496.241 90.8455 497.789 89.5711C499.336 88.2967 501.066 87.5684 503.068 87.5684H504.343C506.255 87.5684 508.075 88.2056 509.623 89.5711C511.17 90.8455 511.989 93.3943 511.989 96.9444V107.959C511.989 111.418 511.261 113.785 509.714 115.241C508.166 116.698 506.163 117.335 503.524 117.335H492.509V131.08H504.98C506.892 131.08 508.621 131.717 509.987 132.992C511.352 134.266 512.08 136.269 512.08 139V154.93C512.08 158.571 511.261 161.029 509.714 162.303C508.166 163.577 506.437 164.306 504.434 164.306H503.342C501.43 164.306 499.609 163.668 498.062 162.303C496.514 161.029 495.695 158.48 495.695 154.93V142.914H479.31V156.659C479.31 171.133 486.865 178.324 501.885 178.324H505.799C520.819 178.324 528.375 171.133 528.375 156.659V138.636C528.375 137.27 528.283 135.814 528.101 134.266C527.919 132.719 527.464 131.262 526.827 129.806C526.099 128.349 525.189 127.166 523.823 126.074C522.549 124.981 520.728 124.253 518.452 123.889C520.637 123.616 522.276 122.888 523.55 121.795C524.824 120.703 525.826 119.337 526.554 117.79C527.282 116.242 527.737 114.604 528.01 112.783C528.283 111.054 528.375 109.324 528.375 107.777V95.2148C528.375 87.2953 526.19 81.6515 522.003 78.4655Z" fill="#01216A"/>
<path d="M360.823 125.001V96.4552C360.823 93.1824 358.017 90.2733 354.848 90.2733C351.68 90.2733 349.146 93.1824 349.146 96.4552V124.91C349.146 128.183 351.68 130.819 354.939 130.819C358.017 130.819 360.823 128.274 360.823 125.001Z" fill="white"/>
<path d="M351.59 156.91H343.171L341.723 158.365V169.456L343.171 170.91H351.59L353.128 169.456V158.365L351.771 157.092L351.59 156.91Z" fill="white"/>
<path d="M372.319 156.547V162.547H382.004L383 161.547L383.091 161.456V157.638L382.004 156.547H372.319Z" fill="white"/>
<path d="M322.17 156.819H312.304V163.547H322.17L323.257 162.456V157.819L322.623 157.183L322.17 156.819Z" fill="white"/>
</svg>
