<svg width="800" height="250" viewBox="0 0 800 250" fill="none" xmlns="http://www.w3.org/2000/svg">
<g clip-path="url(#clip0_17_1133)">
<path d="M406.036 125C406.036 189.073 354.101 241 290.018 241C225.935 241 174 189.073 174 125C174 118.927 174.456 113.005 175.367 107.236H200.119V175.788H223.657V107.236H250.004V175.788H272.479V124.696H272.934L302.85 169.487C305.811 174.194 308.545 175.788 314.315 175.788H329.729V107.236H356.152V175.788H379.234V107.236H404.746C405.581 113.005 406.036 118.927 406.036 125ZM249.169 90.3063H271.947C277.642 90.3063 280.527 91.9005 283.412 96.6073L306.874 133.199H307.709V90.3063H400.797C385.991 43.2382 342.029 9 289.942 9C238.007 9 193.969 43.2382 179.239 90.3063H249.169Z" fill="white"/>
<path d="M496.467 106.173C503.224 106.173 509.982 106.173 516.739 106.173C519.625 106.173 522.358 107.387 524.636 108.982C531.318 114.524 531.166 126.291 523.725 131.073C525.167 132.288 526.534 133.73 527.066 135.552C528.66 141.018 528.053 146.788 529.192 152.406C529.571 154.456 530.179 156.429 530.406 158.479C527.369 158.555 524.256 158.859 521.219 158.631C519.852 157.72 519.625 155.898 519.169 154.456C518.258 150.204 518.258 145.877 518.03 141.626C517.954 139.5 517.347 137.071 515.069 136.312C512.184 135.78 509.223 136.084 506.337 136.008C506.11 143.524 506.337 151.115 506.185 158.631C502.996 158.707 499.732 158.783 496.543 158.631C496.467 141.094 496.391 123.634 496.467 106.173ZM506.413 114.751C506.261 118.851 506.185 122.95 506.337 127.05C509.45 127.126 512.639 127.277 515.752 126.974C520.232 125.076 520.764 117.712 516.436 115.435C513.247 114.144 509.754 114.903 506.413 114.751Z" fill="white"/>
<path d="M537.62 106.173C540.885 106.173 544.074 106.173 547.339 106.249C547.414 123.709 547.263 141.094 547.263 158.555C544.074 158.555 540.885 158.631 537.62 158.555C537.392 141.094 537.544 123.634 537.62 106.173Z" fill="white"/>
<path d="M443.013 129.859C439.445 127.809 435.496 126.291 432.307 123.709C429.65 121.66 429.346 117.029 432.156 114.979C434.206 113.688 436.863 113.537 439.141 114.22C441.95 115.435 442.33 118.547 442.33 121.356H452.276C452.428 116.877 451.593 112.094 448.252 108.83C444.152 105.186 438.078 104.275 432.839 105.414C428.511 106.097 424.335 108.45 422.209 112.246C419.476 117.257 419.476 123.937 423.196 128.492C427.676 134.186 435.496 135.628 440.887 140.259C444.152 143.068 443.165 149.369 438.761 150.432C435.8 150.887 431.776 151.039 429.954 148.154C428.359 145.953 428.891 143.144 428.815 140.639C425.55 140.563 422.285 140.563 419.02 140.639C418.792 145.346 419.02 150.508 422.209 154.38C425.094 158.024 430.03 159.39 434.585 159.542C439.369 159.694 444.532 158.707 448.252 155.594C452.504 151.722 453.567 145.497 452.276 140.183C450.91 135.552 447.189 132.06 443.013 129.859Z" fill="white"/>
<path d="M621.292 133.503C616.965 129.327 610.89 127.581 606.031 124.165C603.677 122.571 602.766 119.458 603.905 116.877C605.196 113.689 609.675 113.233 612.561 114.372C615.218 115.662 615.446 118.699 615.522 121.356H625.393C625.772 116.421 624.709 111.031 620.457 107.995C613.7 103.364 603.829 104.123 597.679 109.361C593.047 113.992 592.06 121.887 595.553 127.429C598.134 131.225 602.31 133.503 606.335 135.552C609.296 137.147 612.637 138.437 614.763 141.094C617.268 144.207 615.674 149.825 611.498 150.508C608.84 150.812 605.424 150.963 603.525 148.686C601.627 146.484 602.159 143.296 602.083 140.639C598.894 140.563 595.629 140.563 592.44 140.639C592.06 145.953 592.44 152.178 596.92 155.898C601.475 159.694 608.157 160.149 613.776 159.01C617.344 158.251 621.065 156.657 623.191 153.62C627.443 147.623 626.911 138.513 621.292 133.503Z" fill="white"/>
<path d="M490.165 149.749C483.635 149.673 477.105 149.825 470.575 149.825C470.271 145.27 470.423 140.639 470.423 136.084C476.346 136.084 482.268 136.084 488.266 136.084V127.202C482.344 127.126 476.346 127.202 470.423 127.202C470.347 123.102 470.423 118.927 470.499 114.751C476.801 114.827 483.863 114.751 490.241 114.827V106.173C480.446 106.021 470.271 106.249 460.477 106.249C460.553 123.709 460.249 141.17 460.629 158.631C470.499 158.707 480.37 158.707 490.241 158.555V149.749H490.165Z" fill="white"/>
<path d="M587.125 149.749C580.595 149.825 573.989 149.901 567.459 149.749C567.232 145.194 567.459 140.563 567.383 136.008C573.382 136.008 579.304 136.008 585.303 136.008V127.05C579.38 127.05 573.382 127.126 567.459 127.05C567.383 122.95 567.383 118.775 567.459 114.675C573.837 114.751 580.747 114.599 587.201 114.675V106.097C577.482 106.097 567.308 106.097 557.513 106.097C557.361 123.482 557.513 140.867 557.437 158.251C567.308 158.555 577.254 158.479 587.125 158.403V149.749Z" fill="white"/>
</g>
<defs>
<clipPath id="clip0_17_1133">
<rect width="452" height="232" fill="white" transform="translate(174 9)"/>
</clipPath>
</defs>
</svg>
