<svg width="800" height="250" viewBox="0 0 800 250" fill="none" xmlns="http://www.w3.org/2000/svg">
<path d="M398.252 236.504C460.799 236.504 511.504 185.799 511.504 123.252C511.504 60.7045 460.799 10 398.252 10C335.705 10 285 60.7045 285 123.252C285 185.799 335.705 236.504 398.252 236.504Z" fill="#163D30"/>
<path d="M367.481 178.072C357.196 172.597 349.143 164.909 343.345 154.988C337.547 145.067 334.648 133.729 334.648 120.952C334.648 108.176 337.569 96.8165 343.431 86.917C349.272 76.996 357.303 69.3085 367.481 63.833C377.66 58.357 388.977 55.6299 401.453 55.6299C411.094 55.6299 420.092 57.1545 428.424 60.1825C436.755 63.21 443.584 67.333 448.888 72.5295L430.528 93.81C427.285 90.138 423.291 87.282 418.589 85.285C413.886 83.288 408.646 82.2785 402.913 82.2785C395.977 82.2785 389.728 83.9535 384.145 87.325C378.562 90.675 374.181 95.3345 370.982 101.304C367.782 107.252 366.193 113.823 366.193 120.974C366.193 128.554 367.653 135.297 370.574 141.202C373.494 147.107 377.81 151.746 383.501 155.096C389.191 158.445 395.977 160.142 403.901 160.142C408.453 160.142 412.705 159.627 416.656 158.596C420.607 157.565 423.506 156.298 425.353 154.773L423.077 169.719V134.782H399.348V110.731H450.692V174.744C444.293 178.309 436.906 181.143 428.509 183.183C420.113 185.245 411.374 186.275 402.269 186.275C389.385 186.275 377.789 183.548 367.503 178.072H367.481Z" fill="white"/>
</svg>
