<svg width="800" height="250" viewBox="0 0 800 250" fill="none" xmlns="http://www.w3.org/2000/svg">
<path d="M412.11 36.8354C410.813 36.8354 409.679 36.9988 409.03 37.489C407.896 38.1426 407.734 39.6132 407.734 39.6132V211.836C407.734 211.836 427.671 202.032 444.691 182.587C447.446 179.483 452.633 174.091 457.82 167.064C463.007 183.731 478.406 195.986 496.722 195.986C519.253 195.986 537.407 177.522 537.407 154.973C537.407 132.26 519.091 113.96 496.722 113.96C486.834 113.96 477.757 117.555 470.625 123.437C467.383 114.45 460.251 109.385 460.251 109.385C460.251 109.385 483.593 96.6395 483.755 81.9335C484.079 61.0185 435.938 41.2472 427.509 39.2864C422.322 37.9792 416 36.672 412.11 36.8354ZM393.145 36.8354C391.524 36.8354 389.579 37.1622 387.796 37.3256C384.23 37.9792 379.205 40.2668 379.205 40.2668V148.11C379.205 148.11 367.697 127.358 367.697 93.0447C367.697 61.6721 367.697 46.8028 367.697 46.8028C367.697 46.8028 367.859 45.0054 366.238 43.8616C364.617 42.7178 361.375 44.025 358.296 45.3322C355.216 46.6394 349.705 49.7439 349.705 49.7439C349.705 49.7439 348.894 79.646 349.381 89.1231C349.867 98.6002 352.136 119.679 352.136 119.679L347.922 127.195C347.922 127.195 342.573 116.574 339.817 98.2734C337.062 79.9728 337.386 63.9597 337.386 63.9597C337.386 63.9597 337.386 58.8943 335.603 58.2407C333.658 57.5871 329.605 60.6917 327.174 62.4891C324.905 64.2864 319.556 69.1884 319.556 69.1884C319.556 69.1884 319.231 80.463 320.69 92.8813C321.825 103.175 324.418 113.47 326.688 120.986C332.847 141.084 346.949 159.058 346.949 159.058L357.647 143.208C357.647 143.208 366.238 167.064 371.425 177.522C381.313 197.783 398.656 211.672 398.656 211.672V40.757C398.656 40.757 398.656 38.306 397.198 37.6524C396.225 36.9988 394.766 36.8354 393.145 36.8354ZM427.509 58.2407C427.509 58.2407 460.9 67.8812 461.386 80.7897C461.872 94.8421 427.509 107.587 427.509 107.587V58.2407ZM442.259 121.64C445.015 121.64 451.985 122.13 451.823 133.568C451.66 146.64 427.833 173.764 427.833 173.764V126.705C427.833 126.705 437.072 121.476 441.449 121.64C441.611 121.64 441.773 121.64 442.259 121.64ZM471.274 139.94H499.802L507.744 163.47L515.687 139.94H525.088L512.931 172.62H502.395L493.156 147.293H485.7V172.62H477.271V147.293H469.328C469.977 145.496 470.625 143.535 471.112 141.411C471.112 140.921 471.274 140.43 471.274 139.94Z" fill="white"/>
<path d="M464.142 179.81C441.125 204.973 406.761 223.927 403.357 225.725H403.195H403.033C399.305 223.6 354.243 198.927 332.847 168.208C299.456 120.005 304.481 61.1818 304.481 61.1818L323.77 57.2603L326.201 48.1099L348.732 42.2276L351.488 30.7896L403.195 23.1099H403.357H403.519L455.227 30.7896L457.982 42.2276L480.513 48.1099L482.944 57.2603L502.233 61.1818C502.233 61.1818 504.178 84.3845 497.37 113.633V113.796C501.747 113.796 505.799 114.613 509.851 115.921C517.632 80.4629 513.418 51.0511 513.418 51.0511L488.942 45.9857L487.159 37.3256L465.276 32.2602L461.872 20.6589L403.357 11.6719L344.68 20.6589L341.6 31.9334L320.366 37.1622L317.935 46.3125L293.945 50.8877C293.945 50.8877 283.895 118.535 323.122 174.417C348.408 210.529 398.819 235.365 403.195 237.653H403.357H403.519C407.247 235.692 446.474 215.594 472.895 188.143C469.491 186.019 466.573 183.078 464.142 179.81Z" fill="white"/>
</svg>
