<svg width="800" height="250" viewBox="0 0 800 250" fill="none" xmlns="http://www.w3.org/2000/svg">
<path d="M146 50V201H249.846V50H146ZM235.011 185.9H161.091V65.1H235.011V185.9Z" fill="#FBD42C"/>
<path d="M311.745 102.722C303.304 89.1576 294.863 77.3848 286.423 65.3559H280.028V117.822H287.19V79.9441C295.631 93.5085 303.816 105.537 312.256 117.566H318.651V65.1H311.489V102.722H311.745ZM363.156 117.822L346.531 65.1H339.113L321.209 117.566H328.882L333.486 103.234H349.088L353.181 117.566H363.156V117.822ZM335.788 96.8356C337.834 89.9254 339.88 83.5271 341.671 75.3373H341.927C343.973 83.5271 345.763 89.9254 347.81 96.8356H335.788ZM371.597 117.822H380.549V72.2661H394.106V65.1H357.785V72.2661H371.341L371.597 117.822ZM405.616 65.1H396.919V117.566H405.616V65.1ZM433.24 118.59C446.796 118.59 455.237 106.305 455.237 90.6932C455.237 76.1051 446.029 64.3322 433.24 64.3322C420.451 64.3322 411.243 76.1051 411.243 90.6932C411.243 106.305 419.683 118.59 433.24 118.59ZM433.24 71.7542C441.936 71.7542 445.773 80.9678 445.773 90.6932C445.773 100.675 442.448 111.168 433.24 111.168C424.032 111.168 420.707 100.931 420.707 90.6932C420.707 80.9678 424.287 71.7542 433.24 71.7542ZM467.514 79.9441C475.955 93.5085 484.396 105.537 492.836 117.566H499.231V65.1H492.069V102.466H491.813C483.628 88.9017 475.187 77.1288 466.747 65.1H460.608V117.566H467.77C467.514 117.822 467.514 79.9441 467.514 79.9441ZM513.81 103.49H529.413L533.505 117.822H543.48L527.111 65.1H519.693L501.788 117.566H509.462L513.81 103.49ZM522.251 75.5932C524.553 83.7831 526.343 90.1814 528.134 97.0915H516.112C518.158 89.9254 520.46 83.5271 522.251 75.5932ZM572.383 110.656H554.735V65.1H546.038V117.566H572.383V110.656ZM304.583 177.71C302.792 178.734 300.746 178.99 298.444 178.99C290.771 178.99 283.353 171.568 283.353 159.283C283.353 147.254 289.748 139.832 299.212 139.832C302.537 139.832 306.373 141.112 308.675 142.647L311.489 136.505C308.42 134.202 303.816 132.41 298.956 132.41C283.353 132.41 273.889 144.951 273.889 159.283C273.889 174.639 283.609 186.668 298.7 186.668C303.816 186.668 308.675 185.388 313.535 183.341V161.586H304.583V177.71ZM330.417 161.586H344.996V154.42H330.417V140.088H345.252V132.922H321.464V185.644H347.81V178.478H330.417V161.586ZM372.62 132.154C359.831 132.154 350.623 143.927 350.623 158.515C350.623 174.127 359.064 186.412 372.62 186.412C386.176 186.412 394.617 174.127 394.617 158.515C394.617 143.927 385.409 132.154 372.62 132.154ZM372.62 178.99C363.412 178.99 360.087 168.753 360.087 158.515C360.087 148.79 363.668 139.576 372.62 139.576C381.317 139.576 385.153 148.79 385.153 158.515C385.153 168.753 381.828 178.99 372.62 178.99ZM428.38 177.71C426.589 178.734 424.543 178.99 422.241 178.99C414.568 178.99 407.15 171.568 407.15 159.283C407.15 147.254 413.545 139.832 423.009 139.832C426.334 139.832 430.17 141.112 432.472 142.647L435.286 136.505C432.217 134.202 427.613 132.41 422.753 132.41C407.15 132.41 397.686 144.951 397.686 159.283C397.686 174.639 407.406 186.668 422.497 186.668C427.613 186.668 432.472 185.388 437.332 183.341V161.586H428.38V177.71ZM475.443 148.278C475.443 138.041 469.305 133.178 459.329 133.178H445.517V185.644H454.469V165.937H458.562L467.003 185.644H477.234L466.747 163.89C472.118 160.819 475.443 154.676 475.443 148.278ZM458.05 159.027C457.283 159.027 454.981 159.283 454.469 159.283V140.088H458.306C463.677 140.088 466.491 143.159 466.491 148.534C466.491 155.7 462.143 159.027 458.05 159.027ZM494.882 133.178L476.978 185.644H484.651L489.255 171.312H504.858L508.95 185.644H518.926L502.3 133.178H494.882ZM491.557 164.914C493.604 158.003 495.65 151.605 497.44 143.415H497.696C499.742 151.605 501.533 158.003 503.579 164.914H491.557ZM583.893 153.397H565.477V133.178H556.781V185.644H565.477V160.307H583.893V185.644H592.846V133.434H583.893V153.397ZM601.286 185.644H609.983V133.178H601.286V185.644ZM641.188 178.99C632.491 178.99 625.33 171.568 625.33 159.283C625.33 147.254 631.98 139.832 640.932 139.832C644.257 139.832 647.838 141.368 650.14 142.647L652.954 136.249C649.884 134.202 645.536 132.154 640.932 132.154C625.33 132.154 615.866 144.695 615.866 159.027C615.866 174.383 625.585 186.412 640.676 186.412C645.025 186.412 649.629 184.62 652.442 182.829L649.884 176.175C647.582 177.966 644.513 178.99 641.188 178.99ZM535.551 133.178H521.739V185.644H530.691V165.937H534.784C545.271 165.937 551.921 157.236 551.921 148.278C551.41 138.041 545.271 133.178 535.551 133.178ZM534.272 159.027C533.505 159.027 531.203 159.283 530.691 159.283V140.088H534.784C539.9 140.088 542.969 143.159 542.969 148.534C542.713 155.7 538.365 159.027 534.272 159.027Z" fill="white"/>
</svg>
