<svg width="800" height="250" viewBox="0 0 800 250" fill="none" xmlns="http://www.w3.org/2000/svg">
<g clip-path="url(#clip0_17_1764)">
<path d="M314.443 181.483V178.337H315.808C315.856 178.337 315.905 178.337 316.003 178.337C318.78 178.337 321.412 177.224 323.751 175.82C326.723 173.981 328.331 170.786 328.867 167.447C328.965 166.672 329.062 165.85 329.062 165.075V162.462V20.0688C329.013 18.3264 328.429 12.5668 323.653 9.808C320.096 7.5332 316.928 7.388 316.051 7.388C315.954 7.388 315.905 7.388 315.856 7.388L314.394 7.3396V4.242H383.688V7.388H382.714C382.665 7.388 382.616 7.388 382.519 7.388C381.642 7.388 378.474 7.5816 374.868 9.8564C370.141 12.5668 369.557 18.3748 369.508 20.1172L369.459 22.5372V23.2148V24.7152L369.508 67.2104H430.859L430.907 24.7152V22.5372V20.1172C430.859 18.3748 430.274 12.5668 425.498 9.8564C421.941 7.5816 418.774 7.4364 417.897 7.4364C417.799 7.4364 417.75 7.4364 417.702 7.4364L416.824 7.388V4.1936H486.167V7.388H484.656C484.608 7.388 484.559 7.388 484.461 7.388C483.584 7.388 480.417 7.5816 476.811 9.8564C472.084 12.5668 471.499 18.3748 471.451 20.0688V162.462V165.124C471.451 165.414 471.256 172.722 476.86 175.917C480.417 178.192 483.584 178.337 484.461 178.337C484.559 178.337 484.608 178.337 484.656 178.337H486.167V181.483H461.851H416.824L416.873 178.288H417.799C417.848 178.288 417.897 178.288 417.945 178.288C418.822 178.288 421.941 178.192 425.596 175.868C429.982 173.352 430.81 168.173 430.956 166.092V166.043V105.543H369.362L369.215 165.172L369.264 166.866C369.41 168.947 370.482 173.787 374.917 176.304C378.474 178.579 381.495 178.385 382.373 178.385C382.47 178.385 382.519 178.385 382.567 178.385H383.396V181.531L314.443 181.483ZM347.19 165.317H350.357V87.8772H449.961V165.366H453.128V17.6488H449.961V84.828H350.406V17.6488H347.238V165.317H347.19Z" fill="url(#paint0_linear_17_1764)" fill-opacity="0.3"/>
<path d="M314.443 181.483V178.337H315.808C315.856 178.337 315.905 178.337 316.003 178.337C318.78 178.337 321.412 177.224 323.751 175.82C326.723 173.981 328.331 170.786 328.867 167.447C328.965 166.672 329.062 165.85 329.062 165.075V162.462V20.0688C329.013 18.3264 328.429 12.5668 323.653 9.808C320.096 7.5332 316.928 7.388 316.051 7.388C315.954 7.388 315.905 7.388 315.856 7.388L314.394 7.3396V4.242H383.688V7.388H382.714C382.665 7.388 382.616 7.388 382.519 7.388C381.642 7.388 378.474 7.5816 374.868 9.8564C370.141 12.5668 369.557 18.3748 369.508 20.1172L369.459 22.5372V23.2148V24.7152L369.508 67.2104H430.859L430.907 24.7152V22.5372V20.1172C430.859 18.3748 430.274 12.5668 425.498 9.8564C421.941 7.5816 418.774 7.4364 417.897 7.4364C417.799 7.4364 417.75 7.4364 417.702 7.4364L416.824 7.388V4.1936H486.167V7.388H484.656C484.608 7.388 484.559 7.388 484.461 7.388C483.584 7.388 480.417 7.5816 476.811 9.8564C472.084 12.5668 471.499 18.3748 471.451 20.0688V162.462V165.124C471.451 165.414 471.256 172.722 476.86 175.917C480.417 178.192 483.584 178.337 484.461 178.337C484.559 178.337 484.608 178.337 484.656 178.337H486.167V181.483H461.851H416.824L416.873 178.288H417.799C417.848 178.288 417.897 178.288 417.945 178.288C418.822 178.288 421.941 178.192 425.596 175.868C429.982 173.352 430.81 168.173 430.956 166.092V166.043V105.543H369.362L369.215 165.172L369.264 166.866C369.41 168.947 370.482 173.787 374.917 176.304C378.474 178.579 381.495 178.385 382.373 178.385C382.47 178.385 382.519 178.385 382.567 178.385H383.396V181.531L314.443 181.483ZM347.19 165.317H350.357V87.8772H449.961V165.366H453.128V17.6488H449.961V84.828H350.406V17.6488H347.238V165.317H347.19Z" fill="url(#paint1_linear_17_1764)" fill-opacity="0.6"/>
<path d="M505.415 193.389H295.097V197.164H505.367V193.389H505.415Z" fill="#EE2D2B"/>
<path d="M315.272 180.708V179.16H316.636C316.685 179.16 316.733 179.16 316.831 179.16C317.708 179.16 320.876 178.966 324.482 176.691C330.085 173.497 329.891 166.188 329.891 165.85V163.236V19.246C329.744 17.552 329.16 11.744 324.433 9.03362C320.876 6.75882 317.708 6.61362 316.831 6.61362C316.733 6.61362 316.685 6.61362 316.636 6.61362L315.174 6.56522V5.01642H382.909V6.56522H381.983C381.934 6.56522 381.885 6.56522 381.788 6.56522C380.911 6.56522 377.743 6.75882 374.137 9.03362C369.41 11.744 368.826 17.552 368.777 19.2944V21.7144V22.392V23.8924L368.826 67.9848H431.736L431.785 23.8924V21.7144V19.2944C431.736 17.552 431.151 11.744 426.376 9.03362C422.818 6.75882 419.651 6.61362 418.774 6.61362C418.676 6.61362 418.627 6.61362 418.579 6.61362H417.653V5.01642H485.387V6.61362L483.877 6.66202C483.828 6.66202 483.779 6.66202 483.682 6.66202C482.805 6.66202 479.637 6.85562 476.031 9.13042C471.304 11.8408 470.72 17.6488 470.671 19.3428V163.236V165.898C470.671 166.188 470.476 173.497 476.08 176.691C479.637 178.966 482.805 179.111 483.682 179.111C483.779 179.111 483.828 179.111 483.877 179.111H485.387V180.66H461.071H417.653V179.111H418.579C418.627 179.111 418.676 179.111 418.725 179.111C419.602 179.111 422.77 178.918 426.376 176.643C430.761 174.126 431.59 168.947 431.736 166.866V166.818V104.769H368.533V166.866C368.679 168.947 369.459 174.126 373.894 176.643C377.451 178.918 380.618 179.063 381.495 179.063C381.593 179.063 381.642 179.063 381.69 179.063H382.616V180.612H315.272V180.708ZM346.41 166.092H351.185V88.6516H449.181V166.14H453.957V16.8744H449.181V84.0536H351.185V16.8744H346.41V166.092Z" fill="url(#paint2_linear_17_1764)"/>
<path d="M315.272 180.708V179.16H316.636C316.685 179.16 316.733 179.16 316.831 179.16C317.708 179.16 320.876 178.966 324.482 176.691C330.085 173.497 329.891 166.188 329.891 165.85V163.236V19.246C329.744 17.552 329.16 11.744 324.433 9.03362C320.876 6.75882 317.708 6.61362 316.831 6.61362C316.733 6.61362 316.685 6.61362 316.636 6.61362L315.174 6.56522V5.01642H382.909V6.56522H381.983C381.934 6.56522 381.885 6.56522 381.788 6.56522C380.911 6.56522 377.743 6.75882 374.137 9.03362C369.41 11.744 368.826 17.552 368.777 19.2944L368.728 21.7144V22.392V23.8924L368.777 67.9848H431.687L431.736 23.8924V21.7144V19.2944C431.687 17.552 431.102 11.744 426.327 9.03362C422.77 6.75882 419.602 6.61362 418.725 6.61362C418.627 6.61362 418.579 6.61362 418.53 6.61362H417.604V5.01642H485.339V6.61362L483.828 6.66202C483.779 6.66202 483.73 6.66202 483.633 6.66202C482.756 6.66202 479.588 6.85562 475.982 9.13042C471.256 11.8408 470.671 17.6488 470.622 19.3428V163.236V165.898C470.622 166.188 470.427 173.497 476.031 176.691C479.588 178.966 482.756 179.111 483.633 179.111C483.73 179.111 483.779 179.111 483.828 179.111H485.339V180.66H461.022H417.604L417.653 179.014H418.579C418.627 179.014 418.676 179.014 418.725 179.014C419.602 179.014 422.721 178.918 426.376 176.594C430.761 174.078 431.59 168.899 431.736 166.818V166.769V104.72H368.533V166.818C368.679 168.899 369.459 174.078 373.894 176.594C377.451 178.869 380.618 179.014 381.495 179.014C381.593 179.014 381.642 179.014 381.69 179.014H382.616V180.563H315.272V180.708ZM346.41 166.092H351.185V88.6516H449.181V166.14H453.957V16.8744H449.181V84.0536H351.185V16.8744H346.41V166.092Z" fill="url(#paint3_linear_17_1764)"/>
<path d="M315.272 180.708V179.16H316.636C316.685 179.16 316.733 179.16 316.831 179.16C319.609 179.16 322.24 178.046 324.579 176.643C327.552 174.804 329.16 171.609 329.696 168.27C329.793 167.495 329.891 166.672 329.891 165.898V163.284V19.246C329.744 17.552 329.16 11.744 324.433 9.03362C320.876 6.75882 317.708 6.61362 316.831 6.61362C316.733 6.61362 316.685 6.61362 316.636 6.61362L315.174 6.56522V5.01642H382.909V6.56522H381.983C381.934 6.56522 381.885 6.56522 381.788 6.56522C380.911 6.56522 377.743 6.75882 374.137 9.03362C369.41 11.744 368.826 17.552 368.777 19.2944L368.728 21.7144V22.392V23.8924L368.777 67.9848H431.687L431.736 23.8924V21.7144V19.2944C431.687 17.552 431.102 11.744 426.327 9.03362C422.77 6.75882 419.602 6.61362 418.725 6.61362C418.627 6.61362 418.579 6.61362 418.53 6.61362H417.604V5.01642H485.339V6.61362L483.828 6.66202C483.779 6.66202 483.73 6.66202 483.633 6.66202C482.756 6.66202 479.588 6.85562 475.982 9.13042C471.256 11.8408 470.671 17.6488 470.622 19.3428V163.236V165.898C470.622 166.188 470.427 173.497 476.031 176.691C479.588 178.966 482.756 179.111 483.633 179.111C483.73 179.111 483.779 179.111 483.828 179.111H485.339V180.66H461.022H417.604L417.653 179.014H418.579C418.627 179.014 418.676 179.014 418.725 179.014C419.602 179.014 422.721 178.918 426.376 176.594C430.761 174.078 431.59 168.899 431.736 166.818V166.769V104.72H368.533L368.387 165.85L368.436 167.544C368.582 169.625 369.654 174.465 374.088 176.982C377.646 179.256 380.667 179.063 381.544 179.063C381.642 179.063 381.69 179.063 381.739 179.063H382.567V180.612L315.272 180.708ZM346.41 166.092H351.185V88.6516H449.181V166.14H453.957V16.8744H449.181V84.0536H351.185V16.8744H346.41V166.092Z" fill="url(#paint4_linear_17_1764)"/>
<path d="M315.272 180.708V179.16H316.636C316.685 179.16 316.733 179.16 316.831 179.16C319.609 179.16 322.24 178.046 324.579 176.643C327.552 174.804 329.16 171.609 329.696 168.27C329.793 167.495 329.891 166.672 329.891 165.898V163.284V19.246C329.793 17.552 329.16 11.744 324.433 9.03362C320.876 6.75882 317.708 6.61362 316.831 6.61362C316.733 6.61362 316.685 6.61362 316.636 6.61362L315.174 6.56522V5.01642H382.909V6.56522H381.983C381.934 6.56522 381.885 6.56522 381.788 6.56522C380.911 6.56522 377.743 6.75882 374.137 9.03362C369.41 11.744 368.826 17.552 368.777 19.2944L368.728 21.7144V22.392V23.8924L368.777 67.9848H431.687L431.736 23.8924V21.7144V19.2944C431.687 17.552 431.102 11.744 426.327 9.03362C422.77 6.75882 419.602 6.61362 418.725 6.61362C418.627 6.61362 418.579 6.61362 418.53 6.61362H417.604V5.01642H485.339V6.61362L483.828 6.66202C483.779 6.66202 483.73 6.66202 483.633 6.66202C482.756 6.66202 479.588 6.85562 475.982 9.13042C471.256 11.8408 470.671 17.6488 470.622 19.3428V163.236V165.898C470.622 166.188 470.427 173.497 476.031 176.691C479.588 178.966 482.756 179.111 483.633 179.111C483.73 179.111 483.779 179.111 483.828 179.111H485.339V180.66H461.022H417.604L417.653 179.014H418.579C418.627 179.014 418.676 179.014 418.725 179.014C419.602 179.014 422.721 178.918 426.376 176.594C430.761 174.078 431.59 168.899 431.736 166.818V166.769V104.72H368.533L368.387 165.85L368.436 167.544C368.582 169.625 369.654 174.465 374.088 176.982C377.646 179.256 380.667 179.063 381.544 179.063C381.642 179.063 381.69 179.063 381.739 179.063H382.567V180.612L315.272 180.708ZM346.41 166.092H351.185V88.6516H449.181V166.14H453.957V16.8744H449.181V84.0536H351.185V16.8744H346.41V166.092Z" fill="url(#paint5_linear_17_1764)"/>
<path d="M304.064 223.446H318.39V209.603H326.09V245.274H318.342V230.754H304.064V245.274H296.316V209.603H304.015V223.446H304.064Z" fill="white"/>
<path d="M340.562 245.322H332.863V209.652H340.562V245.322Z" fill="white"/>
<path d="M358.69 222.768L363.319 224.559C369.021 226.688 371.798 229.98 371.798 234.771C371.798 241.934 365.804 246.048 359.177 246.048C353.232 246.048 348.018 242.951 345.776 237.288L352.355 233.755C353.573 236.804 356.156 238.837 359.275 238.837C361.76 238.837 363.855 237.578 363.855 235.255C363.855 233.513 362.686 232.351 360.103 231.432L355.815 229.883C350.601 227.995 347.287 224.849 347.287 219.67C347.287 213.185 352.257 208.974 358.982 208.974C364.294 208.974 368.972 211.878 371.165 216.67L364.781 220.348C363.709 217.976 361.809 216.04 359.177 216.04C356.838 216.04 355.181 217.299 355.181 219.186C355.23 220.929 356.497 221.945 358.69 222.768Z" fill="white"/>
<path d="M384.37 216.766H374.917V209.652H401.475V216.766H392.07V245.322H384.37V216.766Z" fill="white"/>
<path fill-rule="evenodd" clip-rule="evenodd" d="M403.229 227.511C403.229 217.202 411.562 209.022 421.941 209.022C432.321 209.022 440.653 217.25 440.653 227.511C440.653 237.82 432.321 246 421.941 246C411.562 246 403.229 237.772 403.229 227.511ZM411.123 227.511C411.123 233.658 415.899 238.595 421.941 238.595C428.032 238.595 432.759 233.706 432.759 227.511C432.759 221.364 427.984 216.428 421.941 216.428C415.85 216.428 411.123 221.316 411.123 227.511Z" fill="white"/>
<path fill-rule="evenodd" clip-rule="evenodd" d="M457.66 209.652C465.359 209.652 470.768 213.766 470.768 221.074C470.768 226.156 467.698 229.738 463.41 231.383L473.254 245.371H464.19L455.418 232.303H453.372V245.371H445.77V209.7H457.66V209.652ZM453.372 225.962H457.709C460.779 225.962 463.02 224.172 463.02 221.219C463.02 218.218 460.779 216.524 457.709 216.524H453.372V225.962Z" fill="white"/>
<path d="M488.847 222.72L496.79 209.652H505.415L492.648 229.834V245.322H484.949V229.834L472.182 209.652H480.953L488.847 222.72Z" fill="white"/>
</g>
<defs>
<linearGradient id="paint0_linear_17_1764" x1="329.647" y1="137.183" x2="469.925" y2="47.9428" gradientUnits="userSpaceOnUse">
<stop stop-color="#DD972C"/>
<stop offset="0.2646" stop-color="#F8CB45"/>
<stop offset="0.6547" stop-color="#F2AC2F"/>
<stop offset="1" stop-color="#FDDB50"/>
</linearGradient>
<linearGradient id="paint1_linear_17_1764" x1="335.445" y1="70.7795" x2="477.07" y2="119.594" gradientUnits="userSpaceOnUse">
<stop stop-color="#DD972C"/>
<stop offset="0.2646" stop-color="#B55727"/>
<stop offset="0.4853" stop-color="#F2AC2F"/>
<stop offset="0.8259" stop-color="#E5B544"/>
<stop offset="1" stop-color="#FDDB50"/>
</linearGradient>
<linearGradient id="paint2_linear_17_1764" x1="315.152" y1="92.8445" x2="485.379" y2="92.8445" gradientUnits="userSpaceOnUse">
<stop offset="0.2066" stop-color="#EE9322"/>
<stop offset="0.4014" stop-color="#F2AC2F"/>
<stop offset="0.6663" stop-color="#F8CB45"/>
<stop offset="0.8749" stop-color="#FCDE54"/>
<stop offset="1" stop-color="#FEE55A"/>
</linearGradient>
<linearGradient id="paint3_linear_17_1764" x1="444.745" y1="165.64" x2="400.278" y2="91.7677" gradientUnits="userSpaceOnUse">
<stop offset="0.4326" stop-color="#B55727"/>
<stop offset="0.4596" stop-color="#BD6829" stop-opacity="0.9612"/>
<stop offset="0.514" stop-color="#CB8331" stop-opacity="0.8833"/>
<stop offset="0.5722" stop-color="#D89D3A" stop-opacity="0.7999"/>
<stop offset="0.6339" stop-color="#E4B442" stop-opacity="0.7114"/>
<stop offset="0.7005" stop-color="#EEC749" stop-opacity="0.6161"/>
<stop offset="0.7741" stop-color="#F6D54E" stop-opacity="0.5105"/>
<stop offset="0.8605" stop-color="#FCDE52" stop-opacity="0.3867"/>
<stop offset="0.9908" stop-color="#FEE153" stop-opacity="0.2"/>
</linearGradient>
<linearGradient id="paint4_linear_17_1764" x1="400.273" y1="155.732" x2="400.273" y2="92.1456" gradientUnits="userSpaceOnUse">
<stop stop-color="#B55727" stop-opacity="0.7"/>
<stop offset="0.144" stop-color="#BF6C2A" stop-opacity="0.6419"/>
<stop offset="0.5534" stop-color="#DCA43C" stop-opacity="0.4766"/>
<stop offset="0.8458" stop-color="#F2CE4C" stop-opacity="0.3585"/>
<stop offset="0.9908" stop-color="#FEE153" stop-opacity="0.3"/>
</linearGradient>
<linearGradient id="paint5_linear_17_1764" x1="376.201" y1="189.227" x2="417.741" y2="20.6564" gradientUnits="userSpaceOnUse">
<stop stop-color="#B55727" stop-opacity="0.7"/>
<stop offset="0.4181" stop-color="#BF6C2A" stop-opacity="0.6419"/>
<stop offset="0.8458" stop-color="#F2CE4C" stop-opacity="0.3585"/>
<stop offset="0.9908" stop-color="#FEE153" stop-opacity="0.3"/>
</linearGradient>
<clipPath id="clip0_17_1764">
<rect width="211" height="242" fill="white" transform="translate(295 4)"/>
</clipPath>
</defs>
</svg>
