<svg width="800" height="250" viewBox="0 0 800 250" fill="none" xmlns="http://www.w3.org/2000/svg">
<path d="M416.71 26.9712V53.3234V79.6755H462.422C513.467 79.6755 508.896 80.0574 506.61 75.4745C503.563 69.3638 497.087 62.8712 490.611 59.434C484.897 55.9968 479.945 54.851 471.184 54.4691C460.517 54.0872 453.661 55.6148 446.804 60.1978C445.28 60.9617 444.137 61.7255 443.756 61.7255C443.376 61.7255 443.376 53.7053 443.376 44.1574V26.9712H430.043H416.71ZM208.721 26.9712C208.34 26.9712 202.245 28.8808 195.389 30.7903L182.818 34.6095V56.7606V78.9117H209.102H235.006L234.244 72.0372C233.863 67.8361 233.863 63.2532 233.863 61.3436V57.9063H222.054C213.673 57.9063 210.245 57.9063 209.864 57.1425C209.483 56.7606 209.102 52.5595 209.102 41.8659C209.102 30.0265 209.102 26.9712 208.721 26.9712ZM562.988 53.7053C550.798 55.2329 539.751 61.3436 532.514 70.8915C529.847 73.9468 527.562 78.1479 527.562 78.9117C527.562 79.2936 537.847 79.6755 569.464 79.6755H611.367V78.1479C611.367 75.0925 602.986 65.5447 596.51 60.9617C587.749 54.851 574.797 52.1776 562.988 53.7053ZM404.14 55.9968C402.616 55.6149 394.616 55.6149 391.188 56.3787C386.617 57.5244 382.426 59.434 378.617 62.1074C377.093 63.2532 375.57 64.3989 375.189 64.017C375.189 64.017 374.808 62.4893 374.808 60.5798V57.9063H360.713H346.619V68.6V79.2936H375.57H404.52V67.8361C404.901 57.9063 404.901 56.3787 404.14 55.9968ZM245.672 57.9063V68.6V79.2936H259.385H273.099V68.6V57.9063H259.385H245.672ZM307.764 57.9063V68.6V79.2936H321.477H335.191V68.6V57.9063H321.477H307.764ZM182.437 84.6404V104.882V125.123H196.531H210.626L210.245 123.596C209.864 122.832 209.864 113.666 209.483 103.354L209.102 84.6404H195.77H182.437ZM245.672 84.6404V102.972C245.672 113.284 245.672 122.45 246.053 123.214L246.434 125.123H261.29C272.337 125.123 276.146 125.123 276.146 124.36C276.146 123.978 275.384 122.068 274.623 120.54L273.099 117.103V100.681L272.718 84.2585H259.004L245.672 84.6404ZM308.145 84.6404L307.764 100.299C307.383 117.103 307.383 118.249 304.335 122.068C301.669 125.505 301.288 125.505 319.192 125.505H335.191V105.264V84.6404H321.477H308.145ZM347 84.6404V104.882V125.123H360.713H374.808V110.229C375.189 93.4245 375.189 92.2787 379.379 88.0777C380.522 86.55 381.665 85.4043 381.665 85.0223C381.665 84.6404 376.712 84.6404 364.142 84.6404H347ZM416.71 84.6404V104.882V125.123H433.09C443.376 125.123 449.47 124.742 449.47 124.742C449.47 124.36 448.709 122.832 447.566 120.922C444.899 116.339 444.137 114.048 443.376 109.083C442.233 101.445 444.137 93.0426 447.566 88.0777C448.709 86.55 449.47 85.0223 449.47 85.0223C449.47 84.6404 442.614 84.6404 433.09 84.6404H416.71ZM494.801 84.6404C481.85 84.6404 479.564 84.6404 479.564 85.4043C479.564 85.7862 480.326 87.3138 481.088 88.4596C484.516 93.8064 486.04 101.827 484.897 109.083C484.135 114.812 482.992 117.485 480.707 121.304C479.564 122.832 478.802 124.36 478.802 124.742C478.802 125.123 485.659 125.123 494.42 125.123H510.039L510.801 123.214C513.086 115.957 513.467 99.917 511.943 91.133C511.562 88.4596 510.801 85.7862 510.42 85.4043C510.039 84.6404 508.515 84.6404 494.801 84.6404ZM524.514 84.6404L523.752 87.3138C521.086 95.716 520.705 108.701 522.99 117.867C523.752 120.922 524.514 123.596 524.895 124.36C525.276 125.123 526.419 125.123 540.513 125.123C557.274 125.123 556.512 125.123 554.227 121.686C548.132 113.284 548.132 95.716 553.846 87.6958C554.608 86.55 555.37 85.4043 555.37 85.0223C555.37 84.6404 549.275 84.6404 540.132 84.6404H524.514ZM599.177 84.6404C590.796 84.6404 583.94 84.6404 583.94 85.0223C583.94 85.4043 585.082 87.3138 586.225 89.9872C588.13 93.8064 588.892 95.3341 589.273 99.1532C590.415 107.173 588.511 117.103 584.701 122.068C583.94 123.214 583.178 124.36 583.178 124.742C583.178 125.123 589.273 125.123 598.415 125.123H613.652L614.414 122.45C617.462 112.902 617.462 96.4798 614.795 87.3138L614.033 84.6404H599.177ZM182.437 130.47V133.908C182.437 143.837 189.294 152.239 199.579 154.531C206.817 156.059 222.435 154.913 233.482 152.239C237.291 151.094 237.672 151.094 237.672 149.948C237.672 149.184 236.529 144.601 235.387 139.636L232.72 130.852H207.578H182.437V130.47ZM291.384 130.47C251.005 130.47 247.576 130.47 247.576 131.234C247.576 132.762 251.386 139.254 253.671 142.31C261.29 151.094 269.67 154.531 282.622 154.531C292.526 154.531 299.383 152.621 304.716 148.038C305.859 146.893 307.002 146.129 307.383 146.511C307.383 146.511 307.764 148.038 307.764 149.566V152.239H321.477H335.191V141.164V130.088L291.384 130.47ZM347 130.47V141.546V152.621H361.094H375.189V141.546V130.47H361.094H347ZM416.71 130.47V141.546V152.621H430.043H443.376V149.948C443.376 146.893 443.756 146.511 444.899 148.038C446.423 149.566 452.137 153.003 455.184 153.767C465.47 156.822 481.85 154.913 491.373 149.184C493.278 148.038 495.944 146.129 497.468 144.983C500.896 142.31 506.229 134.671 506.61 132.38L506.991 130.852H461.66L416.71 130.47ZM569.464 130.47C529.847 130.47 527.562 130.47 527.562 131.234C527.562 133.908 534.799 143.073 540.513 147.275C548.132 153.003 556.132 155.677 566.798 156.059C580.892 156.822 592.701 152.621 602.224 143.837C605.272 141.164 610.986 132.762 610.986 131.234C611.367 130.47 609.462 130.47 569.464 130.47Z" fill="#F60506"/>
<path d="M294.431 178.592V184.32C295.193 184.702 296.336 185.084 297.098 185.848C298.24 186.612 299.383 187.758 300.526 188.903V183.938H307.383C314.62 183.938 319.192 188.903 319.192 195.396C319.192 201.888 314.62 206.471 307.383 206.471H302.05C300.907 208.763 299.002 210.291 297.098 211.818H307.383C318.049 211.818 325.667 204.562 325.667 195.014C325.667 185.466 318.43 178.592 307.383 178.592H294.431ZM287.574 185.466C280.337 185.466 274.242 191.577 274.242 198.833C274.242 206.09 280.337 212.2 287.574 212.2C294.812 212.2 300.907 206.09 300.907 198.833C300.907 191.577 295.193 185.466 287.574 185.466ZM375.189 186.23C367.57 186.23 361.856 192.341 361.856 199.215C361.856 206.471 367.57 212.2 375.189 212.2C380.141 212.2 383.188 210.291 385.855 207.617L382.426 204.18C380.522 206.09 378.617 207.235 375.57 207.235C370.998 207.235 367.951 203.798 367.951 199.215C367.951 194.632 370.998 191.195 375.189 191.195C378.236 191.195 380.141 192.341 382.045 194.25L385.855 190.431C383.188 188.139 380.141 186.23 375.189 186.23ZM400.711 186.23C398.806 186.23 396.902 186.612 395.378 187.376C393.854 188.139 392.331 188.903 391.188 190.049C390.045 191.195 388.902 192.722 388.14 194.25C387.379 195.778 386.998 197.687 386.998 199.215C386.998 201.125 387.379 202.652 388.14 204.18C388.902 205.708 389.664 207.235 390.807 208.381C391.95 209.527 393.473 210.291 394.997 211.054C396.521 211.818 398.426 212.2 400.33 212.2C402.235 212.2 404.14 211.818 405.663 211.054C407.187 210.291 408.711 209.527 409.854 208.381C410.996 207.235 412.139 205.708 412.901 204.18C413.663 202.652 414.044 200.743 414.044 199.215C414.044 197.305 413.663 195.778 412.901 194.25C412.139 192.722 411.377 191.195 410.234 190.049C409.092 188.903 407.568 187.758 406.044 187.376C404.52 186.612 402.997 186.23 400.711 186.23ZM454.423 186.23C452.518 186.23 450.994 186.612 449.47 187.376C447.947 188.139 446.804 188.903 445.661 190.049C444.518 191.195 443.757 192.722 442.995 194.25C442.233 195.778 442.233 197.687 442.233 199.215C442.233 201.125 442.614 203.034 443.376 204.562C444.137 206.09 444.899 207.617 446.042 208.763C447.185 209.909 448.709 210.673 450.232 211.436C451.756 212.2 453.661 212.2 455.565 212.2C457.851 212.2 460.137 211.818 461.66 211.054C463.184 210.291 464.708 209.145 466.232 207.617L462.803 204.562C461.66 205.708 460.898 206.471 459.756 206.853C458.613 207.235 457.47 207.617 455.946 207.617C454.042 207.617 452.518 207.235 450.994 206.09C449.471 204.944 448.709 203.416 448.328 201.507H467.374C467.374 201.125 467.374 201.125 467.374 200.743C467.374 200.361 467.374 200.361 467.374 199.979C467.374 198.069 466.993 196.542 466.612 195.014C466.232 193.486 465.47 191.959 464.327 190.813C463.184 189.667 462.041 188.521 460.518 187.758C458.232 186.612 456.327 186.23 454.423 186.23ZM349.285 186.23C348.142 186.23 347 186.23 345.857 186.612C344.714 186.994 343.571 187.376 342.809 188.14C342.048 188.903 341.286 189.667 340.905 190.431C340.524 191.195 340.143 192.341 340.143 193.486C340.143 194.632 340.524 195.778 340.905 196.542C341.286 197.305 342.048 198.069 342.809 198.451C343.571 198.833 344.333 199.597 345.476 199.979C346.619 200.361 347.381 200.743 348.143 200.743C348.904 201.125 349.666 201.125 350.428 201.507C351.19 201.888 351.571 201.888 352.333 202.27C352.714 202.652 353.476 203.034 353.476 203.034C353.857 203.416 353.856 203.798 353.856 204.18C353.856 204.944 353.476 205.708 352.714 206.09C351.952 207.617 351.19 207.617 349.666 207.617C348.523 207.617 347 207.235 345.476 206.853C343.952 206.471 342.429 205.708 341.286 204.562L338.619 208.381C340.143 209.527 342.048 210.673 343.952 211.054C345.857 211.818 347.762 211.818 349.666 211.818C350.809 211.818 352.333 211.818 353.476 211.436C354.618 211.054 355.761 210.673 356.523 209.909C357.285 209.145 358.047 208.381 358.428 207.617C358.809 206.471 359.19 205.326 359.19 204.18C359.19 203.034 358.809 201.888 358.428 201.125C358.047 200.361 357.285 199.597 356.523 199.215C355.761 198.833 354.999 198.069 353.856 197.687C353.095 197.305 351.952 196.924 351.19 196.542C350.428 196.16 349.666 196.16 348.904 195.778C348.142 195.396 347.762 195.396 347 195.014C346.619 194.632 345.857 194.632 345.857 194.25C345.476 193.868 345.476 193.486 345.476 193.104C345.476 192.341 345.857 191.959 346.238 191.195C347 190.813 347.762 190.431 348.904 190.431C350.047 190.431 351.19 190.813 352.333 191.195C353.476 191.577 354.999 192.341 356.142 193.104L358.428 188.903C356.904 188.139 355.38 187.376 353.856 186.994C352.333 186.612 350.809 186.23 349.285 186.23ZM488.707 186.612L498.23 211.436C498.23 211.436 496.325 216.401 494.421 217.547C492.897 218.311 489.849 218.311 488.707 217.929V222.512C490.611 222.512 495.563 222.512 497.087 221.748C498.992 220.602 499.373 219.838 500.896 217.165C502.42 214.11 513.467 185.848 513.467 185.848H507.372L500.896 204.18L494.801 185.848L488.707 186.612ZM328.715 186.612V211.818H334.429V186.612H328.715ZM414.806 186.612L425.472 211.818H430.805L441.471 186.612H435.376L428.519 204.944L421.662 186.612H414.806ZM471.184 186.612V211.818H476.898V202.27C476.898 200.743 476.898 199.215 477.659 198.069C479.564 193.486 484.516 192.341 486.802 191.959L484.897 186.994C482.993 187.376 479.183 188.139 476.898 190.813V186.612H471.184ZM454.423 190.813C455.565 190.813 456.327 190.813 457.089 191.195C457.851 191.577 458.613 191.959 458.994 192.722C459.375 193.486 460.137 193.868 460.137 195.014C460.518 195.778 460.518 196.16 460.898 196.924H447.566C447.947 195.014 448.709 193.868 449.851 192.722C450.994 191.577 452.518 190.813 454.423 190.813ZM400.711 191.195C401.854 191.195 402.997 191.577 403.759 191.959C404.901 192.341 405.663 193.104 406.425 193.868C407.187 194.632 407.568 195.396 407.949 196.542C408.33 197.687 408.711 198.451 408.711 199.597C408.711 200.743 408.711 201.507 408.33 202.652C407.949 203.798 407.568 204.562 406.806 205.326C406.044 206.09 405.282 206.471 404.52 207.235C403.378 207.617 402.616 207.999 401.092 207.999C399.949 207.999 398.807 207.617 398.045 207.235C396.902 206.853 396.14 206.09 395.378 205.326C394.616 204.562 394.235 203.798 393.854 202.652C393.473 201.507 393.093 200.743 393.093 199.597C393.093 198.451 393.093 197.305 393.473 196.542C393.854 195.396 394.235 194.632 394.997 193.868C395.759 193.104 396.521 192.722 397.283 192.341C398.426 191.577 399.568 191.195 400.711 191.195Z" fill="white"/>
</svg>
