<svg width="800" height="250" viewBox="0 0 800 250" fill="none" xmlns="http://www.w3.org/2000/svg">
<g clip-path="url(#clip0_17_1316)">
<path d="M314.315 130.108C314.315 152.982 314.315 176.022 314.315 198.896C314.315 200.377 314.315 200.707 312.503 200.377C288.774 194.947 265.211 189.516 241.483 184.085C240.165 183.756 240 183.427 240 182.111C240 141.627 240 101.309 240 60.8256C240 59.5091 240.33 59.3445 241.483 59.3445C265.211 59.3445 288.939 59.3445 312.667 59.3445C314.15 59.3445 314.15 59.8382 314.15 60.9902C314.315 84.0294 314.315 107.069 314.315 130.108Z" fill="white"/>
<path d="M557.693 132.576C552.255 106.246 538.084 86.0042 514.192 73.0035C496.56 63.4587 477.446 59.6737 457.673 59.6737C419.609 59.5091 381.38 59.6737 343.316 59.6737C341.833 59.6737 341.339 60.0028 341.339 61.6485C341.339 85.5105 341.339 109.537 341.339 133.399C341.339 157.426 341.339 181.452 341.339 205.479C341.339 206.96 341.833 207.289 343.151 207.618C365.396 212.555 387.477 217.821 409.722 222.758C439.547 229.506 469.537 236.417 499.361 243.165C500.185 243.329 500.844 243.329 501.668 243.165C526.88 233.784 544.84 216.834 554.068 191.326C560.824 172.072 561.648 152.324 557.693 132.576ZM477.446 177.667C471.843 191.162 461.298 198.074 446.632 198.238C436.91 198.238 427.188 198.238 417.302 198.238C415.819 198.238 415.489 198.074 415.489 196.428C415.489 182.604 415.489 168.781 415.489 154.957C415.489 141.134 415.489 127.475 415.489 113.651C415.489 112.17 415.654 111.676 417.302 111.676C426.529 111.676 435.922 111.676 445.149 111.676C462.616 111.676 473.986 120.234 479.094 136.855C483.378 150.679 483.048 164.338 477.446 177.667Z" fill="white"/>
<path d="M348.26 19.5196C348.26 25.9377 343.316 31.0392 336.066 31.0392H329.145C330.628 30.0518 331.782 28.8999 332.606 27.4188H336.066C340.845 27.4188 343.975 24.1275 343.975 19.6842C343.975 15.2409 340.845 11.9496 336.066 11.9496H331.617V15.2409C330.958 14.4181 330.134 13.7598 329.31 13.1015C328.816 12.7724 328.157 12.4433 327.662 12.1141V8H336.231C343.316 8 348.26 12.937 348.26 19.5196ZM350.566 31.0392H354.521V13.7598H350.566V31.0392ZM369.351 22.4818C368.857 22.1527 368.198 21.8235 367.703 21.4944C366.88 21.3298 366.385 21.1653 365.726 20.8361C365.232 20.6716 364.737 20.507 364.243 20.3424C363.749 20.1779 363.419 20.0133 362.925 19.8487C362.595 19.6842 362.266 19.5196 362.101 19.1905C361.936 19.0259 361.771 18.6968 361.771 18.3676C361.771 17.8739 361.936 17.3803 362.431 17.0511C362.76 16.722 363.419 16.5574 364.243 16.5574C364.902 16.5574 365.726 16.722 366.55 17.0511C367.374 17.3803 368.198 17.7094 369.022 18.2031L370.505 15.4055C369.516 14.7472 368.527 14.2535 367.539 13.9244C366.385 13.5952 365.397 13.4307 364.243 13.4307C363.419 13.4307 362.595 13.5952 361.771 13.7598C360.948 13.9244 360.288 14.4181 359.794 14.7472C359.3 15.2409 358.805 15.7346 358.476 16.3929C358.146 17.0511 357.981 17.8739 357.981 18.5322C357.981 19.355 358.146 20.0133 358.476 20.6716C358.805 21.1653 359.3 21.659 359.794 22.1527C360.288 22.4818 360.947 22.8109 361.442 23.1401C362.101 23.3046 362.76 23.6338 363.254 23.7983C363.749 23.9629 364.243 24.1275 364.737 24.292C365.232 24.4566 365.561 24.6211 366.056 24.7857C366.385 24.9503 366.715 25.1148 366.88 25.444C367.044 25.6085 367.209 25.9377 367.209 26.2668C367.209 26.7605 367.044 27.2542 366.55 27.5833C366.056 27.9125 365.397 28.077 364.573 28.077C363.749 28.077 362.76 27.9125 361.771 27.5833C360.783 27.2542 359.794 26.7605 358.805 26.1022L356.993 28.7353C358.146 29.5581 359.3 30.2164 360.618 30.7101C361.936 31.0392 363.09 31.3683 364.408 31.3683C365.232 31.3683 366.056 31.3683 366.88 31.0392C367.703 30.8746 368.363 30.5455 368.857 30.0518C369.351 29.5581 369.846 29.0644 370.175 28.4062C370.505 27.7479 370.669 26.9251 370.669 25.9377C370.669 25.1148 370.505 24.4566 370.175 23.9629C370.175 23.3046 369.681 22.8109 369.351 22.4818ZM407.58 18.8613C408.074 20.0133 408.239 21.1653 408.239 22.3172C408.239 23.6338 408.074 24.7857 407.58 25.7731C407.085 26.9251 406.426 27.7479 405.602 28.7353C404.779 29.5581 403.79 30.2164 402.636 30.7101C401.483 31.2038 400.33 31.3683 398.847 31.3683C397.528 31.3683 396.375 31.2038 395.221 30.7101C394.068 30.2164 393.079 29.5581 392.255 28.7353C391.432 27.9125 390.772 27.0896 390.278 25.9377C389.784 24.7857 389.619 23.6338 389.619 22.4818C389.619 21.1653 389.784 20.0133 390.278 19.0259C390.772 17.8739 391.432 17.0511 392.255 16.0637C393.079 15.2409 394.068 14.5826 395.221 14.0889C396.375 13.5952 397.528 13.4307 398.847 13.4307C400.165 13.4307 401.483 13.5952 402.472 14.0889C403.625 14.5826 404.614 15.2409 405.438 16.0637C406.426 16.8866 407.085 17.8739 407.58 18.8613ZM404.284 22.4818C404.284 21.659 404.119 21.0007 403.955 20.3424C403.79 19.6842 403.296 19.0259 402.801 18.5322C402.307 18.0385 401.813 17.5448 401.153 17.3803C400.494 17.0511 399.835 16.8866 399.011 16.8866C398.187 16.8866 397.528 17.0511 396.869 17.3803C396.21 17.7094 395.716 18.0385 395.221 18.5322C394.727 19.0259 394.398 19.6842 394.233 20.1779C394.068 20.8361 393.903 21.659 393.903 22.3172C393.903 23.1401 394.068 23.7983 394.233 24.4566C394.398 25.1148 394.892 25.7731 395.386 26.2668C395.881 26.7605 396.375 27.2542 397.034 27.4188C397.693 27.7479 398.352 27.9125 399.176 27.9125C400 27.9125 400.659 27.7479 401.318 27.4188C401.977 27.0896 402.472 26.7605 402.966 26.2668C403.46 25.7731 403.79 25.1148 403.955 24.6211C404.119 23.9629 404.284 23.3046 404.284 22.4818ZM417.302 26.4314L412.688 13.7598H408.404L415.489 31.2038H419.114L426.2 13.7598H422.08L417.302 26.4314ZM442.842 19.1905C443.172 20.3424 443.337 21.4944 443.337 22.8109C443.337 22.9755 443.337 23.1401 443.337 23.3046C443.337 23.4692 443.337 23.6338 443.337 23.7983H430.649C430.814 25.2794 431.473 26.2668 432.297 27.0896C433.285 27.9125 434.274 28.2416 435.592 28.2416C436.581 28.2416 437.405 28.077 438.229 27.7479C438.888 27.4188 439.712 26.9251 440.371 26.2668L442.678 28.2416C441.854 29.229 440.865 30.0518 439.712 30.5455C438.558 31.2038 437.24 31.3683 435.592 31.3683C434.274 31.3683 433.121 31.2038 432.132 30.7101C430.978 30.2164 430.155 29.5581 429.331 28.8999C428.507 28.077 427.848 27.2542 427.518 26.1022C427.024 24.9503 426.859 23.7983 426.859 22.4818C426.859 21.1653 427.024 20.0133 427.518 19.0259C427.848 17.8739 428.507 17.0511 429.331 16.0637C430.155 15.0763 430.978 14.5826 431.967 14.0889C432.956 13.5952 434.109 13.4307 435.427 13.4307C436.91 13.4307 438.064 13.5952 439.053 14.2535C440.041 14.7472 440.865 15.4055 441.689 16.2283C442.019 17.0511 442.348 18.0385 442.842 19.1905ZM439.382 20.8361C439.382 20.1779 439.217 20.0133 439.053 19.355C438.888 18.8613 438.558 18.3676 438.229 17.8739C437.899 17.5448 437.405 17.0511 436.91 16.8866C436.416 16.722 435.757 16.5574 435.098 16.5574C433.78 16.5574 432.791 16.8866 432.132 17.8739C431.308 18.6968 430.814 19.355 430.649 20.8361H439.382ZM382.039 28.077C379.073 28.077 376.931 25.6085 376.931 22.4818C376.931 19.5196 379.073 16.8866 381.874 16.8866C383.852 16.8866 385.17 17.7094 386.323 19.0259L388.795 16.3929C387.147 14.7472 385.17 13.4307 381.874 13.4307C376.766 13.4307 372.976 17.5448 372.976 22.4818C372.976 27.4188 376.766 31.3683 381.874 31.3683C385.17 31.3683 387.312 30.0518 388.96 28.077L386.488 25.7731C385.17 27.2542 383.852 28.077 382.039 28.077ZM450.257 16.722V13.7598H446.303V31.0392H450.257V24.4566C450.257 23.3046 450.258 22.3172 450.587 21.4944C451.741 18.3676 455.036 17.3803 456.849 17.2157L455.53 13.9244C454.212 14.0889 451.74 14.7472 450.257 16.722ZM471.02 13.7598L466.571 26.4314L462.451 13.7598H458.167L464.593 30.8746C464.593 30.8746 463.275 34.3305 462.122 35.3179C461.133 35.8116 459.156 35.6471 458.332 35.6471V38.9384C459.815 38.9384 462.945 38.9384 464.099 38.4447C465.417 37.6218 465.747 37.2927 466.735 35.4825C467.724 33.5077 475.304 13.7598 475.304 13.7598H471.02Z" fill="white"/>
<path d="M332.276 21.9881C332.276 16.8865 328.157 12.937 323.213 12.937C318.105 12.937 314.15 17.0511 314.15 21.9881C314.15 27.0896 318.27 31.0392 323.213 31.0392C328.157 31.0392 332.276 27.0896 332.276 21.9881Z" fill="white"/>
</g>
<defs>
<clipPath id="clip0_17_1316">
<rect width="320" height="235" fill="white" transform="translate(240 8)"/>
</clipPath>
</defs>
</svg>
