<svg width="800" height="250" viewBox="0 0 800 250" fill="none" xmlns="http://www.w3.org/2000/svg">
<g clip-path="url(#clip0_17_1748)">
<path d="M593.468 196.039V203.01H600.119V210.539H593.468V222.25C593.468 224.644 594.437 225.814 597.268 225.814C598.537 225.814 600.175 225.385 600.175 225.385L601 232.354C601 232.354 598.868 233.224 594.951 233.224C587.644 233.224 583.767 229.601 583.767 222.808V210.539H579.444V203.01H583.767V196.039H593.468ZM561.924 201.919C552.85 201.919 546.317 207.822 546.317 217.622C546.317 227.206 552.918 233.307 563.691 233.307C569.007 233.307 574.258 230.919 574.258 230.919L572.127 223.983C572.127 223.983 568.545 225.83 564.471 225.83C559.353 225.83 556.969 222.934 556.33 220.305H577.393C577.691 210.302 573.579 201.919 561.924 201.919ZM562.34 208.96C565.704 208.96 568.13 211.332 568.565 214.45H556.174C556.52 211.099 559.587 208.96 562.34 208.96ZM511.985 232.289V203.01H521.575V206.85C521.575 206.85 524.762 201.894 531.806 201.894C539.765 201.894 542.472 206.97 542.472 213.327V232.289H532.883V216.673C532.883 211.737 530.989 209.706 527.833 209.706C524.22 209.706 521.575 212.848 521.575 217.789V232.289H511.985ZM438.714 201.919C447.783 201.919 453.42 209.285 453.42 217.395C453.42 226.736 446.699 233.341 438.558 233.341C432.558 233.341 428.84 228.95 428.84 228.95V244H419.313V203.017H428.84V206.642C428.84 206.642 432.079 201.919 438.714 201.919ZM435.907 210.006C431.598 210.006 428.563 214.306 428.563 217.552C428.563 221.998 432.006 225.028 435.907 225.028C439.62 225.028 443.46 222.502 443.46 217.604C443.46 213.726 440.281 210.006 435.907 210.006ZM457.264 232.289V191.298H466.964V232.289H457.264ZM485.746 201.919C476.676 201.919 471.039 209.285 471.039 217.395C471.039 226.736 477.76 233.341 485.901 233.341C491.901 233.341 495.619 228.95 495.619 228.95V232.296H505.146V203.017H495.619V206.642C495.619 206.642 492.38 201.919 485.746 201.919ZM488.552 210.006C492.861 210.006 495.896 214.306 495.896 217.552C495.896 221.998 492.453 225.028 488.552 225.028C484.839 225.028 480.999 222.502 480.999 217.604C480.999 213.726 484.178 210.006 488.552 210.006ZM390.381 232.289V191.298H400.081V232.289H390.381ZM364.173 201.919C355.103 201.919 349.467 209.285 349.467 217.395C349.467 226.736 356.187 233.341 364.329 233.341C370.329 233.341 374.046 228.95 374.046 228.95V232.296H383.574V203.017H374.046V206.642C374.046 206.642 370.808 201.919 364.173 201.919ZM366.979 210.006C371.288 210.006 374.324 214.306 374.324 217.552C374.324 221.998 370.88 225.028 366.979 225.028C363.266 225.028 359.427 222.502 359.427 217.604C359.427 213.726 362.606 210.006 366.979 210.006ZM324.631 218.346V232.289H315.042V216.673C315.042 211.737 313.148 209.706 309.993 209.706C306.38 209.706 303.734 212.848 303.734 217.789V232.289H294.145V203.01H303.734V206.85C303.734 206.85 306.921 201.894 313.965 201.894C318.848 201.894 321.753 203.804 323.271 206.748C323.271 206.748 326.403 201.864 334.454 201.864C342.005 201.864 345.695 206.486 345.695 212.77V232.289H336.105V216.673C336.105 212.865 334.615 209.615 331.053 209.615C327.412 209.615 324.631 212.918 324.631 218.346ZM288.25 192.151C288.25 193.656 287.656 195.099 286.598 196.163C285.541 197.227 284.106 197.825 282.611 197.825C281.115 197.825 279.681 197.227 278.623 196.163C277.566 195.099 276.971 193.656 276.971 192.151C276.971 190.646 277.566 189.203 278.623 188.139C279.681 187.075 281.115 186.477 282.611 186.477C284.106 186.477 285.541 187.075 286.598 188.139C287.656 189.203 288.25 190.646 288.25 192.151ZM277.682 232.289V203.01H287.382V232.289H277.682ZM240.932 232.289V203.01H250.521V206.85C250.521 206.85 253.709 201.894 260.752 201.894C268.712 201.894 271.418 206.97 271.418 213.327V232.289H261.829V216.673C261.829 211.737 259.935 209.706 256.78 209.706C253.167 209.706 250.521 212.848 250.521 217.789V232.289H240.932ZM214.706 201.919C205.636 201.919 200 209.285 200 217.395C200 226.736 206.721 233.341 214.862 233.341C220.862 233.341 224.58 228.95 224.58 228.95V232.296H234.107V203.017H224.58V206.642C224.58 206.642 221.341 201.919 214.706 201.919ZM217.512 210.006C221.821 210.006 224.857 214.306 224.857 217.552C224.857 221.998 221.413 225.028 217.512 225.028C213.8 225.028 209.96 222.502 209.96 217.604C209.96 213.726 213.139 210.006 217.512 210.006Z" fill="white"/>
<path d="M424.508 7V53.4611C424.508 53.4611 431.679 59.3665 435.091 64.1085C417.522 52.5766 398.858 47.7329 376.162 47.7329C338.802 47.7329 304.786 65.148 287.992 93.9733L290.16 98.0724C290.16 98.0724 297.467 89.233 314.351 80.5634C295.909 98.8671 288.185 113.468 276.846 147.135L294.833 165.158C318.368 138.665 352.993 121.161 392.081 121.161C429.067 121.161 463.125 137.815 484.417 159.955L503.792 140.403C492.931 121.701 478.826 104.452 467.615 92.476C479.215 99.1405 497.734 102.952 515.423 102.952C546.37 102.952 569.11 86.1878 569.11 63.3619C569.11 35.2435 545.148 18.1314 506.065 11.6246L499.744 22.2927C519.413 25.8216 550.012 37.3393 550.012 57.9147C550.012 69.2015 541.334 78.6685 528.83 78.6685C513.377 78.6685 500.543 61.3303 492.745 46.0197L480.81 45.7307C467.112 28.6764 444.967 12.0339 424.508 7Z" fill="#0074FF"/>
</g>
<defs>
<clipPath id="clip0_17_1748">
<rect width="401" height="237" fill="white" transform="translate(200 7)"/>
</clipPath>
</defs>
</svg>
