<svg width="800" height="250" viewBox="0 0 800 250" fill="none" xmlns="http://www.w3.org/2000/svg">
<path d="M173.082 125.111V55H242.6H312.117V125.111V195.222H242.6H173.082V125.111ZM288.414 125.111V79.3711H242.777H197.139V125.111V170.851H242.777H288.414V125.111Z" fill="#D31F26"/>
<path d="M380.573 180.009C343.605 174.937 323.707 134.211 340.79 98.5855C352.21 74.77 376.13 63.6562 400.738 70.7318C416.296 75.2051 431.253 89.955 434.659 104.184L434.891 105.155H423.37H411.849L411.247 104.073C403.237 89.6968 388.566 84.6013 374.559 91.3312C355.337 100.567 349.801 130.336 363.878 148.776C376.362 165.13 401.509 163.195 410.91 145.157L412.059 142.951L423.608 142.949L435.156 142.948L434.821 144.449C434.257 146.968 432.159 151.738 430.131 155.111C419.644 172.55 399.601 182.62 380.573 180.009ZM477.917 179.848C461.433 176.729 445.913 160.523 444.871 145.341L444.683 142.595H455.163H465.643L465.851 143.566C470.308 164.428 498.173 165.28 503.372 144.714C507.776 127.292 484.711 113.774 472.035 126.347L470.432 127.937L460.705 125.348C455.355 123.924 450.895 122.696 450.895 122.696C450.895 122.696 452.825 110.793 455.237 96.3222C457.65 81.8512 459.628 69.9715 459.633 69.9229C459.638 69.8743 473.333 69.8346 490.067 69.8346H520.492V78.6621V87.4895L498.307 87.5805L476.123 87.6714L474.311 97.2079C473.315 102.453 472.546 107.002 472.546 107.002C472.546 107.002 473.862 106.448 475.364 105.848C480.904 103.633 490.661 102.729 496.43 103.896C518.62 108.387 531.123 133.474 522.137 155.479C515.379 172.028 495.24 183.126 477.917 179.848ZM535.704 124.581V69.8346H548.39H561.075L582.441 107.485L603.807 145.136L603.897 107.485L603.987 69.8346H614.952H625.918V124.581V179.328H613.084H600.25L578.431 142.482C566.476 122.293 556.772 105.572 556.772 105.572C556.772 105.572 556.931 122.118 556.931 142.418V179.328H546.318H535.704V124.581Z" fill="white"/>
</svg>
