<svg width="800" height="250" viewBox="0 0 800 250" fill="none" xmlns="http://www.w3.org/2000/svg">
<g clip-path="url(#clip0_17_1054)">
<path d="M340.144 125.532C340.842 119.134 343.823 113.434 348.328 109.063C348.581 108.81 348.835 108.556 349.089 108.303C349.343 108.05 349.66 107.86 349.914 107.606C354.101 104.186 359.113 101.905 364.315 100.892C364.378 100.892 364.505 100.892 364.568 100.829C365.33 100.702 366.091 100.575 366.789 100.512C367.741 100.449 368.692 100.385 369.644 100.385C369.897 100.385 370.088 100.385 370.342 100.385C371.103 100.385 371.928 100.449 372.752 100.512C378.652 101.145 384.362 103.616 389.057 107.606L392.165 110.267L405.615 96.3948L402.125 93.3545C393.941 86.2603 381.507 81.8897 369.644 81.8897C338.241 81.8897 319.526 105.453 319.526 128.255C319.526 151.058 338.241 174.621 369.644 174.621C381.571 174.621 394.005 170.187 402.125 163.156L405.615 160.116L392.165 146.244L389.057 148.905C384.362 152.895 378.652 155.365 372.752 155.999C371.928 156.062 371.103 156.125 370.342 156.189C370.151 156.189 369.897 156.189 369.644 156.189C368.692 156.189 367.741 156.125 366.789 156.062C366.028 155.999 365.266 155.872 364.568 155.745C364.442 155.745 364.378 155.682 364.315 155.682C359.113 154.732 354.037 152.452 349.914 149.031C349.66 148.778 349.343 148.588 349.089 148.334C348.835 148.081 348.581 147.828 348.328 147.574C343.823 143.204 340.842 137.44 340.144 131.106C340.08 130.219 340.017 129.332 340.017 128.445C340.017 128.382 340.017 128.255 340.017 128.192C340.017 128.129 340.017 128.002 340.017 127.939C340.017 127.242 340.08 126.355 340.144 125.532ZM269.852 136.806C272.389 130.662 276.006 121.731 279.685 112.737C283.365 121.668 286.981 130.662 289.518 136.806H269.852ZM272.072 83.3466L243.08 150.615L233.881 171.897L233.183 173.481H254.69C254.69 173.481 260.907 158.469 262.556 154.479H296.877C298.527 158.469 304.744 173.481 304.744 173.481H326.25L287.361 83.3466H272.072ZM408.533 173.544H469.118V155.175C469.118 155.175 436.256 155.175 429.087 155.175V137.25C436.256 137.25 469.118 137.25 469.118 137.25V118.881C469.118 118.881 436.256 118.881 429.087 118.881V101.779C436.256 101.779 469.118 101.779 469.118 101.779V83.4099H408.533V173.544ZM152.487 120.401L140.433 116.537C129.712 113.117 129.712 109.633 129.712 107.923C129.712 105.326 130.917 99.3085 142.273 99.3085C153.756 99.3085 161.813 103.679 168.918 109.506C168.918 109.506 172.851 100.955 177.482 94.8113C177.482 94.8113 166.253 81.193 142.4 81.193C122.733 81.193 108.459 92.5944 108.459 108.303C108.459 120.781 116.389 129.522 132.757 134.969L144.937 139.023C152.677 141.62 156.61 144.597 156.61 147.954C156.61 152.578 150.774 156.252 143.288 156.252C131.044 156.252 128.824 150.678 128.189 145.231H107L107.063 146.181C108.713 163.916 122.035 174.494 142.717 174.494C163.399 174.494 177.863 163.283 177.863 147.194C177.863 134.716 169.362 125.722 152.487 120.401ZM210.852 128.002C210.852 128.002 207.617 128.002 204.572 128.002V101.019C207.617 101.019 210.852 101.019 210.852 101.019C227.029 101.019 227.029 111.217 227.029 114.574C227.029 117.931 227.029 128.002 210.852 128.002ZM246.696 114.574C246.696 99.4352 234.96 83.3466 213.136 83.3466H184.905V173.544H204.572C204.572 173.544 204.572 152.008 204.572 145.801C208.441 145.801 213.136 145.801 213.136 145.801C234.96 145.737 246.696 129.712 246.696 114.574Z" fill="#FCFE1A"/>
<path d="M596.388 182.958C566.23 182.958 541.782 158.738 541.782 128.857C541.782 107.187 554.652 88.493 573.224 79.8628V68.1843C573.224 55.5082 583.589 45.239 596.388 45.239C609.179 45.239 619.536 55.5082 619.536 68.1843L619.131 79.6807C637.934 88.2317 650.994 107.028 650.994 128.857C650.994 158.738 626.546 182.958 596.388 182.958ZM596.388 29C543.019 29 499.729 72.1985 499.729 125.492C499.729 178.794 543.011 221.992 596.388 221.992C649.757 221.992 693.032 178.794 693.032 125.492C693.024 72.1985 649.757 29 596.388 29ZM596.388 105.239C583.605 105.239 573.224 115.508 573.224 128.168C573.224 140.836 583.597 151.106 596.388 151.106C609.163 151.106 619.536 140.836 619.536 128.168C619.528 115.5 609.155 105.239 596.388 105.239Z" fill="#FCFE1A"/>
</g>
<defs>
<clipPath id="clip0_17_1054">
<rect width="586" height="193" fill="white" transform="translate(107 29)"/>
</clipPath>
</defs>
</svg>
