<svg width="800" height="250" viewBox="0 0 800 250" fill="none" xmlns="http://www.w3.org/2000/svg">
<g clip-path="url(#clip0_17_1040)">
<path d="M537.125 100.568L541.105 117.571L528.006 119.222L537.125 100.568ZM689.503 21.3301L670.269 157.686L111.166 228.835L130.4 92.4793L689.503 21.3301ZM623.014 97.4317L649.543 58.9682L622.019 62.2698L609.749 81.2539L599.469 65.0762L573.603 68.2127L594.495 99.7428L570.619 134.409L552.711 70.8539L529.167 73.8254L491.197 145.8L500.979 77.292L474.782 80.4285L455.88 107.997L444.273 84.0603L420.894 87.0317L410.614 160.327L433.827 157.521L438.967 121.203L451.569 145.305H451.9L471.963 117.241L466.823 153.559L488.544 150.917L490.534 150.587L514.576 147.616L519.55 137.381L544.421 134.244L546.742 143.654L565.81 141.343L572.111 140.517L593.334 137.876L607.759 115.756L618.869 134.74L644.9 131.603L623.014 97.4317ZM372.147 120.048L373.142 112.619L410.448 107.997L413.267 87.8571L352.747 95.2857L342.302 168.581L402.987 161.152L405.806 141.013L368.499 145.635L369.66 137.711L404.479 133.419L406.967 115.756L372.147 120.048ZM263.709 178.156L287.253 175.349L292.559 138.867L313.783 172.048L335.006 169.406L345.452 96.1111L321.576 99.0825L316.601 134.079L296.207 102.219L273.989 105.025L263.709 178.156ZM266.693 105.851L242.817 108.822L232.371 182.117L256.247 179.146L266.693 105.851ZM165.717 177.495C165.053 184.098 171.686 189.381 180.639 188.39L225.076 182.943L228.226 162.473L198.049 166.105C194.07 166.6 190.422 165.279 191.085 160.162L193.738 141.673C194.567 135.73 199.541 134.244 204.847 133.584L232.869 130.117L235.853 109.648L186.774 115.59C179.976 116.416 174.67 120.708 173.012 127.146L165.717 177.495Z" fill="#FEBE20"/>
</g>
<defs>
<clipPath id="clip0_17_1040">
<rect width="579" height="208" fill="white" transform="translate(111 21)"/>
</clipPath>
</defs>
</svg>
