<svg width="800" height="250" viewBox="0 0 800 250" fill="none" xmlns="http://www.w3.org/2000/svg">
<g clip-path="url(#clip0_13_172)">
<path d="M533.756 53.5449V168.242C533.756 173.661 530.736 176.688 527.837 177.596C527.051 177.838 526.266 177.959 525.481 177.959C522.703 177.959 519.954 176.446 518.112 173.782C517.629 172.995 470.879 97.983 459.222 78.8213C458.256 77.4591 456.836 76.8839 455.568 77.2775C454.269 77.7013 453.424 79.0937 453.424 81.243V168.242C453.424 173.661 450.434 176.688 447.565 177.596C444.092 178.686 440.317 177.172 437.961 173.782C437.871 173.631 437.116 172.42 435.757 170.271C434.398 168.091 432.495 165.034 430.17 161.31C425.549 153.864 419.268 143.814 412.684 133.188C399.487 111.938 384.9 88.4173 379.041 78.8213C378.075 77.4288 376.625 76.8839 375.387 77.2775C374.088 77.7013 373.243 79.0635 373.243 81.1824V167.667C373.243 173.207 368.713 177.748 363.156 177.748H321.51C302.575 177.748 288.683 170.846 279.593 160.735C270.502 150.625 266.154 137.335 266.154 124.501C266.154 111.211 270.744 97.8316 279.744 87.7513C288.773 77.671 302.212 70.9205 319.789 70.8902H345.036V53.5449H322.899C223.662 53.5449 224.598 195.244 324.228 195.305H363.156C379.917 195.305 390.668 185.346 390.638 167.001V131.1C390.638 131.1 412.473 167.395 421.049 181.592C435.636 205.748 470.91 200.996 470.819 170.815V131.13C470.819 131.13 492.654 167.395 501.23 181.622C515.817 205.779 551.091 200.996 551 170.846V53.5449H533.756Z" fill="#EC1C2E"/>
<path d="M320.665 93.6844C338.724 93.6541 345.036 93.6844 345.036 93.6844V76.5207H319.789C303.964 76.5509 292.005 82.5749 283.941 91.5957C275.878 100.586 271.771 112.574 271.771 124.5C271.771 135.973 275.667 147.87 283.821 156.891C291.975 165.911 304.357 172.087 321.51 172.087H363.156C365.572 172.087 367.595 170.028 367.595 167.667V81.243C367.565 76.7326 369.921 73.1 373.666 71.8892C377.32 70.7389 381.306 72.2524 383.722 75.6731V75.7033V75.7336C389.581 85.3598 404.198 108.911 417.395 130.161C424.009 140.786 430.26 150.836 434.881 158.253C437.206 161.976 439.109 165.034 440.438 167.183C441.767 169.332 442.491 170.513 442.582 170.634C443.548 171.996 444.787 172.541 445.813 172.208C446.115 172.117 446.357 171.966 446.599 171.754C446.84 171.542 447.021 171.269 447.203 170.936C447.535 170.27 447.746 169.332 447.746 168.212V81.243C447.746 76.7326 450.041 73.1 453.816 71.8892C457.44 70.7086 461.457 72.2524 463.843 75.6731V75.7033C469.702 85.2993 484.349 108.881 497.546 130.131C510.743 151.381 522.552 170.331 522.733 170.603C523.699 171.966 524.998 172.511 526.085 172.178C526.689 171.996 527.142 171.572 527.504 170.906C527.867 170.24 528.078 169.302 528.078 168.182V53.5448H510.834V120.505C510.834 120.505 500.143 102.342 481.902 70.9508C464.084 40.2255 430.442 52.9394 430.411 79.3662V120.505C430.411 120.505 419.962 102.312 401.752 70.9508C394.504 58.479 384.628 53.1513 375.478 53.0302C362.069 52.8183 350.2 63.6857 350.2 79.3964V150.14C350.2 152.683 348.328 154.953 345.549 154.953H323.473C275.757 154.984 280.015 93.745 320.665 93.6844Z" fill="#EC1C2E"/>
<path d="M527.565 170.936C527.202 171.602 526.749 172.026 526.145 172.208C525.058 172.541 523.76 171.996 522.793 170.634C522.612 170.331 510.804 151.381 497.606 130.161C484.409 108.911 469.762 85.3296 463.903 75.7336V75.7034C461.517 72.2524 457.501 70.7389 453.877 71.9195C450.102 73.1 447.776 76.7629 447.807 81.2733V168.242C447.807 169.362 447.595 170.301 447.263 170.967C447.082 171.3 446.901 171.572 446.659 171.784C446.417 171.996 446.176 172.147 445.874 172.238C444.847 172.571 443.639 172.026 442.642 170.664C442.552 170.513 441.827 169.332 440.498 167.213C439.169 165.064 437.237 162.006 434.941 158.283C430.321 150.867 424.069 140.817 417.456 130.191C404.228 108.881 389.611 85.3296 383.752 75.7034V75.6731V75.6428C381.336 72.1919 377.32 70.6783 373.696 71.8589C369.921 73.0698 367.595 76.7023 367.626 81.2127V167.637C367.626 170.028 365.572 172.057 363.186 172.057H321.51C304.387 172.057 291.975 165.881 283.821 156.86C275.667 147.84 271.771 135.943 271.771 124.47C271.771 112.543 275.878 100.556 283.941 91.5655C292.005 82.5749 303.964 76.5207 319.789 76.4904H345.036V70.8902H319.789C302.212 70.9205 288.773 77.671 279.744 87.7513C270.744 97.8316 266.123 111.211 266.154 124.501C266.154 137.305 270.502 150.625 279.593 160.735C288.683 170.846 302.575 177.748 321.51 177.748H363.156C368.683 177.748 373.243 173.237 373.243 167.667V81.1824C373.243 79.0635 374.088 77.7013 375.387 77.2775C376.655 76.8839 378.075 77.4288 379.041 78.8213C384.87 88.387 399.456 111.938 412.684 133.188C419.298 143.814 425.549 153.864 430.17 161.31C432.495 165.034 434.398 168.091 435.757 170.271C437.116 172.42 437.871 173.631 437.961 173.782C440.317 177.203 444.092 178.716 447.565 177.596C450.434 176.688 453.424 173.661 453.424 168.242V81.243C453.424 79.0937 454.269 77.7013 455.568 77.2775C456.836 76.8839 458.256 77.4591 459.222 78.8213C470.91 97.983 517.629 172.995 518.112 173.782C519.954 176.446 522.703 177.959 525.481 177.959C526.266 177.959 527.051 177.838 527.837 177.596C530.736 176.688 533.756 173.661 533.756 168.242V53.5449H528.108V168.242C528.108 169.332 527.897 170.271 527.565 170.936Z" fill="white"/>
</g>
<defs>
<clipPath id="clip0_13_172">
<rect width="302" height="144" fill="white" transform="translate(249 53)"/>
</clipPath>
</defs>
</svg>
