<svg width="800" height="250" viewBox="0 0 800 250" fill="none" xmlns="http://www.w3.org/2000/svg">
<g clip-path="url(#clip0_17_850)">
<mask id="mask0_17_850" style="mask-type:luminance" maskUnits="userSpaceOnUse" x="295" y="19" width="210" height="212">
<path fill-rule="evenodd" clip-rule="evenodd" d="M505 19V231H295.975V19H505Z" fill="white"/>
</mask>
<g mask="url(#mask0_17_850)">
<path fill-rule="evenodd" clip-rule="evenodd" d="M486.049 211.119C481.693 215.442 475.786 217.871 469.627 217.871C463.469 217.871 457.562 215.442 453.205 211.119L414.211 172.391C413.918 172.1 413.545 171.902 413.138 171.822C412.732 171.742 412.311 171.783 411.928 171.941C411.545 172.098 411.218 172.365 410.988 172.708C410.759 173.05 410.636 173.453 410.637 173.864V194.796C410.633 197.884 410.006 200.94 408.792 203.783C407.579 206.625 405.804 209.198 403.572 211.347C401.34 213.497 398.697 215.18 395.799 216.298C392.901 217.416 389.807 217.945 386.699 217.854C374.074 217.483 364.179 206.858 364.179 194.31V150.846C371.891 146.947 378.367 141.005 382.89 133.678C387.413 126.351 389.807 117.924 389.807 109.33C389.807 100.735 387.413 92.3082 382.89 84.981C378.367 77.6539 371.891 71.7122 364.179 67.8133V53.5651C364.179 41.0118 374.076 30.3895 386.705 30.0157C386.937 30.0101 387.174 30.0073 387.407 30.0073C393.565 30.0135 399.47 32.4458 403.825 36.7706C408.18 41.0954 410.63 46.9594 410.637 53.076V110.988C410.636 111.4 410.758 111.802 410.988 112.144C411.218 112.487 411.546 112.754 411.928 112.911C412.311 113.069 412.733 113.11 413.139 113.029C413.545 112.948 413.919 112.75 414.211 112.458L452.639 74.2951C455.306 71.6406 458.584 69.6719 462.189 68.5596C465.795 67.4472 469.619 67.2249 473.33 67.9117C476.516 68.4745 479.541 69.7184 482.195 71.5573C485.009 73.4753 487.363 75.9851 489.091 78.9084C490.818 81.8318 491.877 85.097 492.191 88.4723C492.505 91.8477 492.067 95.2503 490.909 98.4386C489.75 101.627 487.898 104.523 485.486 106.921L451.216 140.955C450.823 141.345 450.602 141.874 450.602 142.426C450.602 142.978 450.823 143.507 451.216 143.897L486.049 178.493C488.206 180.636 489.917 183.179 491.085 185.978C492.252 188.777 492.853 191.777 492.853 194.806C492.853 197.836 492.252 200.836 491.085 203.635C489.917 206.434 488.206 208.977 486.049 211.119ZM494.642 171.019L467.911 144.471C467.78 144.342 467.676 144.189 467.605 144.02C467.534 143.851 467.497 143.67 467.497 143.487C467.497 143.304 467.534 143.123 467.605 142.954C467.676 142.785 467.78 142.632 467.911 142.503L493.654 116.936C500.443 110.264 504.317 101.207 504.44 91.7224C504.451 84.7683 502.384 77.9672 498.501 72.1804C494.618 66.3936 489.094 61.8814 482.627 59.2153C476.16 56.5491 469.042 55.8489 462.174 57.2034C455.306 58.5579 448.997 61.906 444.047 66.8239L422.784 87.939V54.7372C422.784 35.0415 406.921 19.0169 387.415 19H387.31C387.14 19.0028 386.968 19.0028 386.795 19.0056C377.533 19.2057 368.715 22.9902 362.221 29.5528C355.727 36.1154 352.07 44.9372 352.029 54.1385V63.6251C345.228 62.2869 338.212 62.4627 331.488 64.1398C324.763 65.8169 318.496 68.9537 313.138 73.3244C307.78 77.6951 303.464 83.1911 300.5 89.4168C297.537 95.6426 296 102.443 296 109.33C296 116.216 297.537 123.017 300.5 129.242C303.464 135.468 307.78 140.964 313.138 145.335C318.496 149.706 324.763 152.842 331.488 154.519C338.212 156.197 345.228 156.372 352.029 155.034V195.26C352.029 214.964 367.904 230.995 387.415 230.995L387.953 230.992C396.701 230.826 405.079 227.459 411.483 221.537C417.886 215.615 421.864 207.555 422.653 198.9L444.61 220.712C447.887 223.984 451.785 226.578 456.078 228.344C460.371 230.109 464.974 231.012 469.62 231H469.626C474.27 231.001 478.87 230.094 483.161 228.329C487.453 226.565 491.353 223.978 494.637 220.716C497.922 217.455 500.528 213.583 502.306 209.321C504.084 205.059 505 200.491 505 195.878V195.85C505.011 191.237 504.101 186.667 502.323 182.405C500.545 178.143 497.935 174.273 494.642 171.019Z" fill="#003EFF"/>
</g>
<path d="M389.804 109.316V109.344C389.802 117.936 387.408 126.359 382.886 133.683C378.364 141.007 371.891 146.946 364.183 150.844V194.308C364.183 206.859 374.071 217.481 386.702 217.855C389.809 217.945 392.903 217.415 395.8 216.297C398.698 215.179 401.34 213.496 403.571 211.346C405.802 209.197 407.576 206.624 408.789 203.782C410.002 200.939 410.628 197.884 410.631 194.797V173.865C410.632 173.453 410.755 173.051 410.985 172.708C411.216 172.366 411.543 172.099 411.926 171.941C412.309 171.783 412.73 171.742 413.137 171.821C413.544 171.901 413.918 172.099 414.212 172.389L453.203 211.117C457.559 215.443 463.467 217.873 469.627 217.872C475.787 217.872 481.695 215.441 486.05 211.115C490.406 206.788 492.853 200.921 492.853 194.803C492.853 188.685 490.405 182.818 486.05 178.491L451.216 143.898C450.823 143.508 450.603 142.979 450.603 142.427C450.603 141.875 450.823 141.346 451.216 140.955L485.487 106.918C487.899 104.521 489.75 101.625 490.909 98.4364C492.068 95.2481 492.506 91.8454 492.192 88.4701C491.877 85.0948 490.819 81.8296 489.091 78.9062C487.364 75.9829 485.009 73.4731 482.195 71.5551C479.541 69.718 476.516 68.4751 473.331 67.9123C469.619 67.2239 465.795 67.4455 462.189 68.5579C458.583 69.6703 455.305 71.6399 452.64 74.2957L414.212 112.459C413.919 112.75 413.545 112.949 413.138 113.03C412.732 113.11 412.31 113.069 411.927 112.912C411.544 112.755 411.216 112.488 410.985 112.145C410.755 111.803 410.632 111.401 410.631 110.989V53.0766C410.626 46.9604 408.178 41.0963 403.824 36.7713C399.469 32.4462 393.565 30.0138 387.407 30.0079C387.175 30.0079 386.94 30.0107 386.705 30.0163C374.071 30.3873 364.183 41.0124 364.183 53.5656V67.8139C371.891 71.7123 378.365 77.6521 382.886 84.9765C387.408 92.3009 389.802 100.725 389.804 109.316Z" fill="url(#paint0_linear_17_850)"/>
<path d="M348.858 78.8816H320.307V137.836H348.858C362.676 137.836 375.626 121.795 375.626 108.359C375.626 94.923 362.676 78.8816 348.858 78.8816ZM358.279 108.359C358.268 112.148 356.747 115.779 354.049 118.458C351.352 121.137 347.696 122.648 343.881 122.659H336.852V94.0593H343.881C347.696 94.0704 351.352 95.5806 354.049 98.2599C356.747 100.939 358.268 104.57 358.279 108.359Z" fill="#F9D018"/>
</g>
<defs>
<linearGradient id="paint0_linear_17_850" x1="364.183" y1="176.157" x2="489.187" y2="79.4274" gradientUnits="userSpaceOnUse">
<stop stop-color="#00DD4E"/>
<stop offset="0.4" stop-color="#16DF4E"/>
<stop offset="0.7" stop-color="#80F559"/>
<stop offset="1" stop-color="#B2FF5A"/>
</linearGradient>
<clipPath id="clip0_17_850">
<rect width="209" height="212" fill="white" transform="translate(296 19)"/>
</clipPath>
</defs>
</svg>
