<svg width="800" height="250" viewBox="0 0 800 250" fill="none" xmlns="http://www.w3.org/2000/svg">
<path d="M492.61 30.9086L492.678 154.587L494.027 154.687C494.778 154.744 496.491 154.861 497.827 154.947C499.163 155.033 501.139 155.16 502.21 155.232C503.282 155.303 505.16 155.431 506.385 155.502C507.61 155.588 510.241 155.762 512.231 155.89C514.221 156.019 516.17 156.132 516.546 156.147L517.244 156.161C517.244 156.161 517.495 33.4073 517.312 30.909L492.61 30.9086ZM600.952 30.9086L600.87 88.9692C600.814 89.012 600.465 88.6258 600.075 88.0971C598.6 86.0679 595.802 82.9819 594.466 81.9101C594.229 81.7243 593.423 81.0508 592.672 80.4363C591.085 79.1216 588.498 77.3916 587.106 76.7056C585.839 76.0912 583.752 75.236 583.14 75.0646C582.653 74.9359 582.082 74.7773 581.094 74.4772C579.814 74.1057 578.364 73.8482 575.97 73.5481C573.966 73.3051 567.412 73.3478 565.464 73.6194C564.893 73.705 564.113 73.8078 563.724 73.865C563.348 73.9078 562.973 74.0071 562.904 74.0786C562.82 74.15 562.528 74.2067 562.25 74.2067C561.957 74.2067 561.68 74.2634 561.638 74.349C561.596 74.4205 561.371 74.4914 561.135 74.4914C560.912 74.4914 560.62 74.5481 560.48 74.6195C560.133 74.8053 558.798 75.2069 558.492 75.2069C558.353 75.2069 558.199 75.2636 558.158 75.3492C558.116 75.4207 557.948 75.4916 557.795 75.4916C557.655 75.4916 557.42 75.5483 557.28 75.6197C557.155 75.6911 556.893 75.8081 556.698 75.8938C556.503 75.9653 556.057 76.1638 555.695 76.3352C555.333 76.5067 554.985 76.6343 554.929 76.6343C554.804 76.6343 550.823 78.663 550.711 78.7773C550.642 78.8487 550.463 78.9639 549.474 79.5213C549.196 79.6784 548.874 79.8805 548.762 79.9805C548.651 80.0805 548.389 80.2364 548.18 80.3507C547.971 80.4508 547.679 80.6528 547.526 80.7957C547.373 80.9528 546.968 81.2363 546.634 81.4649C546.3 81.6793 545.756 82.0798 545.422 82.3513C545.102 82.6228 544.574 83.0659 544.254 83.3374C541.178 85.8953 538.118 89.2106 535.933 92.3544C535.697 92.7117 535.446 93.0129 535.376 93.0415C535.321 93.0701 535.265 93.1408 535.265 93.2122C535.265 93.2837 534.931 93.8401 534.513 94.4546C534.11 95.0691 533.596 95.8843 533.373 96.2844C533.165 96.6702 532.843 97.2551 532.676 97.5695C532.189 98.4126 530.186 102.615 529.907 103.358C529.768 103.715 529.614 104.144 529.544 104.315C529.475 104.501 529.362 104.788 529.292 104.96C529.237 105.145 529.113 105.457 529.016 105.672C528.862 106.086 528.681 106.531 528.458 107.103C528.389 107.288 528.238 107.845 528.099 108.359C527.974 108.874 527.805 109.402 527.736 109.53C527.666 109.673 527.61 109.946 527.61 110.132C527.61 110.332 527.553 110.516 527.484 110.559C527.414 110.602 527.331 110.847 527.29 111.104C527.164 111.89 527.041 112.416 526.916 112.716C526.846 112.874 526.76 113.232 526.718 113.503C526.69 113.775 526.552 114.576 526.427 115.29C525.258 121.849 525.103 130.311 526.063 136.87C526.272 138.299 526.637 140.399 526.79 141.085C526.859 141.442 526.983 141.984 527.052 142.299C527.191 142.97 527.332 143.5 527.75 144.872C527.917 145.415 528.124 146.156 528.235 146.513C528.333 146.871 528.61 147.672 528.861 148.3C529.097 148.929 529.39 149.716 529.501 150.059C529.891 151.188 532.898 157.488 533.078 157.517C533.315 157.574 534.443 157.691 535.89 157.819C537.839 157.991 539.286 158.132 541.388 158.375C544.589 158.761 547.164 159.047 549.809 159.318C552.439 159.59 553.48 159.718 557.46 160.233C558.573 160.376 559.897 160.534 562.889 160.863C564.045 160.992 565.451 161.162 566.021 161.247C566.592 161.319 567.551 161.447 568.15 161.518C569.319 161.675 571.002 161.905 572.421 162.091C572.922 162.163 574.205 162.304 575.276 162.433C577.433 162.676 579.074 162.891 580.605 163.091C584.975 163.692 585.81 163.806 586.966 163.949C587.578 164.021 588.275 164.106 588.497 164.149C588.734 164.206 589.567 164.305 590.374 164.391C591.181 164.476 592.212 164.604 592.672 164.661C593.131 164.733 594.035 164.864 594.689 164.95C595.9 165.121 596.972 165.262 598.586 165.505C599.087 165.576 600.396 165.75 601.51 165.879C602.623 166.007 603.932 166.178 604.433 166.249C604.934 166.32 605.811 166.434 606.382 166.52C606.952 166.605 607.826 166.733 608.327 166.804C608.828 166.876 609.705 166.993 610.276 167.078C610.846 167.15 611.516 167.249 611.739 167.292C611.976 167.335 613.033 167.462 614.105 167.591C615.177 167.705 616.372 167.879 616.748 167.951C617.137 168.022 617.723 168.121 618.071 168.164C618.419 168.207 619.102 168.306 619.603 168.378C620.104 168.449 620.91 168.577 621.411 168.648C621.912 168.72 622.816 168.865 623.428 168.951C624.041 169.051 624.764 169.136 625.028 169.15L625.517 169.165L625.586 30.9087L600.952 30.9086ZM365.416 73.363C364.544 73.3612 363.963 73.3739 363.931 73.4056C363.89 73.4484 363.166 73.562 362.331 73.6334C360.007 73.8478 359.452 73.9213 359.146 74.0642C358.993 74.1356 358.618 74.2206 358.311 74.2635C357.407 74.3778 356.792 74.5051 356.499 74.6337C356.346 74.7052 356.042 74.7938 355.805 74.8509C355.583 74.8937 355.025 75.0215 354.594 75.1072C354.162 75.2073 353.758 75.3206 353.702 75.3777C353.646 75.4492 353.452 75.4917 353.285 75.4917C353.104 75.4917 352.924 75.5484 352.882 75.634C352.84 75.7055 352.672 75.7764 352.519 75.7764C352.38 75.7764 352.144 75.8367 352.005 75.9081C351.629 76.1082 351.144 76.3057 350.239 76.6343C349.293 76.9773 348.943 77.1368 347.176 77.9942C346.494 78.3229 345.715 78.6808 345.479 78.7951C345.228 78.9094 345.019 79.037 345.019 79.0942C345.019 79.1656 344.895 79.2081 344.742 79.2081C344.589 79.2081 344.461 79.2648 344.461 79.3362C344.461 79.4077 344.349 79.4926 344.224 79.5356C344.085 79.5928 343.601 79.8514 343.142 80.1372C342.682 80.4087 342.195 80.6781 342.07 80.721C341.931 80.7782 341.819 80.8666 341.819 80.9381C341.819 81.0096 341.721 81.0662 341.61 81.0662C341.499 81.0662 341.401 81.1229 341.401 81.2086C341.401 81.28 341.331 81.3509 341.261 81.3509C341.178 81.3509 340.525 81.7798 339.787 82.3085C339.049 82.8515 338.296 83.3796 338.115 83.5082C337.934 83.6369 337.615 83.8955 337.392 84.0813C337.184 84.2814 336.891 84.5223 336.724 84.6366C335.137 85.7941 330.045 91.0246 329.029 92.5537C328.918 92.7252 328.667 93.0548 328.472 93.2977C328.277 93.5406 327.999 93.8844 327.846 94.0702C327.707 94.2559 327.232 94.9542 326.814 95.6258C326.383 96.2974 325.982 96.8716 325.926 96.9002C325.87 96.9288 325.815 97.0138 325.815 97.0996C325.815 97.171 325.631 97.5006 325.423 97.8293C325.2 98.158 324.84 98.7854 324.617 99.2141C324.395 99.6428 324.184 100.029 324.143 100.072C323.948 100.258 321.5 105.543 321.5 105.786C321.5 105.871 321.444 106.045 321.374 106.188C321.249 106.445 320.983 107.072 320.788 107.601C320.718 107.787 320.609 108.074 320.54 108.245C320.47 108.431 320.316 108.959 320.177 109.431C320.051 109.902 319.897 110.402 319.814 110.531C319.744 110.674 319.691 110.947 319.691 111.132C319.691 111.332 319.635 111.531 319.551 111.574C319.481 111.617 319.411 111.847 319.411 112.076C319.411 112.304 319.358 112.531 319.274 112.574C319.205 112.617 319.134 112.876 319.134 113.147C319.134 113.419 319.078 113.66 319.008 113.703C318.939 113.745 318.856 113.99 318.814 114.247C318.772 114.504 318.634 115.362 318.508 116.148C317.785 120.592 317.685 121.836 317.685 127.152C317.685 131.682 317.783 133.44 318.145 135.87C318.632 138.985 318.841 140.113 319.12 141.085C319.328 141.842 319.524 142.528 319.677 143.085C319.955 144.143 320.513 145.899 320.777 146.585C321.918 149.514 323.168 152.246 324.143 153.875C324.449 154.39 324.7 154.847 324.7 154.875C324.7 154.918 324.869 155.216 325.077 155.53L325.451 156.118L326.775 156.032C327.512 155.975 329.237 155.872 330.615 155.787C333.384 155.629 336.543 155.431 339.521 155.231C346.521 154.76 350.279 154.53 352.853 154.43C355.164 154.33 355.18 154.332 355.18 154.003C355.18 153.803 355.012 153.559 354.734 153.359C350.879 150.629 348.68 148.027 346.565 143.683C345.256 141.011 344.603 139.097 343.782 135.51C343.42 133.952 343.016 129.524 343.016 127.151C343.016 125.251 343.197 122.277 343.35 121.648C343.42 121.376 343.529 120.636 343.613 120.007C343.682 119.378 343.82 118.535 343.904 118.149C343.987 117.749 344.1 117.221 344.141 116.963C344.183 116.706 344.266 116.462 344.335 116.419C344.405 116.376 344.461 116.163 344.461 115.935C344.461 115.706 344.532 115.475 344.602 115.433C344.685 115.39 344.742 115.191 344.742 115.005C344.742 114.82 344.809 114.618 344.878 114.575C344.962 114.532 345.019 114.362 345.019 114.19C345.019 114.033 345.116 113.675 345.242 113.389C345.367 113.089 345.52 112.731 345.576 112.574C345.966 111.531 347.177 109.002 347.525 108.502C347.678 108.273 347.802 108.06 347.802 108.017C347.802 107.932 348.707 106.474 349.013 106.074C350.948 103.544 352.589 101.857 354.468 100.528C354.969 100.156 355.415 99.8265 355.457 99.7836C355.596 99.6263 358.058 98.3292 359.074 97.8862C359.338 97.7719 360.008 97.5273 360.537 97.3558C361.08 97.17 361.635 96.9858 361.788 96.9144C361.941 96.8572 362.263 96.7686 362.486 96.7115C362.723 96.6686 363.181 96.5693 363.529 96.4837C367.578 95.5977 371.518 95.9263 376.041 97.4982C377.349 97.9555 379.548 99.1142 381.093 100.172C385.24 103.001 388.271 106.987 390.47 112.503C391.25 114.461 391.377 114.876 391.934 117.106C392.003 117.406 392.127 117.92 392.211 118.248C392.934 121.192 393.281 126.006 393.045 129.779C392.906 132.151 392.825 132.908 392.491 134.794C392.408 135.223 392.31 135.812 392.268 136.083C392.213 136.355 392.13 136.713 392.074 136.87C392.004 137.027 391.85 137.64 391.711 138.226C391.572 138.812 391.403 139.354 391.348 139.44C391.278 139.511 391.222 139.685 391.222 139.828C391.222 139.971 391.169 140.198 391.1 140.341C390.933 140.669 390.485 141.712 390.165 142.512C389.58 143.955 388.022 146.759 387.159 147.873C385.684 149.788 384.892 150.657 383.765 151.586C383.389 151.886 383.055 152.188 383.013 152.23C382.971 152.288 382.833 152.358 382.707 152.416C382.568 152.458 382.456 152.646 382.456 152.818V153.117L387.159 153.031C396.636 152.874 408.746 152.686 410.652 152.672L412.601 152.657L413.115 151.657C413.394 151.1 413.629 150.572 413.629 150.471C413.629 150.371 413.753 150.145 413.906 149.945C414.06 149.745 414.187 149.472 414.187 149.329C414.187 149.2 414.258 149.087 414.327 149.087C414.411 149.087 414.464 148.987 414.464 148.873C414.464 148.759 414.52 148.543 414.59 148.4C414.659 148.271 414.881 147.672 415.089 147.086C415.493 145.929 415.675 145.443 415.87 145.057C415.939 144.914 415.996 144.669 415.996 144.527C415.996 144.369 416.066 144.199 416.136 144.156C416.219 144.114 416.272 143.94 416.272 143.783C416.272 143.64 416.329 143.399 416.398 143.256C416.593 142.856 417.345 139.653 417.484 138.582C417.526 138.267 417.609 137.955 417.678 137.87C417.748 137.798 417.804 137.44 417.804 137.069C417.804 136.697 417.861 136.353 417.93 136.311C417.986 136.268 418.083 135.768 418.124 135.196C418.18 134.625 418.278 133.409 418.347 132.509C418.528 130.379 418.529 123.763 418.362 121.648C418.153 119.047 417.874 117.148 417.262 114.218C416.775 111.86 415.508 107.743 414.659 105.714C414.38 105.085 414.061 104.316 413.936 104.002C413.56 103.073 411.82 99.6408 411.221 98.6405C410.915 98.1261 410.596 97.5838 410.513 97.4266C410.207 96.855 408.566 94.4112 407.87 93.4966C402.749 86.7374 396.486 81.5657 389.277 78.1075C387.009 77.0072 386.951 76.9769 385.865 76.5625C384.32 75.9624 382.455 75.3352 381.55 75.1066C381.091 74.9923 380.465 74.8327 380.159 74.7613C379.853 74.6756 379.339 74.5622 379.019 74.4765C378.685 74.405 378.13 74.2774 377.768 74.1917C376.933 74.0059 375.761 73.8186 374.244 73.6186C373.284 73.5007 368.034 73.3683 365.416 73.363ZM482.604 74.5413C481.101 74.5019 479.646 74.4911 479.598 74.5486C479.556 74.5914 478.705 74.6907 477.717 74.7621C475.184 74.9765 473.458 75.1923 473.083 75.3495C472.902 75.4352 472.582 75.4919 472.36 75.4919C472.137 75.4919 471.913 75.5486 471.871 75.6342C471.829 75.7057 471.582 75.7766 471.317 75.7766C471.053 75.7766 470.802 75.8367 470.76 75.9226C470.718 75.994 470.55 76.0649 470.397 76.0649C470.257 76.0649 470.022 76.1216 469.882 76.1931C469.757 76.2645 469.27 76.4346 468.811 76.5632C468.352 76.7061 467.92 76.8656 467.837 76.9371C467.767 77.0085 467.598 77.0652 467.459 77.0652C467.334 77.0652 467 77.1928 466.722 77.35C466.444 77.5073 466.139 77.6348 466.028 77.6348C465.917 77.6348 465.819 77.6914 465.819 77.7771C465.819 77.8485 465.737 77.9231 465.625 77.9231C465.347 77.9231 463.298 79.0238 462.087 79.824C461.531 80.1956 461.058 80.4933 461.016 80.4933C460.96 80.4933 460.586 80.7946 460.196 81.1376C460.112 81.2232 459.693 81.5388 459.29 81.8531C458.232 82.6391 456.549 84.2373 455.45 85.4948C454.476 86.6094 452.458 89.4951 452.458 89.7523C452.458 89.838 452.403 89.9268 452.347 89.9553C452.277 89.9698 452.026 90.4411 451.775 90.9698C451.511 91.5271 451.262 91.8992 451.193 91.8277C450.988 86.1959 450.998 75.8513 450.998 75.8513H426.365L426.462 152.587C426.559 152.615 432.055 152.715 438.68 152.8C445.304 152.886 451.04 152.975 451.415 152.989L452.109 153.017L452.181 137.511C452.265 122.278 452.331 119.876 452.735 118.59C452.819 118.362 452.875 117.99 452.875 117.775C452.875 117.561 452.946 117.334 453.016 117.291C453.099 117.248 453.156 117.064 453.156 116.907C453.156 116.607 453.347 115.891 453.584 115.29C453.639 115.133 453.796 114.704 453.907 114.333C454.297 113.104 455.925 109.788 456.356 109.36C456.398 109.317 456.774 108.803 457.219 108.217C458.11 107.002 459.806 105.273 460.948 104.429C461.365 104.115 461.743 103.814 461.757 103.757C461.784 103.685 461.893 103.643 462.005 103.643C462.116 103.643 462.199 103.572 462.199 103.5C462.199 103.415 462.285 103.358 462.397 103.358C462.508 103.358 462.617 103.301 462.645 103.244C462.672 103.144 465.386 101.743 466.305 101.343C466.889 101.1 467.935 100.784 468.185 100.784C468.325 100.784 468.489 100.713 468.531 100.642C468.572 100.556 468.824 100.5 469.088 100.5C469.352 100.5 469.604 100.429 469.645 100.357C469.687 100.272 469.964 100.215 470.257 100.215C470.535 100.215 470.827 100.158 470.897 100.087C470.98 100.015 471.359 99.916 471.734 99.8874C472.124 99.8446 473.182 99.7276 474.1 99.6133C477.204 99.2846 481.627 99.4863 485.426 100.158C485.872 100.229 486.055 100.201 486.153 100.058L486.275 74.8085L485.901 74.7053C485.657 74.6481 484.107 74.5805 482.604 74.5413ZM174.674 75.7765C174.674 75.7765 193.692 141.208 201.814 170.521C201.911 170.878 202.009 171.25 202.037 171.351C202.092 171.565 203.065 171.522 204.456 171.251C204.874 171.165 205.792 171.023 206.473 170.938C207.169 170.852 207.84 170.721 207.966 170.649C208.105 170.578 208.521 170.521 208.897 170.521C209.287 170.521 209.635 170.45 209.677 170.379C209.719 170.293 210.067 170.236 210.429 170.236C210.79 170.236 211.136 170.18 211.205 170.108C211.289 170.037 211.667 169.937 212.043 169.895C212.433 169.866 213.085 169.763 213.503 169.678C213.92 169.606 214.965 169.436 215.8 169.307C216.649 169.179 217.677 169.008 218.094 168.951C218.512 168.88 219.209 168.777 219.626 168.734C220.044 168.677 220.516 168.592 220.669 168.521C220.822 168.449 221.298 168.364 221.715 168.307C222.133 168.264 222.829 168.165 223.247 168.093C225.042 167.779 225.627 167.692 227.004 167.535C227.811 167.434 228.576 167.293 228.701 167.221C228.841 167.15 229.328 167.093 229.773 167.093C230.232 167.093 230.648 167.022 230.69 166.951C230.732 166.865 230.941 166.805 231.136 166.805L248.128 110.175L263.787 162.334C264.177 162.291 265.079 162.177 265.761 162.092C266.457 162.006 267.458 161.875 267.987 161.803C268.53 161.732 269.534 161.604 270.216 161.518C272.902 161.176 273.5 161.106 275.782 160.878C277.09 160.749 278.62 160.575 279.191 160.518C279.761 160.447 280.833 160.319 281.557 160.233C282.28 160.162 283.424 160.02 284.106 159.949C287.154 159.591 287.749 159.533 290.046 159.304C298.285 158.533 297.535 158.233 297.535 158.233C297.535 158.233 312.644 100.383 321.36 75.7767L296.392 75.8693L279.457 143.356L259.555 75.8764L237.259 75.8514L217.192 143.986C217.192 143.986 206.104 96.5536 200.951 75.9511L174.674 75.7765ZM574.356 95.9856C574.467 95.8713 577.668 96.0277 578.753 96.2134C581.871 96.7136 583.917 97.3694 586.394 98.6555C588.955 99.9844 590.892 101.443 592.841 103.515C594.956 105.758 596.846 108.832 598.223 112.247C598.85 113.79 599.629 116.22 599.838 117.22C599.921 117.649 600.063 118.29 600.133 118.647C600.286 119.333 600.436 120.321 600.701 122.15C600.923 123.694 600.923 130.937 600.701 132.509C600.603 133.181 600.494 134.01 600.453 134.368C600.411 134.725 600.328 135.139 600.258 135.297C600.189 135.454 600.102 135.812 600.061 136.083C599.935 137.098 599.393 139.07 598.989 140.042C598.92 140.228 598.796 140.54 598.712 140.754C598.629 140.983 598.501 141.27 598.432 141.398C598.362 141.541 598.31 141.711 598.31 141.797C598.31 142.068 597.027 144.698 596.4 145.698C596.066 146.227 595.803 146.727 595.803 146.784C595.803 146.856 595.748 146.944 595.692 146.973C595.637 146.987 595.289 147.43 594.941 147.945C593.98 149.331 590.764 152.658 590.374 152.658C590.305 152.658 590.238 152.715 590.238 152.772C590.238 152.829 589.93 153.074 589.54 153.302C589.164 153.545 588.846 153.775 588.846 153.833C588.846 153.904 588.775 153.947 588.692 153.947C588.608 153.947 588.274 154.131 587.94 154.374C587.606 154.602 587.299 154.801 587.257 154.801C587.201 154.801 586.855 154.96 586.451 155.16C586.062 155.361 585.643 155.516 585.545 155.516C585.448 155.516 585.366 155.573 585.366 155.659C585.366 155.73 585.212 155.801 585.017 155.801C584.822 155.801 584.668 155.861 584.668 155.947C584.668 156.019 584.545 156.089 584.406 156.089C584.252 156.089 584.084 156.146 584.042 156.232C584.001 156.303 583.836 156.374 583.683 156.374C583.544 156.374 583.304 156.431 583.165 156.502C582.845 156.688 581.064 157.09 580.605 157.09C580.396 157.09 580.201 157.146 580.159 157.218C579.978 157.518 575.067 157.703 573.328 157.474C567.079 156.645 561.764 153.816 557.992 149.301C555.265 146.028 552.925 141.155 551.812 136.439C551.283 134.196 550.934 130.538 550.934 127.152C550.934 123.622 551.173 121.007 551.758 118.22C551.883 117.634 552.021 116.932 552.063 116.675C552.105 116.418 552.188 116.177 552.257 116.134C552.327 116.091 552.383 115.903 552.383 115.717C552.383 115.532 552.45 115.333 552.52 115.29C552.603 115.247 552.66 115.02 552.66 114.806C552.66 114.592 552.716 114.361 552.772 114.276C552.827 114.204 552.996 113.79 553.135 113.361C553.51 112.218 555.291 108.375 555.583 108.075C555.625 108.032 555.749 107.83 555.86 107.615C556.459 106.501 557.92 104.673 559.409 103.144C561.218 101.286 561.343 101.172 562.623 100.257C563.765 99.4426 567.453 97.5414 568.121 97.4271C568.413 97.3699 568.695 97.2707 568.75 97.1993C568.792 97.1278 568.999 97.0711 569.221 97.0711C569.444 97.0711 569.669 97.0002 569.71 96.9288C569.752 96.8431 569.973 96.7828 570.181 96.7828C570.39 96.7828 570.612 96.7261 570.696 96.6547C570.821 96.526 571.156 96.4705 573.105 96.2132C573.745 96.1418 574.314 96.0285 574.356 95.9856ZM521.209 179.225V209.978L527.444 209.921C530.937 209.878 533.999 209.79 534.43 209.704C536.421 209.318 537.312 209.034 538.537 208.376C540.109 207.547 540.483 207.319 540.525 207.205C540.553 207.148 540.636 207.105 540.719 207.105C540.789 207.105 540.927 207.02 541.025 206.92C541.122 206.834 541.459 206.562 541.751 206.319C542.614 205.647 544.451 203.589 544.451 203.303C544.451 203.246 544.549 203.09 544.66 202.962C544.938 202.647 545.703 201.104 545.703 200.861C545.703 200.761 545.773 200.673 545.843 200.673C545.926 200.673 545.979 200.545 545.979 200.402C545.979 200.245 546.05 200.075 546.12 200.032C546.203 199.989 546.26 199.759 546.26 199.544C546.26 199.33 546.316 199.103 546.372 199.032C546.859 198.474 547.082 192.73 546.706 191.1C546.01 188.2 544.854 185.985 543.003 183.984C541.221 182.055 538.354 180.366 535.89 179.78C535.584 179.709 535.029 179.581 534.639 179.495C534.222 179.395 531.422 179.325 527.581 179.282L521.209 179.225ZM296.381 179.246V184.458C297.16 184.82 297.903 185.239 298.6 185.732C299.731 186.534 300.733 187.51 301.591 188.605V184.123H307.438C313.664 184.123 317.732 188.522 317.732 194.532C317.732 200.541 313.664 204.852 307.438 204.852H302.85C301.76 206.814 300.24 208.48 298.42 209.729H307.438C316.757 209.729 323.197 203.066 323.197 194.443C323.197 185.819 316.757 179.246 307.438 179.246H296.381ZM489.428 179.296V209.975L492.139 210.064L492.211 195.97L510.178 196.059L510.372 210.049H513.155V179.324H510.372L510.3 193.258L492.337 193.172L492.139 179.324L489.428 179.296ZM524.917 181.845C525.532 181.829 526.554 181.841 528.196 181.87C530.436 181.899 532.675 181.998 533.176 182.069C534.498 182.284 535.237 182.467 536.142 182.81C539.538 184.124 542.238 186.969 543.365 190.442C543.866 191.971 543.934 192.556 543.934 194.742C543.919 196.943 543.822 198.045 543.599 198.188C543.53 198.231 543.477 198.387 543.477 198.544C543.477 198.687 543.421 198.932 543.351 199.074C543.295 199.203 542.989 199.845 542.697 200.488C542.404 201.145 542.112 201.673 542.057 201.673C541.987 201.673 541.945 201.73 541.945 201.815C541.945 202.401 538.577 205.532 537.95 205.532C537.853 205.532 537.77 205.574 537.77 205.646C537.77 205.703 537.561 205.834 537.325 205.934C537.074 206.048 536.726 206.19 536.559 206.262C536.378 206.333 536.1 206.446 535.933 206.532C534.625 207.104 531.075 207.433 526.984 207.362L524.061 207.319V181.984C524.088 181.905 524.301 181.861 524.917 181.845ZM291.221 185.789C289.65 185.789 288.094 186.096 286.642 186.691C285.19 187.286 283.871 188.159 282.76 189.259C281.649 190.359 280.768 191.665 280.166 193.103C279.565 194.54 279.255 196.08 279.255 197.636C279.255 199.192 279.565 200.733 280.166 202.17C280.768 203.607 281.649 204.913 282.76 206.013C283.871 207.114 285.19 207.986 286.642 208.582C288.094 209.177 289.65 209.483 291.221 209.483C292.793 209.483 294.349 209.177 295.801 208.582C297.252 207.986 298.572 207.114 299.683 206.013C300.794 204.913 301.675 203.607 302.277 202.17C302.878 200.733 303.188 199.192 303.188 197.636C303.188 196.08 302.878 194.54 302.277 193.103C301.675 191.665 300.794 190.359 299.683 189.259C298.572 188.159 297.252 187.286 295.801 186.691C294.349 186.096 292.793 185.789 291.221 185.789ZM365.744 186.754C359.183 186.754 354.364 192.122 354.364 198.548C354.364 204.975 359.184 210.206 365.704 210.206C369.978 210.206 372.513 208.458 374.679 205.995L371.644 202.926C370.066 204.591 368.323 205.742 365.952 205.742C362.089 205.742 359.394 202.506 359.394 198.462C359.394 194.503 362.047 191.268 365.704 191.268C368.235 191.268 369.859 192.418 371.392 194.073L374.513 190.631C372.474 188.325 369.903 186.754 365.744 186.754ZM387.601 186.758C385.909 186.758 384.345 187.075 382.923 187.701C381.498 188.321 380.267 189.167 379.227 190.235C378.187 191.301 377.37 192.539 376.775 193.955C376.178 195.372 375.883 196.891 375.883 198.516V198.597C375.883 200.193 376.171 201.688 376.753 203.111C377.334 204.526 378.151 205.762 379.187 206.817C380.22 207.864 381.462 208.697 382.88 209.309C384.31 209.914 385.853 210.22 387.518 210.22C389.204 210.22 390.771 209.907 392.218 209.28C393.647 208.659 394.888 207.818 395.932 206.753C396.968 205.692 397.789 204.447 398.381 203.026C398.976 201.605 399.269 200.099 399.269 198.516V198.423C399.269 196.81 398.98 195.297 398.406 193.891C397.821 192.483 397.008 191.251 395.968 190.189C394.931 189.12 393.698 188.293 392.275 187.676C390.85 187.077 389.284 186.758 387.601 186.758ZM433.204 186.758C431.622 186.758 430.18 187.077 428.878 187.676C427.577 188.293 426.452 189.12 425.495 190.189C424.541 191.252 423.798 192.496 423.273 193.916C422.755 195.333 422.475 196.854 422.475 198.466V198.555C422.475 200.289 422.768 201.876 423.356 203.303C423.932 204.739 424.73 205.963 425.743 206.984C426.756 208.008 427.953 208.801 429.317 209.366C430.692 209.933 432.165 210.22 433.74 210.22C435.762 210.22 437.504 209.838 438.953 209.07C440.41 208.307 441.664 207.285 442.718 206.009L439.762 203.328C438.879 204.205 437.982 204.875 437.069 205.322C436.156 205.776 435.072 206.009 433.826 206.009C432.192 206.009 430.798 205.511 429.648 204.539C428.502 203.558 427.789 202.15 427.509 200.303H443.631C443.661 200.045 443.678 199.795 443.692 199.551C443.707 199.319 443.711 199.083 443.711 198.854C443.711 197.241 443.489 195.697 443.053 194.237C442.605 192.767 441.951 191.482 441.079 190.381C440.199 189.274 439.105 188.398 437.792 187.74C436.476 187.084 434.941 186.758 433.204 186.758ZM343.548 186.854C342.468 186.854 341.453 187.009 340.495 187.32C339.535 187.631 338.708 188.083 337.996 188.68C337.293 189.272 336.743 189.991 336.339 190.83C335.939 191.671 335.738 192.624 335.738 193.699V193.788C335.738 194.871 335.946 195.771 336.36 196.511C336.776 197.246 337.311 197.866 337.96 198.362C338.613 198.86 339.341 199.262 340.161 199.573C340.98 199.894 341.789 200.161 342.595 200.388C343.231 200.588 343.844 200.78 344.443 200.968C345.036 201.147 345.56 201.365 346.022 201.602C346.476 201.843 346.837 202.117 347.097 202.428C347.368 202.743 347.492 203.112 347.492 203.531V203.624C347.492 204.355 347.193 204.946 346.601 205.39C346.001 205.826 345.167 206.048 344.091 206.048C342.947 206.048 341.769 205.812 340.538 205.343C339.304 204.877 338.09 204.184 336.896 203.279L334.656 206.774C336.042 207.88 337.543 208.714 339.165 209.28C340.782 209.85 342.385 210.135 343.961 210.135C345.099 210.135 346.162 209.986 347.162 209.69C348.158 209.386 349.025 208.955 349.761 208.366C350.495 207.786 351.068 207.061 351.483 206.176C351.898 205.3 352.106 204.259 352.105 203.065V202.987C352.105 201.97 351.898 201.091 351.483 200.388C351.068 199.678 350.533 199.076 349.883 198.572C349.231 198.081 348.507 197.661 347.701 197.319C346.892 196.976 346.097 196.684 345.295 196.429C344.653 196.204 344.043 195.98 343.444 195.792C342.844 195.593 342.32 195.371 341.865 195.127C341.406 194.885 341.047 194.614 340.765 194.318C340.483 194.023 340.348 193.67 340.348 193.272V193.19C340.348 192.539 340.615 191.996 341.157 191.574C341.694 191.148 342.451 190.93 343.419 190.93C344.338 190.93 345.334 191.125 346.41 191.51C347.493 191.896 348.563 192.414 349.617 193.065L351.613 189.399C350.446 188.607 349.162 187.989 347.744 187.53C346.331 187.076 344.93 186.854 343.548 186.854ZM462.522 187.231L470.674 209.551L470.605 209.7C470.605 209.7 468.963 214.254 467.481 215.364C466.335 215.963 463.661 215.919 462.648 215.845V220.049C464.415 220.049 468.577 220.163 469.911 219.294C471.601 218.217 471.972 217.743 473.122 215.35C474.372 212.745 483.984 187.231 483.984 187.231H478.753L473.133 203.709L467.876 187.231L462.522 187.231ZM326.203 187.235V209.704H331.237V187.235H326.203ZM399.481 187.235L408.495 209.882H413.022L422 187.235H416.725L410.782 203.752L404.881 187.235H399.481ZM447.471 187.235V209.704H452.498V201.153C452.498 199.649 452.638 198.324 453.034 197.241C454.546 193.149 458.773 191.984 460.955 191.656L459.232 187.352C457.473 187.659 454.387 188.532 452.498 190.944V187.235H447.471ZM433.157 190.979C433.996 190.979 434.736 191.127 435.386 191.424C436.03 191.728 436.592 192.145 437.069 192.681C437.535 193.223 437.914 193.846 438.184 194.578C438.468 195.296 438.642 195.531 438.727 196.358H427.469C427.694 194.594 428.312 193.713 429.317 192.613C430.33 191.526 431.604 190.979 433.157 190.979ZM387.518 191.279C388.511 191.279 389.424 191.463 390.244 191.848C391.055 192.233 391.762 192.755 392.358 193.411C392.953 194.062 393.414 194.823 393.746 195.707C394.082 196.58 394.249 197.524 394.249 198.516V198.597C394.249 199.564 394.093 200.477 393.789 201.346C393.479 202.209 393.039 202.968 392.459 203.624C391.881 204.275 391.183 204.788 390.363 205.176C389.547 205.558 388.624 205.746 387.601 205.746C386.631 205.746 385.736 205.558 384.915 205.176C384.104 204.788 383.393 204.273 382.801 203.599C382.206 202.936 381.738 202.156 381.406 201.278C381.071 200.402 380.906 199.481 380.906 198.516V198.423C380.906 197.441 381.066 196.501 381.37 195.639C381.673 194.769 382.112 194.022 382.697 193.379C383.277 192.747 383.976 192.233 384.797 191.848C385.612 191.463 386.518 191.279 387.518 191.279Z" fill="#00FFBE"/>
</svg>
