<svg width="800" height="250" viewBox="0 0 800 250" fill="none" xmlns="http://www.w3.org/2000/svg">
<g clip-path="url(#clip0_13_158)">
<path d="M509.673 65.7581H289.939V181.163H509.673V65.7581Z" fill="white"/>
<path d="M437.763 201.895C438.781 201.848 440.401 201.848 441.419 201.895C442.437 201.941 441.604 201.987 439.568 201.987C437.531 201.987 436.745 201.941 437.763 201.895ZM415.456 201.664C416.752 201.618 418.927 201.618 420.223 201.664C421.519 201.71 420.454 201.756 417.816 201.756C415.179 201.756 414.114 201.71 415.456 201.664ZM453.081 171.36C453.961 171.314 455.395 171.314 456.321 171.36C457.246 171.406 456.46 171.452 454.701 171.452C452.942 171.452 452.202 171.406 453.081 171.36ZM407.357 171.129C412.263 171.083 420.316 171.083 425.221 171.129C430.127 171.175 426.1 171.175 416.289 171.175C406.478 171.175 402.406 171.175 407.357 171.129ZM484.644 140.133C485.523 140.087 486.911 140.087 487.744 140.133C488.577 140.179 487.837 140.225 486.125 140.225C484.412 140.225 483.764 140.179 484.644 140.133ZM468.214 139.902C469.233 139.856 470.852 139.856 471.871 139.902C472.889 139.949 472.056 139.995 470.019 139.995C468.029 139.995 467.196 139.949 468.214 139.902ZM437.069 139.672C439.429 139.626 443.316 139.626 445.723 139.672C448.129 139.718 446.232 139.718 441.465 139.718C436.698 139.718 434.755 139.718 437.069 139.672ZM473.768 110.475C475.249 110.429 477.702 110.429 479.229 110.475C480.71 110.521 479.507 110.567 476.498 110.567C473.49 110.521 472.241 110.521 473.768 110.475ZM419.205 109.783C424.805 109.737 433.922 109.737 439.521 109.783C445.121 109.829 440.54 109.829 429.34 109.829C418.14 109.829 413.651 109.829 419.205 109.783ZM400.277 77.1723C400.277 76.1576 400.323 75.4196 400.369 75.4657C400.554 75.6963 400.693 78.9712 400.508 78.9712C400.369 78.9712 400.277 78.141 400.277 77.1723ZM429.895 78.6022C430.728 78.5561 432.07 78.5561 432.903 78.6022C433.737 78.6483 433.042 78.6945 431.423 78.6945C429.803 78.6945 429.062 78.6483 429.895 78.6022ZM410.551 48.7132C411.985 48.667 414.346 48.667 415.78 48.7132C417.215 48.7593 416.058 48.8054 413.189 48.8054C410.319 48.8054 409.116 48.7132 410.551 48.7132ZM430.543 48.4825C431.237 48.4364 432.394 48.4364 433.089 48.4825C433.783 48.5287 433.227 48.5748 431.793 48.5748C430.358 48.5748 429.849 48.5287 430.543 48.4825ZM442.761 48.2519C443.455 48.2058 444.612 48.2058 445.306 48.2519C446 48.298 445.445 48.3442 444.01 48.3442C442.576 48.3442 442.067 48.298 442.761 48.2519ZM456.645 48.0213C457.755 47.9752 459.607 47.9752 460.764 48.0213C461.874 48.0674 460.949 48.1135 458.727 48.1135C456.506 48.1135 455.534 48.0674 456.645 48.0213Z" fill="#CEEDFB"/>
<path d="M424.018 201.664C424.897 201.618 426.332 201.618 427.257 201.664C428.183 201.71 427.396 201.756 425.638 201.756C423.879 201.756 423.092 201.71 424.018 201.664ZM536.985 185.013C536.985 183.491 537.032 182.891 537.078 183.629C537.124 184.367 537.124 185.658 537.078 186.396C537.032 187.181 536.985 186.535 536.985 185.013ZM446.88 171.36C447.759 171.314 449.194 171.314 450.119 171.36C451.045 171.406 450.258 171.452 448.5 171.452C446.741 171.452 446 171.406 446.88 171.36ZM355.895 140.133C356.82 140.087 358.394 140.087 359.32 140.133C360.245 140.179 359.505 140.225 357.607 140.225C355.71 140.225 354.969 140.179 355.895 140.133ZM474.647 139.902C475.295 139.856 476.36 139.856 476.961 139.902C477.609 139.949 477.1 139.995 475.804 139.995C474.508 139.995 473.999 139.949 474.647 139.902ZM429.201 139.672C429.895 139.626 431.052 139.626 431.746 139.672C432.441 139.718 431.885 139.764 430.451 139.764C429.016 139.764 428.507 139.718 429.201 139.672ZM452.665 139.672C454.146 139.626 456.598 139.626 458.126 139.672C459.607 139.718 458.403 139.764 455.395 139.764C452.387 139.764 451.137 139.718 452.665 139.672ZM400.786 48.7132C402.081 48.667 404.303 48.667 405.691 48.7132C407.08 48.7593 406.015 48.8054 403.331 48.8054C400.601 48.7593 399.49 48.7132 400.786 48.7132ZM419.529 48.7132C420.269 48.667 421.565 48.667 422.398 48.7132C423.231 48.7593 422.629 48.8054 421.01 48.8054C419.482 48.7593 418.788 48.7593 419.529 48.7132ZM304.71 48.4825C305.358 48.4364 306.422 48.4364 307.024 48.4825C307.672 48.5287 307.163 48.5748 305.867 48.5748C304.571 48.5748 304.062 48.5287 304.71 48.4825Z" fill="#B4E3FA"/>
<path d="M472.472 202.125C440.725 201.941 402.359 201.572 400.184 201.064L399.86 200.972L398.425 196.406C397.685 194.053 400.647 189.717 400.508 186.304C400.369 182.66 400.323 178.924 400.415 176.987C400.508 175.234 398.657 173.251 399.166 172.697L400.369 171.36H430.867C466.363 171.406 490.104 171.59 497.185 171.36L502.23 171.175L502.415 163.288C502.507 158.952 502.6 152.817 502.646 149.635C502.692 146.452 502.692 143.639 502.739 143.316C502.785 142.07 502.461 140.456 502.091 140.364C500.24 139.81 429.71 139.487 417.215 139.949C413.235 140.087 407.866 140.271 405.275 140.364L400.554 140.271V125.327V110.152L399.629 110.059C396.343 109.783 452.294 109.921 461.087 110.244C469.742 110.567 502.415 110.521 502.97 110.198C503.016 110.152 502.97 108.999 502.831 107.615C502.646 105.862 502.6 104.202 502.739 101.988C503.016 97.4212 502.97 94.6076 502.6 93.1777C502.137 91.3327 502.137 83.1224 502.6 81.2313C502.785 80.4933 502.878 79.7553 502.831 79.6169C502.739 79.3863 496.954 79.2941 473.675 79.2479C448.083 79.1557 444.242 79.1096 441.28 78.7406C437.624 78.3254 426.563 78.3716 412.726 78.8789C404.488 79.1557 399.999 78.7867 399.86 78.6022C399.582 78.3254 400.323 68.7314 400.323 59.1374V48.8054L416.474 48.667C449.009 47.929 479.923 48.8515 507.505 48.8515C527.961 48.8515 536.245 48.9438 536.337 49.0821C536.43 49.2205 536.569 69.1927 536.661 93.5467C536.754 119.008 536.939 138.565 537.078 139.626C537.494 143.316 537.587 149.45 537.356 161.858C537.217 168.777 537.032 180.585 536.985 188.057L536.846 201.664L529.719 201.525C525.786 201.433 522.13 201.71 521.436 201.572C520.602 201.433 519.908 201.387 519.492 201.572C519.168 201.71 515.419 201.479 511.208 201.572C506.95 201.71 500.517 201.894 496.815 202.033C493.159 202.171 487.883 202.217 485.153 202.217C482.422 202.217 476.684 202.171 472.472 202.125ZM363.253 140.133C364.595 140.087 366.678 140.087 367.927 140.133C369.177 140.179 368.113 140.225 365.521 140.225C362.929 140.225 361.957 140.179 363.253 140.133ZM264.401 114.072C264.401 112.596 264.447 112.043 264.493 112.827C264.54 113.611 264.54 114.81 264.493 115.502C264.447 116.148 264.401 115.502 264.401 114.072ZM351.498 110.705C353.303 110.659 356.219 110.659 357.931 110.705C359.643 110.751 358.163 110.751 354.645 110.751C351.128 110.751 349.693 110.705 351.498 110.705ZM374.684 79.2479C377.137 79.2018 381.21 79.2018 383.662 79.2479C386.115 79.2941 384.125 79.2941 379.173 79.2941C374.221 79.2941 372.231 79.2941 374.684 79.2479ZM382.135 48.8976C385.143 48.8976 390.095 48.8976 393.103 48.8976C396.111 48.9438 393.659 48.9438 387.596 48.9438C381.534 48.9438 379.081 48.9438 382.135 48.8976ZM309.014 48.4825C309.569 48.4364 310.588 48.4364 311.235 48.4825C311.883 48.5286 311.421 48.5748 310.171 48.5748C308.968 48.5748 308.459 48.5286 309.014 48.4825Z" fill="#9ADAF9"/>
<path d="M294.899 201.848C291.983 201.756 283.977 201.618 277.174 201.525C264.864 201.341 264.771 201.341 264.679 200.88C263.568 195.575 263.475 175.373 264.355 125.419C264.586 111.997 264.586 111.213 264.216 109.46C263.707 107.107 263.707 90.4563 264.216 70.8993C264.401 63.7038 264.586 55.9086 264.586 53.5563V49.3128H265.419C265.882 49.3128 269.353 49.2205 273.148 49.0821C276.943 48.9438 289.484 48.7593 301.008 48.6209C312.531 48.4825 324.656 48.298 327.896 48.2058C335.301 48.0213 355.849 48.298 357.237 48.667C357.931 48.8515 365.151 48.9438 379.266 49.036L400.323 49.1744V64.0728V78.8789L395.14 79.0173C381.857 79.3863 354.275 79.1096 334.375 78.3716C321.093 77.9103 300.545 78.5561 299.11 79.4786C298.462 79.8937 298.509 78.6022 298.462 93.2238C298.416 101.203 298.324 106.139 298.185 106.692C298 107.384 298.046 107.753 298.37 108.814L298.786 110.106L306.932 110.244C343.399 110.89 365.984 110.936 392.548 110.475L400.508 110.336V125.327V140.318L382.552 140.179C323.777 139.764 298.648 139.764 297.815 140.271C297.583 140.41 297.676 140.594 298.138 141.102L298.74 141.747L298.37 143.316C298.046 144.746 298.046 145.022 298.37 146.544C298.694 148.02 298.694 148.297 298.37 149.127C298 150.234 297.953 151.434 298.277 151.664C298.462 151.757 298.462 153.371 298.37 157.384C298.138 164.672 298.185 165.64 298.555 166.747C298.74 167.255 299.018 168.315 299.157 169.053C299.295 169.791 299.434 170.622 299.527 170.806C299.619 171.175 300.73 171.175 317.992 171.221C334.514 171.221 343.816 171.36 366.215 171.775C370.334 171.867 378.387 171.775 385.745 171.59C392.641 171.406 398.749 171.267 399.258 171.267H400.23L400.323 185.197C400.369 192.854 400.369 199.542 400.277 200.049L400.138 200.972L365.567 201.11C346.546 201.203 328.96 201.341 326.554 201.433C320.352 201.894 301.193 202.079 294.899 201.848Z" fill="#31B3F2"/>
</g>
<defs>
<clipPath id="clip0_13_158">
<rect width="273" height="154" fill="white" transform="translate(264 48)"/>
</clipPath>
</defs>
</svg>
