<svg width="800" height="250" viewBox="0 0 800 250" fill="none" xmlns="http://www.w3.org/2000/svg">
<g clip-path="url(#clip0_17_1094)">
<path d="M516 125C516 189.068 464.055 241.023 400 241.023C335.922 241 284 189.068 284 125C284 118.944 284.464 113.003 285.369 107.202H310.146V175.749H333.648V107.202H359.98V175.749H382.438V124.652H382.925L412.83 169.414C415.799 174.124 418.537 175.749 424.267 175.749H439.695V107.202H466.097V175.749H489.204V107.202H514.678C515.536 113.003 516 118.944 516 125ZM359.145 90.3555H381.881C387.611 90.3555 390.465 91.9566 393.318 96.6903L416.797 133.261H417.609V90.3323H510.687C495.955 43.2268 451.968 9 399.954 9C347.962 9 303.952 43.2268 289.22 90.3555H359.145Z" fill="white"/>
</g>
<defs>
<clipPath id="clip0_17_1094">
<rect width="232" height="232" fill="white" transform="translate(284 9)"/>
</clipPath>
</defs>
</svg>
