<svg width="800" height="250" viewBox="0 0 800 250" fill="none" xmlns="http://www.w3.org/2000/svg">
<g clip-path="url(#clip0_17_1814)">
<path d="M475.964 152.171C475.964 159.46 485.233 161.61 490.962 161.61C498.088 161.61 509.219 157.872 509.219 147.592V135.396C504.236 138.667 496.364 138.527 489.238 139.835C482.252 141.004 475.964 143.574 475.964 152.171Z" fill="#DD1D54"/>
<path d="M385.236 86.8483C381.649 86.8483 377.644 89.4183 377.644 93.8572C377.644 97.4551 381.37 101.333 383.932 104.324C387.937 102.455 392.082 98.4363 392.082 93.717C392.082 89.979 389.241 86.8483 385.236 86.8483Z" fill="#DD1D54"/>
<path d="M318.027 54V196H740V54H318.027ZM408.197 172.497L402.468 165.348C393.2 172.637 384.63 174.973 373.312 174.973C353.797 174.973 338.614 161.656 338.614 141.705C338.614 128.107 350.164 118.622 361.342 112.921C356.638 107.782 353.378 101.474 353.378 94.2777C353.378 77.9237 368.469 67.7841 383.652 67.7841C402.655 67.7841 416.348 76.1013 416.348 94.2777C416.348 105.912 407.359 115.491 397.671 120.631L405.496 130.397C407.359 127.967 408.803 125.257 409.222 122.64H432.789C431.345 131.378 427.34 140.536 420.773 147.405L441.638 172.497H408.197ZM533.299 172.684C530.877 173.525 525.707 174.553 523.005 174.553C516.438 174.553 511.734 172.263 510.43 165.535C504.049 171.796 493.616 174.553 484.907 174.553C471.633 174.553 459.616 167.404 459.616 152.919C459.616 134.415 474.334 131.425 488.027 129.836C499.718 127.687 510.151 128.995 510.151 119.37C510.151 110.912 501.441 109.323 494.874 109.323C485.745 109.323 479.318 113.062 478.573 121.098H462.318C463.436 102.034 479.551 96.4271 495.899 96.4271C510.337 96.4271 525.474 102.315 525.474 117.921V156.049C525.474 160.068 526.359 161.656 529.293 161.656C530.318 161.656 531.622 161.656 533.299 161.376V172.684ZM584.904 112.641C582.622 112.361 580.2 111.94 577.871 111.94C566.74 111.94 557.89 120.958 557.89 137.312V172.544H541.589V98.4363H541.636H556.912V112.781H557.192C559.055 104.931 568.742 96.4738 578.756 96.4738C582.436 96.4738 583.46 96.7542 584.904 96.8944V112.641ZM634.973 110.632H620.255V150.162C620.255 156.89 620.814 160.348 628.079 160.348C630.362 160.348 632.644 160.348 634.926 159.787V172.403C631.386 172.684 627.94 173.291 624.353 173.291C607.353 173.291 604.186 166.703 603.907 154.367V110.679H591.611V98.4363H591.658H603.953V76.2415H620.255V98.4363H634.973V110.632ZM676.844 174.506C658.307 174.506 644.427 166.189 644.148 148.713H660.356V148.76C661.241 158.199 668.367 161.656 677.077 161.656C683.225 161.656 693.937 160.348 693.518 151.891C693.099 143.293 681.222 142.265 669.392 139.555C657.375 136.985 645.685 132.686 645.685 117.641C645.685 101.474 663.104 96.4271 676.518 96.4271C691.701 96.4271 705.395 102.735 707.397 119.183H690.397C688.953 111.426 682.526 109.323 675.4 109.323C670.649 109.323 661.94 110.445 661.94 116.94C661.94 124.977 673.956 126.098 685.973 128.808C697.849 131.518 709.819 135.817 709.819 150.442C709.819 168.058 692.121 174.506 676.844 174.506Z" fill="#DD1D54"/>
<path d="M365.814 142.686C365.814 148.293 370.658 152.311 375.548 152.311C380.112 152.311 384.118 149.274 387.518 146.143L375.641 131.658C371.496 133.808 365.814 137.546 365.814 142.686Z" fill="#DD1D54"/>
<path d="M60 111.753V97.642H72.5753V91.661C72.5753 84.8391 74.7178 79.232 78.9562 74.8397C83.1945 70.4942 89.6219 68.2981 98.1918 68.2981C100.055 68.2981 101.964 68.3915 103.827 68.5317C105.69 68.6719 107.553 68.8121 109.323 68.9055V84.6522C106.855 84.3718 104.293 84.1849 101.592 84.1849C98.7507 84.1849 96.6548 84.8391 95.4438 86.1941C94.1863 87.5492 93.5808 89.792 93.5808 92.9694V97.5952H108.112V111.706H93.6274V174.553H72.5753V111.753H60Z" fill="white"/>
<path d="M117.94 68.3448H138.992V85.7269H117.94V68.3448ZM139.038 174.553H117.986V97.642H139.038V174.553Z" fill="white"/>
<path d="M171.315 68.3448H150.263V174.553H171.315V68.3448Z" fill="white"/>
<path d="M202.474 97.642V108.062H202.753C205.501 104.09 208.855 101.006 212.767 98.8569C216.679 96.6608 221.151 95.5861 226.181 95.5861C231.025 95.5861 235.449 96.5206 239.455 98.4363C243.46 100.305 246.488 103.623 248.584 108.389C250.866 105.025 253.94 102.034 257.852 99.4643C261.764 96.8944 266.375 95.5861 271.731 95.5861C275.784 95.5861 279.556 96.1 283.003 97.0813C286.449 98.1093 289.43 99.6512 291.899 101.847C294.367 104.043 296.277 106.894 297.674 110.398C299.071 113.903 299.77 118.155 299.77 123.108V174.553H278.718V130.958C278.718 128.388 278.625 125.958 278.438 123.668C278.252 121.379 277.693 119.416 276.808 117.734C275.923 116.052 274.573 114.697 272.896 113.716C271.173 112.734 268.797 112.22 265.863 112.22C262.929 112.22 260.507 112.781 258.69 113.949C256.874 115.071 255.43 116.566 254.405 118.388C253.381 120.211 252.682 122.313 252.31 124.65C251.984 126.986 251.797 129.322 251.797 131.705V174.553H230.745V131.425C230.745 129.135 230.699 126.892 230.605 124.65C230.512 122.407 230.093 120.351 229.348 118.482C228.603 116.613 227.392 115.071 225.622 113.949C223.899 112.828 221.337 112.22 217.984 112.22C217.005 112.22 215.701 112.454 214.071 112.875C212.441 113.342 210.858 114.136 209.321 115.398C207.784 116.613 206.479 118.435 205.408 120.771C204.29 123.108 203.778 126.145 203.778 129.93V174.553H182.726V97.642H202.474Z" fill="white"/>
</g>
<defs>
<clipPath id="clip0_17_1814">
<rect width="680" height="142" fill="white" transform="translate(60 54)"/>
</clipPath>
</defs>
</svg>
