<svg width="800" height="250" viewBox="0 0 800 250" fill="none" xmlns="http://www.w3.org/2000/svg">
<g clip-path="url(#clip0_17_1400)">
<path d="M202.906 159.757H206.508C222.961 159.757 233.367 151.024 248.219 129.675H248.486L237.68 163.198H170V162.933C176.492 159.228 178.093 155.788 180.405 146.348L197.125 79.8771C198.148 75.7309 198.726 72.7316 198.726 70.4379C198.726 67.3062 197.881 65.2772 195.124 63.2924V63.0277H233.367V63.2924C226.875 66.9975 225.274 70.4379 222.961 79.9213L202.906 159.757Z" fill="#F51A50"/>
<path d="M273.522 150.186C273.344 151.068 273.255 151.994 273.255 152.921C273.255 155.347 274.411 156.934 276.723 156.934C278.057 156.89 279.347 156.493 280.459 155.788V156.052C275.967 162.227 270.364 164.653 264.139 164.653C254.756 164.653 250.71 159.052 250.71 151.465C250.665 149.392 250.932 147.319 251.421 145.29L260.67 107.93C261.827 103.343 262.538 100.608 262.538 98.6232C262.538 96.0649 261.693 94.3447 259.514 92.6245V92.3157H288.107L273.522 150.186ZM281.437 57.9994C288.819 57.9994 293.977 63.2924 293.977 70.1733C294.021 77.7158 287.885 83.891 280.281 83.9351C280.236 83.9351 280.192 83.9351 280.147 83.9351C272.766 83.9351 267.607 78.6421 267.607 71.7612C267.474 64.2628 273.522 58.0876 281.081 57.9994C281.17 57.9552 281.304 57.9552 281.437 57.9994Z" fill="#F51A50"/>
<path d="M323.726 92.3157H334.576L332.842 95.8885H323.014L306.828 160.904C300.914 184.811 290.508 194.691 269.164 195V194.735C276.812 189.575 280.147 177.136 286.773 148.466L299.046 95.9326H292.42L292.865 94.3447L300.202 91.213L301.492 87.1991C306.695 66.7328 322.259 55 338.756 55C347.872 55 355.209 59.455 355.209 66.8652C355.209 75.334 348.984 80.0536 341.78 80.0536C337.022 80.0536 333.687 77.4953 332.975 74.4518C337.289 73.7461 342.091 69.9969 342.091 61.8368C342.091 59.1021 340.668 57.2495 338.045 57.2495C332.842 57.2495 328.529 64.3951 325.771 81.1563L323.726 92.3157Z" fill="#F51A50"/>
<path d="M324.037 138.409C324.037 115.649 342.936 90.7278 367.616 90.7278C379.444 90.7278 385.359 96.7266 385.359 105.195C385.359 121.251 367.883 128.088 347.694 128.97C347.25 131.66 347.027 134.395 346.983 137.13C346.983 148.598 352.452 154.156 360.101 154.156C366.593 154.156 371.084 151.024 376.554 143.834H377.443C371.396 157.728 360.99 164.609 348.45 164.609C334.131 164.609 324.037 155.611 324.037 138.409ZM348.139 126.853C360.279 123.147 369.35 109.253 369.35 97.9175C369.35 95.0505 368.327 93.3302 366.46 93.3302C359.967 93.3302 351.163 110.929 348.139 126.853Z" fill="#F51A50"/>
<path d="M407.459 145.996C407.148 146.966 407.015 147.98 407.015 148.995C407.015 153.141 409.772 155.567 413.24 155.567C415.552 155.567 418.576 154.288 421.333 151.686L421.467 151.95C416.131 160.375 409.06 164.565 399.944 164.565C389.539 164.565 384.069 158.566 384.069 149.26C384.158 146.878 384.469 144.54 385.092 142.246L396.787 95.8443H391.584L392.029 93.9918C407.015 90.1544 416.709 81.8179 425.958 67.3503H427.248L421.022 92.2716H434.585L432.984 95.8443H419.999L407.459 145.996Z" fill="#F51A50"/>
<path d="M450.193 150.186C450.015 151.068 449.926 151.994 449.882 152.921C449.882 155.347 451.038 156.934 453.35 156.934C454.684 156.89 455.974 156.493 457.086 155.788V156.052C452.594 162.227 446.991 164.653 440.766 164.653C431.383 164.653 427.336 159.052 427.336 151.465C427.292 149.392 427.559 147.319 428.048 145.29L437.297 107.93C438.453 103.343 439.165 100.608 439.165 98.6232C439.165 96.0649 438.276 94.3447 436.141 92.6244V92.3157H464.734L450.193 150.186ZM458.108 57.9993C465.49 57.9993 470.648 63.2924 470.648 70.1733C470.648 77.7158 464.512 83.8469 456.908 83.891C456.863 83.891 456.819 83.891 456.819 83.891C449.482 83.891 444.279 78.598 444.279 71.7171C444.145 64.2186 450.193 58.0435 457.753 57.9553C457.886 57.9553 457.975 57.9552 458.108 57.9993Z" fill="#F51A50"/>
<path d="M557.583 150.186C557.317 151.068 557.139 151.994 557.139 152.921C557.139 155.347 558.295 156.934 560.741 156.934C562.03 156.89 563.275 156.493 564.342 155.788V156.052C560.029 162.227 554.382 164.653 548.201 164.653C538.684 164.653 534.504 159.052 534.504 151.465C534.504 149.436 534.949 147.451 535.394 145.29L543.62 112.517C544.154 110.797 544.465 109.033 544.51 107.224C544.51 104.931 543.62 103.519 541.353 103.519C536.861 103.519 532.237 109.386 529.079 121.427L518.674 163.242H495.417L508.135 112.561C508.669 110.929 508.98 109.253 509.024 107.533C509.024 105.107 508.001 103.519 505.556 103.519C501.064 103.519 496.618 109.386 493.416 121.824L483.055 163.198H459.665L473.539 107.93C474.562 103.343 475.273 100.608 475.273 98.6232C475.273 96.0649 474.384 94.3447 472.383 92.6245V92.3157H500.842L496.662 108.768C501.998 97.4764 508.624 90.8601 518.585 90.8601C528.101 90.8601 532.281 97.2999 532.281 105.592C532.237 106.607 532.148 107.621 531.97 108.592C537.439 97.3 544.376 90.8601 554.204 90.8601C563.898 90.8601 567.9 97.0353 567.9 105.195C567.855 107.886 567.5 110.577 566.877 113.223L557.583 150.186Z" fill="#F51A50"/>
<path d="M569.679 138.409C569.679 115.649 588.578 90.7278 613.257 90.7278C625.086 90.7278 631 96.7266 631 105.195C631 121.251 613.524 128.088 593.336 128.97C592.891 131.66 592.669 134.395 592.624 137.13C592.624 148.598 598.094 154.156 605.742 154.156C612.234 154.156 616.726 151.024 622.195 143.834H623.04C616.993 157.728 606.587 164.609 594.047 164.609C579.817 164.609 569.679 155.611 569.679 138.409ZM593.78 126.853C605.92 123.147 614.992 109.253 614.992 97.9175C614.992 95.0505 613.969 93.3302 612.101 93.3302C605.653 93.3302 596.849 110.929 593.78 126.853Z" fill="#F51A50"/>
</g>
<defs>
<clipPath id="clip0_17_1400">
<rect width="461" height="140" fill="white" transform="translate(170 55)"/>
</clipPath>
</defs>
</svg>
