<svg width="800" height="250" viewBox="0 0 800 250" fill="none" xmlns="http://www.w3.org/2000/svg">
<g clip-path="url(#clip0_17_1784)">
<path d="M419.699 159.833H416.81V90.7299H328.922V159.833H326.126V28.1906H329.016V88.0108H416.903V28.1906H419.792V159.833H419.699ZM427.062 174.084H448.871V171.459H447.473C445.143 171.459 442.813 170.709 440.856 169.303C437.966 167.24 436.196 163.771 436.382 160.208V157.864V29.4095C436.382 25.9403 438.06 22.7524 440.856 20.7834C442.813 19.4707 445.143 18.7206 447.473 18.6269H448.871V16.0015H387.825V18.6269H389.223C391.553 18.6269 393.883 19.377 395.84 20.7834C398.729 22.7524 400.407 25.9403 400.314 29.4095V32.1286V72.2588H345.512V32.2224V29.5033C345.512 26.0341 347.283 22.7524 350.172 20.8772C352.129 19.5645 354.459 18.8144 356.789 18.7206H358.187V16.0953H296.955V18.7206H298.353C300.776 18.7206 303.106 19.4707 305.063 20.8772C307.859 22.8462 309.537 26.0341 309.537 29.5033V157.957V160.301C309.63 163.958 307.952 167.334 305.063 169.396C303.106 170.709 300.776 171.459 298.353 171.553H296.955V174.178H358.001V171.553H356.603C354.273 171.553 351.943 170.803 349.986 169.396C347.283 167.615 345.605 164.521 345.512 161.333V106.388H400.407V161.333C400.314 164.614 398.636 167.709 395.933 169.584C393.976 170.897 391.646 171.647 389.316 171.74H387.918V174.366L427.062 174.084Z" fill="url(#paint0_linear_17_1784)"/>
<path d="M504.045 131.798C500.038 146.612 497.055 162.739 494.166 174.178H387.825V169.021C401.991 155.051 417.556 139.674 430.697 123.734C449.15 101.325 460.148 80.3224 460.148 59.4134C460.148 40.5672 450.735 26.2216 431.442 26.2216C414.294 26.2216 403.296 37.7544 395.374 49.3809L389.782 45.0678C394.908 36.4417 400.78 28.3781 407.397 20.8772C417.183 10.1883 430.976 4 445.516 4C471.798 4 493.607 21.0647 493.607 50.131C493.607 72.1651 482.143 88.6672 456.14 113.42L422.309 146.237H469.188C485.498 146.237 488.481 145.675 498.64 129.547L504.045 131.798Z" fill="url(#paint1_linear_17_1784)"/>
<path d="M419.699 159.833H416.81V110.326H400.314V161.239C400.22 164.521 398.543 167.615 395.84 169.49C393.883 170.803 391.553 171.553 389.223 171.647H387.825V174.272H448.871V171.647H447.473C445.143 171.647 442.813 170.897 440.856 169.49C437.966 167.427 436.196 163.958 436.382 160.395V158.051V110.42H419.886V159.833H419.699Z" fill="url(#paint2_linear_17_1784)"/>
<path d="M498.36 129.641C488.201 145.768 485.219 146.331 468.909 146.331H410.286C402.737 154.207 395.094 161.802 387.825 168.928V174.084H494.166C497.148 162.739 500.224 146.612 504.045 131.704L498.36 129.641Z" fill="url(#paint3_linear_17_1784)"/>
<path d="M517 191.524H284V187.867H517V191.524Z" fill="#CD3937"/>
<path d="M285.305 205.307H293.879V220.778H309.723V205.307H318.298V245.25H309.723V228.935H293.879V245.25H285.305V205.307Z" fill="white"/>
<path d="M334.421 205.307V245.25H326.126V205.307H334.421Z" fill="white"/>
<path d="M347.469 232.217C348.588 235.499 351.663 237.843 355.112 237.936C357.908 237.936 360.238 236.53 360.238 233.905C360.238 231.279 358.933 230.717 356.044 229.685L351.29 227.81C345.139 225.372 342.064 218.34 344.394 212.152C346.071 207.745 350.172 204.745 354.832 204.463C360.61 204.463 365.736 207.933 368.16 213.183L361.076 217.309C360.144 214.683 357.814 212.808 355.018 212.527C352.409 212.527 350.638 213.933 350.638 215.996C350.638 218.059 352.036 218.997 354.459 219.934L359.585 221.903C365.923 224.341 368.998 227.998 368.998 233.342C368.812 240.468 362.94 246.188 355.857 246C355.578 246 355.298 246 354.925 245.906C348.401 246.094 342.53 242.156 340.106 236.061L347.469 232.217Z" fill="white"/>
<path d="M372.354 205.307H401.805V213.277H391.366V245.25H382.792V213.277H372.354V205.307Z" fill="white"/>
<path d="M424.546 246C413.175 245.906 404.042 236.53 404.135 225.091C404.228 213.652 413.548 204.463 424.918 204.557C436.196 204.651 445.329 213.933 445.329 225.279C445.329 236.718 436.102 246 424.732 246C424.639 246 424.546 246 424.546 246ZM424.546 212.902C417.928 212.902 412.523 218.34 412.523 224.997C412.523 231.654 417.928 237.093 424.546 237.093C431.163 237.093 436.568 231.654 436.568 224.997C436.568 218.34 431.163 212.902 424.546 212.902Z" fill="white"/>
<path d="M459.309 245.25H450.921V205.307H464.435C471.425 204.37 477.856 209.245 478.788 216.277C478.881 216.84 478.881 217.496 478.881 218.059C478.881 223.403 475.433 228.091 470.4 229.592L481.304 245.156H471.332L461.546 230.623H459.216V245.25H459.309ZM459.309 223.591H464.342C467.231 223.966 469.934 221.997 470.307 219.09C470.307 218.809 470.4 218.528 470.4 218.34C470.4 215.434 468.07 213.09 465.181 213.09C464.901 213.09 464.622 213.09 464.435 213.183H459.589L459.309 223.591Z" fill="white"/>
<path d="M502.834 245.25H494.446V227.81L480.279 205.214H490.065L498.64 219.934L507.4 205.307H517L502.834 227.81V245.25Z" fill="white"/>
</g>
<defs>
<linearGradient id="paint0_linear_17_1784" x1="336.076" y1="2.90492" x2="397.741" y2="155.45" gradientUnits="userSpaceOnUse">
<stop stop-color="#D8993E"/>
<stop offset="0.5197" stop-color="#EFC243"/>
<stop offset="1" stop-color="#AD6A1A"/>
</linearGradient>
<linearGradient id="paint1_linear_17_1784" x1="445.664" y1="142.748" x2="440.128" y2="106.765" gradientUnits="userSpaceOnUse">
<stop stop-color="#641B1D"/>
<stop offset="1" stop-color="#E61D19"/>
</linearGradient>
<linearGradient id="paint2_linear_17_1784" x1="398.568" y1="125.024" x2="408.527" y2="137.658" gradientUnits="userSpaceOnUse">
<stop stop-color="#D8993E" stop-opacity="0"/>
<stop offset="1" stop-color="#B66815"/>
</linearGradient>
<linearGradient id="paint3_linear_17_1784" x1="388.739" y1="149.219" x2="495.05" y2="154.359" gradientUnits="userSpaceOnUse">
<stop stop-color="#781B1C"/>
<stop offset="1" stop-color="#5C1309"/>
</linearGradient>
<clipPath id="clip0_17_1784">
<rect width="233" height="242" fill="white" transform="translate(284 4)"/>
</clipPath>
</defs>
</svg>
