<svg width="800" height="250" viewBox="0 0 800 250" fill="none" xmlns="http://www.w3.org/2000/svg">
<path d="M220.96 67.2846C188.32 67.2846 161.44 93.5615 161.44 125.469C161.44 157.377 188.32 183.654 220.96 183.654C243.52 183.654 263.2 171.454 273.28 153.154L244 137.2C239.68 145.646 231.04 150.808 220.96 150.808C206.56 150.808 195.04 139.546 195.04 125.469C195.04 111.392 206.56 100.131 220.96 100.131C230.56 100.131 239.2 105.292 243.52 113.269L272.32 96.8461C262.72 79.0154 243.04 67.2846 220.96 67.2846ZM281.92 69.6308V181.308H320.32V69.6308H281.92ZM333.76 69.6308V181.308H371.68V129.692L413.92 181.308H448V69.6308H410.08V118.9L369.28 69.6308H333.76ZM461.44 69.6308V181.308H558.88C545.44 174.738 534.88 163.946 528.64 150.808H499.36V138.608H524.8C523.84 134.385 523.36 130.162 523.36 125.469C523.36 120.777 523.84 116.085 524.8 111.392H499.36V100.131H528.64C534.88 86.9923 545.44 75.7308 558.88 69.6308H461.44Z" fill="white"/>
<path d="M586.72 75.2615C558.4 75.2615 535.84 97.7846 535.84 125C535.84 152.685 558.88 174.738 586.72 174.738C615.04 174.738 637.6 152.215 637.6 125C637.6 97.7846 615.04 75.2615 586.72 75.2615ZM586.24 166.292C563.2 166.292 544.48 147.992 544.48 125.469C544.48 102.946 563.2 84.6462 586.24 84.6462C609.28 84.6462 628 102.946 628 125.469C628 147.992 609.28 166.292 586.24 166.292Z" fill="#00DDE5"/>
<path d="M570.4 112.331L561.76 137.669H569.44L570.4 133.446H578.56L579.52 137.669H587.68L579.04 112.331H570.4ZM589.6 112.331V137.669H596.8V128.754H599.2L603.04 137.669H611.2L605.44 127.346C607.84 126.408 609.28 123.592 609.28 120.308C609.28 114.677 605.92 112.331 598.72 112.331H589.6ZM574.24 117.962L575.2 120.777L577.12 127.815H571.84L573.76 120.777L574.24 117.962ZM596.8 117.962H599.68C601.6 117.962 602.56 118.431 602.56 120.777C602.56 123.123 601.6 123.592 599.68 123.592H596.8V117.962Z" fill="white"/>
</svg>
