<svg width="800" height="250" viewBox="0 0 800 250" fill="none" xmlns="http://www.w3.org/2000/svg">
<g clip-path="url(#clip0_17_1496)">
<path d="M299 24H501V226H299V24ZM423.311 62.1376C424.785 66.0766 426.442 69.9348 427.876 73.8738C429.29 71.3084 431.27 69.0662 433.492 67.1876C436.037 64.9858 439.047 63.4304 442.157 62.1578C435.875 62.077 429.593 62.1376 423.311 62.1376ZM451.672 64.5818C448.359 65.9554 445.309 68.137 443.208 71.066C440.945 74.1364 439.794 77.9946 439.834 81.7922C439.774 84.0748 440.097 86.3776 440.945 88.4986C442.056 91.367 444.218 93.7304 446.783 95.3868C450.581 97.8512 455.005 99.1642 459.368 100.275C462.943 101.225 466.64 101.79 470.033 103.325C471.165 103.851 472.336 104.578 472.76 105.83C472.983 107.002 472.983 108.375 472.134 109.305C471.023 110.577 469.286 111.001 467.69 111.183C463.771 111.466 459.812 110.86 456.116 109.547C452.54 108.295 449.268 106.315 446.278 104.012C443.794 107.022 441.289 110.012 438.764 113.001C431.734 96.3564 424.725 79.7116 417.655 63.087C412.282 63.087 406.888 63.087 401.515 63.087C394.364 80.0146 387.213 96.9422 380.063 113.85C379.093 116.253 377.962 118.597 377.113 121.041C376.871 120.091 376.972 119.122 376.972 118.172C376.952 99.952 376.992 81.7316 376.952 63.5112C371.053 63.5516 365.155 63.491 359.257 63.5516C354.691 71.066 350.045 78.5198 345.46 86.014C345.258 86.3574 345.076 86.721 344.753 86.9432C339.966 79.146 335.138 71.369 330.371 63.5516C324.472 63.5112 318.554 63.5516 312.655 63.5314C312.655 83.7516 312.655 103.952 312.655 124.172C318.129 124.152 323.583 124.172 329.058 124.152C329.078 112.597 329.037 101.043 329.078 89.4682C334.188 97.2654 339.279 105.063 344.41 112.86C344.49 112.92 344.672 113.021 344.773 113.062L344.894 112.92C350.066 105.063 355.176 97.1644 360.368 89.3066C360.408 100.922 360.368 112.537 360.388 124.152C371.397 124.131 382.406 124.192 393.435 124.131C394.829 120.536 396.303 116.981 397.697 113.385C397.96 113.345 398.202 113.324 398.465 113.304C405.737 113.304 413.009 113.304 420.261 113.304C420.584 113.324 420.927 113.244 421.21 113.446C422.664 117.021 424.119 120.596 425.593 124.172C431.573 124.172 437.532 124.172 443.511 124.172C442.804 122.172 441.854 120.273 441.107 118.294C447.147 122.273 454.338 124.475 461.61 125C465.387 125.242 469.225 125.202 472.922 124.414C476.275 123.727 479.548 122.495 482.335 120.495C485.163 118.516 487.405 115.688 488.617 112.436C489.809 109.385 489.991 106.052 489.688 102.82C489.446 100.982 488.941 99.1642 488.052 97.5482C486.739 95.0636 484.598 93.1042 482.214 91.6498C478.962 89.6702 475.346 88.438 471.69 87.4482C467.811 86.3574 463.771 85.812 459.994 84.3172C459.004 83.8728 457.954 83.3678 457.287 82.4588C456.641 81.5902 456.701 80.4388 456.843 79.4086C457.348 77.6108 459.247 76.7422 460.943 76.4796C464.236 76.0756 467.569 76.6816 470.7 77.6916C473.932 78.7824 477.002 80.3378 479.79 82.3174C482.578 78.3784 485.406 74.4394 488.173 70.4802C486.921 69.5106 485.648 68.5814 484.295 67.7734C478.235 64.0768 471.064 62.5012 464.034 62.4608C459.832 62.38 455.57 62.9658 451.672 64.5818ZM424.523 126.111C422.281 126.374 420.139 127.404 418.564 129C416.584 130.878 415.473 133.605 415.473 136.312C415.493 138.696 416.362 141.059 417.917 142.857C419.937 145.281 423.129 146.654 426.28 146.473C428.886 146.311 431.431 145.16 433.189 143.22C434.986 141.322 436.037 138.696 435.916 136.09C435.956 132.878 434.239 129.747 431.613 127.909C429.573 126.454 427.007 125.848 424.523 126.111ZM325.826 132.232C319.22 136.251 314.271 142.857 312.271 150.331C309.989 158.815 311.039 168.268 315.645 175.823C318.756 180.994 323.503 185.156 328.997 187.66C333.441 189.721 338.37 190.65 343.238 190.529C348.126 190.428 353.055 189.519 357.439 187.297C360.489 185.802 363.196 183.681 365.559 181.257C365.599 183.944 365.559 186.65 365.579 189.337C371.175 189.357 376.77 189.317 382.345 189.357C382.365 181.661 382.345 173.985 382.345 166.289C387.375 166.248 392.405 166.289 397.435 166.289C397.435 173.985 397.455 181.661 397.435 189.357C403.03 189.337 408.605 189.357 414.201 189.337C414.221 169.137 414.201 148.937 414.201 128.737C408.605 128.717 403.03 128.737 397.435 128.737C397.414 136.292 397.435 143.847 397.435 151.401C392.405 151.422 387.355 151.422 382.325 151.401C382.345 143.847 382.325 136.292 382.345 128.737C376.75 128.737 371.154 128.717 365.559 128.737C365.559 131.262 365.579 133.787 365.559 136.312C364.044 134.797 362.408 133.403 360.61 132.252C357.014 129.909 352.873 128.495 348.652 127.889C340.854 126.757 332.572 128.05 325.826 132.232ZM455.247 130.595C448.339 133.019 442.319 137.968 438.723 144.372C434.704 151.401 433.673 159.946 435.431 167.804C436.825 174.025 440.198 179.823 445.026 184.024C449.066 187.6 454.075 190.024 459.368 191.094C463.771 191.983 468.337 191.923 472.76 191.175C477.305 190.387 481.709 188.59 485.365 185.762C488.213 183.62 490.597 180.954 492.698 178.106C488.516 175.076 484.295 172.147 480.113 169.097C477.992 171.581 475.609 174.025 472.518 175.298C467.993 177.136 462.499 176.853 458.439 174.005C455.469 171.945 453.429 168.713 452.52 165.218C451.894 163.057 451.874 160.794 451.954 158.552C452.217 154.714 453.752 150.917 456.459 148.149C458.721 145.846 461.792 144.331 465.004 144.089C468.175 143.766 471.488 144.453 474.215 146.129C476.316 147.402 478.073 149.159 479.608 151.058C483.87 147.887 488.011 144.554 492.233 141.342C488.395 135.827 482.658 131.626 476.154 129.909C469.326 128.131 461.933 128.252 455.247 130.595ZM416.423 189.337C421.998 189.317 427.593 189.337 433.168 189.337C433.168 176.55 433.168 163.784 433.168 150.997C427.593 150.977 422.018 150.997 416.423 150.977C416.402 163.764 416.423 176.55 416.423 189.337Z" fill="#FE2E4E"/>
<path d="M402.606 100.215C404.888 94.4374 407.151 88.64 409.494 82.883C411.716 88.6602 413.999 94.4374 416.261 100.194C411.716 100.235 407.151 100.235 402.606 100.215Z" fill="#FE2E4E"/>
<path d="M356.166 149.866C359.317 147.462 362.428 145.018 365.559 142.594C365.579 153.159 365.579 163.723 365.559 174.288C362.59 172.147 359.6 170.006 356.59 167.905C354.55 170.369 352.207 172.712 349.237 174.005C346.086 175.338 342.491 175.601 339.178 174.773C336.006 173.924 333.219 171.864 331.381 169.157C328.997 165.663 328.088 161.299 328.492 157.118C328.755 154.189 329.684 151.3 331.381 148.897C333.441 145.846 336.734 143.624 340.39 143.018C343.339 142.554 346.47 142.837 349.197 144.089C351.985 145.341 354.247 147.523 356.166 149.866Z" fill="#FE2E4E"/>
<path d="M423.311 62.1376C429.593 62.1376 435.875 62.077 442.157 62.178C439.067 63.4506 436.057 65.0262 433.492 67.2078C431.249 69.0864 429.29 71.3084 427.876 73.894C426.442 69.9348 424.785 66.0564 423.311 62.1376Z" fill="white"/>
<path d="M451.672 64.5818C455.57 62.9658 459.832 62.4002 464.034 62.481C471.084 62.5214 478.255 64.097 484.295 67.7936C485.648 68.6016 486.941 69.5308 488.173 70.5004C485.406 74.4596 482.598 78.3986 479.79 82.3376C477.002 80.3782 473.932 78.8026 470.7 77.7118C467.569 76.7018 464.236 76.116 460.943 76.4998C459.247 76.7422 457.348 77.631 456.843 79.4288C456.701 80.4388 456.661 81.5902 457.287 82.479C457.934 83.388 458.984 83.893 459.994 84.3374C463.771 85.812 467.811 86.3776 471.69 87.4684C475.346 88.4582 478.962 89.6904 482.214 91.67C484.598 93.1244 486.719 95.0838 488.052 97.5684C488.941 99.2046 489.466 101.002 489.688 102.841C489.991 106.073 489.789 109.406 488.617 112.456C487.405 115.708 485.163 118.536 482.335 120.516C479.548 122.515 476.255 123.748 472.922 124.434C469.205 125.242 465.367 125.263 461.61 125.02C454.338 124.495 447.147 122.273 441.026 118.253C441.774 120.233 442.723 122.132 443.43 124.131C437.451 124.111 431.492 124.131 425.513 124.131C424.038 120.556 422.584 116.981 421.129 113.405C420.846 113.203 420.483 113.284 420.18 113.264C412.908 113.284 405.636 113.264 398.384 113.264C398.121 113.284 397.859 113.304 397.616 113.345C396.223 116.94 394.728 120.495 393.354 124.091C382.345 124.152 371.336 124.111 360.307 124.111C360.287 112.496 360.327 100.881 360.287 89.2662C355.095 97.124 349.985 105.022 344.814 112.88L344.692 113.021C344.612 112.981 344.43 112.86 344.329 112.819C339.218 105.022 334.128 97.225 328.997 89.4278C328.957 100.982 328.997 112.537 328.977 124.111C323.503 124.131 318.049 124.111 312.574 124.131C312.574 103.911 312.574 83.7112 312.574 63.491C318.473 63.5112 324.391 63.4708 330.29 63.5112C335.057 71.3286 339.885 79.1056 344.672 86.9028C345.016 86.6806 345.197 86.317 345.379 85.9736C349.965 78.4794 354.631 71.0256 359.176 63.5112C365.074 63.4506 370.973 63.5314 376.871 63.4708C376.911 81.6912 376.871 99.9116 376.891 118.132C376.911 119.081 376.81 120.051 377.033 121C377.901 118.556 379.032 116.213 379.982 113.809C387.153 96.8816 394.283 79.9742 401.434 63.0466C406.807 63.0466 412.201 63.0466 417.574 63.0466C424.644 79.6712 431.653 96.316 438.683 112.961C441.208 109.971 443.713 106.982 446.197 103.972C449.187 106.275 452.459 108.254 456.035 109.507C459.731 110.82 463.691 111.426 467.609 111.143C469.205 110.961 470.963 110.557 472.053 109.264C472.902 108.335 472.922 106.961 472.68 105.79C472.276 104.558 471.084 103.81 469.953 103.285C466.559 101.75 462.842 101.184 459.287 100.235C454.924 99.1036 450.52 97.8108 446.702 95.3464C444.137 93.69 441.976 91.3266 440.865 88.4582C440.016 86.3372 439.693 84.0344 439.754 81.7518C439.693 77.9542 440.865 74.1162 443.127 71.0256C445.309 68.1168 448.359 65.9554 451.672 64.5818ZM402.606 100.215C407.151 100.215 411.716 100.235 416.261 100.215C413.999 94.4374 411.696 88.6804 409.494 82.9032C407.151 88.6602 404.888 94.4374 402.606 100.215Z" fill="white"/>
<path d="M424.523 126.111C427.007 125.848 429.573 126.454 431.613 127.929C434.219 129.767 435.956 132.898 435.916 136.11C436.017 138.736 434.986 141.342 433.189 143.241C431.431 145.18 428.886 146.351 426.28 146.493C423.129 146.654 419.937 145.301 417.917 142.877C416.362 141.059 415.493 138.696 415.473 136.332C415.473 133.605 416.564 130.878 418.564 129.02C420.139 127.404 422.281 126.374 424.523 126.111Z" fill="white"/>
<path d="M325.826 132.232C332.572 128.05 340.854 126.757 348.652 127.889C352.873 128.495 357.014 129.909 360.61 132.252C362.408 133.403 364.044 134.797 365.559 136.312C365.579 133.787 365.559 131.262 365.559 128.737C371.154 128.717 376.75 128.737 382.345 128.737C382.325 136.292 382.365 143.847 382.325 151.401C387.355 151.422 392.385 151.422 397.435 151.401C397.435 143.847 397.414 136.292 397.435 128.737C403.03 128.737 408.605 128.717 414.201 128.737C414.201 148.937 414.201 169.137 414.201 189.337C408.605 189.377 403.03 189.337 397.435 189.357C397.455 181.661 397.435 173.985 397.435 166.289C392.405 166.289 387.375 166.269 382.345 166.289C382.345 173.965 382.365 181.661 382.345 189.357C376.75 189.317 371.154 189.357 365.579 189.337C365.559 186.65 365.599 183.944 365.559 181.257C363.196 183.681 360.489 185.802 357.439 187.297C353.055 189.519 348.126 190.448 343.238 190.529C338.35 190.63 333.441 189.701 328.997 187.66C323.503 185.156 318.776 180.994 315.645 175.823C311.039 168.289 309.989 158.815 312.271 150.331C314.271 142.857 319.22 136.251 325.826 132.232ZM356.166 149.866C354.247 147.503 351.985 145.341 349.177 144.089C346.45 142.837 343.339 142.534 340.37 143.018C336.713 143.624 333.441 145.846 331.36 148.897C329.684 151.321 328.734 154.189 328.472 157.118C328.068 161.279 328.977 165.663 331.36 169.157C333.178 171.864 335.986 173.924 339.158 174.773C342.47 175.601 346.066 175.359 349.217 174.005C352.187 172.712 354.53 170.369 356.57 167.905C359.58 170.026 362.569 172.147 365.539 174.288C365.579 163.723 365.559 153.159 365.539 142.594C362.428 145.038 359.317 147.462 356.166 149.866Z" fill="white"/>
<path d="M455.247 130.595C461.933 128.252 469.326 128.111 476.174 129.909C482.679 131.626 488.436 135.827 492.253 141.342C488.011 144.554 483.891 147.887 479.628 151.058C478.093 149.159 476.336 147.402 474.235 146.129C471.508 144.432 468.195 143.766 465.024 144.089C461.792 144.331 458.721 145.846 456.479 148.149C453.772 150.917 452.237 154.714 451.975 158.552C451.894 160.794 451.914 163.057 452.54 165.218C453.449 168.693 455.489 171.925 458.459 174.005C462.499 176.874 468.013 177.136 472.538 175.298C475.629 174.025 478.012 171.601 480.133 169.097C484.295 172.127 488.537 175.076 492.718 178.106C490.597 180.954 488.213 183.62 485.385 185.762C481.729 188.59 477.326 190.387 472.781 191.175C468.357 191.923 463.792 191.983 459.388 191.094C454.096 190.044 449.086 187.6 445.046 184.024C440.218 179.823 436.865 174.046 435.451 167.804C433.673 159.946 434.704 151.381 438.744 144.372C442.319 137.968 448.339 133.019 455.247 130.595Z" fill="white"/>
<path d="M416.423 189.337C416.423 176.55 416.402 163.764 416.443 150.977C422.018 150.997 427.593 150.957 433.189 150.997C433.189 163.784 433.189 176.55 433.189 189.337C427.593 189.357 421.998 189.337 416.423 189.337Z" fill="white"/>
</g>
<defs>
<clipPath id="clip0_17_1496">
<rect width="202" height="202" fill="white" transform="translate(299 24)"/>
</clipPath>
</defs>
</svg>
