<svg width="800" height="250" viewBox="0 0 800 250" fill="none" xmlns="http://www.w3.org/2000/svg">
<g clip-path="url(#clip0_25_1898)">
<path d="M348.039 120.884C350.039 120.884 351.622 122.465 351.622 124.46C351.622 126.456 350.039 128.036 348.039 128.036C346.038 128.036 344.455 126.456 344.455 124.46C344.455 122.465 346.038 120.884 348.039 120.884Z" fill="#6EAADC"/>
<path d="M350.372 110.323C352.372 110.323 353.956 111.903 353.956 113.899C353.956 115.895 352.372 117.475 350.372 117.475C348.372 117.475 346.789 115.895 346.789 113.899C346.789 111.903 348.372 110.323 350.372 110.323Z" fill="#6EAADC"/>
<path d="M354.789 100.759C356.79 100.759 358.373 102.339 358.373 104.335C358.373 106.331 356.79 107.911 354.789 107.911C352.789 107.911 351.206 106.331 351.206 104.335C351.206 102.339 352.789 100.759 354.789 100.759Z" fill="#6EAADC"/>
<path d="M361.04 92.2761C363.04 92.2761 364.624 93.8563 364.624 95.8522C364.624 97.8481 363.04 99.4282 361.04 99.4282C359.04 99.4282 357.456 97.8481 357.456 95.8522C357.456 93.9394 359.04 92.2761 361.04 92.2761Z" fill="#6EAADC"/>
<path d="M368.791 85.2904C370.791 85.2904 372.374 86.8705 372.374 88.8664C372.374 90.8623 370.791 92.4424 368.791 92.4424C366.791 92.4424 365.207 90.8623 365.207 88.8664C365.207 86.9536 366.791 85.2904 368.791 85.2904Z" fill="#6EAADC"/>
<path d="M377.875 80.0511C379.875 80.0511 381.459 81.6312 381.459 83.6271C381.459 85.623 379.875 87.2031 377.875 87.2031C375.875 87.2031 374.291 85.623 374.291 83.6271C374.291 81.6312 375.875 80.0511 377.875 80.0511Z" fill="#6EAADC"/>
<path d="M388.043 76.7245C390.043 76.7245 391.626 78.3046 391.626 80.3006C391.626 82.2965 390.043 83.8766 388.043 83.8766C386.042 83.8766 384.459 82.2965 384.459 80.3006C384.459 78.3046 386.042 76.7245 388.043 76.7245Z" fill="#6EAADC"/>
<path d="M399.044 75.5602C401.044 75.5602 402.628 77.1403 402.628 79.1363C402.628 81.1322 401.044 82.7123 399.044 82.7123C397.044 82.7123 395.46 81.1322 395.46 79.1363C395.377 77.1403 397.044 75.5602 399.044 75.5602Z" fill="#6EAADC"/>
<path d="M409.962 76.7245C411.962 76.7245 413.545 78.3046 413.545 80.3006C413.545 82.2965 411.962 83.8766 409.962 83.8766C407.961 83.8766 406.378 82.2965 406.378 80.3006C406.378 78.3046 407.961 76.7245 409.962 76.7245Z" fill="#6EAADC"/>
<path d="M420.129 80.0511C422.13 80.0511 423.713 81.6312 423.713 83.6271C423.713 85.623 422.13 87.2031 420.129 87.2031C418.129 87.2031 416.546 85.623 416.546 83.6271C416.546 81.6312 418.129 80.0511 420.129 80.0511Z" fill="#6EAADC"/>
<path d="M429.214 85.2904C431.214 85.2904 432.797 86.8705 432.797 88.8664C432.797 90.8623 431.214 92.4424 429.214 92.4424C427.213 92.4424 425.63 90.8623 425.63 88.8664C425.63 86.9536 427.213 85.2904 429.214 85.2904Z" fill="#6EAADC"/>
<path d="M436.964 92.2761C438.965 92.2761 440.548 93.8563 440.548 95.8522C440.548 97.8481 438.965 99.4282 436.964 99.4282C434.964 99.4282 433.381 97.8481 433.381 95.8522C433.381 93.9394 434.964 92.2761 436.964 92.2761Z" fill="#6EAADC"/>
<path d="M443.215 100.759C445.215 100.759 446.799 102.339 446.799 104.335C446.799 106.331 445.215 107.911 443.215 107.911C441.215 107.911 439.631 106.331 439.631 104.335C439.631 102.339 441.215 100.759 443.215 100.759Z" fill="#6EAADC"/>
<path d="M447.632 110.323C449.632 110.323 451.216 111.903 451.216 113.899C451.216 115.895 449.632 117.475 447.632 117.475C445.632 117.475 444.048 115.895 444.048 113.899C444.048 111.903 445.632 110.323 447.632 110.323Z" fill="#6EAADC"/>
<path d="M450.049 120.884C452.049 120.884 453.633 122.465 453.633 124.46C453.633 126.456 452.049 128.036 450.049 128.036C448.049 128.036 446.465 126.456 446.465 124.46C446.465 122.465 448.049 120.884 450.049 120.884Z" fill="#6EAADC"/>
<path d="M357.54 120.884C359.54 120.884 361.123 122.465 361.123 124.46C361.123 126.456 359.54 128.036 357.54 128.036C355.539 128.036 353.956 126.456 353.956 124.46C353.956 122.465 355.539 120.884 357.54 120.884Z" fill="#6EAADC"/>
<path d="M360.457 110.323C362.457 110.323 364.04 111.903 364.04 113.899C364.04 115.895 362.457 117.475 360.457 117.475C358.456 117.475 356.873 115.895 356.873 113.899C356.873 111.986 358.54 110.323 360.457 110.323Z" fill="#6EAADC"/>
<path d="M365.957 101.091C367.957 101.091 369.541 102.672 369.541 104.667C369.541 106.663 367.957 108.244 365.957 108.244C363.957 108.244 362.373 106.663 362.373 104.667C362.373 102.672 363.957 101.091 365.957 101.091Z" fill="#6EAADC"/>
<path d="M373.458 93.6068C375.458 93.6068 377.042 95.1869 377.042 97.1828C377.042 99.1787 375.458 100.759 373.458 100.759C371.458 100.759 369.874 99.1787 369.874 97.1828C369.874 95.27 371.541 93.6068 373.458 93.6068Z" fill="#6EAADC"/>
<path d="M382.792 88.2011C384.792 88.2011 386.376 89.7812 386.376 91.7771C386.376 93.773 384.792 95.3531 382.792 95.3531C380.792 95.3531 379.208 93.773 379.208 91.7771C379.208 89.8643 380.792 88.2011 382.792 88.2011Z" fill="#6EAADC"/>
<path d="M393.377 85.3735C395.377 85.3735 396.96 86.9537 396.96 88.9496C396.96 90.9455 395.377 92.5256 393.377 92.5256C391.376 92.5256 389.793 90.9455 389.793 88.9496C389.793 86.9537 391.376 85.3735 393.377 85.3735Z" fill="#6EAADC"/>
<path d="M404.711 85.3735C406.711 85.3735 408.295 86.9537 408.295 88.9496C408.295 90.9455 406.711 92.5256 404.711 92.5256C402.711 92.5256 401.127 90.9455 401.127 88.9496C401.127 86.9537 402.711 85.3735 404.711 85.3735Z" fill="#6EAADC"/>
<path d="M415.295 88.2843C417.296 88.2843 418.879 89.8644 418.879 91.8603C418.879 93.8562 417.296 95.4363 415.295 95.4363C413.295 95.4363 411.712 93.8562 411.712 91.8603C411.712 89.8644 413.295 88.2843 415.295 88.2843Z" fill="#6EAADC"/>
<path d="M424.546 93.6068C426.547 93.6068 428.13 95.1869 428.13 97.1828C428.13 99.1787 426.547 100.759 424.546 100.759C422.546 100.759 420.963 99.1787 420.963 97.1828C420.963 95.27 422.63 93.6068 424.546 93.6068Z" fill="#6EAADC"/>
<path d="M432.131 101.175C434.131 101.175 435.714 102.755 435.714 104.751C435.714 106.747 434.131 108.327 432.131 108.327C430.13 108.327 428.547 106.747 428.547 104.751C428.547 102.755 430.13 101.175 432.131 101.175Z" fill="#6EAADC"/>
<path d="M437.631 110.323C439.631 110.323 441.215 111.903 441.215 113.899C441.215 115.895 439.631 117.475 437.631 117.475C435.631 117.475 434.047 115.895 434.047 113.899C434.047 111.986 435.631 110.323 437.631 110.323Z" fill="#6EAADC"/>
<path d="M440.548 120.884C442.548 120.884 444.132 122.465 444.132 124.46C444.132 126.456 442.548 128.036 440.548 128.036C438.548 128.036 436.964 126.456 436.964 124.46C436.964 122.465 438.631 120.884 440.548 120.884Z" fill="#6EAADC"/>
<path d="M367.124 120.884C369.124 120.884 370.708 122.465 370.708 124.46C370.708 126.456 369.124 128.036 367.124 128.036C365.124 128.036 363.54 126.456 363.54 124.46C363.54 122.465 365.124 120.884 367.124 120.884Z" fill="#6EAADC"/>
<path d="M370.458 111.487C372.458 111.487 374.041 113.067 374.041 115.063C374.041 117.059 372.458 118.639 370.458 118.639C368.457 118.639 366.874 117.059 366.874 115.063C366.874 113.067 368.457 111.487 370.458 111.487Z" fill="#6EAADC"/>
<path d="M376.292 103.67C378.292 103.67 379.875 105.25 379.875 107.246C379.875 109.242 378.292 110.822 376.292 110.822C374.291 110.822 372.708 109.242 372.708 107.246C372.708 105.25 374.375 103.67 376.292 103.67Z" fill="#6EAADC"/>
<path d="M384.292 97.9313C386.293 97.9313 387.876 99.5114 387.876 101.507C387.876 103.503 386.293 105.083 384.292 105.083C382.292 105.083 380.709 103.503 380.709 101.507C380.709 99.5114 382.292 97.9313 384.292 97.9313Z" fill="#6EAADC"/>
<path d="M393.793 94.8542C395.794 94.8542 397.377 96.4343 397.377 98.4302C397.377 100.426 395.794 102.006 393.793 102.006C391.793 102.006 390.21 100.426 390.21 98.4302C390.21 96.4343 391.793 94.8542 393.793 94.8542Z" fill="#6EAADC"/>
<path d="M404.211 94.8542C406.211 94.8542 407.795 96.4343 407.795 98.4302C407.795 100.426 406.211 102.006 404.211 102.006C402.211 102.006 400.627 100.426 400.627 98.4302C400.627 96.4343 402.211 94.8542 404.211 94.8542Z" fill="#6EAADC"/>
<path d="M413.712 97.9313C415.712 97.9313 417.296 99.5114 417.296 101.507C417.296 103.503 415.712 105.083 413.712 105.083C411.712 105.083 410.128 103.503 410.128 101.507C410.128 99.5114 411.712 97.9313 413.712 97.9313Z" fill="#6EAADC"/>
<path d="M421.713 103.67C423.713 103.67 425.297 105.25 425.297 107.246C425.297 109.242 423.713 110.822 421.713 110.822C419.713 110.822 418.129 109.242 418.129 107.246C418.129 105.25 419.713 103.67 421.713 103.67Z" fill="#6EAADC"/>
<path d="M427.547 111.487C429.547 111.487 431.13 113.067 431.13 115.063C431.13 117.059 429.547 118.639 427.547 118.639C425.547 118.639 423.963 117.059 423.963 115.063C423.963 113.067 425.63 111.487 427.547 111.487Z" fill="#6EAADC"/>
<path d="M430.88 120.884C432.881 120.884 434.464 122.465 434.464 124.46C434.464 126.456 432.881 128.036 430.88 128.036C428.88 128.036 427.297 126.456 427.297 124.46C427.297 122.465 428.964 120.884 430.88 120.884Z" fill="#6EAADC"/>
<path d="M376.792 120.884C378.792 120.884 380.375 122.465 380.375 124.46C380.375 126.456 378.792 128.036 376.792 128.036C374.791 128.036 373.208 126.456 373.208 124.46C373.208 122.465 374.791 120.884 376.792 120.884Z" fill="#6EAADC"/>
<path d="M382.709 110.655C384.709 110.655 386.293 112.235 386.293 114.231C386.293 116.227 384.709 117.807 382.709 117.807C380.709 117.807 379.125 116.227 379.125 114.231C379.125 112.319 380.709 110.655 382.709 110.655Z" fill="#6EAADC"/>
<path d="M392.877 104.751C394.877 104.751 396.46 106.331 396.46 108.327C396.46 110.323 394.877 111.903 392.877 111.903C390.876 111.903 389.293 110.323 389.293 108.327C389.293 106.331 390.876 104.751 392.877 104.751Z" fill="#6EAADC"/>
<path d="M405.128 104.751C407.128 104.751 408.711 106.331 408.711 108.327C408.711 110.323 407.128 111.903 405.128 111.903C403.128 111.903 401.544 110.323 401.544 108.327C401.544 106.331 403.211 104.751 405.128 104.751Z" fill="#6EAADC"/>
<path d="M415.379 110.655C417.379 110.655 418.963 112.235 418.963 114.231C418.963 116.227 417.379 117.807 415.379 117.807C413.379 117.807 411.795 116.227 411.795 114.231C411.795 112.235 413.379 110.655 415.379 110.655Z" fill="#6EAADC"/>
<path d="M421.296 120.884C423.296 120.884 424.88 122.465 424.88 124.46C424.88 126.456 423.296 128.036 421.296 128.036C419.296 128.036 417.712 126.456 417.712 124.46C417.712 122.465 419.296 120.884 421.296 120.884Z" fill="#6EAADC"/>
<path d="M526.057 120.884C528.057 120.884 529.64 122.465 529.64 124.46C529.64 126.456 528.057 128.036 526.057 128.036C524.057 128.036 522.473 126.456 522.473 124.46C522.473 122.465 524.057 120.884 526.057 120.884Z" fill="#6EAADC"/>
<path d="M524.973 109.491C526.974 109.491 528.557 111.071 528.557 113.067C528.557 115.063 526.974 116.643 524.973 116.643C522.973 116.643 521.39 115.063 521.39 113.067C521.39 111.071 523.056 109.491 524.973 109.491Z" fill="#6EAADC"/>
<path d="M522.973 98.3471C524.973 98.3471 526.557 99.9272 526.557 101.923C526.557 103.919 524.973 105.499 522.973 105.499C520.973 105.499 519.389 103.919 519.389 101.923C519.389 100.01 520.973 98.3471 522.973 98.3471Z" fill="#6EAADC"/>
<path d="M520.056 87.6189C522.056 87.6189 523.64 89.199 523.64 91.195C523.64 93.1909 522.056 94.771 520.056 94.771C518.056 94.771 516.472 93.1909 516.472 91.195C516.389 89.2822 518.056 87.6189 520.056 87.6189Z" fill="#6EAADC"/>
<path d="M516.139 77.3067C518.139 77.3067 519.723 78.8868 519.723 80.8827C519.723 82.8786 518.139 84.4587 516.139 84.4587C514.139 84.4587 512.555 82.8786 512.555 80.8827C512.555 78.8868 514.139 77.3067 516.139 77.3067Z" fill="#6EAADC"/>
<path d="M511.472 67.4102C513.472 67.4102 515.056 68.9903 515.056 70.9862C515.056 72.9821 513.472 74.5623 511.472 74.5623C509.472 74.5623 507.888 72.9821 507.888 70.9862C507.805 69.0734 509.472 67.4102 511.472 67.4102Z" fill="#6EAADC"/>
<path d="M505.888 58.0127C507.888 58.0127 509.472 59.5928 509.472 61.5887C509.472 63.5846 507.888 65.1647 505.888 65.1647C503.888 65.1647 502.304 63.5846 502.304 61.5887C502.304 59.6759 503.888 58.0127 505.888 58.0127Z" fill="#6EAADC"/>
<path d="M499.637 49.1973C501.638 49.1973 503.221 50.7775 503.221 52.7734C503.221 54.7693 501.638 56.3494 499.637 56.3494C497.637 56.3494 496.054 54.7693 496.054 52.7734C496.054 50.7775 497.637 49.1973 499.637 49.1973Z" fill="#6EAADC"/>
<path d="M492.637 40.8809C494.637 40.8809 496.22 42.4611 496.22 44.457C496.22 46.4529 494.637 48.033 492.637 48.033C490.636 48.033 489.053 46.4529 489.053 44.457C489.053 42.4611 490.636 40.8809 492.637 40.8809Z" fill="#6EAADC"/>
<path d="M484.969 33.313C486.969 33.313 488.553 34.8931 488.553 36.8891C488.553 38.885 486.969 40.4651 484.969 40.4651C482.969 40.4651 481.386 38.885 481.386 36.8891C481.386 34.8931 482.969 33.313 484.969 33.313Z" fill="#6EAADC"/>
<path d="M476.718 26.3273C478.719 26.3273 480.302 27.9074 480.302 29.9033C480.302 31.8993 478.719 33.4794 476.718 33.4794C474.718 33.4794 473.135 31.8993 473.135 29.9033C473.135 27.9074 474.718 26.3273 476.718 26.3273Z" fill="#6EAADC"/>
<path d="M467.801 20.0068C469.801 20.0068 471.385 21.5869 471.385 23.5828C471.385 25.5788 469.801 27.1589 467.801 27.1589C465.801 27.1589 464.217 25.5788 464.217 23.5828C464.217 21.6701 465.801 20.0068 467.801 20.0068Z" fill="#6EAADC"/>
<path d="M458.383 14.518C460.383 14.518 461.967 16.0981 461.967 18.0941C461.967 20.09 460.383 21.6701 458.383 21.6701C456.383 21.6701 454.799 20.09 454.799 18.0941C454.799 16.1813 456.383 14.518 458.383 14.518Z" fill="#6EAADC"/>
<path d="M448.466 9.86089C450.466 9.86089 452.049 11.441 452.049 13.4369C452.049 15.4328 450.466 17.013 448.466 17.013C446.465 17.013 444.882 15.4328 444.882 13.4369C444.882 11.441 446.465 9.86089 448.466 9.86089Z" fill="#6EAADC"/>
<path d="M438.131 6.03538C440.131 6.03538 441.715 7.61548 441.715 9.61141C441.715 11.6073 440.131 13.1874 438.131 13.1874C436.131 13.1874 434.547 11.6073 434.547 9.61141C434.547 7.61548 436.131 6.03538 438.131 6.03538Z" fill="#6EAADC"/>
<path d="M427.38 3.04143C429.38 3.04143 430.964 4.62158 430.964 6.61751C430.964 8.61344 429.38 10.1935 427.38 10.1935C425.38 10.1935 423.796 8.61344 423.796 6.61751C423.796 4.62158 425.38 3.04143 427.38 3.04143Z" fill="#6EAADC"/>
<path d="M416.296 1.04551C418.296 1.04551 419.879 2.62561 419.879 4.62154C419.879 6.61747 418.296 8.19757 416.296 8.19757C414.295 8.19757 412.712 6.61747 412.712 4.62154C412.712 2.62561 414.295 1.04551 416.296 1.04551Z" fill="#6EAADC"/>
<path d="M404.878 0.0475258C406.878 0.0475258 408.461 1.62763 408.461 3.62356C408.461 5.61948 406.878 7.19958 404.878 7.19958C402.878 7.19958 401.294 5.61948 401.294 3.62356C401.211 1.62763 402.878 0.0475258 404.878 0.0475258Z" fill="#6EAADC"/>
<path d="M393.21 0.0475258C395.21 0.0475258 396.794 1.62763 396.794 3.62356C396.794 5.61948 395.21 7.19958 393.21 7.19958C391.21 7.19958 389.626 5.61948 389.626 3.62356C389.626 1.62763 391.21 0.0475258 393.21 0.0475258Z" fill="#6EAADC"/>
<path d="M381.709 1.04551C383.709 1.04551 385.292 2.62561 385.292 4.62154C385.292 6.61747 383.709 8.19757 381.709 8.19757C379.709 8.19757 378.125 6.61747 378.125 4.62154C378.125 2.62561 379.792 1.04551 381.709 1.04551Z" fill="#6EAADC"/>
<path d="M370.624 3.04143C372.624 3.04143 374.208 4.62158 374.208 6.61751C374.208 8.61344 372.624 10.1935 370.624 10.1935C368.624 10.1935 367.041 8.61344 367.041 6.61751C367.041 4.62158 368.624 3.04143 370.624 3.04143Z" fill="#6EAADC"/>
<path d="M359.873 6.03538C361.873 6.03538 363.457 7.61548 363.457 9.61141C363.457 11.6073 361.873 13.1874 359.873 13.1874C357.873 13.1874 356.289 11.6073 356.289 9.61141C356.289 7.61548 357.873 6.03538 359.873 6.03538Z" fill="#6EAADC"/>
<path d="M349.539 9.86089C351.539 9.86089 353.122 11.441 353.122 13.4369C353.122 15.4328 351.539 17.013 349.539 17.013C347.539 17.013 345.955 15.4328 345.955 13.4369C345.955 11.441 347.539 9.86089 349.539 9.86089Z" fill="#6EAADC"/>
<path d="M339.621 14.518C341.621 14.518 343.205 16.0981 343.205 18.0941C343.205 20.09 341.621 21.6701 339.621 21.6701C337.621 21.6701 336.037 20.09 336.037 18.0941C336.037 16.1813 337.621 14.518 339.621 14.518Z" fill="#6EAADC"/>
<path d="M330.204 20.0068C332.204 20.0068 333.787 21.5869 333.787 23.5828C333.787 25.5788 332.204 27.1589 330.204 27.1589C328.203 27.1589 326.62 25.5788 326.62 23.5828C326.62 21.6701 328.203 20.0068 330.204 20.0068Z" fill="#6EAADC"/>
<path d="M321.369 26.3273C323.369 26.3273 324.953 27.9074 324.953 29.9033C324.953 31.8993 323.369 33.4794 321.369 33.4794C319.369 33.4794 317.786 31.8993 317.786 29.9033C317.786 27.9074 319.369 26.3273 321.369 26.3273Z" fill="#6EAADC"/>
<path d="M313.035 33.313C315.035 33.313 316.619 34.8931 316.619 36.8891C316.619 38.885 315.035 40.4651 313.035 40.4651C311.035 40.4651 309.451 38.885 309.451 36.8891C309.451 34.8931 311.035 33.313 313.035 33.313Z" fill="#6EAADC"/>
<path d="M305.368 40.8809C307.368 40.8809 308.951 42.4611 308.951 44.457C308.951 46.4529 307.368 48.033 305.368 48.033C303.367 48.033 301.784 46.4529 301.784 44.457C301.784 42.5442 303.367 40.8809 305.368 40.8809Z" fill="#6EAADC"/>
<path d="M298.367 49.1973C300.367 49.1973 301.951 50.7775 301.951 52.7734C301.951 54.7693 300.367 56.3494 298.367 56.3494C296.367 56.3494 294.783 54.7693 294.783 52.7734C294.783 50.7775 296.367 49.1973 298.367 49.1973Z" fill="#6EAADC"/>
<path d="M292.116 58.0127C294.116 58.0127 295.7 59.5928 295.7 61.5887C295.7 63.5846 294.116 65.1647 292.116 65.1647C290.116 65.1647 288.533 63.5846 288.533 61.5887C288.533 59.6759 290.116 58.0127 292.116 58.0127Z" fill="#6EAADC"/>
<path d="M286.616 67.4102C288.616 67.4102 290.199 68.9903 290.199 70.9862C290.199 72.9821 288.616 74.5623 286.616 74.5623C284.616 74.5623 283.032 72.9821 283.032 70.9862C283.032 69.0734 284.616 67.4102 286.616 67.4102Z" fill="#6EAADC"/>
<path d="M281.865 77.3067C283.865 77.3067 285.449 78.8868 285.449 80.8827C285.449 82.8786 283.865 84.4587 281.865 84.4587C279.865 84.4587 278.282 82.8786 278.282 80.8827C278.282 78.8868 279.865 77.3067 281.865 77.3067Z" fill="#6EAADC"/>
<path d="M278.032 87.6189C280.032 87.6189 281.615 89.199 281.615 91.195C281.615 93.1909 280.032 94.771 278.032 94.771C276.031 94.771 274.448 93.1909 274.448 91.195C274.364 89.2822 276.031 87.6189 278.032 87.6189Z" fill="#6EAADC"/>
<path d="M275.031 98.4302C277.031 98.4302 278.615 100.01 278.615 102.006C278.615 104.002 277.031 105.582 275.031 105.582C273.031 105.582 271.448 104.002 271.448 102.006C271.448 100.01 273.031 98.4302 275.031 98.4302Z" fill="#6EAADC"/>
<path d="M273.031 109.491C275.031 109.491 276.615 111.071 276.615 113.067C276.615 115.063 275.031 116.643 273.031 116.643C271.031 116.643 269.447 115.063 269.447 113.067C269.447 111.071 271.031 109.491 273.031 109.491Z" fill="#6EAADC"/>
<path d="M271.864 120.884C273.864 120.884 275.448 122.465 275.448 124.46C275.448 126.456 273.864 128.036 271.864 128.036C269.864 128.036 268.281 126.456 268.281 124.46C268.281 122.465 269.864 120.884 271.864 120.884Z" fill="#6EAADC"/>
<path d="M516.556 120.884C518.556 120.884 520.14 122.465 520.14 124.46C520.14 126.456 518.556 128.036 516.556 128.036C514.556 128.036 512.972 126.456 512.972 124.46C512.972 122.465 514.556 120.884 516.556 120.884Z" fill="#6EAADC"/>
<path d="M515.472 109.74C517.473 109.74 519.056 111.321 519.056 113.317C519.056 115.312 517.473 116.893 515.472 116.893C513.472 116.893 511.889 115.312 511.889 113.317C511.889 111.321 513.472 109.74 515.472 109.74Z" fill="#6EAADC"/>
<path d="M513.389 98.9292C515.389 98.9292 516.973 100.509 516.973 102.505C516.973 104.501 515.389 106.081 513.389 106.081C511.389 106.081 509.805 104.501 509.805 102.505C509.805 100.509 511.389 98.9292 513.389 98.9292Z" fill="#6EAADC"/>
<path d="M510.305 88.4506C512.305 88.4506 513.889 90.0307 513.889 92.0266C513.889 94.0226 512.305 95.6027 510.305 95.6027C508.305 95.6027 506.721 94.0226 506.721 92.0266C506.721 90.1139 508.305 88.4506 510.305 88.4506Z" fill="#6EAADC"/>
<path d="M506.305 78.4709C508.305 78.4709 509.888 80.051 509.888 82.047C509.888 84.0429 508.305 85.623 506.305 85.623C504.305 85.623 502.721 84.0429 502.721 82.047C502.721 80.051 504.305 78.4709 506.305 78.4709Z" fill="#6EAADC"/>
<path d="M501.471 68.9071C503.471 68.9071 505.055 70.4872 505.055 72.4832C505.055 74.4791 503.471 76.0592 501.471 76.0592C499.471 76.0592 497.887 74.4791 497.887 72.4832C497.887 70.4872 499.471 68.9071 501.471 68.9071Z" fill="#6EAADC"/>
<path d="M495.804 59.9254C497.804 59.9254 499.387 61.5055 499.387 63.5015C499.387 65.4974 497.804 67.0775 495.804 67.0775C493.804 67.0775 492.22 65.4974 492.22 63.5015C492.22 61.5055 493.804 59.9254 495.804 59.9254Z" fill="#6EAADC"/>
<path d="M489.303 51.4427C491.303 51.4427 492.887 53.0228 492.887 55.0187C492.887 57.0147 491.303 58.5948 489.303 58.5948C487.303 58.5948 485.719 57.0147 485.719 55.0187C485.719 53.0228 487.303 51.4427 489.303 51.4427Z" fill="#6EAADC"/>
<path d="M482.136 43.7085C484.136 43.7085 485.719 45.2886 485.719 47.2845C485.719 49.2804 484.136 50.8605 482.136 50.8605C480.135 50.8605 478.552 49.2804 478.552 47.2845C478.552 45.2886 480.135 43.7085 482.136 43.7085Z" fill="#6EAADC"/>
<path d="M474.301 36.4733C476.302 36.4733 477.885 38.0534 477.885 40.0493C477.885 42.0452 476.302 43.6254 474.301 43.6254C472.301 43.6254 470.718 42.0452 470.718 40.0493C470.718 38.1365 472.301 36.4733 474.301 36.4733Z" fill="#6EAADC"/>
<path d="M465.884 30.0696C467.884 30.0696 469.468 31.6498 469.468 33.6457C469.468 35.6416 467.884 37.2217 465.884 37.2217C463.884 37.2217 462.3 35.6416 462.3 33.6457C462.3 31.7329 463.884 30.0696 465.884 30.0696Z" fill="#6EAADC"/>
<path d="M456.8 24.4145C458.8 24.4145 460.383 25.9946 460.383 27.9906C460.383 29.9865 458.8 31.5667 456.8 31.5667C454.8 31.5667 453.216 29.9865 453.216 27.9906C453.216 26.0778 454.8 24.4145 456.8 24.4145Z" fill="#6EAADC"/>
<path d="M447.215 19.6742C449.216 19.6742 450.799 21.2543 450.799 23.2503C450.799 25.2462 449.216 26.8263 447.215 26.8263C445.215 26.8263 443.632 25.2462 443.632 23.2503C443.632 21.2543 445.215 19.6742 447.215 19.6742Z" fill="#6EAADC"/>
<path d="M437.214 15.6823C439.215 15.6823 440.798 17.2624 440.798 19.2583C440.798 21.2543 439.215 22.8344 437.214 22.8344C435.214 22.8344 433.631 21.2543 433.631 19.2583C433.631 17.2624 435.214 15.6823 437.214 15.6823Z" fill="#6EAADC"/>
<path d="M426.713 12.6053C428.714 12.6053 430.297 14.1854 430.297 16.1814C430.297 18.1773 428.714 19.7574 426.713 19.7574C424.713 19.7574 423.13 18.1773 423.13 16.1814C423.13 14.2686 424.713 12.6053 426.713 12.6053Z" fill="#6EAADC"/>
<path d="M415.879 10.5262C417.879 10.5262 419.463 12.1063 419.463 14.1023C419.463 16.0982 417.879 17.6783 415.879 17.6783C413.879 17.6783 412.295 16.0982 412.295 14.1023C412.295 12.1063 413.879 10.5262 415.879 10.5262Z" fill="#6EAADC"/>
<path d="M404.711 9.44506C406.711 9.44506 408.295 11.0252 408.295 13.0211C408.295 15.017 406.711 16.5972 404.711 16.5972C402.711 16.5972 401.127 15.017 401.127 13.0211C401.127 11.1083 402.711 9.44506 404.711 9.44506Z" fill="#6EAADC"/>
<path d="M393.293 9.44506C395.293 9.44506 396.877 11.0252 396.877 13.0211C396.877 15.017 395.293 16.5972 393.293 16.5972C391.293 16.5972 389.71 15.017 389.71 13.0211C389.71 11.1083 391.293 9.44506 393.293 9.44506Z" fill="#6EAADC"/>
<path d="M382.125 10.5262C384.126 10.5262 385.709 12.1063 385.709 14.1023C385.709 16.0982 384.126 17.6783 382.125 17.6783C380.125 17.6783 378.542 16.0982 378.542 14.1023C378.542 12.1063 380.125 10.5262 382.125 10.5262Z" fill="#6EAADC"/>
<path d="M371.291 12.6053C373.291 12.6053 374.875 14.1854 374.875 16.1814C374.875 18.1773 373.291 19.7574 371.291 19.7574C369.291 19.7574 367.707 18.1773 367.707 16.1814C367.707 14.2686 369.291 12.6053 371.291 12.6053Z" fill="#6EAADC"/>
<path d="M360.79 15.6823C362.79 15.6823 364.374 17.2624 364.374 19.2583C364.374 21.2543 362.79 22.8344 360.79 22.8344C358.79 22.8344 357.206 21.2543 357.206 19.2583C357.206 17.2624 358.79 15.6823 360.79 15.6823Z" fill="#6EAADC"/>
<path d="M350.789 19.6742C352.789 19.6742 354.373 21.2543 354.373 23.2503C354.373 25.2462 352.789 26.8263 350.789 26.8263C348.789 26.8263 347.205 25.2462 347.205 23.2503C347.205 21.2543 348.789 19.6742 350.789 19.6742Z" fill="#6EAADC"/>
<path d="M341.205 24.4145C343.205 24.4145 344.788 25.9946 344.788 27.9906C344.788 29.9865 343.205 31.5667 341.205 31.5667C339.204 31.5667 337.621 29.9865 337.621 27.9906C337.621 26.0778 339.204 24.4145 341.205 24.4145Z" fill="#6EAADC"/>
<path d="M332.204 30.0696C334.204 30.0696 335.787 31.6498 335.787 33.6457C335.787 35.6416 334.204 37.2217 332.204 37.2217C330.203 37.2217 328.62 35.6416 328.62 33.6457C328.537 31.7329 330.203 30.0696 332.204 30.0696Z" fill="#6EAADC"/>
<path d="M323.703 36.4733C325.703 36.4733 327.287 38.0534 327.287 40.0493C327.287 42.0452 325.703 43.6254 323.703 43.6254C321.703 43.6254 320.119 42.0452 320.119 40.0493C320.119 38.1365 321.703 36.4733 323.703 36.4733Z" fill="#6EAADC"/>
<path d="M315.869 43.7085C317.869 43.7085 319.452 45.2886 319.452 47.2845C319.452 49.2804 317.869 50.8605 315.869 50.8605C313.869 50.8605 312.285 49.2804 312.285 47.2845C312.285 45.2886 313.869 43.7085 315.869 43.7085Z" fill="#6EAADC"/>
<path d="M308.701 51.4427C310.702 51.4427 312.285 53.0228 312.285 55.0187C312.285 57.0147 310.702 58.5948 308.701 58.5948C306.701 58.5948 305.118 57.0147 305.118 55.0187C305.118 53.106 306.701 51.4427 308.701 51.4427Z" fill="#6EAADC"/>
<path d="M302.284 59.9254C304.284 59.9254 305.868 61.5055 305.868 63.5015C305.868 65.4974 304.284 67.0775 302.284 67.0775C300.284 67.0775 298.7 65.4974 298.7 63.5015C298.617 61.5055 300.284 59.9254 302.284 59.9254Z" fill="#6EAADC"/>
<path d="M296.617 68.9071C298.617 68.9071 300.2 70.4872 300.2 72.4832C300.2 74.4791 298.617 76.0592 296.617 76.0592C294.617 76.0592 293.033 74.4791 293.033 72.4832C293.033 70.4872 294.617 68.9071 296.617 68.9071Z" fill="#6EAADC"/>
<path d="M291.7 78.4709C293.7 78.4709 295.283 80.051 295.283 82.047C295.283 84.0429 293.7 85.623 291.7 85.623C289.699 85.623 288.116 84.0429 288.116 82.047C288.116 80.051 289.699 78.4709 291.7 78.4709Z" fill="#6EAADC"/>
<path d="M287.699 88.4506C289.699 88.4506 291.283 90.0307 291.283 92.0266C291.283 94.0226 289.699 95.6027 287.699 95.6027C285.699 95.6027 284.115 94.0226 284.115 92.0266C284.115 90.1139 285.782 88.4506 287.699 88.4506Z" fill="#6EAADC"/>
<path d="M284.616 98.9292C286.616 98.9292 288.199 100.509 288.199 102.505C288.199 104.501 286.616 106.081 284.616 106.081C282.615 106.081 281.032 104.501 281.032 102.505C281.032 100.509 282.615 98.9292 284.616 98.9292Z" fill="#6EAADC"/>
<path d="M282.532 109.74C284.532 109.74 286.116 111.321 286.116 113.317C286.116 115.312 284.532 116.893 282.532 116.893C280.532 116.893 278.948 115.312 278.948 113.317C278.948 111.321 280.532 109.74 282.532 109.74Z" fill="#6EAADC"/>
<path d="M281.449 120.884C283.449 120.884 285.032 122.465 285.032 124.46C285.032 126.456 283.449 128.036 281.449 128.036C279.448 128.036 277.865 126.456 277.865 124.46C277.865 122.465 279.448 120.884 281.449 120.884Z" fill="#6EAADC"/>
<path d="M507.138 120.884C509.138 120.884 510.722 122.465 510.722 124.46C510.722 126.456 509.138 128.036 507.138 128.036C505.138 128.036 503.555 126.456 503.555 124.46C503.555 122.465 505.138 120.884 507.138 120.884Z" fill="#6EAADC"/>
<path d="M505.971 110.073C507.972 110.073 509.555 111.653 509.555 113.649C509.555 115.645 507.972 117.225 505.971 117.225C503.971 117.225 502.388 115.645 502.388 113.649C502.388 111.653 503.971 110.073 505.971 110.073Z" fill="#6EAADC"/>
<path d="M503.721 99.5114C505.721 99.5114 507.305 101.091 507.305 103.087C507.305 105.083 505.721 106.663 503.721 106.663C501.721 106.663 500.138 105.083 500.138 103.087C500.138 101.091 501.721 99.5114 503.721 99.5114Z" fill="#6EAADC"/>
<path d="M500.554 89.4486C502.554 89.4486 504.138 91.0287 504.138 93.0246C504.138 95.0205 502.554 96.6006 500.554 96.6006C498.554 96.6006 496.97 95.0205 496.97 93.0246C496.97 91.0287 498.554 89.4486 500.554 89.4486Z" fill="#6EAADC"/>
<path d="M496.47 79.7184C498.471 79.7184 500.054 81.2985 500.054 83.2945C500.054 85.2904 498.471 86.8705 496.47 86.8705C494.47 86.8705 492.887 85.2904 492.887 83.2945C492.803 81.3817 494.47 79.7184 496.47 79.7184Z" fill="#6EAADC"/>
<path d="M491.47 70.5704C493.47 70.5704 495.054 72.1505 495.054 74.1464C495.054 76.1424 493.47 77.7225 491.47 77.7225C489.47 77.7225 487.886 76.1424 487.886 74.1464C487.886 72.1505 489.47 70.5704 491.47 70.5704Z" fill="#6EAADC"/>
<path d="M485.636 62.0045C487.636 62.0045 489.22 63.5846 489.22 65.5806C489.22 67.5765 487.636 69.1566 485.636 69.1566C483.636 69.1566 482.052 67.5765 482.052 65.5806C482.052 63.5846 483.636 62.0045 485.636 62.0045Z" fill="#6EAADC"/>
<path d="M478.969 54.0208C480.969 54.0208 482.552 55.6009 482.552 57.5968C482.552 59.5928 480.969 61.1729 478.969 61.1729C476.968 61.1729 475.385 59.5928 475.385 57.5968C475.385 55.6841 476.968 54.0208 478.969 54.0208Z" fill="#6EAADC"/>
<path d="M471.635 46.7024C473.635 46.7024 475.218 48.2825 475.218 50.2785C475.218 52.2744 473.635 53.8545 471.635 53.8545C469.634 53.8545 468.051 52.2744 468.051 50.2785C468.051 48.3657 469.634 46.7024 471.635 46.7024Z" fill="#6EAADC"/>
<path d="M463.634 40.1325C465.634 40.1325 467.217 41.7126 467.217 43.7085C467.217 45.7044 465.634 47.2845 463.634 47.2845C461.634 47.2845 460.05 45.7044 460.05 43.7085C460.05 41.7958 461.634 40.1325 463.634 40.1325Z" fill="#6EAADC"/>
<path d="M455.05 34.3942C457.05 34.3942 458.633 35.9743 458.633 37.9702C458.633 39.9661 457.05 41.5463 455.05 41.5463C453.049 41.5463 451.466 39.9661 451.466 37.9702C451.466 35.9743 453.049 34.3942 455.05 34.3942Z" fill="#6EAADC"/>
<path d="M445.882 29.4043C447.882 29.4043 449.466 30.9844 449.466 32.9804C449.466 34.9763 447.882 36.5565 445.882 36.5565C443.882 36.5565 442.298 34.9763 442.298 32.9804C442.215 30.9844 443.882 29.4043 445.882 29.4043Z" fill="#6EAADC"/>
<path d="M436.131 25.3293C438.131 25.3293 439.715 26.9094 439.715 28.9054C439.715 30.9013 438.131 32.4814 436.131 32.4814C434.131 32.4814 432.547 30.9013 432.547 28.9054C432.547 26.9094 434.131 25.3293 436.131 25.3293Z" fill="#6EAADC"/>
<path d="M426.047 22.1691C428.047 22.1691 429.63 23.7492 429.63 25.7451C429.63 27.7411 428.047 29.3212 426.047 29.3212C424.046 29.3212 422.463 27.7411 422.463 25.7451C422.38 23.8324 424.046 22.1691 426.047 22.1691Z" fill="#6EAADC"/>
<path d="M415.462 20.0068C417.462 20.0068 419.046 21.5869 419.046 23.5828C419.046 25.5788 417.462 27.1589 415.462 27.1589C413.462 27.1589 411.878 25.5788 411.878 23.5828C411.878 21.6701 413.462 20.0068 415.462 20.0068Z" fill="#6EAADC"/>
<path d="M404.544 18.9257C406.545 18.9257 408.128 20.5058 408.128 22.5017C408.128 24.4977 406.545 26.0778 404.544 26.0778C402.544 26.0778 400.961 24.4977 400.961 22.5017C400.961 20.589 402.544 18.9257 404.544 18.9257Z" fill="#6EAADC"/>
<path d="M393.46 18.9257C395.46 18.9257 397.044 20.5058 397.044 22.5017C397.044 24.4977 395.46 26.0778 393.46 26.0778C391.46 26.0778 389.876 24.4977 389.876 22.5017C389.876 20.5058 391.46 18.9257 393.46 18.9257Z" fill="#6EAADC"/>
<path d="M382.542 20.0068C384.542 20.0068 386.126 21.5869 386.126 23.5828C386.126 25.5788 384.542 27.1589 382.542 27.1589C380.542 27.1589 378.958 25.5788 378.958 23.5828C378.958 21.5869 380.625 20.0068 382.542 20.0068Z" fill="#6EAADC"/>
<path d="M372.041 22.1691C374.041 22.1691 375.625 23.7492 375.625 25.7451C375.625 27.7411 374.041 29.3212 372.041 29.3212C370.041 29.3212 368.457 27.7411 368.457 25.7451C368.457 23.8324 370.041 22.1691 372.041 22.1691Z" fill="#6EAADC"/>
<path d="M361.873 25.3293C363.874 25.3293 365.457 26.9094 365.457 28.9054C365.457 30.9013 363.874 32.4814 361.873 32.4814C359.873 32.4814 358.29 30.9013 358.29 28.9054C358.29 26.9094 359.873 25.3293 361.873 25.3293Z" fill="#6EAADC"/>
<path d="M352.206 29.4043C354.206 29.4043 355.789 30.9844 355.789 32.9804C355.789 34.9763 354.206 36.5565 352.206 36.5565C350.206 36.5565 348.622 34.9763 348.622 32.9804C348.622 30.9844 350.206 29.4043 352.206 29.4043Z" fill="#6EAADC"/>
<path d="M342.955 34.3942C344.955 34.3942 346.538 35.9743 346.538 37.9702C346.538 39.9661 344.955 41.5463 342.955 41.5463C340.955 41.5463 339.371 39.9661 339.371 37.9702C339.371 35.9743 340.955 34.3942 342.955 34.3942Z" fill="#6EAADC"/>
<path d="M334.371 40.1325C336.371 40.1325 337.954 41.7126 337.954 43.7085C337.954 45.7044 336.371 47.2845 334.371 47.2845C332.37 47.2845 330.787 45.7044 330.787 43.7085C330.787 41.7958 332.37 40.1325 334.371 40.1325Z" fill="#6EAADC"/>
<path d="M326.37 46.7024C328.37 46.7024 329.953 48.2825 329.953 50.2785C329.953 52.2744 328.37 53.8545 326.37 53.8545C324.37 53.8545 322.786 52.2744 322.786 50.2785C322.786 48.3657 324.37 46.7024 326.37 46.7024Z" fill="#6EAADC"/>
<path d="M319.036 54.0208C321.036 54.0208 322.619 55.6009 322.619 57.5968C322.619 59.5928 321.036 61.1729 319.036 61.1729C317.036 61.1729 315.452 59.5928 315.452 57.5968C315.452 55.6841 317.036 54.0208 319.036 54.0208Z" fill="#6EAADC"/>
<path d="M312.452 62.0045C314.452 62.0045 316.035 63.5846 316.035 65.5806C316.035 67.5765 314.452 69.1566 312.452 69.1566C310.451 69.1566 308.868 67.5765 308.868 65.5806C308.785 63.5846 310.451 62.0045 312.452 62.0045Z" fill="#6EAADC"/>
<path d="M306.534 70.5704C308.535 70.5704 310.118 72.1505 310.118 74.1464C310.118 76.1424 308.535 77.7225 306.534 77.7225C304.534 77.7225 302.951 76.1424 302.951 74.1464C302.951 72.2337 304.618 70.5704 306.534 70.5704Z" fill="#6EAADC"/>
<path d="M301.534 79.7184C303.534 79.7184 305.118 81.2985 305.118 83.2945C305.118 85.2904 303.534 86.8705 301.534 86.8705C299.534 86.8705 297.95 85.2904 297.95 83.2945C297.95 81.3817 299.534 79.7184 301.534 79.7184Z" fill="#6EAADC"/>
<path d="M297.45 89.4486C299.45 89.4486 301.034 91.0287 301.034 93.0246C301.034 95.0205 299.45 96.6006 297.45 96.6006C295.45 96.6006 293.866 95.0205 293.866 93.0246C293.866 91.0287 295.45 89.4486 297.45 89.4486Z" fill="#6EAADC"/>
<path d="M294.283 99.5114C296.283 99.5114 297.867 101.091 297.867 103.087C297.867 105.083 296.283 106.663 294.283 106.663C292.283 106.663 290.699 105.083 290.699 103.087C290.616 101.091 292.283 99.5114 294.283 99.5114Z" fill="#6EAADC"/>
<path d="M292.033 110.073C294.033 110.073 295.617 111.653 295.617 113.649C295.617 115.645 294.033 117.225 292.033 117.225C290.033 117.225 288.449 115.645 288.449 113.649C288.449 111.653 290.116 110.073 292.033 110.073Z" fill="#6EAADC"/>
<path d="M290.866 120.884C292.866 120.884 294.45 122.465 294.45 124.46C294.45 126.456 292.866 128.036 290.866 128.036C288.866 128.036 287.282 126.456 287.282 124.46C287.282 122.465 288.949 120.884 290.866 120.884Z" fill="#6EAADC"/>
<path d="M497.637 120.884C499.637 120.884 501.221 122.465 501.221 124.46C501.221 126.456 499.637 128.036 497.637 128.036C495.637 128.036 494.054 126.456 494.054 124.46C494.054 122.465 495.637 120.884 497.637 120.884Z" fill="#6EAADC"/>
<path d="M496.22 109.158C498.221 109.158 499.804 110.738 499.804 112.734C499.804 114.73 498.221 116.31 496.22 116.31C494.22 116.31 492.637 114.73 492.637 112.734C492.637 110.738 494.22 109.158 496.22 109.158Z" fill="#6EAADC"/>
<path d="M493.47 97.9313C495.47 97.9313 497.054 99.5114 497.054 101.507C497.054 103.503 495.47 105.083 493.47 105.083C491.47 105.083 489.886 103.503 489.886 101.507C489.886 99.5114 491.47 97.9313 493.47 97.9313Z" fill="#6EAADC"/>
<path d="M489.47 87.2031C491.47 87.2031 493.053 88.7833 493.053 90.7792C493.053 92.7751 491.47 94.3552 489.47 94.3552C487.469 94.3552 485.886 92.7751 485.886 90.7792C485.886 88.7833 487.469 87.2031 489.47 87.2031Z" fill="#6EAADC"/>
<path d="M484.303 77.0571C486.303 77.0571 487.886 78.6372 487.886 80.6332C487.886 82.6291 486.303 84.2092 484.303 84.2092C482.302 84.2092 480.719 82.6291 480.719 80.6332C480.719 78.7204 482.302 77.0571 484.303 77.0571Z" fill="#6EAADC"/>
<path d="M478.052 67.7428C480.052 67.7428 481.636 69.3229 481.636 71.3189C481.636 73.3148 480.052 74.8949 478.052 74.8949C476.052 74.8949 474.468 73.3148 474.468 71.3189C474.468 69.3229 476.052 67.7428 478.052 67.7428Z" fill="#6EAADC"/>
<path d="M470.801 59.177C472.801 59.177 474.385 60.7571 474.385 62.753C474.385 64.7489 472.801 66.329 470.801 66.329C468.801 66.329 467.217 64.7489 467.217 62.753C467.217 60.7571 468.884 59.177 470.801 59.177Z" fill="#6EAADC"/>
<path d="M462.634 51.4427C464.634 51.4427 466.217 53.0228 466.217 55.0187C466.217 57.0147 464.634 58.5948 462.634 58.5948C460.633 58.5948 459.05 57.0147 459.05 55.0187C459.05 53.0228 460.717 51.4427 462.634 51.4427Z" fill="#6EAADC"/>
<path d="M453.633 44.7065C455.633 44.7065 457.216 46.2866 457.216 48.2825C457.216 50.2784 455.633 51.8585 453.633 51.8585C451.633 51.8585 450.049 50.2784 450.049 48.2825C450.049 46.2866 451.633 44.7065 453.633 44.7065Z" fill="#6EAADC"/>
<path d="M443.882 38.9682C445.882 38.9682 447.465 40.5483 447.465 42.5442C447.465 44.5401 445.882 46.1203 443.882 46.1203C441.882 46.1203 440.298 44.5401 440.298 42.5442C440.298 40.5483 441.882 38.9682 443.882 38.9682Z" fill="#6EAADC"/>
<path d="M433.464 34.3942C435.464 34.3942 437.048 35.9743 437.048 37.9702C437.048 39.9661 435.464 41.5463 433.464 41.5463C431.464 41.5463 429.88 39.9661 429.88 37.9702C429.88 35.9743 431.547 34.3942 433.464 34.3942Z" fill="#6EAADC"/>
<path d="M422.463 31.0676C424.463 31.0676 426.047 32.6477 426.047 34.6436C426.047 36.6396 424.463 38.2197 422.463 38.2197C420.463 38.2197 418.879 36.6396 418.879 34.6436C418.879 32.6477 420.463 31.0676 422.463 31.0676Z" fill="#6EAADC"/>
<path d="M410.962 28.9054C412.962 28.9054 414.545 30.4855 414.545 32.4814C414.545 34.4773 412.962 36.0574 410.962 36.0574C408.962 36.0574 407.378 34.4773 407.378 32.4814C407.378 30.5686 408.962 28.9054 410.962 28.9054Z" fill="#6EAADC"/>
<path d="M399.044 28.2401C401.044 28.2401 402.628 29.8202 402.628 31.8161C402.628 33.8121 401.044 35.3922 399.044 35.3922C397.044 35.3922 395.46 33.8121 395.46 31.8161C395.377 29.8202 397.044 28.2401 399.044 28.2401Z" fill="#6EAADC"/>
<path d="M387.043 28.9054C389.043 28.9054 390.626 30.4855 390.626 32.4814C390.626 34.4773 389.043 36.0574 387.043 36.0574C385.042 36.0574 383.459 34.4773 383.459 32.4814C383.459 30.5686 385.042 28.9054 387.043 28.9054Z" fill="#6EAADC"/>
<path d="M375.541 31.0676C377.542 31.0676 379.125 32.6477 379.125 34.6436C379.125 36.6396 377.542 38.2197 375.541 38.2197C373.541 38.2197 371.958 36.6396 371.958 34.6436C371.958 32.6477 373.541 31.0676 375.541 31.0676Z" fill="#6EAADC"/>
<path d="M364.54 34.3942C366.541 34.3942 368.124 35.9743 368.124 37.9702C368.124 39.9661 366.541 41.5463 364.54 41.5463C362.54 41.5463 360.957 39.9661 360.957 37.9702C360.957 35.9743 362.54 34.3942 364.54 34.3942Z" fill="#6EAADC"/>
<path d="M354.123 38.9682C356.123 38.9682 357.706 40.5483 357.706 42.5442C357.706 44.5401 356.123 46.1203 354.123 46.1203C352.122 46.1203 350.539 44.5401 350.539 42.5442C350.539 40.5483 352.122 38.9682 354.123 38.9682Z" fill="#6EAADC"/>
<path d="M344.372 44.7065C346.372 44.7065 347.955 46.2866 347.955 48.2825C347.955 50.2784 346.372 51.8585 344.372 51.8585C342.371 51.8585 340.788 50.2784 340.788 48.2825C340.788 46.2866 342.371 44.7065 344.372 44.7065Z" fill="#6EAADC"/>
<path d="M335.371 51.4427C337.371 51.4427 338.954 53.0228 338.954 55.0187C338.954 57.0147 337.371 58.5948 335.371 58.5948C333.37 58.5948 331.787 57.0147 331.787 55.0187C331.787 53.0228 333.37 51.4427 335.371 51.4427Z" fill="#6EAADC"/>
<path d="M327.203 59.177C329.203 59.177 330.787 60.7571 330.787 62.753C330.787 64.7489 329.203 66.329 327.203 66.329C325.203 66.329 323.62 64.7489 323.62 62.753C323.62 60.7571 325.203 59.177 327.203 59.177Z" fill="#6EAADC"/>
<path d="M319.952 67.7428C321.953 67.7428 323.536 69.3229 323.536 71.3189C323.536 73.3148 321.953 74.8949 319.952 74.8949C317.952 74.8949 316.369 73.3148 316.369 71.3189C316.369 69.3229 317.952 67.7428 319.952 67.7428Z" fill="#6EAADC"/>
<path d="M313.702 77.0571C315.702 77.0571 317.286 78.6372 317.286 80.6332C317.286 82.6291 315.702 84.2092 313.702 84.2092C311.702 84.2092 310.118 82.6291 310.118 80.6332C310.118 78.7204 311.702 77.0571 313.702 77.0571Z" fill="#6EAADC"/>
<path d="M308.535 87.2031C310.535 87.2031 312.118 88.7833 312.118 90.7792C312.118 92.7751 310.535 94.3552 308.535 94.3552C306.534 94.3552 304.951 92.7751 304.951 90.7792C304.951 88.7833 306.534 87.2031 308.535 87.2031Z" fill="#6EAADC"/>
<path d="M304.534 97.9313C306.534 97.9313 308.118 99.5114 308.118 101.507C308.118 103.503 306.534 105.083 304.534 105.083C302.534 105.083 300.951 103.503 300.951 101.507C300.951 99.5114 302.534 97.9313 304.534 97.9313Z" fill="#6EAADC"/>
<path d="M301.784 109.158C303.784 109.158 305.368 110.738 305.368 112.734C305.368 114.73 303.784 116.31 301.784 116.31C299.784 116.31 298.2 114.73 298.2 112.734C298.2 110.738 299.784 109.158 301.784 109.158Z" fill="#6EAADC"/>
<path d="M300.367 120.884C302.367 120.884 303.951 122.465 303.951 124.46C303.951 126.456 302.367 128.036 300.367 128.036C298.367 128.036 296.783 126.456 296.783 124.46C296.783 122.465 298.367 120.884 300.367 120.884Z" fill="#6EAADC"/>
<path d="M311.031 120.863C313.039 120.863 314.622 122.442 314.622 124.446C314.622 126.45 313.039 128.029 311.031 128.029C309.023 128.029 307.44 126.45 307.44 124.446C307.464 122.442 309.047 120.863 311.031 120.863Z" fill="white"/>
<path d="M312.543 109.477C314.551 109.477 316.134 111.056 316.134 113.06C316.134 115.064 314.551 116.643 312.543 116.643C310.535 116.643 308.952 115.064 308.952 113.06C308.952 111.056 310.535 109.477 312.543 109.477Z" fill="white"/>
<path d="M315.449 98.5856C317.457 98.5856 319.04 100.165 319.04 102.169C319.04 104.173 317.457 105.752 315.449 105.752C313.441 105.752 311.858 104.173 311.858 102.169C311.858 100.165 313.464 98.5856 315.449 98.5856Z" fill="white"/>
<path d="M318.449 88.2603C320.457 88.2603 322.04 89.8397 322.04 91.8435C322.04 93.8472 320.457 95.4267 318.449 95.4267C319.583 95.4267 314.858 93.8472 314.858 91.8435C314.858 89.8397 316.441 88.2603 318.449 88.2603Z" fill="white"/>
<path d="M324.544 78.6185C326.552 78.6185 328.135 80.198 328.135 82.2017C328.135 84.2055 326.552 85.785 324.544 85.785C322.536 85.785 320.953 84.2055 320.953 82.2017C320.953 80.2687 322.536 78.6185 324.544 78.6185Z" fill="white"/>
<path d="M331.041 69.8019C333.049 69.8019 334.632 71.3814 334.632 73.3852C334.632 75.3889 333.049 76.9684 331.041 76.9684C329.033 76.9684 327.45 75.3889 327.45 73.3852C327.45 71.3814 329.033 69.8019 331.041 69.8019Z" fill="white"/>
<path d="M338.53 61.9047C340.538 61.9047 342.12 63.4842 342.12 65.4879C342.12 67.4917 340.538 69.0712 338.53 69.0712C336.522 69.0712 334.939 67.4917 334.939 65.4879C334.868 63.4842 336.545 61.9047 338.53 61.9047Z" fill="white"/>
<path d="M346.278 54.8326C348.286 54.8326 349.869 56.412 349.869 58.4158C349.869 60.4196 348.286 61.999 346.278 61.999C344.27 61.999 342.688 60.4196 342.688 58.4158C342.688 56.412 344.27 54.8326 346.278 54.8326Z" fill="white"/>
<path d="M355.539 48.9156C357.547 48.9156 359.13 50.495 359.13 52.4988C359.13 54.5026 357.547 56.082 355.539 56.082C353.531 56.082 351.948 54.5026 351.948 52.4988C351.948 50.5893 353.531 48.9156 355.539 48.9156Z" fill="white"/>
<path d="M365.532 44.1772C367.54 44.1772 369.123 45.7567 369.123 47.7605C369.123 49.7642 367.54 51.3437 365.532 51.3437C363.524 51.3437 361.941 49.7642 361.941 47.7605C361.941 45.7567 363.524 44.1772 365.532 44.1772Z" fill="white"/>
<path d="M376.187 40.6176C378.195 40.6176 379.778 42.1971 379.778 44.2008C379.778 46.2046 378.195 47.784 376.187 47.784C374.179 47.784 372.596 46.2046 372.596 44.2008C372.525 42.1971 374.202 40.6176 376.187 40.6176Z" fill="white"/>
<path d="M387.361 38.4488C389.369 38.4488 390.952 40.0282 390.952 42.032C390.952 44.0358 389.369 45.6152 387.361 45.6152C385.353 45.6152 383.77 44.0358 383.77 42.032C383.77 40.0282 385.377 38.4488 387.361 38.4488Z" fill="white"/>
<path d="M399.031 37.6945C401.039 37.6945 402.622 39.2739 402.622 41.2777C402.622 43.2814 401.039 44.8609 399.031 44.8609C397.023 44.8609 395.44 43.2814 395.44 41.2777C395.37 39.2739 397.023 37.6945 399.031 37.6945Z" fill="white"/>
<path d="M410.607 38.4488C412.615 38.4488 414.198 40.0282 414.198 42.032C414.198 44.0358 412.615 45.6152 410.607 45.6152C408.599 45.6152 407.016 44.0358 407.016 42.032C407.04 40.0282 408.623 38.4488 410.607 38.4488Z" fill="white"/>
<path d="M421.782 40.6176C423.79 40.6176 425.372 42.1971 425.372 44.2008C425.372 46.2046 423.79 47.784 421.782 47.784C419.773 47.784 418.191 46.2046 418.191 44.2008C418.191 42.1971 419.773 40.6176 421.782 40.6176Z" fill="white"/>
<path d="M432.46 44.1772C434.468 44.1772 436.051 45.7567 436.051 47.7605C436.051 49.7642 434.468 51.3437 432.46 51.3437C430.452 51.3437 428.869 49.7642 428.869 47.7605C428.869 45.7567 430.452 44.1772 432.46 44.1772Z" fill="white"/>
<path d="M442.453 48.9156C444.461 48.9156 446.044 50.495 446.044 52.4988C446.044 54.5026 444.461 56.082 442.453 56.082C440.445 56.082 438.862 54.5026 438.862 52.4988C438.862 50.5893 440.445 48.9156 442.453 48.9156Z" fill="white"/>
<path d="M451.714 54.8326C453.722 54.8326 455.304 56.412 455.304 58.4158C455.304 60.4196 453.722 61.999 451.714 61.999C449.705 61.999 448.123 60.4196 448.123 58.4158C448.123 56.412 449.705 54.8326 451.714 54.8326Z" fill="white"/>
<path d="M460.124 61.9047C462.132 61.9047 463.715 63.4842 463.715 65.4879C463.715 67.4917 462.132 69.0712 460.124 69.0712C458.116 69.0712 456.533 67.4917 456.533 65.4879C456.533 63.4842 458.116 61.9047 460.124 61.9047Z" fill="white"/>
<path d="M467.707 69.8019C469.715 69.8019 471.298 71.3814 471.298 73.3852C471.298 75.3889 469.715 76.9684 467.707 76.9684C465.699 76.9684 464.116 75.3889 464.116 73.3852C464.045 71.3814 465.699 69.8019 467.707 69.8019Z" fill="white"/>
<path d="M474.133 78.6185C476.141 78.6185 477.724 80.198 477.724 82.2017C477.724 84.2055 476.141 85.785 474.133 85.785C472.125 85.785 470.542 84.2055 470.542 82.2017C470.542 80.2687 472.196 78.6185 474.133 78.6185Z" fill="white"/>
<path d="M479.543 88.2603C481.551 88.2603 483.134 89.8397 483.134 91.8435C483.134 93.8472 481.551 95.4267 479.543 95.4267C477.535 95.4267 475.952 93.8472 475.952 91.8435C475.952 89.8397 477.535 88.2603 479.543 88.2603Z" fill="white"/>
<path d="M483.701 98.5856C485.709 98.5856 487.292 100.165 487.292 102.169C487.292 104.173 485.709 105.752 483.701 105.752C481.693 105.752 480.11 104.173 480.11 102.169C480.11 100.165 481.716 98.5856 483.701 98.5856Z" fill="white"/>
<path d="M486.63 109.477C488.638 109.477 490.221 111.056 490.221 113.06C490.221 115.064 488.638 116.643 486.63 116.643C484.622 116.643 483.039 115.064 483.039 113.06C483.039 111.056 484.622 109.477 486.63 109.477Z" fill="white"/>
<path d="M488.118 120.863C490.127 120.863 491.709 122.442 491.709 124.446C491.709 126.45 490.127 128.029 488.118 128.029C486.11 128.029 484.528 126.45 484.528 124.446C484.551 122.442 486.134 120.863 488.118 120.863Z" fill="white"/>
<path d="M320.528 120.863C322.536 120.863 324.119 122.442 324.119 124.446C324.119 126.45 322.536 128.029 320.528 128.029C318.52 128.029 316.937 126.45 316.937 124.446C316.961 122.442 318.543 120.863 320.528 120.863Z" fill="white"/>
<path d="M322.04 110.302C324.048 110.302 325.631 111.881 325.631 113.885C325.631 115.889 324.048 117.468 322.04 117.468C320.032 117.468 318.449 115.889 318.449 113.885C318.449 111.952 320.032 110.302 322.04 110.302Z" fill="white"/>
<path d="M323.694 100.236C328.844 100.236 327.284 101.815 327.284 103.819C327.284 105.823 325.702 107.402 323.694 107.402C321.685 107.402 320.103 105.823 320.103 103.819C320.103 101.909 321.685 100.236 323.694 100.236Z" fill="white"/>
<path d="M328.442 90.8298C330.45 90.8298 332.033 92.4092 332.033 94.413C332.033 96.4168 330.45 97.9962 328.442 97.9962C326.434 97.9962 324.851 96.4168 324.851 94.413C324.851 92.4092 326.458 90.8298 328.442 90.8298Z" fill="white"/>
<path d="M333.616 82.0132C335.624 82.0132 337.207 83.5926 337.207 85.5964C337.207 87.6002 335.624 89.1796 333.616 89.1796C331.608 89.1796 330.025 87.6002 330.025 85.5964C330.025 83.5926 331.608 82.0132 333.616 82.0132Z" fill="white"/>
<path d="M339.876 73.9509C341.884 73.9509 343.467 75.5304 343.467 77.5341C343.467 79.5379 341.884 81.1174 339.876 81.1174C337.868 81.1174 336.285 79.5379 336.285 77.5341C336.285 75.6247 337.868 73.9509 339.876 73.9509Z" fill="white"/>
<path d="M347.129 66.8788C349.137 66.8788 350.72 68.4582 350.72 70.462C350.72 72.4658 349.137 74.0452 347.129 74.0452C345.121 74.0452 343.538 72.4658 343.538 70.462C343.538 68.4582 345.121 66.8788 347.129 66.8788Z" fill="white"/>
<path d="M354.523 60.6553C356.531 60.6553 358.114 62.2348 358.114 64.2386C358.114 66.2423 356.531 67.8218 354.523 67.8218C352.515 67.8218 350.932 66.2423 350.932 64.2386C350.861 62.2348 352.539 60.6553 354.523 60.6553Z" fill="white"/>
<path d="M363.359 55.4927C365.367 55.4927 366.95 57.0721 366.95 59.0759C366.95 61.0797 365.367 62.6591 363.359 62.6591C361.351 62.6591 359.768 61.0797 359.768 59.0759C359.768 57.0721 361.351 55.4927 363.359 55.4927Z" fill="white"/>
<path d="M372.856 51.5087C374.864 51.5087 376.447 53.0881 376.447 55.0919C376.447 57.0957 374.864 58.6751 372.856 58.6751C370.848 58.6751 369.265 57.0957 369.265 55.0919C369.288 53.0881 370.871 51.5087 372.856 51.5087Z" fill="white"/>
<path d="M382.943 48.7505C384.951 48.7505 386.534 50.33 386.534 52.3338C386.534 54.3375 384.951 55.917 382.943 55.917C380.935 55.917 379.352 54.3375 379.352 52.3338C379.376 50.33 380.959 48.7505 382.943 48.7505Z" fill="white"/>
<path d="M393.527 47.3361C395.535 47.3361 397.118 48.9156 397.118 50.9193C397.118 52.9231 395.535 54.5026 393.527 54.5026C391.519 54.5026 389.936 52.9231 389.936 50.9193C389.96 48.9156 391.542 47.3361 393.527 47.3361Z" fill="white"/>
<path d="M404.441 47.3361C406.449 47.3361 408.032 48.9156 408.032 50.9193C408.032 52.9231 406.449 54.5026 404.441 54.5026C402.433 54.5026 400.85 52.9231 400.85 50.9193C400.78 48.9156 402.457 47.3361 404.441 47.3361Z" fill="white"/>
<path d="M415.025 48.7505C417.033 48.7505 418.616 50.33 418.616 52.3338C418.616 54.3375 417.033 55.917 415.025 55.917C413.017 55.917 411.434 54.3375 411.434 52.3338C411.363 50.33 413.041 48.7505 415.025 48.7505Z" fill="white"/>
<path d="M425.113 51.5087C427.121 51.5087 428.703 53.0881 428.703 55.0919C428.703 57.0957 427.121 58.6751 425.113 58.6751C423.104 58.6751 421.522 57.0957 421.522 55.0919C421.522 53.0881 423.128 51.5087 425.113 51.5087Z" fill="white"/>
<path d="M434.61 55.4927C436.618 55.4927 438.2 57.0721 438.2 59.0759C438.2 61.0797 436.618 62.6591 434.61 62.6591C432.601 62.6591 431.019 61.0797 431.019 59.0759C431.042 57.0721 432.625 55.4927 434.61 55.4927Z" fill="white"/>
<path d="M443.445 60.6553C445.453 60.6553 447.036 62.2348 447.036 64.2386C447.036 66.2423 445.453 67.8218 443.445 67.8218C441.437 67.8218 439.854 66.2423 439.854 64.2386C439.878 62.2348 441.461 60.6553 443.445 60.6553Z" fill="white"/>
<path d="M451.548 66.8081C453.556 66.8081 455.139 68.3876 455.139 70.3913C455.139 72.3951 453.556 73.9745 451.548 73.9745C449.54 73.9745 447.957 72.3951 447.957 70.3913C447.957 68.4583 449.54 66.8081 451.548 66.8081Z" fill="white"/>
<path d="M458.801 73.9509C460.809 73.9509 462.392 75.5304 462.392 77.5341C462.392 79.5379 460.809 81.1174 458.801 81.1174C456.793 81.1174 455.21 79.5379 455.21 77.5341C455.115 75.6247 456.793 73.9509 458.801 73.9509Z" fill="white"/>
<path d="M464.967 82.0132C466.975 82.0132 468.558 83.5926 468.558 85.5964C468.558 87.6002 466.975 89.1796 464.967 89.1796C462.959 89.1796 461.376 87.6002 461.376 85.5964C461.376 83.5926 462.959 82.0132 464.967 82.0132Z" fill="white"/>
<path d="M470.211 90.8298C472.219 90.8298 473.802 92.4092 473.802 94.413C473.802 96.4168 472.219 97.9962 470.211 97.9962C468.203 97.9962 466.62 96.4168 466.62 94.413C466.62 92.4092 468.203 90.8298 470.211 90.8298Z" fill="white"/>
<path d="M474.298 100.236C476.306 100.236 477.889 101.815 477.889 103.819C477.889 105.823 476.306 107.402 474.298 107.402C472.29 107.402 470.707 105.823 470.707 103.819C470.613 101.909 472.29 100.236 474.298 100.236Z" fill="white"/>
<path d="M477.133 110.302C479.141 110.302 480.724 111.881 480.724 113.885C480.724 115.889 479.141 117.468 477.133 117.468C475.125 117.468 473.542 115.889 473.542 113.885C473.448 111.952 475.125 110.302 477.133 110.302Z" fill="white"/>
<path d="M478.622 120.863C480.63 120.863 482.212 122.442 482.212 124.446C482.212 126.45 480.63 128.029 478.622 128.029C476.613 128.029 475.031 126.45 475.031 124.446C475.031 122.442 476.613 120.863 478.622 120.863Z" fill="white"/>
<path d="M330.048 120.863C332.057 120.863 333.639 122.442 333.639 124.446C333.639 126.45 332.057 128.029 330.048 128.029C328.04 128.029 326.458 126.45 326.458 124.446C326.458 122.442 328.04 120.863 330.048 120.863Z" fill="white"/>
<path d="M332.033 109.147C334.041 109.147 335.624 110.726 335.624 112.73C335.624 114.734 334.041 116.313 332.033 116.313C330.025 116.313 328.442 114.734 328.442 112.73C328.466 110.797 330.048 109.147 332.033 109.147Z" fill="white"/>
<path d="M335.884 98.2319C337.892 98.2319 339.475 99.8114 339.475 101.815C339.475 103.819 337.892 105.398 335.884 105.398C333.876 105.398 332.293 103.819 332.293 101.815C332.293 99.8114 333.876 98.2319 335.884 98.2319Z" fill="white"/>
<path d="M340.183 88.1895C343.987 88.1895 343.774 89.769 343.774 91.7727C343.774 93.7765 342.191 95.3559 340.183 95.3559C338.175 95.3559 336.592 93.7765 336.592 91.7727C336.616 89.8397 338.199 88.1895 340.183 88.1895Z" fill="white"/>
<path d="M347.861 79.2786C349.869 79.2786 351.452 80.8581 351.452 82.8618C351.452 84.8656 349.869 86.4451 347.861 86.4451C345.853 86.4451 344.27 84.8656 344.27 82.8618C344.294 80.8581 345.877 79.2786 347.861 79.2786Z" fill="white"/>
<path d="M356.201 71.5464C358.209 71.5464 359.791 73.1258 359.791 75.1296C359.791 77.1334 358.209 78.7128 356.201 78.7128C354.193 78.7128 352.61 77.1334 352.61 75.1296C352.61 73.1258 354.287 71.5464 356.201 71.5464Z" fill="white"/>
<path d="M365.107 65.2286C367.115 65.2286 368.698 66.8081 368.698 68.8118C368.698 70.8156 367.115 72.3951 365.107 72.3951C363.099 72.3951 361.516 70.8156 361.516 68.8118C361.54 66.8788 363.123 65.2286 365.107 65.2286Z" fill="white"/>
<path d="M375.62 60.561C377.628 60.561 379.211 62.1405 379.211 64.1443C379.211 66.148 377.628 67.7275 375.62 67.7275C373.612 67.7275 372.029 66.148 372.029 64.1443C372.029 62.1405 373.612 60.561 375.62 60.561Z" fill="white"/>
<path d="M386.959 57.5671C388.967 57.5671 390.55 59.1466 390.55 61.1504C390.55 63.1541 388.967 64.7336 386.959 64.7336C384.951 64.7336 383.368 63.1541 383.368 61.1504C383.368 59.2409 384.951 57.5671 386.959 57.5671Z" fill="white"/>
<path d="M398.961 56.5771C400.969 56.5771 402.551 58.1565 402.551 60.1603C402.551 62.1641 400.969 63.7435 398.961 63.7435C396.952 63.7435 395.37 62.1641 395.37 60.1603C395.37 58.1565 396.952 56.5771 398.961 56.5771Z" fill="white"/>
<path d="M411.033 57.5671C413.041 57.5671 414.623 59.1466 414.623 61.1504C414.623 63.1541 413.041 64.7336 411.033 64.7336C409.024 64.7336 407.442 63.1541 407.442 61.1504C407.371 59.2409 409.024 57.5671 411.033 57.5671Z" fill="white"/>
<path d="M422.372 60.561C424.38 60.561 425.963 62.1405 425.963 64.1443C425.963 66.148 424.38 67.7275 422.372 67.7275C420.364 67.7275 418.781 66.148 418.781 64.1443C418.71 62.1405 420.364 60.561 422.372 60.561Z" fill="white"/>
<path d="M432.861 65.2286C434.869 65.2286 436.452 66.8081 436.452 68.8118C436.452 70.8156 434.869 72.3715 432.861 72.3715C430.853 72.3715 429.27 70.792 429.27 68.7883C429.294 66.8788 430.877 65.2286 432.861 65.2286Z" fill="white"/>
<path d="M442.382 71.5464C444.39 71.5464 445.973 73.1258 445.973 75.1296C445.973 77.1334 444.39 78.7128 442.382 78.7128C440.374 78.7128 438.791 77.1334 438.791 75.1296C438.791 73.1258 440.374 71.5464 442.382 71.5464Z" fill="white"/>
<path d="M450.792 79.2786C452.8 79.2786 454.383 80.8581 454.383 82.8618C454.383 84.8656 452.8 86.4451 450.792 86.4451C448.784 86.4451 447.201 84.8656 447.201 82.8618C447.13 80.8581 448.784 79.2786 450.792 79.2786Z" fill="white"/>
<path d="M457.714 88.1895C459.722 88.1895 461.305 89.769 461.305 91.7727C461.305 93.7765 459.722 95.3559 457.714 95.3559C455.706 95.3559 454.123 93.7765 454.123 91.7727C454.123 89.8397 455.8 88.1895 457.714 88.1895Z" fill="white"/>
<path d="M463.289 98.2319C465.297 98.2319 466.88 99.8114 466.88 101.815C466.88 103.819 465.297 105.398 463.289 105.398C461.281 105.398 459.698 103.819 459.698 101.815C459.628 99.8114 461.281 98.2319 463.289 98.2319Z" fill="white"/>
<path d="M467.117 109.147C469.125 109.147 470.707 110.726 470.707 112.73C470.707 114.734 469.125 116.313 467.117 116.313C465.108 116.313 463.526 114.734 463.526 112.73C463.549 110.797 465.132 109.147 467.117 109.147Z" fill="white"/>
<path d="M469.125 120.863C471.133 120.863 472.715 122.442 472.715 124.446C472.715 126.45 471.133 128.029 469.125 128.029C467.117 128.029 465.534 126.45 465.534 124.446C465.534 122.442 467.117 120.863 469.125 120.863Z" fill="white"/>
<path d="M339.545 120.863C341.554 120.863 343.136 122.442 343.136 124.446C343.136 126.45 341.554 128.029 339.545 128.029C337.537 128.029 335.955 126.45 335.955 124.446C335.955 122.442 337.537 120.863 339.545 120.863Z" fill="white"/>
<path d="M341.695 109.642C343.703 109.642 345.286 111.221 345.286 113.225C345.286 115.229 343.703 116.808 341.695 116.808C339.687 116.808 338.104 115.229 338.104 113.225C338.128 111.292 339.711 109.642 341.695 109.642Z" fill="white"/>
<path d="M345.877 99.3163C347.885 99.3163 349.468 100.896 349.468 102.9C349.468 104.903 347.885 106.483 345.877 106.483C343.869 106.483 342.286 104.903 342.286 102.9C342.215 100.896 343.869 99.3163 345.877 99.3163Z" fill="white"/>
<path d="M351.192 90.0047C353.2 90.0047 354.783 91.5841 354.783 93.5879C354.783 95.5917 353.2 97.1711 351.192 97.1711C349.184 97.1711 347.601 95.5917 347.601 93.5879C347.625 91.5841 349.208 90.0047 351.192 90.0047Z" fill="white"/>
<path d="M358.61 81.9424C360.618 81.9424 362.201 83.5219 362.201 85.5257C362.201 87.5294 360.618 89.1089 358.61 89.1089C356.602 89.1089 355.019 87.5294 355.019 85.5257C355.019 83.5219 356.626 81.9424 358.61 81.9424Z" fill="white"/>
<path d="M366.69 75.2946C368.698 75.2946 370.281 76.8741 370.281 78.8778C370.281 80.8816 368.698 82.461 366.69 82.461C364.682 82.461 363.099 80.8816 363.099 78.8778C363.099 76.8741 366.501 75.2946 366.69 75.2946Z" fill="white"/>
<path d="M376.612 70.297C378.62 70.297 380.203 71.8764 380.203 73.8802C380.203 75.884 378.62 77.4634 376.612 77.4634C374.604 77.4634 373.021 75.884 373.021 73.8802C373.021 71.8764 374.604 70.297 376.612 70.297Z" fill="white"/>
<path d="M387.456 67.1381C389.464 67.1381 391.046 68.7176 391.046 70.7213C391.046 72.7251 389.464 74.3046 387.456 74.3046C385.447 74.3046 383.865 72.7251 383.865 70.7213C383.865 68.7176 385.447 67.1381 387.456 67.1381Z" fill="white"/>
<path d="M399.031 66.0537C401.039 66.0537 402.622 67.6332 402.622 69.6369C402.622 71.6407 401.039 73.2201 399.031 73.2201C397.023 73.2201 395.44 71.6407 395.44 69.6369C395.44 67.6332 397.023 66.0537 399.031 66.0537Z" fill="white"/>
<path d="M410.536 67.1381C412.544 67.1381 414.127 68.7176 414.127 70.7213C414.127 72.7251 412.544 74.3046 410.536 74.3046C408.528 74.3046 406.945 72.7251 406.945 70.7213C406.945 68.7176 408.623 67.1381 410.536 67.1381Z" fill="white"/>
<path d="M421.38 70.297C423.388 70.297 424.971 71.8764 424.971 73.8802C424.971 75.884 423.388 77.4634 421.38 77.4634C419.372 77.4634 417.789 75.884 417.789 73.8802C417.789 71.8764 419.443 70.297 421.38 70.297Z" fill="white"/>
<path d="M431.279 75.2946C433.287 75.2946 434.869 76.8741 434.869 78.8778C434.869 80.8816 433.287 82.461 431.279 82.461C429.27 82.461 427.688 80.8816 427.688 78.8778C427.688 76.8741 429.294 75.2946 431.279 75.2946Z" fill="white"/>
<path d="M440.043 81.9424C442.051 81.9424 443.634 83.5219 443.634 85.5257C443.634 87.5294 442.051 89.1089 440.043 89.1089C438.035 89.1089 436.452 87.5294 436.452 85.5257C436.452 83.5219 438.035 81.9424 440.043 81.9424Z" fill="white"/>
<path d="M447.461 90.0047C449.469 90.0047 451.052 91.5841 451.052 93.5879C451.052 95.5917 449.469 97.1711 447.461 97.1711C445.453 97.1711 443.87 95.5917 443.87 93.5879C443.87 91.5841 445.453 90.0047 447.461 90.0047Z" fill="white"/>
<path d="M453.367 99.3163C455.375 99.3163 456.958 100.896 456.958 102.9C456.958 104.903 455.375 106.483 453.367 106.483C451.359 106.483 449.776 104.903 449.776 102.9C449.705 100.896 451.383 99.3163 453.367 99.3163Z" fill="white"/>
<path d="M457.454 109.642C459.462 109.642 461.045 111.221 461.045 113.225C461.045 115.229 459.462 116.808 457.454 116.808C455.446 116.808 453.863 115.229 453.863 113.225C453.863 111.292 455.446 109.642 457.454 109.642Z" fill="white"/>
<path d="M459.628 120.863C461.636 120.863 463.219 122.442 463.219 124.446C463.219 126.45 461.636 128.029 459.628 128.029C457.62 128.029 456.037 126.45 456.037 124.446C456.037 122.442 457.62 120.863 459.628 120.863Z" fill="white"/>
<path d="M233.024 158.793H248.12C260.877 158.793 269.618 167.515 269.618 178.925V179.019C269.618 190.405 260.782 199.222 248.12 199.222H233.024V158.793ZM240.111 165.182V192.716H248.12C256.624 192.716 262.2 186.987 262.2 179.066V178.972C262.2 171.075 256.624 165.252 248.12 165.252L240.111 165.182Z" fill="white"/>
<path d="M276.351 158.793H283.438V199.199H276.351V158.793Z" fill="white"/>
<path d="M292.013 158.793H308.007C317.504 158.793 323.434 164.191 323.434 172.277V172.372C323.434 181.447 316.181 186.186 307.275 186.186H299.266V199.151H292.179V158.793H292.013ZM307.346 179.75C312.756 179.75 316.087 176.756 316.087 172.513V172.419C316.087 167.68 312.661 165.182 307.346 165.182H299.101V179.727L307.346 179.75Z" fill="white"/>
<path d="M327.686 181.99V158.699H334.773V181.66C334.773 189.156 338.695 193.14 345.026 193.14C351.358 193.14 355.185 189.392 355.185 181.919V158.628H362.272V181.589C362.272 193.659 355.445 199.717 344.861 199.717C334.443 199.788 327.686 193.706 327.686 181.99Z" fill="white"/>
<path d="M379.872 165.347H367.044V158.769H399.882V165.347H387.03V199.198H379.872V165.347Z" fill="white"/>
<path d="M419.443 158.463H426.034L443.87 199.198H436.358L432.271 189.462H413.111L408.954 199.198H401.701L419.443 158.463ZM429.625 183.145L422.632 167.02L415.71 183.145H429.625Z" fill="white"/>
<path d="M448.548 158.793H463.644C476.401 158.793 485.142 167.515 485.142 178.925V179.019C485.142 190.405 476.306 199.222 463.644 199.222H448.548V158.793ZM455.612 165.182V192.716H463.62C472.125 192.716 477.7 186.987 477.7 179.066V178.972C477.7 171.075 472.125 165.252 463.62 165.252L455.612 165.182Z" fill="white"/>
<path d="M489.63 179.066V178.972C489.63 167.586 498.466 158.109 510.892 158.109C523.319 158.109 531.989 167.515 531.989 178.901V178.996C531.989 190.382 523.153 199.859 510.727 199.859C498.301 199.859 489.63 190.476 489.63 179.066ZM524.547 179.066V178.972C524.547 171.146 518.806 164.592 510.798 164.592C502.718 164.592 497.119 171.004 497.119 178.901V178.996C497.119 186.822 502.86 193.305 510.869 193.305C518.972 193.305 524.547 186.893 524.547 179.066Z" fill="white"/>
<path d="M535.627 193.305L539.879 188.237C543.801 191.561 547.723 193.47 552.636 193.47C557.054 193.47 559.795 191.396 559.795 188.402V188.307C559.795 185.408 558.212 183.899 550.628 182.155C542.053 180.08 537.115 177.487 537.115 170.085V169.991C537.115 163.083 542.856 158.274 550.959 158.274C556.865 158.274 561.543 160.113 565.63 163.343L561.803 168.741C558.141 166.007 554.479 164.592 550.794 164.592C546.636 164.592 544.203 166.761 544.203 169.425V169.331C544.203 172.489 546.045 173.833 553.865 175.648C562.44 177.723 566.858 180.811 566.858 187.459V187.624C566.858 195.191 560.858 199.694 552.353 199.694C546.376 199.694 540.47 197.619 535.627 193.305Z" fill="white"/>
<path d="M280.768 220.745H285.446L298.038 249.529H292.699L289.793 242.621H276.209L273.303 249.529H268.129L280.768 220.745ZM288.021 238.119L283.107 226.638L278.193 238.119H288.021Z" fill="white"/>
<path d="M303.778 220.91H316.535C320.126 220.91 322.961 221.994 324.78 223.739C326.292 225.318 327.119 227.393 327.119 229.892V229.986C327.119 234.653 324.284 237.482 320.363 238.637L328.111 249.458H322.111L315.118 239.486H308.787V249.458H303.778V220.91ZM316.11 235.054C319.701 235.054 322.016 233.145 322.016 230.316V230.222C322.016 227.133 319.772 225.483 316.11 225.483H308.787V235.054H316.11Z" fill="white"/>
<path d="M332.86 235.29C332.86 227.228 339.026 220.415 347.601 220.415C352.61 220.415 355.681 221.829 358.61 224.328L355.445 228.147C353.2 226.238 351.027 225.059 347.436 225.059C342.191 225.059 338.175 229.632 338.175 235.125V235.219C338.175 241.113 342.097 245.45 347.932 245.45C350.602 245.45 353.106 244.625 354.854 243.281V237.954H347.53V233.545H359.697V245.521C356.862 247.925 352.775 250.024 347.79 250.024C338.766 250.024 332.86 243.611 332.86 235.29Z" fill="white"/>
<path d="M367.021 220.91H388.282V225.413H372.123V232.815H386.463V237.317H372.123V245.049H388.542V249.552H367.115V220.91H367.021Z" fill="white"/>
<path d="M395.11 220.91H399.787L415.12 240.712V220.91H420.033V249.528H415.875L400.024 229.137V249.505H395.11V220.91Z" fill="white"/>
<path d="M435.295 225.554H426.199V220.886H449.446V225.554H440.35V249.505H435.271V225.554H435.295Z" fill="white"/>
<path d="M455.871 220.91H460.88V249.528H455.871V220.91Z" fill="white"/>
<path d="M469.29 220.91H473.968L489.3 240.712V220.91H494.214V249.528H490.032L474.204 229.161V249.528H469.29V220.91Z" fill="white"/>
<path d="M512.546 220.745H517.224L529.815 249.529H524.476L521.571 242.621H507.987L505.081 249.529H499.907L512.546 220.745ZM519.704 238.119L514.79 226.638L509.877 238.119H519.704Z" fill="white"/>
</g>
<defs>
<clipPath id="clip0_25_1898">
<rect width="334" height="250" fill="white" transform="translate(233)"/>
</clipPath>
</defs>
</svg>
