<svg width="800" height="250" viewBox="0 0 800 250" fill="none" xmlns="http://www.w3.org/2000/svg">
<path d="M400.5 34.9986H580V214.245H400.5V34.9986Z" fill="white"/>
<path d="M221 34.9986H400.5V214.245H221V34.9986Z" fill="black"/>
<path d="M385.66 84.9643L341.078 110.439C334.545 99.9656 325.245 95.958 316.58 95.8854C300.799 95.7533 287.19 108.408 287.198 124.55C287.19 141.155 300.843 153.199 315.777 153.453C324.704 153.603 335.566 148.636 341.085 138.789L385.664 164.329C369.458 192.231 341.676 204.829 315.717 204.784C274.554 204.716 235.831 171.844 235.835 124.618C235.834 77.6391 274.715 44.1969 315.874 44.4612C342.567 44.6348 369.778 57.1779 385.664 84.961L385.66 84.9643Z" fill="white"/>
<path d="M413.356 47.8112H464.617L515.932 111.885V47.8112H567.152L567.155 201.433H515.934L464.619 137.466V201.433H413.345L413.356 47.8112Z" fill="black"/>
</svg>
