<svg width="800" height="250" viewBox="0 0 800 250" fill="none" xmlns="http://www.w3.org/2000/svg">
<g clip-path="url(#clip0_13_673)">
<path d="M483.21 20H316.79C304.756 20 295 29.7556 295 41.7896V208.21C295 220.244 304.756 230 316.79 230H483.21C495.244 230 505 220.244 505 208.21V41.7896C505 29.7556 495.244 20 483.21 20Z" fill="white"/>
<path d="M363.733 205.139C361.1 202.799 362.855 201.775 362.709 200.752C360.954 193.44 355.104 189.053 358.175 186.713C357.548 184.869 356.816 183.062 355.982 181.302C346.915 176.183 339.311 167.701 337.994 166.532C336.678 165.362 333.754 163.022 333.169 161.705C332.583 160.39 320.446 144.596 317.96 139.185L313.719 138.6C311.818 130.557 305.237 123.83 305.091 115.933C305.283 112.262 305.922 108.628 306.992 105.111C307.841 103.799 308.876 102.617 310.063 101.601V99.4079C300.704 99.7004 303.336 98.6769 301.727 95.0206C300.119 91.3645 301.435 91.9496 301.874 90.1948C303.19 85.0763 307.284 77.0333 309.039 73.3772C310.794 69.7211 311.379 67.0889 311.379 67.0889C318.399 52.9036 321.031 53.9272 329.366 53.0498L329.805 52.4649C338.141 52.1726 336.825 51.4414 337.994 43.3982C336.825 43.983 336.386 40.912 336.386 40.912C335.655 36.3785 337.702 37.2559 338.579 37.1097C338.726 29.6514 339.603 27.1654 345.014 25.1181H316.79C307.582 25.1181 300.119 32.5819 300.119 41.7894V208.21C300.119 217.417 307.582 224.881 316.79 224.881H365.926C360.223 221.81 363.586 216.107 363.733 205.139Z" fill="#00438C"/>
<path d="M483.21 25.1183H349.986C352.01 25.6618 353.741 26.9735 354.812 28.7744C356.859 28.9206 359.345 33.6002 355.543 40.3274C357.298 41.4973 355.982 43.1059 354.665 45.007C353.349 46.9082 353.934 46.762 352.911 46.6156C351.448 49.6867 349.693 52.6115 348.377 52.7579C347.796 53.4112 347.736 54.3768 348.231 55.0977C350.185 55.8949 352.008 56.9793 353.642 58.3149V59.0462C355.105 59.9235 355.836 60.6548 357.444 61.5321C361.393 64.0181 366.365 68.5516 365.78 84.053C366.95 87.4165 367.388 93.9973 368.412 96.191C369.436 98.3846 371.922 103.064 372.507 106.867C372.507 106.867 373.092 112.57 373.823 113.301H374.262C377.626 114.032 377.04 114.471 377.333 115.056L378.21 115.787C379.088 116.226 380.55 116.664 380.55 118.273L381.281 119.443C381.728 120.143 382.119 120.876 382.451 121.636C383.622 124.948 383.622 128.561 382.451 131.873V132.312C381.16 135.515 378.777 138.156 375.724 139.77H375.432L374.993 140.063C373.026 140.995 370.881 141.494 368.705 141.526C360.538 140.441 354.797 132.942 355.881 124.776C356.594 119.409 360.158 114.849 365.195 112.863C363.44 108.622 359.931 101.748 358.907 99.5547C357.883 97.3611 355.397 83.1758 354.958 80.3971C354.52 77.6188 348.524 84.0532 348.524 84.3457C348.524 84.6382 343.844 96.0448 343.698 96.6299C343.592 97.2578 343.543 97.8943 343.552 98.531C343.552 98.531 345.745 98.8233 346.915 102.479C348.085 106.136 351.888 119.736 351.888 119.736L350.864 120.759C355.543 136.406 353.935 143.134 355.982 147.813C358.029 152.493 359.345 153.371 361.539 158.928C363.733 164.485 364.902 178.524 365.634 179.109C368.12 182.326 369.582 184.812 369.582 186.567C369.582 188.322 367.389 193.733 368.266 196.95C369.143 200.167 368.997 202.946 369.875 203.677C370.752 204.408 370.606 205.285 370.313 205.871C370.15 206.137 370.05 206.437 370.021 206.748C371.337 211.72 375.87 220.056 368.705 224.443L368.266 224.736H483.503C492.596 224.656 499.948 217.304 500.028 208.211V41.7896C499.947 32.5586 492.442 25.1179 483.21 25.1183Z" fill="#DA1A32"/>
<path d="M479.993 64.7491H463.321L459.666 125.439L457.18 165.508L454.693 126.024L450.599 64.7493H433.196L445.919 185.397H466.978L479.993 64.7491ZM387.862 79.8118H400.293V185.251H416.525V79.8118H429.248V64.603H387.862V79.8118Z" fill="white"/>
<path d="M326.003 214.499V184.373H331.852C335.216 184.373 337.263 186.128 337.263 190.369V194.903C337.263 197.681 336.386 198.997 335.216 199.729C336.612 200.738 337.387 202.397 337.263 204.116V208.503C337.263 212.598 335.069 214.499 331.852 214.499L326.003 214.499ZM330.097 201.337V210.696H331.706C333.022 210.696 333.461 209.965 333.461 208.503V203.384C333.461 201.922 333.022 201.337 331.706 201.337H330.097ZM330.097 188.176V198.12H331.56C333.022 198.12 333.315 197.681 333.315 195.926V190.077C333.315 188.614 332.876 188.029 331.56 188.029H330.097V188.176ZM346.915 208.357H343.259L342.82 214.499H338.726L342.382 184.373H348.085L351.595 214.499H347.354L346.915 208.357ZM345.014 187.737H344.868C344.575 191.392 344.137 197.681 343.99 199.729L343.552 204.993H346.623L346.184 199.729C346.038 197.681 345.452 191.392 345.014 187.737ZM314.157 214.499H310.648V184.373H316.205L320.738 209.088C320.3 203.238 319.861 196.072 319.861 189.93V184.373H323.371V214.498H318.252L313.719 190.369C314.011 195.926 314.157 200.46 314.157 204.993V214.499Z" fill="white"/>
</g>
<defs>
<clipPath id="clip0_13_673">
<rect width="210" height="210" fill="white" transform="translate(295 20)"/>
</clipPath>
</defs>
</svg>
