<svg width="800" height="250" viewBox="0 0 800 250" fill="none" xmlns="http://www.w3.org/2000/svg">
<g clip-path="url(#clip0_17_943)">
<path d="M487.991 139.395C470.117 141.482 434.649 164.963 461.498 192.042H461.503C466.924 197.511 471.62 206.858 471.255 215.109C470.543 231.207 456.913 243.68 440.81 242.971C425.689 242.306 413.763 230.261 412.946 215.47C408.537 176.496 349.973 168.145 325.599 192.445C319.981 198.651 311.843 202.298 302.828 201.898C286.764 201.194 274.319 187.588 275.029 171.511C275.522 160.272 283.936 150.321 295.044 148.412C323.672 145.117 346.754 113.555 331.356 86.6661C328.298 81.3201 325.883 75.3896 326.176 68.7463C326.812 54.3028 337.855 42.7784 351.738 41.0984C364.855 39.0782 372.418 29.4663 379.494 20.4081C385.202 12.2574 394.674 7.58821 404.609 8.02916C420.67 8.73501 433.115 22.3428 432.41 38.4168C432.117 45.0378 429.381 50.8385 425.708 55.7709C422.577 59.9718 419.217 65.858 419.241 72.8413C419.286 85.6373 432.297 97.6043 445.31 98.9904C453.337 99.8449 464.859 97.9854 471.861 92.2275C480.707 84.9434 485.461 82.901 495.109 83.2104C511.246 83.7299 520.961 98.2931 520.096 112.465C519.112 128.544 505.865 137.139 487.994 139.397V139.393L487.991 139.395Z" fill="#FF6700"/>
<path d="M313.597 71.385C313.589 79.5921 306.939 86.2404 298.744 86.2319C290.549 86.2404 283.9 79.5921 283.892 71.385C283.9 63.178 290.549 56.5296 298.744 56.5382C306.939 56.5296 313.589 63.178 313.597 71.385Z" fill="#FF6700"/>
<path d="M516.066 154.197C521.005 154.197 525 150.21 525 145.276C525 140.342 521.007 136.382 516.066 136.382C511.124 136.382 507.131 140.369 507.131 145.276C507.131 150.183 511.124 154.197 516.066 154.197Z" fill="#16BCCB"/>
<path d="M500.67 153.7V129.457C500.67 127.698 501.772 124.76 503.797 123.972C505.872 123.184 507.765 124.102 510.024 124.943C517.512 127.802 523.319 124.025 524.24 119.144C525.159 114.263 521.928 109.566 517.014 108.676C510.996 107.548 506.767 109.436 501.853 113.215C501.512 113.478 500.566 114.29 500.249 114.553C499.094 110.906 495.678 108.283 491.657 108.283C486.692 108.283 482.644 112.297 482.644 117.283V153.7H500.668H500.67Z" fill="#16BCCB"/>
<path d="M470.846 105.476C475.786 105.476 479.781 101.489 479.781 96.5548C479.781 91.6207 475.788 87.6334 470.846 87.6334C465.905 87.6334 461.912 91.6207 461.912 96.5548C461.912 101.489 465.905 105.476 470.846 105.476ZM479.834 137.327C479.834 148.294 474.475 155.406 461.625 155.406H461.126C456.634 155.406 451.93 154.225 448.988 152.336C443.889 149.056 440.554 143.652 443.917 137.958C447.044 132.683 457.948 131.713 459.55 140.897C460.129 144.124 461.835 143.705 461.835 140.714V118.833C461.835 112.301 465.881 108.284 470.848 108.284C475.815 108.284 479.861 112.325 479.861 117.284V137.33H479.836L479.834 137.327Z" fill="#16BCCB"/>
<path d="M441.943 150.55C441.943 149.947 441.76 149.397 441.469 148.897L431.59 133.969L438.423 121.559C440.945 117.283 439.525 111.747 435.243 109.228C430.96 106.709 425.417 108.127 422.894 112.403L414.723 126.992V117.284C414.723 112.299 410.677 108.284 405.71 108.284C400.743 108.284 396.697 112.325 396.697 117.284V153.676H414.748V139.429L424.26 153.676H438.816C440.55 153.676 441.969 152.259 441.969 150.528L441.943 150.554V150.55Z" fill="white"/>
<path d="M374.602 139.583C373.526 141.552 372.16 142.705 370.556 142.705C368.952 142.705 367.587 141.552 366.51 139.583C365.459 137.588 364.829 135.044 364.829 132.027C364.829 129.01 365.461 126.466 366.51 124.471C367.587 122.502 368.952 121.349 370.556 121.349C372.16 121.349 373.526 122.53 374.602 124.471C375.391 125.939 375.915 127.724 376.153 129.797H394.205C393.679 124.155 391.156 119.014 387.346 115.261C383.064 110.985 377.074 108.308 370.53 108.308C363.987 108.308 357.998 110.985 353.714 115.261C349.432 119.537 346.752 125.519 346.752 132.053C346.752 138.586 349.432 144.567 353.714 148.844C356.999 152.124 362.727 155.797 370.53 155.797C376.391 155.797 381.803 153.645 385.928 150.13C388.948 147.585 393.416 142.442 394.177 134.283H376.125C375.889 136.329 375.364 138.14 374.575 139.609L374.6 139.583V139.579L374.602 139.583Z" fill="white"/>
<path d="M342.283 102.458C344.097 100.646 345.227 98.1546 345.227 95.3739C345.227 92.5932 344.097 90.0996 342.283 88.2897C340.469 86.478 337.973 85.35 335.189 85.35C332.404 85.35 329.907 86.478 328.094 88.2897C326.28 90.1013 325.15 92.5932 325.15 95.3739C325.15 98.1546 326.28 100.648 328.094 102.458L330.302 104.663C334.008 108.363 334.269 109.334 330.749 112.849L328.726 114.869C327.071 116.522 326.045 118.805 326.045 121.297V153.702H344.28V121.297C344.28 118.778 343.255 116.497 341.6 114.869L339.577 112.849C336.056 109.334 336.32 108.363 340.024 104.663L342.232 102.458H342.288H342.283Z" fill="white"/>
<path d="M299.848 108.283C293.307 108.283 287.316 110.959 283.032 115.235C278.75 119.511 276.07 125.493 276.07 132.027V153.698H294.121V132.393C294.121 129.795 294.753 127.565 295.802 125.861C296.853 124.155 298.245 123.159 299.848 123.159C301.452 123.159 302.844 124.157 303.894 125.861C304.945 127.566 305.575 129.797 305.575 132.393V153.698H323.627V132.027C323.627 125.495 320.947 119.513 316.664 115.235C312.382 110.959 306.392 108.283 299.848 108.283Z" fill="white"/>
</g>
<defs>
<clipPath id="clip0_17_943">
<rect width="250" height="235" fill="white" transform="translate(275 8)"/>
</clipPath>
</defs>
</svg>
