<svg width="800" height="250" viewBox="0 0 800 250" fill="none" xmlns="http://www.w3.org/2000/svg">
<g clip-path="url(#clip0_13_708)">
<path d="M366.958 75.8602H367.045C367.492 65.9176 375.666 57.9946 385.683 57.9946C385.84 57.9946 385.996 57.9965 386.151 58.0003H405.302V58.0076C405.392 58.0066 405.483 58.0061 405.574 58.0061C417.049 58.0061 431.775 66.793 431.987 84.1913C432.194 100.899 416.946 110.388 405.746 110.388C405.434 110.388 405.123 110.382 404.814 110.371H391.519V115.039H391.496C391.31 121.682 385.885 127.011 379.22 127.011C372.438 127.011 366.939 121.493 366.939 114.686C366.939 114.68 366.939 114.674 366.939 114.668C366.94 114.445 366.946 114.224 366.958 114.005V75.8602ZM391.731 90.7421L399.368 90.8111C399.368 90.8111 407.088 90.921 406.948 84.2185C406.8 77.1523 399.413 77.5467 399.413 77.5467H391.731V90.7421Z" fill="#950AFD"/>
<path d="M504.253 89.0741V115.297H504.208C503.891 121.82 498.521 127.011 491.942 127.011C485.16 127.011 479.662 121.493 479.662 114.686C479.662 114.25 479.684 113.819 479.728 113.394H460.515C460.559 113.819 460.582 114.25 460.582 114.686C460.582 121.493 455.083 127.011 448.301 127.011C441.519 127.011 436.021 121.493 436.021 114.686C436.021 114.25 436.043 113.819 436.087 113.394H436.034V90.3183C435.979 89.6889 435.952 89.0476 435.952 88.3946C435.952 72.7037 446.849 55.6595 470.225 56.1784C490.322 56.5824 503.533 67.3416 504.223 88.3946C504.217 88.6225 504.208 88.849 504.196 89.0741H504.253ZM460.562 94.0944L479.319 94.0797C479.319 94.0797 479.324 88.8854 479.324 87.2743C479.324 81.5425 475.876 76.5994 470.165 76.5994C464.453 76.5994 460.562 81.3942 460.562 87.1261C460.562 92.8579 460.562 94.0944 460.562 94.0944Z" fill="#F9B604"/>
<path d="M574.338 115.724C574.338 121.958 569.303 127.011 563.092 127.011C558.799 127.011 555.069 124.598 553.173 121.049L541.115 104.991L537.078 109.276V113.815C537.098 114.103 537.109 114.394 537.109 114.686C537.109 121.493 531.61 127.011 524.828 127.011C518.046 127.011 512.548 121.493 512.548 114.686C512.548 114.38 512.559 114.077 512.581 113.776V67.4034C512.559 67.1838 512.548 66.962 512.548 66.7383C512.548 61.766 518.046 57.7351 524.828 57.7351C531.61 57.7351 537.109 61.766 537.109 66.7383C537.109 66.9523 537.098 67.1645 537.078 67.3747V79.7313L553.711 62.0762C555.561 59.45 558.609 57.7351 562.057 57.7351C567.697 57.7351 572.27 62.3236 572.27 67.9838C572.27 71.2158 570.779 74.0984 568.45 75.9768L556.62 88.5336L571.042 107.742C573.078 109.784 574.338 112.607 574.338 115.724Z" fill="#FF037D"/>
<path d="M648 89.0741V115.297H647.954C647.638 121.82 642.267 127.011 635.689 127.011C628.906 127.011 623.408 121.493 623.408 114.686C623.408 114.25 623.431 113.819 623.475 113.394H604.262C604.306 113.819 604.328 114.25 604.328 114.686C604.328 121.493 598.83 127.011 592.048 127.011C585.265 127.011 579.767 121.493 579.767 114.686C579.767 114.25 579.79 113.819 579.834 113.394H579.781V90.3183C579.726 89.6889 579.698 89.0476 579.698 88.3946C579.698 72.7037 590.596 55.6595 613.972 56.1784C634.068 56.5824 647.28 67.3416 647.969 88.3946C647.964 88.6225 647.955 88.849 647.943 89.0741H648ZM604.309 94.0944L623.066 94.0797C623.066 94.0797 623.071 88.8854 623.071 87.2743C623.071 81.5425 619.623 76.5994 613.911 76.5994C608.2 76.5994 604.309 81.3942 604.309 87.1261C604.309 92.8579 604.309 94.0944 604.309 94.0944Z" fill="#04C9D9"/>
<path d="M366.845 152.764H366.932C367.379 142.821 375.553 134.898 385.571 134.898C385.727 134.898 385.883 134.9 386.039 134.904H405.189V134.911C405.279 134.91 405.37 134.91 405.461 134.91C416.937 134.91 431.662 143.697 431.875 161.095C432.082 177.803 416.833 187.292 405.633 187.292C405.321 187.292 405.01 187.286 404.701 187.275H391.406V191.942H391.383C391.197 198.586 385.772 203.915 379.107 203.915C372.325 203.915 366.827 198.397 366.827 191.59C366.827 191.584 366.827 191.578 366.827 191.571C366.827 191.349 366.833 191.128 366.845 190.908V152.764ZM391.619 167.646L399.255 167.715C399.255 167.715 406.975 167.825 406.835 161.122C406.688 154.056 399.301 154.451 399.301 154.451H391.619V167.646Z" fill="#FF037D"/>
<path d="M504.141 165.978V192.201H504.095C503.778 198.724 498.408 203.915 491.829 203.915C485.047 203.915 479.549 198.397 479.549 191.59C479.549 191.154 479.572 190.723 479.616 190.298H460.402C460.446 190.723 460.469 191.154 460.469 191.59C460.469 198.397 454.971 203.915 448.188 203.915C441.406 203.915 435.908 198.397 435.908 191.59C435.908 191.154 435.931 190.723 435.975 190.298H435.921V167.222C435.867 166.593 435.839 165.951 435.839 165.298C435.839 149.608 446.736 132.563 470.112 133.082C490.209 133.486 503.421 144.245 504.11 165.298C504.104 165.526 504.096 165.753 504.084 165.978H504.141ZM460.449 170.998L479.206 170.984C479.206 170.984 479.212 165.789 479.212 164.178C479.212 158.446 475.764 153.503 470.052 153.503C464.341 153.503 460.449 158.298 460.449 164.03C460.449 169.762 460.449 170.998 460.449 170.998Z" fill="#04C9D9"/>
<path d="M574.225 192.628C574.225 198.861 569.19 203.915 562.979 203.915C558.687 203.915 554.956 201.501 553.06 197.953L541.003 181.894L536.966 186.179V190.719C536.986 191.007 536.996 191.297 536.996 191.59C536.996 198.397 531.498 203.915 524.715 203.915C517.933 203.915 512.435 198.397 512.435 191.59C512.435 191.284 512.446 190.98 512.468 190.68V144.307C512.446 144.088 512.435 143.866 512.435 143.642C512.435 138.67 517.933 134.639 524.715 134.639C531.498 134.639 536.996 138.67 536.996 143.642C536.996 143.856 536.986 144.068 536.966 144.278V156.635L553.599 138.98C555.448 136.354 558.497 134.639 561.945 134.639C567.585 134.639 572.157 139.227 572.157 144.888C572.157 148.12 570.666 151.002 568.337 152.881L556.507 165.437L570.929 184.646C572.966 186.688 574.225 189.51 574.225 192.628Z" fill="#F9B604"/>
<path d="M647.887 165.978V192.201H647.842C647.525 198.724 642.154 203.915 635.576 203.915C628.794 203.915 623.296 198.397 623.296 191.59C623.296 191.154 623.318 190.723 623.362 190.298H604.149C604.193 190.723 604.216 191.154 604.216 191.59C604.216 198.397 598.717 203.915 591.935 203.915C585.153 203.915 579.654 198.397 579.654 191.59C579.654 191.154 579.677 190.723 579.721 190.298H579.668V167.222C579.613 166.593 579.586 165.951 579.586 165.298C579.586 149.608 590.483 132.563 613.859 133.082C633.956 133.486 647.167 144.245 647.857 165.298C647.851 165.526 647.842 165.753 647.83 165.978H647.887ZM604.196 170.998L622.953 170.984C622.953 170.984 622.958 165.789 622.958 164.178C622.958 158.446 619.51 153.503 613.799 153.503C608.087 153.503 604.196 158.298 604.196 164.03C604.196 169.762 604.196 170.998 604.196 170.998Z" fill="#950AFD"/>
<path d="M153 109.627C153 71.7254 183.616 41 221.383 41C259.15 41 289.766 71.7254 289.766 109.627C289.766 147.529 259.15 178.254 221.383 178.254C208.889 178.254 197.178 174.891 187.098 169.019C186.628 168.745 185.697 168.18 185.697 168.18L156.257 176.517L167.031 151.49C167.031 151.49 165.368 149.012 164.868 148.276C157.379 137.269 153 123.961 153 109.627Z" fill="#04C9D9"/>
<path d="M199.442 112.886H199.606C200.446 94.204 215.804 79.3163 234.628 79.3163C234.922 79.3163 235.215 79.32 235.507 79.3272H271.491V79.3407C271.661 79.3389 271.831 79.338 272.002 79.338C293.565 79.338 321.235 95.8488 321.635 128.541C322.023 159.936 293.371 177.765 272.326 177.765C271.739 177.765 271.155 177.755 270.574 177.733H245.593V186.504H245.549C245.2 198.988 235.007 209 222.483 209C209.739 209 199.407 198.632 199.407 185.842C199.407 185.83 199.407 185.819 199.407 185.807C199.408 185.389 199.42 184.973 199.442 184.561L199.442 112.886Z" fill="#950AFD"/>
<path d="M289.766 109.627C289.766 147.529 259.15 178.254 221.383 178.254C213.709 178.254 206.329 176.985 199.442 174.645L199.442 112.886H199.606C200.446 94.204 215.804 79.3163 234.628 79.3163C234.922 79.3163 235.215 79.32 235.507 79.3272H271.491V79.3407C271.661 79.3389 271.831 79.338 272.002 79.338C275.696 79.338 279.569 79.8226 283.454 80.79C287.505 89.5573 289.766 99.3272 289.766 109.627Z" fill="#FF037D"/>
<path d="M235.086 157.335V147.129C235.086 147.129 245.801 146.325 253.355 140.037C262.805 132.173 261.973 122.221 261.973 122.221H272.487C272.487 122.221 272.809 136.766 260.033 147.774C249.479 156.867 235.086 157.335 235.086 157.335Z" fill="white"/>
<path d="M214.472 120.297V109.573C214.472 109.573 215.206 105.652 219.987 105.652C225.141 105.652 225.675 109.573 225.675 109.573V120.297H214.472Z" fill="white"/>
<path d="M239.291 120.297V109.573C239.291 109.573 240.026 105.652 244.807 105.652C249.961 105.652 250.494 109.573 250.494 109.573V120.297H239.291Z" fill="white"/>
</g>
<defs>
<clipPath id="clip0_13_708">
<rect width="495" height="168" fill="white" transform="translate(153 41)"/>
</clipPath>
</defs>
</svg>
