<svg width="800" height="250" viewBox="0 0 800 250" fill="none" xmlns="http://www.w3.org/2000/svg">
<path d="M325.155 147.392C325.155 130.065 306.736 121.665 284.854 121.665C261.434 121.665 239.937 132.033 232.002 148.064C229.79 152.335 228.732 157.087 228.732 161.839C228.635 166.015 229.79 170.094 232.002 173.598C235.368 178.59 241.428 181.71 250.277 181.71C261.145 181.71 269.754 175.758 269.754 165.439C269.754 165.439 269.946 162.559 266.532 162.559C263.79 162.559 263.069 164.479 263.165 165.439C263.55 173.55 258.741 180.078 250.132 180.078C240.466 180.078 236.426 171.87 236.426 163.135C236.426 145.232 249.94 133.328 264.031 128.193C270.619 125.697 277.593 124.449 284.662 124.545C300.58 124.545 313.661 130.641 313.661 147.056C313.661 160.735 302.167 172.35 288.365 173.406L288.942 171.582C291.732 161.551 295.194 150.511 300.869 142.4C301.158 141.92 301.735 141.152 302.408 140.288L301.638 139.328C300.436 140.096 299.282 140.864 298.176 141.728C271.774 162.319 270.956 220.107 235.801 220.107C234.551 220.107 233.396 220.011 232.146 219.867C224.74 218.716 220.893 213.82 220.893 207.004C220.893 205.66 221.374 203.788 221.374 202.732C221.422 200.813 219.883 199.181 217.959 199.085H217.911H217.526C214.352 199.085 213.102 201.581 213.006 205.132C212.765 215.356 220.316 221.307 232.002 222.363C233.252 222.459 234.599 222.555 235.945 222.555C263.406 222.555 280.238 201.821 287.403 176.718C291.058 176.286 294.617 175.518 298.128 174.462C310.872 170.91 325.155 162.415 325.155 147.392Z" fill="white"/>
<path d="M404.266 115.089C403.4 114.753 401.958 113.122 404.362 108.61L409.941 96.9945C410.133 96.6585 409.7 96.2265 409.46 96.5145L404.603 101.362C402.342 103.762 398.399 110.53 397.629 111.73L391.714 121.473C392.147 121.473 392.484 121.809 392.532 122.241C392.532 122.385 392.484 122.529 392.435 122.625L387.049 131.696C385.751 133.952 388.107 135.488 388.396 134.96C396.908 121.281 401.813 122.385 401.813 122.385L404.651 115.809C404.795 115.617 404.651 115.233 404.266 115.089ZM423.599 1.00006C375.074 1.00006 335.687 40.2618 335.687 88.739C335.639 107.506 341.699 125.745 352.904 140.816C356.607 139.232 358.675 136.832 360.118 135.056L376.469 114.178C376.806 113.746 377.238 113.41 377.767 113.17L380.22 112.114L407.103 78.0356L410.999 74.9638L419.03 63.8284C419.271 63.5404 419.463 63.3005 419.8 63.0605L423.31 60.5166C424.176 59.8927 425.33 59.8447 426.196 60.4686L430.476 63.4444C432.736 65.0284 434.564 67.1402 435.766 69.5881L452.79 99.3464C453.031 99.9223 453.56 100.354 454.089 100.594C457.407 102.274 459.427 102.562 463.852 107.314C465.871 109.522 474.816 119.505 487.32 134.96C489.1 137.456 491.6 139.424 494.39 140.672C505.547 125.601 511.558 107.41 511.51 88.643C511.51 40.3098 472.171 1.00006 423.599 1.00006ZM359.396 93.5387L353.674 91.7148L350.163 96.5145V90.5629L344.44 88.739L350.163 86.9151V80.9634L353.674 85.7632L359.396 83.9393L355.886 88.739L359.396 93.5387ZM358.05 113.122L356.222 118.833L354.395 113.122H348.383L353.193 109.618L351.365 103.906L356.174 107.41L360.984 103.906L359.156 109.618L363.965 113.122H358.05ZM359.156 67.8602L360.984 73.5719L356.174 70.0681L351.365 73.5719L353.193 67.8602L348.383 64.3564H354.395L356.222 58.6447L358.05 64.3564H364.061L359.156 67.8602ZM368.774 54.9489L365.264 50.1492L359.541 51.9731L363.051 47.1734L359.541 42.3737L365.264 44.1976L368.774 39.3978V45.3495L374.497 47.1734L368.774 48.9973V54.9489ZM383.779 34.0222L381.951 39.7338L380.124 34.0222H374.113L378.922 30.5184L377.094 24.8067L381.903 28.3105L386.713 24.8067L384.885 30.5184L389.694 34.0222H383.779ZM402.631 24.4227L399.12 29.2224V23.3188L393.397 21.4949L399.12 19.671V13.6233L402.631 18.4231L408.354 16.5992L404.843 21.3989L408.354 26.1986L402.631 24.4227ZM426.58 18.951L428.408 24.6627L423.599 21.1589L418.79 24.6627L420.617 18.951L415.808 15.4472H421.819L423.647 9.73556L425.474 15.4472H431.486L426.58 18.951ZM448.029 23.3188V29.2704L444.519 24.4707L438.796 26.2946L442.306 21.4949L438.796 16.6952L444.519 18.519L448.029 13.7193V19.671L453.752 21.4949L448.029 23.3188ZM487.753 83.8433L493.476 85.6672L496.987 80.8674V86.8191L502.71 88.643L496.987 90.4669V96.4185L493.476 91.6188L487.753 93.4427L491.264 88.643L487.753 83.8433ZM465.246 39.7338L463.419 34.0222H457.407L462.216 30.5184L460.389 24.8067L465.198 28.3105L470.007 24.8067L468.228 30.5184L473.037 34.0222H467.026L465.246 39.7338ZM478.375 54.9489V48.9973L472.652 47.1734L478.375 45.3495V39.3498L481.886 44.1496L487.609 42.3257L484.098 47.1254L487.609 51.9251L481.886 50.1012L478.375 54.9489ZM489.148 64.3564L490.975 58.6447L492.803 64.3564H498.814L494.005 67.8602L495.832 73.5719L490.975 70.0681L486.166 73.5719L487.993 67.8602L483.136 64.3564H489.148ZM492.851 113.122L491.023 118.833L489.196 113.122H483.184L488.042 109.618L486.214 103.906L491.023 107.41L495.881 103.906L494.053 109.618L498.862 113.122H492.851ZM455.435 139.376C455.868 138.752 456.542 137.12 455.243 134L451.348 123.585C450.819 122.289 451.973 121.425 452.742 122.337C452.742 122.337 460.1 130.785 462.024 134.336L465.679 140.336C468.805 140.576 477.413 140.768 485.685 140.768C484.868 139.952 484.05 139.04 483.377 138.08C469.238 120.609 460.245 110.818 460.148 110.77C457.311 107.65 455.964 107.026 453.8 106.066C453.512 105.922 453.127 105.778 452.79 105.586V108.274C452.79 108.466 452.694 108.61 452.502 108.61C452.358 108.61 452.261 108.562 452.165 108.37L431.39 71.94L431.342 71.796C430.476 70.0681 429.177 68.5802 427.59 67.5242L425.571 66.1323L415.664 88.931C416.866 88.931 417.828 89.8909 417.828 91.0908C417.828 91.3788 417.78 91.6668 417.635 91.9068L408.45 113.122H416.866C420.136 113.122 423.31 113.746 426.34 114.945L428.6 115.857C428.6 115.857 421.916 129.585 421.916 136.832C421.916 138.128 422.108 139.472 422.445 140.72H437.834L437.113 136.4C443.172 137.744 449.232 138.752 455.435 139.376Z" fill="white"/>
<path d="M585.812 153.439H576.146L573.981 158.527L570.23 167.022H565.71L564.363 169.902H569.076L563.401 182.334C559.362 191.069 553.11 199.661 549.503 199.661C548.733 199.661 548.252 199.373 548.252 198.509C548.252 197.693 548.493 196.973 549.407 194.765C550.561 192.077 552.388 188.237 553.735 185.453C555.755 181.326 558.977 175.038 558.977 171.87C558.977 168.702 556.957 166.254 553.013 166.254C548.589 166.254 544.549 168.942 540.846 172.782L543.251 167.022H534.113L526.707 183.869C523.726 189.821 517.666 199.661 513.915 199.661C513.145 199.661 512.761 199.181 512.761 198.413C512.857 197.693 513.001 196.973 513.338 196.301C513.626 195.533 518.099 185.213 518.099 185.213L526.178 166.83H516.368L508.577 184.733C506.172 190.301 500.065 199.661 496.121 199.661C495.4 199.757 494.823 199.229 494.774 198.509V198.221C494.774 197.261 495.544 195.485 496.025 194.189L500.161 185.213L508.625 166.83H498.862L496.939 171.006C495.496 173.79 493.091 177.102 489.196 177.102C487.368 177.102 486.455 176.382 486.022 175.662C485.445 169.47 481.501 166.206 475.73 166.206C467.651 166.206 461.976 170.958 458.177 176.718C455.676 180.702 453.752 184.973 452.406 189.485C448.943 195.197 445.336 199.613 442.403 199.613C441.633 199.613 441.152 199.229 441.152 198.269C441.152 197.309 442.114 195.101 442.403 194.333L448.751 180.846C450.482 176.67 451.732 173.934 451.732 171.198C451.732 168.318 449.713 166.206 446.442 166.206C441.826 166.206 436.872 168.894 432.929 173.214C433.073 172.494 433.121 171.822 433.121 171.102C433.121 167.886 431.486 166.206 428.216 166.206C424.032 166.206 419.703 168.702 415.76 173.214L418.357 166.974H409.508L402.006 183.821C398.447 191.789 392.724 199.613 389.55 199.613C388.829 199.613 388.3 199.229 388.3 198.269C388.3 196.733 390.031 192.989 390.608 191.453L400.515 169.038C401.284 167.31 396.475 166.302 390.464 166.302C384.26 166.302 377.912 169.374 373.199 173.31C369.929 176.046 367.476 177.438 366.274 177.438C365.889 177.534 365.504 177.246 365.408 176.862C365.408 176.814 365.408 176.766 365.408 176.67C365.408 175.326 368.678 171.438 368.678 168.462C368.678 167.118 367.957 166.206 366.081 166.206C362.522 166.206 358.338 169.566 355.309 173.118L357.906 166.926H349.201L341.603 183.725C338.044 191.693 332.177 199.949 328.954 199.949C328.185 199.949 327.752 199.565 327.752 198.605C327.752 197.069 329.387 193.373 330.253 191.453L340.16 168.942C340.929 167.214 336.12 166.206 330.109 166.206C321.164 166.206 312.459 172.254 307.89 178.446C302.793 185.117 299.378 192.173 299.282 197.981C299.186 202.636 301.59 205.516 306.448 205.516C311.834 205.516 316.21 201.244 318.711 198.029C318.567 198.701 318.47 199.277 318.422 199.949C318.422 203.164 319.673 205.516 323.664 205.516C327.127 205.516 331.744 202.636 335.447 198.029L332.465 204.844H341.891L351.173 183.869C354.251 177.054 357.713 173.502 358.675 173.502C358.916 173.454 359.108 173.598 359.156 173.79C359.156 173.838 359.156 173.838 359.156 173.886C359.156 174.654 357.713 176.574 357.713 178.302C357.713 180.03 358.675 181.47 361.272 181.47C363.292 181.47 365.552 180.51 367.524 179.214C362.763 185.645 359.541 192.413 359.541 197.933C359.445 202.588 361.849 205.468 366.706 205.468C371.804 205.468 376.517 200.668 379.114 197.453C379.018 198.221 378.97 198.941 378.922 199.709C378.922 202.876 380.653 205.468 384.308 205.468C388.348 205.468 391.57 202.972 395.561 198.077L392.58 204.844H402.246L411.095 184.829C414.942 176.142 420.184 171.486 422.781 171.486C423.455 171.39 424.032 171.87 424.032 172.542V172.782C423.935 173.742 423.647 174.702 423.262 175.566L410.518 204.844H420.425L429.466 184.445C433.313 175.71 437.593 171.438 440.816 171.438C441.777 171.438 442.162 171.918 442.162 172.974C442.066 174.126 441.777 175.182 441.297 176.19L432.64 194.717C431.871 196.493 431.39 198.413 431.197 200.333C431.197 203.116 432.736 205.612 437.064 205.612C442.739 205.612 446.971 201.34 451.829 195.005V196.349C452.213 201.436 455.051 205.804 462.553 205.804C471.402 205.804 478.568 199.709 482.896 190.013C484.531 186.605 485.637 182.91 486.07 179.166C487.032 179.646 488.138 179.886 489.244 179.838C490.687 179.838 492.129 179.502 493.428 178.782L491.889 182.046C490.158 185.741 488.138 189.821 486.647 193.277C485.685 195.341 485.108 197.549 484.916 199.805C484.916 203.26 486.839 205.756 490.783 205.756C494.726 205.756 500.113 202.06 504.008 196.829H504.104C503.864 197.933 503.719 199.037 503.719 200.093C503.719 202.972 504.585 205.708 508.625 205.708C513.338 205.708 516.897 202.348 520.455 198.077L517.474 204.844H527.236L535.027 187.133C539.452 177.198 543.876 171.15 547.964 171.15C548.685 171.102 549.262 171.63 549.31 172.398V172.638C549.31 174.366 546.906 178.878 544.694 183.485C542.674 187.661 541.135 190.877 540.077 193.373C539.115 195.485 538.538 197.741 538.345 200.045C538.345 203.116 540.077 205.42 543.828 205.42C549.455 205.42 555.178 199.949 558.207 195.869C557.486 197.837 557.149 199.901 557.053 201.964C557.053 207.58 560.42 210.412 565.181 210.412C568.355 210.364 571.433 209.356 573.933 207.532C577.636 204.94 580.618 201.1 583.119 197.597L581.387 195.965C579.079 199.229 576.482 202.396 573.789 204.316C572.394 205.516 570.615 206.14 568.787 206.236C566.768 206.236 565.517 205.18 565.517 202.588C565.517 199.997 566.72 196.541 568.595 191.885C568.691 191.789 571.336 185.837 573.837 180.126C575.953 175.326 578.021 170.67 578.454 169.71H584.802L586.052 166.83H579.8L585.812 153.439ZM311.161 199.805C309.814 199.805 308.852 199.325 308.852 197.549C308.948 192.797 312.892 184.349 317.797 177.63C321.26 172.974 325.78 169.518 330.59 169.518L324.434 183.15C319.865 193.421 314.864 199.805 311.161 199.805ZM371.371 199.805C370.025 199.805 369.063 199.325 368.967 197.549C369.063 192.797 373.006 184.349 377.912 177.63C381.374 172.974 385.895 169.518 390.704 169.518L384.548 183.197C379.932 193.709 375.171 199.805 371.371 199.805ZM478.279 173.214C478.039 178.446 473.47 191.021 468.035 198.605C465.871 201.676 463.996 202.54 462.409 202.54C460.148 202.54 459.523 200.716 459.812 197.933C460.293 193.181 464.236 182.142 469.719 174.462C472.219 171.006 473.903 169.566 475.826 169.566C477.798 169.566 478.375 171.198 478.279 173.214Z" fill="white"/>
<path d="M460.533 223.947C458.85 223.947 457.263 224.235 455.82 224.859C454.378 225.483 453.079 226.299 452.069 227.403C451.011 228.507 450.194 229.803 449.568 231.339C448.943 232.875 448.655 234.507 448.655 236.282C448.655 238.058 448.943 239.738 449.568 241.274C450.194 242.81 451.011 244.058 452.069 245.162C453.127 246.266 454.378 247.082 455.82 247.706C457.263 248.33 458.85 248.618 460.533 248.618C462.216 248.618 463.804 248.33 465.246 247.706C466.689 247.082 467.939 246.266 468.997 245.162C470.055 244.058 470.873 242.81 471.498 241.274C472.123 239.738 472.412 238.106 472.412 236.282C472.412 234.507 472.123 232.875 471.498 231.339C470.921 229.803 470.104 228.507 468.997 227.403C467.939 226.299 466.737 225.483 465.246 224.859C463.755 224.283 462.216 223.947 460.533 223.947ZM306.64 224.427V248.186H311.064V232.251L322.847 248.186H326.983V224.427H322.51V240.266L310.776 224.427H306.64ZM346.219 224.427V248.186H362.619V244.058H351.077V237.77H360.984V233.643H351.125V228.603H362.667V224.475L346.219 224.427ZM376.132 224.427V228.555H382.961V248.138H387.915V228.555H394.744V224.427H376.132ZM407.777 224.427L414.029 248.186H419.223L423.118 232.299L427.061 248.186H432.255L438.507 224.427H433.313L429.37 241.802L425.09 224.427H421.242L416.962 241.802L413.019 224.427H407.777ZM485.349 224.427V248.186H490.254V237.818H493.38L500.113 248.186H505.643L498.574 237.434C500.065 237.05 501.315 236.282 502.229 235.227C503.191 234.123 503.671 232.779 503.671 231.051C503.671 228.987 502.95 227.355 501.604 226.203C500.257 225.003 498.429 224.475 496.217 224.475L485.349 224.427ZM521.273 224.427V248.186H526.178V239.45L528.391 237.146L535.46 248.138H541.135L531.709 233.595L540.365 224.379H534.979L526.226 234.171V224.379L521.273 224.427ZM460.533 228.315C461.447 228.315 462.313 228.507 463.178 228.843C463.996 229.179 464.765 229.707 465.391 230.427C466.016 231.099 466.497 231.963 466.833 232.923C467.17 233.931 467.362 235.035 467.362 236.282C467.362 238.778 466.689 240.698 465.439 242.138C464.188 243.53 462.505 244.25 460.533 244.25C458.562 244.25 456.926 243.53 455.676 242.138C454.426 240.746 453.752 238.778 453.752 236.282C453.752 233.787 454.378 231.867 455.628 230.427C456.926 228.987 458.562 228.315 460.533 228.315ZM490.254 228.363H495.496C496.602 228.363 497.42 228.603 497.997 229.179C498.574 229.755 498.814 230.427 498.814 231.243C498.814 232.059 498.574 232.779 497.997 233.307C497.468 233.835 496.698 234.123 495.544 234.123H490.302L490.254 228.363Z" fill="white"/>
</svg>
