<svg width="800" height="250" viewBox="0 0 800 250" fill="none" xmlns="http://www.w3.org/2000/svg">
<g clip-path="url(#clip0_49_2)">
<path d="M211.639 196.364C207.948 196.364 205.988 194.182 205.988 192.001V177.42H210.255V191.082C210.255 192.116 211.177 192.575 211.984 192.575H214.175C214.982 192.575 215.905 192.23 215.905 191.082V177.42H220.056V192.116C220.056 194.297 218.211 196.478 214.751 196.478H211.638V196.364H211.639Z" fill="white"/>
<path d="M264.798 196.248L258.801 185.916V196.248H254.65V177.535H258.686L264.798 188.327V177.535H268.833V196.248H264.798Z" fill="white"/>
<path d="M307.809 177.535H303.197V196.248H307.809V177.535Z" fill="white"/>
<path d="M347.245 196.248L341.134 177.535H345.286L349.321 190.738L353.472 177.535H357.623L351.396 196.248H347.245Z" fill="white"/>
<path d="M391.294 196.248V177.535H403.056V181.209H395.446V184.883H402.018V188.557H395.446V192.575H403.287V196.248H391.294Z" fill="white"/>
<path d="M447.682 196.248L444.915 189.933H442.031V196.248H437.88V177.535H446.068C449.642 177.535 451.487 179.717 451.487 181.783V185.686C451.487 187.294 450.45 188.671 448.72 189.475L452.064 196.249L447.682 196.248ZM445.605 186.26C446.413 186.26 447.336 185.915 447.336 184.883V182.701C447.336 181.783 446.643 181.323 445.605 181.323H442.031V186.374H445.605V186.26Z" fill="white"/>
<path d="M491.27 196.364C487.579 196.364 485.619 194.182 485.619 192.001V190.393H489.77V191.082C489.77 192.116 490.692 192.575 491.615 192.575H493.575C494.152 192.575 495.42 192.461 495.42 191.082V190.623C495.42 189.933 493.921 189.36 492.307 188.786C489.539 187.753 485.734 186.374 485.734 183.046V181.324C485.734 179.257 487.464 177.076 490.808 177.076H493.921C497.496 177.076 499.342 179.257 499.342 181.324V183.735H495.191V182.243C495.191 181.324 494.499 180.75 493.461 180.75H491.5C490.463 180.75 489.771 181.324 489.771 182.128V182.587C489.771 183.391 491.385 183.965 493.114 184.654C495.882 185.687 499.456 187.065 499.456 189.82V191.772C499.456 193.953 497.612 196.02 494.037 196.02H491.27V196.364Z" fill="white"/>
<path d="M545.235 196.248L543.968 192.574H537.279L536.011 196.248H532.32L538.547 177.535H542.583L548.811 196.248H545.235ZM542.814 188.901L540.854 182.931H540.623L538.662 188.901H542.814Z" fill="white"/>
<path d="M582.711 196.248V177.535H586.863V192.345H594.012V196.248H582.711Z" fill="white"/>
<path d="M155.828 150.325C136.917 150.325 127.001 139.648 127.001 129.201V121.623H148.218V124.034C148.218 128.742 151.562 131.612 157.212 131.612H162.516C164.938 131.612 171.51 131.612 171.51 124.034V123.001C171.51 118.408 166.437 116.342 161.593 114.39C160.672 114.045 159.865 113.701 159.057 113.357L157.673 112.783C144.643 107.272 127 99.6944 127 84.3104V75.5849C127 65.0223 135.994 54.345 153.061 54.345H165.398C183.387 54.345 192.843 65.0223 192.843 75.4698V85.3434H171.626V80.5215C171.626 75.8143 168.282 72.9442 162.632 72.9442H157.212C151.562 72.9442 148.218 75.8143 148.218 80.5215V81.6691C148.218 86.2617 154.33 89.0166 161.364 92.1171L163.094 92.9207C164.131 93.3799 165.169 93.8396 166.322 94.2987C177.854 99.3499 193.421 106.239 193.421 118.524V128.971C193.421 139.534 183.965 150.097 165.976 150.097H155.829V150.325H155.828ZM635.179 149.981C616.267 149.981 606.351 139.304 606.351 128.856V75.1253C606.351 64.5626 616.267 54 635.179 54H645.557C663.546 54 673.001 64.6773 673.001 75.1253V128.742C673.001 139.304 663.546 149.866 645.557 149.866H635.179V149.981ZM636.562 72.7138C630.912 72.7138 627.568 75.5844 627.568 80.2917V123.804C627.568 128.511 630.912 131.381 636.562 131.381H642.789C648.44 131.381 651.783 128.511 651.783 123.804V80.1765C651.783 75.4692 648.439 72.5991 642.789 72.5991H636.562V72.7138ZM358.315 149.981C339.404 149.981 329.488 139.304 329.488 128.856V54.689H350.705V123.689C350.705 128.396 354.048 131.267 359.699 131.267H365.926C371.576 131.267 374.92 128.396 374.92 123.689V54.689H396.137V128.742C396.137 139.304 386.682 149.866 368.693 149.866H358.315V149.981ZM545.582 149.177V54.689H566.799V149.177H545.582V149.177ZM437.305 149.177V54.8037H476.972C494.96 54.8037 504.415 65.4809 504.415 75.9289V127.938C504.415 138.5 494.96 149.063 476.972 149.063H437.305V149.177ZM458.521 130.463H474.203C479.853 130.463 483.197 127.593 483.197 122.886V81.0953C483.197 76.3875 479.853 73.518 474.203 73.518H458.521V130.463ZM250.038 149.177V73.4028H226.514V54.689H294.779V73.4028H271.255V149.177H250.038Z" fill="white"/>
</g>
<defs>
<clipPath id="clip0_49_2">
<rect width="546" height="143" fill="white" transform="translate(127 54)"/>
</clipPath>
</defs>
</svg>
