<svg width="800" height="250" viewBox="0 0 800 250" fill="none" xmlns="http://www.w3.org/2000/svg">
<path d="M516.207 125.204C516.207 155.913 504.012 185.365 482.303 207.085C460.593 228.804 431.147 241.014 400.438 241.029C369.73 241.043 340.272 228.862 318.542 207.163C296.812 185.465 284.588 156.024 284.559 125.316C284.529 94.6067 296.696 65.1431 318.385 43.4026C340.073 21.6621 369.507 9.42447 400.216 9.38025C430.925 9.33603 460.394 21.4889 482.145 43.1668C503.896 64.8447 516.148 94.2732 516.207 124.982" fill="#410E41"/>
<path d="M426.123 97.514C426.035 117.76 426.177 138.004 426.046 158.25L440.432 158.297L444.729 153.934L430.569 153.762C430.644 133.61 430.57 112.991 430.605 92.8388L426.123 97.514ZM318.164 93.2227L313.657 98.6178C313.657 98.6178 313.677 107.577 313.668 111.655C319.191 111.646 324.71 111.648 330.228 111.652C330.21 127.204 330.266 142.754 330.2 158.311C335.186 158.358 340.173 158.312 345.155 158.338C346.688 156.886 348.184 155.395 349.695 153.926C344.726 153.887 339.748 154.04 334.779 153.83C334.805 138.3 334.792 122.408 334.788 106.878C329.248 106.912 323.721 106.877 318.181 106.894L318.164 93.2227ZM372.41 105.441C368.636 108.294 365.838 112.273 363.887 116.492C360.702 123.623 360.506 131.963 363.313 139.24C366.3 147.005 372.656 153.488 380.538 156.641C385.827 158.907 391.736 159.317 397.42 158.64C404.911 157.535 412.014 153.684 416.719 147.864C412.282 151.303 406.888 153.544 401.256 154.233C393.472 155.236 385.291 153.3 378.939 148.777C372.389 144.241 367.785 137.139 366.414 129.421C364.846 121.064 367.103 112.17 372.41 105.441ZM349.703 106.892L349.712 111.608C353.63 111.711 357.55 111.605 361.468 111.674C363.023 110.239 364.496 108.382 366.003 106.9C360.568 106.883 355.137 106.896 349.703 106.892ZM397.125 107.597C391.722 107.506 386.632 110.228 382.938 115.315C389.756 110.621 400.581 111.977 405.523 118.611C404.557 119.579 403.608 120.561 402.668 121.559C407.206 121.628 411.742 121.562 416.28 121.6C416.957 121.536 417.776 121.704 418.307 121.186C419.788 119.914 421.075 118.209 422.428 116.813C417.384 116.941 412.341 116.861 407.294 116.848C408.168 115.756 409.105 114.698 410.094 113.709C407.462 110.59 403.601 108.33 399.458 107.808C398.677 107.679 397.897 107.609 397.125 107.597ZM471.225 122.058L457.529 130.202L444.867 122.201L444.801 130.298L453.166 135.777C457.678 132.791 462.137 129.727 466.723 126.848C466.715 137.342 466.722 147.835 466.718 158.333C471.401 158.23 476.12 158.521 480.786 158.196C482.361 156.886 485.058 153.94 485.058 153.94L471.247 153.918C471.207 143.382 471.247 132.599 471.225 122.058Z" fill="#AB3331"/>
<path d="M485.152 92.3946L457.529 113.942L430.605 92.8388L430.569 153.762L444.729 153.934L444.867 122.201L457.529 130.202L471.225 122.058C471.225 122.058 471.11 154.373 471.247 153.918L485.058 153.94L485.152 92.3946ZM397.909 93.187C394.466 93.1074 391.01 93.5712 387.727 94.5827C381.658 96.3998 376.316 100.2 372.391 105.068C367.087 111.849 364.83 120.814 366.398 129.234C367.768 137.011 372.367 144.168 378.914 148.738C385.263 153.296 393.44 155.246 401.22 154.236C406.85 153.541 412.243 151.285 416.678 147.82C418.324 146.503 419.806 145.012 421.207 143.454L410.541 133.438C407.389 137.387 402.494 140.245 397.268 139.977C389.119 140.418 381.547 133.68 380.726 125.782C380.221 122.01 381.16 118.077 383.316 114.918C386.781 109.765 393.326 106.718 399.574 107.758C403.715 108.285 407.464 110.567 410.094 113.709L407.294 116.848C412.339 116.861 417.387 116.942 422.428 116.813C423.253 116.381 423.548 115.432 423.491 114.564C423.483 109.635 423.505 104.702 423.475 99.7734L420.221 103.119C418.373 101.246 416.399 99.4702 414.151 98.0761C409.348 94.9578 403.647 93.3198 397.909 93.187ZM366.033 93.2172L318.164 93.2228L318.181 106.895L334.787 106.878L334.778 153.83L349.686 153.926L349.703 106.892L366.003 106.9L366.033 93.2172Z" fill="#EBEBCA"/>
</svg>
