<svg width="800" height="250" viewBox="0 0 800 250" fill="none" xmlns="http://www.w3.org/2000/svg">
<path d="M160.128 52.6463V66.1717L185.144 66.3798C185.144 66.3798 185.344 109.339 185.381 140.859H205.673L205.821 66.246L232.244 66.3649C232.362 66.5135 232.422 76.4718 232.437 103.716L232.481 140.859C239.22 140.894 245.959 140.913 252.698 140.933C252.712 127.135 252.743 113.337 252.772 99.5393L284.379 99.6582C284.677 114.46 284.579 123.526 284.616 140.859L324.621 140.903L364.627 140.933L375.142 116.78L410.171 116.959L420.805 140.933H441.245C441.245 140.933 415.99 81.9853 403.076 52.7206L382.296 52.7949L349.934 126.813L349.726 127.185L327.48 127.229C311.114 127.244 305.189 127.214 305.041 127.095C304.682 117.117 304.867 111.92 304.908 99.3906L343.417 99.242V86.0139L305.026 85.7761C304.695 78.722 304.867 75.0354 304.908 66.246L355.266 66.0974L355.251 65.6812C355.231 61.0649 355.215 57.5513 355.192 52.6463H284.542C284.528 63.7193 284.498 74.7923 284.468 85.8652L252.906 85.7761C252.532 73.8562 252.698 67.6175 252.698 52.6463H160.128ZM422.287 52.6463V66.1717L446.71 66.3798C447.006 93.1892 446.91 109.339 446.947 140.859H457.019H467.09C467.14 115.988 467.189 91.1169 467.239 66.246H491.233C491.282 91.1169 491.331 115.988 491.381 140.859H581.729L581.877 105.039C593.87 117.108 606.312 128.726 618.165 140.933H641.196L605.664 103.523C605.723 103.359 606.671 103.032 607.086 103.032C607.264 103.032 607.456 102.973 607.501 102.883C607.545 102.794 607.782 102.735 608.019 102.735C608.256 102.735 608.493 102.661 608.537 102.586C608.582 102.497 608.789 102.438 608.982 102.438C609.174 102.438 609.367 102.378 609.411 102.304C609.456 102.244 609.767 102.14 610.093 102.081C610.433 102.036 610.818 101.932 610.952 101.858C611.085 101.784 611.366 101.665 611.574 101.576C611.781 101.501 612.181 101.323 612.462 101.204C612.744 101.085 613.351 100.832 613.795 100.639C614.24 100.446 614.847 100.164 615.128 100.015C616.55 99.2123 617.009 98.9596 617.306 98.811C617.498 98.7218 617.646 98.6029 617.646 98.5286C617.646 98.4691 617.706 98.4245 617.794 98.4245C617.913 98.4245 619.661 97.2504 620.12 96.8639C620.223 96.7896 620.386 96.641 620.49 96.5667C620.89 96.2397 622.904 94.5007 623.052 94.3521C623.141 94.2629 623.63 93.6832 624.163 93.0738C624.696 92.4644 625.156 91.9294 625.2 91.8848C625.363 91.7362 626.385 90.2499 626.385 90.1607C626.385 90.1161 626.518 89.8931 626.666 89.6702C627.096 89.0757 627.718 87.8569 627.718 87.634C627.718 87.515 627.792 87.4259 627.866 87.4259C627.955 87.4259 628.014 87.2921 628.014 87.1435C628.014 86.98 628.073 86.8165 628.147 86.7719C628.222 86.7273 628.31 86.5341 628.355 86.3557C628.399 86.1625 628.547 85.6423 628.681 85.1964C629.406 82.7737 629.555 81.7036 629.555 78.5823C629.555 77.0217 629.481 75.3571 629.377 74.8666C629.021 72.9938 628.932 72.6074 628.562 71.5224C627.555 68.4903 625.881 65.8596 623.26 63.2139C619.216 59.1415 614.492 56.6445 607.471 54.8906C607.16 54.8014 606.612 54.6677 606.242 54.5785C605.871 54.4893 605.19 54.3556 604.731 54.2664C604.257 54.1921 603.487 54.0583 603.028 53.984C601.784 53.7462 600.495 53.5529 599.725 53.4638C596.985 53.1516 595.963 53.0476 593.874 52.9138C532.061 52.6278 491.305 52.6948 422.287 52.6463ZM583.287 65.609C585.71 65.6013 590.675 65.7295 592.541 65.8744C595.518 66.0974 599.073 66.6324 600.688 67.0932C606.849 68.8322 610.226 71.5521 611.337 75.684C611.722 77.1406 611.914 78.5972 611.811 79.4147C611.589 81.332 611.544 81.5698 611.426 81.8522C611.366 82.0157 611.263 82.3576 611.218 82.6251C611.026 83.7696 609.841 85.7612 608.612 86.9948C607.767 87.8569 606.39 88.9122 606.123 88.9122C606.034 88.9122 605.945 88.9716 605.916 89.0311C605.871 89.1351 603.961 90.1012 603.131 90.4282C602.924 90.5174 602.643 90.6363 602.509 90.7106C602.376 90.7849 601.991 90.889 601.65 90.9336C601.324 90.993 601.013 91.097 600.969 91.1565C600.924 91.2308 600.702 91.2903 600.465 91.2903C600.228 91.2903 599.991 91.3497 599.947 91.4389C599.903 91.5132 599.636 91.5875 599.369 91.5875C599.118 91.5875 598.836 91.647 598.762 91.7213C598.599 91.8699 598.377 91.8997 595.652 92.2415C591.756 92.7468 582.366 92.9847 581.981 92.5982L581.922 65.6663C581.955 65.6292 582.48 65.6115 583.287 65.609ZM511.702 66.2757L561.201 66.3798C561.29 127.185 561.328 101.377 561.29 127.185L511.805 127.095C511.446 117.117 511.632 111.92 511.672 99.3906L550.181 99.242L550.092 86.2963L511.776 85.9098L511.702 66.2757ZM392.741 77.0823C392.766 77.0856 392.789 77.1007 392.812 77.1258L404.217 103.166H381.334L392.715 77.083C392.724 77.0815 392.732 77.0812 392.741 77.0823ZM511.561 158.559V189.507L518.027 189.45C521.65 189.407 524.826 189.318 525.273 189.231C527.337 188.843 528.262 188.557 529.532 187.895C531.163 187.061 531.551 186.832 531.594 186.716C531.623 186.659 531.709 186.616 531.796 186.616C531.868 186.616 532.012 186.531 532.113 186.43C532.214 186.344 532.563 186.069 532.866 185.824C533.761 185.149 535.667 183.078 535.667 182.79C535.667 182.732 535.767 182.576 535.883 182.446C536.172 182.13 536.964 180.577 536.964 180.333C536.964 180.232 537.038 180.143 537.11 180.143C537.196 180.143 537.252 180.015 537.252 179.871C537.252 179.713 537.325 179.541 537.397 179.498C537.484 179.455 537.542 179.223 537.542 179.007C537.542 178.791 537.6 178.563 537.658 178.491C538.163 177.931 538.395 172.149 538.005 170.51C537.283 167.591 536.084 165.362 534.164 163.349C532.316 161.407 529.342 159.708 526.787 159.118C526.47 159.046 525.894 158.918 525.49 158.832C525.057 158.731 522.153 158.66 518.169 158.616L511.561 158.559V158.559L511.561 158.559ZM278.377 158.581V163.825C279.185 164.189 279.956 164.611 280.678 165.108C281.852 165.914 282.891 166.897 283.781 167.999V163.488H289.845C296.303 163.488 300.521 167.916 300.521 173.963C300.521 180.011 296.303 184.348 289.845 184.348H285.086C283.956 186.323 282.379 187.999 280.492 189.256H289.845C299.51 189.256 306.19 182.551 306.19 173.874C306.19 165.195 299.51 158.581 289.845 158.581H278.377ZM478.599 158.631V158.631V189.504L481.41 189.593L481.485 175.411L500.12 175.5L500.321 189.579H503.208V158.659H500.321L500.246 172.681L481.615 172.595L481.41 158.659L478.599 158.631ZM515.967 161.189C516.614 161.187 517.529 161.199 518.807 161.221C521.131 161.25 523.452 161.35 523.972 161.422C525.343 161.637 526.11 161.822 527.048 162.167C530.57 163.49 533.371 166.353 534.54 169.847C535.06 171.386 535.13 171.974 535.13 174.175C535.114 176.389 535.014 177.499 534.783 177.642C534.711 177.685 534.656 177.843 534.656 178.001C534.656 178.144 534.598 178.391 534.525 178.534C534.468 178.664 534.15 179.309 533.847 179.957C533.544 180.618 533.241 181.15 533.183 181.15C533.111 181.15 533.067 181.206 533.067 181.293C533.067 181.882 529.574 185.033 528.924 185.033C528.823 185.033 528.737 185.075 528.737 185.147C528.737 185.205 528.52 185.337 528.275 185.438C528.015 185.553 527.654 185.695 527.481 185.767C527.293 185.839 527.005 185.953 526.832 186.039C525.475 186.614 521.794 186.946 517.55 186.874L514.518 186.831V161.335C514.547 161.256 514.767 161.212 515.406 161.196C515.565 161.192 515.751 161.189 515.967 161.189L515.967 161.189ZM273.026 165.165C266.172 165.165 260.615 170.503 260.615 177.087C260.615 183.671 266.172 189.009 273.026 189.009C279.88 189.009 285.437 183.671 285.437 177.087C285.437 170.503 279.88 165.165 273.026 165.165ZM350.318 166.136C343.513 166.136 338.515 171.538 338.515 178.004C338.515 184.472 343.514 189.736 350.276 189.736C354.71 189.736 357.338 187.978 359.584 185.498L356.437 182.41C354.8 184.086 352.993 185.244 350.534 185.244C346.527 185.244 343.732 181.988 343.732 177.918C343.732 173.934 346.484 170.678 350.276 170.678C352.902 170.678 354.586 171.836 356.176 173.501L359.413 170.037C357.298 167.717 354.631 166.136 350.318 166.136ZM372.987 166.139C371.232 166.139 369.611 166.459 368.136 167.089C366.657 167.713 365.38 168.564 364.302 169.64C363.224 170.712 362.376 171.958 361.759 173.383C361.14 174.808 360.834 176.337 360.834 177.972V178.054C360.834 179.66 361.133 181.164 361.736 182.597C362.339 184.021 363.186 185.264 364.261 186.326C365.332 187.379 366.62 188.218 368.091 188.834C369.574 189.442 371.175 189.751 372.902 189.751C374.65 189.751 376.275 189.435 377.776 188.805C379.258 188.18 380.545 187.334 381.628 186.262C382.702 185.194 383.554 183.94 384.167 182.511C384.785 181.081 385.089 179.566 385.089 177.972V177.879C385.089 176.256 384.789 174.733 384.194 173.318C383.587 171.901 382.743 170.662 381.665 169.593C380.59 168.517 379.31 167.685 377.835 167.064C376.357 166.461 374.732 166.139 372.987 166.139ZM420.285 166.139C418.644 166.139 417.148 166.461 415.799 167.064C414.449 167.685 413.283 168.517 412.289 169.593C411.3 170.662 410.529 171.914 409.985 173.344C409.448 174.769 409.157 176.3 409.157 177.922V178.011C409.157 179.757 409.461 181.353 410.071 182.79C410.669 184.235 411.496 185.467 412.547 186.494C413.597 187.525 414.839 188.322 416.254 188.891C417.68 189.461 419.207 189.751 420.841 189.751C422.938 189.751 424.745 189.366 426.248 188.594C427.759 187.825 429.059 186.797 430.152 185.513L427.087 182.815C426.171 183.697 425.241 184.372 424.294 184.821C423.347 185.279 422.222 185.513 420.93 185.513C419.235 185.513 417.789 185.012 416.597 184.033C415.408 183.046 414.669 181.629 414.378 179.77H431.099C431.13 179.511 431.148 179.26 431.163 179.014C431.178 178.781 431.182 178.543 431.182 178.312C431.182 176.689 430.952 175.136 430.5 173.666C430.036 172.187 429.357 170.894 428.452 169.786C427.54 168.672 426.405 167.791 425.044 167.128C423.679 166.468 422.087 166.139 420.285 166.139H420.285ZM327.297 166.236C326.177 166.236 325.124 166.392 324.131 166.705C323.135 167.018 322.278 167.474 321.539 168.074C320.81 168.67 320.24 169.393 319.82 170.238C319.405 171.084 319.197 172.043 319.197 173.125V173.215C319.197 174.305 319.412 175.21 319.842 175.955C320.274 176.694 320.828 177.319 321.502 177.818C322.179 178.319 322.933 178.723 323.784 179.036C324.633 179.359 325.473 179.628 326.309 179.856C326.968 180.057 327.604 180.251 328.226 180.44C328.84 180.62 329.384 180.84 329.863 181.078C330.334 181.321 330.708 181.596 330.978 181.909C331.259 182.226 331.388 182.598 331.388 183.019V183.113C331.388 183.848 331.077 184.443 330.463 184.889C329.842 185.329 328.976 185.552 327.86 185.552C326.674 185.552 325.452 185.315 324.176 184.843C322.895 184.373 321.636 183.676 320.398 182.765L318.075 186.283C319.513 187.395 321.069 188.235 322.751 188.805C324.429 189.378 326.09 189.665 327.726 189.665C328.906 189.665 330.008 189.515 331.045 189.217C332.078 188.912 332.977 188.477 333.741 187.884C334.502 187.3 335.096 186.572 335.527 185.681C335.957 184.8 336.173 183.752 336.173 182.55V182.471C336.173 181.448 335.957 180.563 335.527 179.856C335.096 179.141 334.542 178.536 333.868 178.029C333.191 177.535 332.44 177.112 331.604 176.768C330.766 176.423 329.941 176.129 329.11 175.873C328.443 175.646 327.81 175.42 327.189 175.231C326.567 175.03 326.024 174.807 325.552 174.562C325.076 174.319 324.703 174.046 324.411 173.748C324.118 173.45 323.978 173.096 323.978 172.695V172.613C323.978 171.957 324.255 171.411 324.817 170.986C325.374 170.557 326.159 170.338 327.163 170.338C328.117 170.338 329.15 170.535 330.265 170.922C331.389 171.311 332.499 171.832 333.592 172.487L335.662 168.798C334.451 168.001 333.12 167.378 331.649 166.917C330.184 166.46 328.73 166.236 327.297 166.236ZM450.693 166.616L459.147 189.077L459.076 189.228C459.076 189.228 457.373 193.81 455.835 194.927C454.647 195.53 451.874 195.485 450.823 195.411V199.642C452.656 199.642 456.972 199.756 458.356 198.882C460.109 197.798 460.494 197.321 461.686 194.913C462.982 192.292 472.952 166.616 472.952 166.616H467.526L461.698 183.199L456.246 166.616H450.693ZM309.307 166.62V189.231H314.528V166.62H309.307ZM385.309 166.62L394.658 189.41H399.353L408.665 166.62H403.194L397.03 183.242L390.91 166.62H385.309ZM435.082 166.62V189.231H440.296V180.627C440.296 179.112 440.441 177.78 440.851 176.689C442.42 172.572 446.805 171.399 449.067 171.069L447.281 166.738C445.456 167.046 442.255 167.925 440.296 170.352V166.62H435.082ZM420.236 170.388C421.107 170.388 421.874 170.537 422.549 170.836C423.216 171.141 423.799 171.561 424.294 172.101C424.777 172.646 425.17 173.273 425.45 174.01C425.745 174.732 425.925 174.969 426.013 175.801H414.337C414.571 174.026 415.211 173.139 416.254 172.032C417.304 170.938 418.626 170.388 420.236 170.388ZM372.902 170.689V170.689C373.931 170.689 374.877 170.875 375.728 171.262C376.57 171.649 377.303 172.175 377.921 172.835C378.538 173.49 379.016 174.256 379.36 175.146C379.709 176.024 379.883 176.974 379.883 177.972V178.054C379.883 179.027 379.72 179.946 379.405 180.82C379.083 181.689 378.627 182.453 378.025 183.113C377.426 183.768 376.702 184.284 375.851 184.674C375.005 185.059 374.048 185.248 372.987 185.248C371.981 185.248 371.052 185.059 370.202 184.674C369.36 184.284 368.623 183.765 368.009 183.088C367.391 182.42 366.907 181.635 366.562 180.752C366.215 179.87 366.044 178.943 366.044 177.972V177.879C366.044 176.89 366.21 175.944 366.525 175.077C366.839 174.202 367.294 173.45 367.901 172.803C368.503 172.167 369.228 171.649 370.078 171.262C370.925 170.875 371.864 170.689 372.902 170.689Z" fill="#00AAD4"/>
</svg>
