<svg width="800" height="250" viewBox="0 0 800 250" fill="none" xmlns="http://www.w3.org/2000/svg">
<path d="M211.738 55.6801C198.444 57.8402 184.912 64.3076 174.827 73.3378C171.774 76.1369 171.23 77.0125 171.23 79.5688C171.23 81.6458 171.78 83.0837 173.031 84.2851C176.003 87.161 178.587 86.5219 185.544 81.0898C193.52 75.0185 202.748 70.545 211.118 68.7875C220.74 66.7872 235.986 67.5094 244.357 70.3085C252.177 72.9479 261.955 78.6165 268.368 84.1318C273.685 88.7651 276.501 89.4872 279.71 87.2505C282.056 85.5697 282.838 81.0195 281.274 78.5398C279.159 75.2614 267.823 66.5572 260.629 62.7227C250.463 57.2906 243.031 55.5331 228.329 55.2135C221.666 55.1241 214.159 55.2839 211.738 55.6801Z" fill="#FF5555"/>
<path d="M215.804 76.3733C207.202 77.6515 197.818 81.2495 194.765 84.3618C192.65 86.5219 192.494 91.6345 194.527 93.4686C196.561 95.3092 201.177 95.1494 205.088 93.1491C213.615 88.6756 226.909 87.1546 235.824 89.5511C241.298 90.989 248.805 94.587 253.184 97.7824C257.564 100.901 261.786 101.38 264.289 98.8241C266.403 96.664 266.322 92.5931 264.051 89.9537C260.06 85.2373 250.444 79.8052 242.468 77.6515C236.837 76.2136 221.979 75.4914 215.804 76.3733Z" fill="#FF5555"/>
<path d="M129.389 81.9653C123.133 83.563 118.047 88.5158 116.564 94.5104C115.544 98.6644 115.388 152.59 116.408 160.495C117.346 167.927 120.787 174.957 126.417 181.188C133.224 188.531 139.167 191.886 147.532 193.088C163.41 195.408 177.329 191.567 186.87 182.224L191.249 177.91L193.989 180.786C198.137 185.183 205.331 189.733 210.881 191.49C221.047 194.686 234.266 194.366 244.588 190.691C249.831 188.774 258.902 182.703 261.48 179.265L263.357 176.868L267.579 180.703C278.371 190.608 289.87 194.686 303.79 193.484C313.486 192.602 323.34 189.567 326.937 186.211C328.188 185.093 328.426 185.17 329.521 187.33C330.146 188.608 332.336 190.845 334.369 192.206C337.735 194.443 338.673 194.686 344.223 194.686C353.532 194.686 357.517 192.526 361.896 185.176L364.011 181.501L364.248 160.731C364.486 142.678 364.636 139.802 365.812 138.92C367.614 137.482 370.192 137.718 372.306 139.482C374.183 141.003 374.183 141.08 374.577 162.489L374.965 184.058L377.155 186.934C381.302 192.526 384.036 193.963 390.918 194.443C399.576 195.082 405.832 192.449 408.885 186.934C409.586 185.572 409.749 185.572 411.857 186.934C416.393 189.893 423.587 193.088 427.654 193.887C430 194.289 436.963 194.686 443.294 194.686C452.834 194.686 455.262 194.366 457.839 193.165C462.062 191.088 465.19 187.975 466.992 183.738L468.481 180.3L473.173 184.294C479.823 189.969 483.733 192.123 491.159 193.963C498.666 195.964 507.506 195.721 516.34 193.484C521.113 192.283 521.582 192.283 523.534 193.567C524.86 194.449 527.288 194.928 531.198 195.005C535.89 195.088 537.535 194.762 540.895 192.928L544.886 190.851L548.64 192.768C554.977 196.047 566.707 195.248 575.228 191.011C580.314 188.455 587.196 182.224 590.243 177.271C594.778 170.081 595.404 167.525 595.873 152.347C596.261 138.524 596.261 138.364 598.063 138.127C601.66 137.565 602.129 138.926 602.129 150.27C602.129 166.726 604.945 174.395 614.485 183.662C623.012 191.97 630.125 194.686 642.794 194.686C656.169 194.603 662.738 191.886 671.809 182.703C678.616 175.75 681.506 170.241 683.152 161.134C685.185 149.707 683.934 142.761 679.242 138.044L676.501 135.328L679.242 132.529C685.498 125.978 685.735 113.114 679.711 106.007C674.937 100.256 672.748 99.6166 656.013 99.6166C645.296 99.6166 641.23 99.3737 640.604 98.5749C640.135 98.0956 639.509 96.1784 639.197 94.4209C638.571 90.7462 632.859 84.0359 628.949 82.3551C627.541 81.7161 624.019 81.2368 621.048 81.2368C611.663 81.2368 605.013 86.0298 602.824 94.3378C602.354 96.1784 601.804 98.0956 601.648 98.5749C601.491 99.2971 599.533 99.6166 595.704 99.6166C589.054 99.6166 581.159 101.617 576.154 104.653C571.931 107.132 565.125 114.558 562.935 119.032C559.338 126.221 558.869 128.541 558.399 142.358L557.93 155.938H554.408H550.886L550.417 145.553C549.866 133.488 548.227 127.576 543.454 120.387C537.116 110.8 524.998 102.25 515.376 100.415C509.039 99.214 495.982 99.4568 490.665 100.818C484.171 102.576 477.133 106.25 472.522 110.487L468.531 114.002L467.592 111.126C466.416 107.528 461.724 102.096 458.596 100.741C452.34 98.102 431.695 98.7411 422.23 102.02C416.443 103.937 410.187 107.854 406.433 111.925L403.931 114.641L399.708 110.724C393.921 105.368 389.929 103.132 382.735 101.214C366.626 96.9772 348.402 100.971 338.861 110.884C336.828 113.044 334.713 114.801 334.244 114.801C333.775 114.801 331.973 113.363 330.334 111.523C326.268 107.286 321.106 104.013 315.395 101.936C309.451 99.7764 296.47 99.0606 288.569 100.415C281.337 101.617 271.952 106.41 266.322 111.606C264.051 113.842 261.861 115.6 261.549 115.6C261.236 115.6 258.89 113.6 256.231 111.203C247.785 103.374 238.088 99.6997 225.733 99.6166C215.329 99.6166 203.911 102.895 197.499 107.765C196.166 108.807 195.697 108.564 192.413 105.285C187.796 100.569 183.654 99.6102 167.151 99.6102C153.775 99.6102 153.7 99.6102 152.837 94.5743C151.973 90.0177 145.642 83.3074 141.182 82.1123C137.365 81.1665 132.986 81.0834 129.389 81.9653ZM456.901 147.074V156.501L447.673 156.418C436.099 156.175 433.753 155.299 431.564 150.423C429.687 146.109 430.156 143.79 433.284 140.677C435.868 138.121 440.716 137.322 451.508 137.482L456.907 137.565V147.074H456.901ZM649.281 138.524C649.594 138.766 649.125 140.121 648.343 141.482C647.48 142.844 646.541 146.199 646.228 148.992C645.446 156.424 642.393 158.501 640.517 152.986C639.578 150.27 639.34 139.322 640.204 138.524C640.836 137.808 648.656 137.808 649.281 138.524Z" fill="#FF5555"/>
<path d="M138.31 92.324C142.314 94.612 143.744 97.472 143.744 104.05V109.198H161.476C177.206 109.198 179.494 109.484 182.354 110.628C184.928 111.772 185.786 112.916 186.93 115.776C188.646 120.066 188.074 122.926 184.928 125.786C182.926 127.788 182.068 128.074 174.918 128.646C170.628 128.932 162.334 129.218 156.614 128.932C150.894 128.646 145.46 128.646 144.602 128.932C143.458 129.218 143.172 130.648 143.172 142.088C143.172 157.818 143.744 160.392 148.034 163.538C151.18 165.826 151.752 165.826 156.614 165.826C161.476 165.54 162.048 165.254 164.622 162.68C166.91 160.392 167.482 158.962 168.054 154.386C168.34 151.24 169.198 148.094 170.056 146.95C172.916 142.66 178.636 141.23 182.64 143.804C185.786 146.092 186.644 145.52 187.216 141.23C188.646 131.792 194.938 121.21 202.946 115.776C221.25 102.906 247.562 109.77 257.286 130.362C258.716 133.508 260.432 136.082 260.718 136.082C261.29 136.082 262.72 133.508 264.15 130.362C272.158 113.202 290.462 105.194 308.194 110.914C318.776 114.346 325.926 120.638 330.502 130.076C333.362 135.796 335.078 136.654 335.936 132.364C336.794 128.36 340.798 121.782 344.516 118.064C351.38 111.486 359.96 108.34 369.97 108.912C384.27 109.77 395.424 118.064 399.714 131.506C400.286 133.508 401.43 135.224 402.002 135.224C402.574 135.224 403.432 133.794 404.004 132.078C405.434 127.788 412.012 118.922 416.302 116.062C422.594 111.772 427.742 109.77 436.322 108.912C444.902 108.054 450.05 108.34 453.482 110.342C456.056 111.486 458.916 117.492 458.344 120.066C456.342 126.644 453.768 127.788 441.47 128.36C432.318 128.646 431.46 128.932 428.314 130.934C426.598 132.078 424.024 134.652 422.88 136.368C420.878 139.514 420.592 140.372 420.592 147.522C420.592 154.672 420.878 155.53 422.88 158.104C424.024 159.82 426.598 162.108 428.314 163.252C431.174 165.254 432.318 165.54 441.184 165.826C452.91 166.398 455.198 167.256 457.2 172.404C458.63 176.408 458.058 179.84 454.912 182.7C453.196 184.416 452.052 184.702 444.616 184.988C440.04 185.274 434.32 184.988 431.746 184.416C421.164 182.128 410.868 174.978 406.292 166.112C402.574 158.676 401.716 159.534 401.43 170.402L401.144 179.554L398.284 182.128C394.852 185.274 392.278 185.56 387.988 183.558C383.126 181.27 383.126 180.984 382.84 157.246L382.554 135.51L379.122 132.078L375.976 128.646H369.112C361.39 128.646 358.53 129.79 355.956 133.508C354.526 135.51 354.526 137.798 353.954 157.532L353.668 179.554L350.808 182.128C347.376 185.274 343.944 185.846 339.94 183.558C336.222 181.842 335.364 178.124 335.364 168.114C335.364 157.532 334.506 156.96 330.788 164.396C327.356 170.974 321.35 177.266 315.058 180.412C310.196 182.7 309.624 182.986 300.186 182.986H291.32L284.742 179.84C276.734 175.836 271.872 170.974 267.582 162.966C264.436 156.674 263.006 155.816 262.148 159.248C261.576 162.108 256.142 170.116 252.996 173.548C235.836 190.994 204.662 185.846 193.794 163.252C190.934 157.246 189.504 156.674 188.074 161.822C186.93 166.112 182.926 172.404 179.494 175.55C175.49 179.268 168.34 182.7 162.334 183.558C152.324 185.274 141.742 181.842 134.592 174.692C131.16 170.974 127.156 162.966 126.012 157.246C125.44 154.958 125.154 140.944 125.154 126.072C125.154 96.042 125.44 94.898 130.588 92.324C134.02 90.322 134.592 90.608 138.31 92.324Z" fill="white"/>
<path d="M220.106 125.214C217.818 129.504 215.816 133.508 215.244 134.08C214.672 134.652 210.954 135.51 206.664 136.082C196.94 137.512 195.51 137.798 195.51 138.656C195.51 138.942 198.37 142.088 201.802 145.52C205.234 148.952 208.38 152.384 208.952 152.956C209.524 153.814 209.238 157.246 208.094 162.966C207.236 167.542 206.664 171.832 206.664 172.118C206.664 173.548 210.382 172.404 217.532 168.972L225.254 164.968L232.69 168.972C239.84 172.69 244.416 173.834 244.416 172.118C244.416 171.546 243.844 168.686 243.272 165.54C240.698 152.384 240.126 154.386 247.848 146.664C251.852 142.374 254.426 139.228 254.14 138.656C253.854 137.798 251.28 137.226 246.704 136.368C234.692 134.652 236.122 135.51 231.26 125.786C228.114 119.494 226.684 117.206 225.54 117.206C224.396 117.206 222.966 119.494 220.106 125.214Z" fill="#FF5555"/>
<path d="M292.178 129.504C279.88 133.508 275.876 150.668 284.742 160.392C289.318 165.254 291.32 166.112 298.184 166.112C302.474 166.112 305.048 165.826 307.05 164.682C317.632 158.962 320.492 144.662 313.056 135.224C311.626 133.508 309.338 131.22 307.908 130.648C304.762 128.646 295.896 128.074 292.178 129.504Z" fill="#FF5555"/>
<path d="M624.796 92.038C628.228 93.754 630.23 98.616 630.23 104.336V109.198H648.534C669.412 109.198 670.556 109.484 672.844 114.632C674.56 118.636 673.988 123.212 671.414 125.786L669.412 127.788L649.678 128.074L630.23 128.36L630.516 143.518L630.802 158.676L633.948 162.108C637.094 165.254 637.38 165.54 642.242 165.54C650.822 165.54 654.826 161.25 655.398 151.812C656.542 137.798 673.988 139.8 673.988 153.814C673.988 165.826 666.838 176.98 655.684 182.128C647.104 186.418 637.952 186.132 629.086 181.27C623.08 178.41 620.506 175.836 617.36 170.974C612.498 163.252 611.64 158.962 611.64 142.66V128.36L601.344 128.646C591.62 128.932 591.048 128.932 589.046 131.22L586.758 133.508L586.472 148.666C586.186 162.966 585.9 163.824 583.898 168.114C579.894 176.408 572.744 182.414 564.164 184.416C559.588 185.56 559.016 185.56 555.584 184.13C551.294 182.414 549.006 179.268 549.006 174.692C549.006 170.402 553.01 166.112 557.3 166.112C561.018 166.112 565.308 164.11 566.452 161.822C567.024 160.678 567.596 154.672 567.882 145.234C568.454 130.648 568.454 130.362 570.742 125.786C573.888 119.78 578.75 114.632 584.184 112.058C588.188 110.056 589.618 109.77 599.914 109.484L611.354 109.198L611.64 103.192C611.926 100.046 612.498 96.328 613.07 95.47C615.072 90.894 620.22 89.75 624.796 92.038Z" fill="white"/>
<path d="M516.402 111.486C526.698 115.49 534.134 123.212 538.71 133.794C540.712 138.942 540.712 139.514 540.998 157.246C541.284 169.258 540.998 176.694 540.426 178.41C539.568 181.556 535.564 184.702 532.704 184.702C530.702 184.702 526.698 182.7 524.696 180.984C523.552 179.84 522.98 180.126 519.262 181.556C516.974 182.414 512.398 183.844 508.68 184.416C502.96 185.56 501.53 185.56 496.954 184.416C485.514 181.842 476.362 174.978 471.214 165.54C464.064 152.384 464.636 137.798 472.358 126.072C477.792 117.778 483.226 113.488 492.664 110.342C498.67 108.626 510.11 108.912 516.402 111.486Z" fill="white"/>
<path d="M497.526 129.218C488.946 131.22 483.512 142.088 485.514 152.67C486.372 156.102 487.23 157.532 490.09 160.678C494.666 165.254 496.668 166.112 503.246 166.112C513.542 166.112 520.406 160.392 521.836 150.096C523.552 138.37 515.544 128.646 504.39 128.646C502.102 128.646 498.956 128.932 497.526 129.218ZM506.392 138.942C509.538 140.372 512.398 144.376 512.398 147.808C512.398 150.954 508.966 154.958 505.82 155.816C501.53 156.96 496.668 154.1 495.238 149.524C494.094 145.806 495.81 141.802 499.242 139.514C502.102 137.512 502.674 137.512 506.392 138.942Z" fill="#FF5555"/>
</svg>
