<svg width="800" height="250" viewBox="0 0 800 250" fill="none" xmlns="http://www.w3.org/2000/svg">
<path d="M447.414 22.9222H353.316C322.648 22.9222 297.922 47.6483 297.922 78.3156V172.502C297.922 203.169 322.736 227.895 353.316 227.895H447.502C478.169 227.895 502.895 203.082 502.895 172.502V78.3156C502.895 47.6483 478.082 22.9222 447.414 22.9222Z" fill="#01216A"/>
<path d="M422.601 156.6H412.728V162.541H422.601L423.475 161.668L423.562 161.493V157.649L422.601 156.6Z" fill="white"/>
<path d="M362.49 163.59L363.538 162.454V157.911L362.926 157.299L362.49 156.862H352.529V163.59H362.49Z" fill="white"/>
<path d="M448.288 21H352.442C321.25 21 296 46.2503 296 77.4418V173.376C296 204.567 321.25 229.817 352.442 229.817H448.376C479.567 229.817 504.817 204.567 504.817 173.376V77.4418C504.817 46.2503 479.48 21 448.288 21ZM420.155 75.0828H442.434L451.259 90.4602L460.171 75.0828H481.751L472.053 92.0329L462.18 109.332L483.761 146.465H461.481L450.997 128.379L448.987 131.874L440.599 146.465H418.931L440.075 109.594L420.155 75.0828ZM317.231 74.9954H360.305L360.655 79.6261L361.703 94.5666H337.589V103.828H357.247V123.312H337.501V146.465H317.319L317.231 74.9954ZM340.647 173.113L339.074 174.686L338.462 175.298L338.113 175.647L337.065 176.696H315.571V172.939L317.493 171.104H332.871L332.958 171.016L333.482 170.492V166.997L333.395 166.91L333.133 166.561H318.891L315.746 163.415V154.765L319.416 151.096H340.122V155.115L338.637 156.6H323.609L323.435 156.775L322.998 157.212V160.619L323.435 161.056H337.676L340.821 164.202V173.113H340.647ZM370.877 164.638L370.615 164.9L366.858 168.657H352.617V176.696H345.365V151.183H366.858L368.518 152.843L370.965 155.29L370.877 164.638ZM361.092 110.818C361.092 91.596 376.382 76.0439 395.166 76.0439C413.951 76.0439 429.241 91.596 429.241 110.818C429.241 130.039 413.951 145.591 395.166 145.591C376.294 145.591 361.092 130.039 361.092 110.818ZM400.758 155.29V172.677L396.652 176.783H378.828L374.809 172.677V155.29L378.828 151.183H396.652L400.758 155.29ZM431.95 176.696H423.824L420.417 167.609H412.728V176.696H405.476V151.183H427.144L430.814 154.853V162.804L427.319 166.298L429.94 172.327L431.95 176.696ZM457.549 157.387H449.162V176.783H441.91V157.387H433.522V151.271H457.637V157.387H457.549ZM485.159 173.113L482.45 175.822L481.577 176.696H460.083V172.939L461.044 172.065L462.005 171.104H477.383L477.47 171.016L477.994 170.492V166.997L477.558 166.561H463.316L461.394 164.638L460.083 163.328V154.678L463.753 151.008H484.372V155.028L482.887 156.513H467.859L467.248 157.124V160.532L467.685 160.969H481.926L485.071 164.114L485.159 173.113Z" fill="white"/>
<path d="M393.506 169.531L392.021 171.017H383.546L382.061 169.531L383.546 171.017H392.021L393.506 169.531V158.435V169.531Z" fill="white"/>
<path d="M392.108 157.037L392.021 156.95H383.546L382.061 158.435V169.531L383.546 171.016H392.021L393.506 169.531V158.435L392.108 157.037Z" fill="white"/>
<path d="M393.506 158.435L392.021 156.95H383.546L382.061 158.435L383.546 156.95H392.021L392.108 157.037L393.506 158.435Z" fill="white"/>
<path d="M401.282 125.059V96.4888C401.282 93.2561 398.487 90.2855 395.254 90.2855C392.108 90.2855 389.487 93.1687 389.487 96.4888V124.972C389.487 128.205 392.108 130.913 395.254 130.913C398.399 130.913 401.282 128.379 401.282 125.059Z" fill="white"/>
</svg>
