<svg width="800" height="250" viewBox="0 0 800 250" fill="none" xmlns="http://www.w3.org/2000/svg">
<g clip-path="url(#clip0_17_1190)">
<path d="M183 102.227V132.892C183 144.738 190.845 152.977 205.627 152.977C220.565 152.977 228.924 145.009 228.924 130.233V100.86L215.271 101.253V128.748C215.271 136.2 211.077 140.335 205.881 140.335C201.044 140.335 196.653 137.006 196.653 129.394V101.908L183 102.227Z" fill="white"/>
<path d="M238.439 151.954V100.15L251.582 99.8376L271.62 127.091V98.912H285.356V151.954H273.193L252.092 123.775V151.954H238.439Z" fill="white"/>
<path d="M309.601 151.954H295.534V98.5925L309.601 98.1973V151.954Z" fill="white"/>
<path d="M315.992 98.0832L336.079 151.954H349.501L369.041 97.6653L353.547 97.8322L343.194 131.961L331.411 98.0832H315.992Z" fill="white"/>
<path d="M374.969 151.954V97.5031H415.018V110.349H389.202V118.803H412.536V130.406H389.202V139.522H415.349V151.954H374.969Z" fill="white"/>
<path d="M424.281 97.5009V151.942H438.27V135.366H445.303L453.759 151.942H470.127L458.31 133.242C463.397 130.661 468.549 126.199 468.549 116.278C468.549 105.313 460.802 97.5009 447.837 97.5009H424.281ZM438.27 110.088H446.131C452.456 110.088 454.664 113.788 454.664 117.003C454.664 120.998 450.977 123.452 446.958 123.452H438.27V110.088Z" fill="white"/>
<path d="M480.497 133.998L472.44 144.068C479.383 149.621 483.84 152.912 495.836 152.912C507.401 152.912 516.042 147.271 516.042 135.418C516.042 116.848 488.714 120.32 488.714 112.921C488.714 111.362 490.41 109.757 493.935 109.757C499.642 109.757 504.451 112.718 507.889 115.309L514.882 104.69C508.974 99.9827 502.427 97.3951 494.451 97.3951C480.822 97.3951 475.051 104.935 475.051 113.953C475.051 134.017 502.217 129.387 502.217 136.903C502.217 138.829 500.277 140.582 496.126 140.582C488.809 140.582 484.884 137.15 480.497 133.998Z" fill="white"/>
<path d="M539.53 99.1067L518.119 151.941H533.013L536.323 142.825H555.355L558.794 151.941H573.869L552.769 99.3915L539.53 99.1067ZM545.891 116.356L551.528 131.222H540.46L545.891 116.356Z" fill="white"/>
<path d="M617 151.954H579.765V100.828L593.418 101.205V139.845L617 140.098V151.954Z" fill="white"/>
<path d="M471.782 188.42V167.452H463.755V163.308H483.945V167.452H475.919V188.42H471.782Z" fill="white"/>
<path d="M488.331 163.308H493.159L500.834 182.201L508.463 163.308H513.246L502.717 188.42H498.716L488.331 163.308Z" fill="white"/>
<path d="M284.663 85.6515C297.397 45.834 339.989 7 396.196 7C447.894 7 494.896 43.012 507.588 88.9666H501.86C482.922 38.7388 436.214 16.8307 398.998 16.8307C354.373 16.8307 317.149 46.0999 301.906 85.4218L284.663 85.6515Z" fill="white"/>
<path d="M285.604 166.043C295.397 201.253 333.293 244 395.697 244C437.992 244 469.898 224.549 488.972 198.423H482.559C462.537 222.348 432.079 237.13 398.5 237.13C361.973 237.13 315.295 218.345 296.361 166.043H285.604Z" fill="white"/>
</g>
<defs>
<clipPath id="clip0_17_1190">
<rect width="434" height="237" fill="white" transform="translate(183 7)"/>
</clipPath>
</defs>
</svg>
