<svg width="800" height="250" viewBox="0 0 800 250" fill="none" xmlns="http://www.w3.org/2000/svg">
<path d="M332.566 112.39C330.432 104.652 326.572 97.3679 321.577 91.1314C315.674 83.8933 307.773 78.2485 299.009 75.062C289.155 71.1015 278.165 70.6463 267.857 72.7858C262.045 74.3336 256.414 76.6552 251.283 79.7963C242.155 85.6687 234.572 94.1358 230.349 104.196C228.078 109.34 226.716 114.894 225.899 120.448C225.626 123.771 225.717 127.14 225.808 130.463C226.716 139.522 229.759 148.353 234.663 156.001C238.069 161.099 242.337 165.56 247.151 169.384C254.552 175.211 263.498 178.899 272.852 180.037C276.576 180.446 280.391 180.856 284.16 180.401C290.199 180.128 295.966 178.125 301.597 175.985C313.585 170.704 323.53 161.008 329.161 149.172C330.478 145.94 331.749 142.708 332.657 139.34C334.292 133.331 334.11 127.049 333.974 120.903C333.838 118.035 333.157 115.213 332.566 112.39ZM304.503 138.429C301.188 145.44 295.012 151.221 287.429 153.224C281.208 155.409 274.396 154.18 268.448 151.676C261.318 148.262 255.915 141.616 253.871 134.013C252.645 130.235 252.872 126.184 253.054 122.269C254.325 111.116 262.862 100.873 273.942 98.506C280.391 97.1858 287.474 98.0508 293.196 101.374C300.507 105.471 305.684 113.073 306.955 121.358C307.682 127.094 307.182 133.194 304.503 138.429ZM231.711 97.0037C229.577 102.375 227.397 107.702 225.49 113.119C224.037 117.216 222.175 121.085 220.722 125.137C214.592 140.933 208.507 156.775 202.331 172.525C201.332 174.847 200.197 177.76 197.518 178.398C192.068 178.671 186.619 178.398 181.17 178.489C180.08 178.398 178.763 178.716 177.855 177.897C176.22 176.395 175.403 174.21 174.54 172.207C170.272 161.418 166.276 150.538 161.962 139.749C156.195 124.636 150.337 109.522 144.57 94.409C142.345 88.2635 139.802 82.3 137.849 76.109C137.531 75.1985 137.44 74.197 137.622 73.2411C139.348 72.8314 141.164 72.8314 142.98 72.8314C149.202 72.7858 155.377 72.7858 161.598 72.7858C162.643 72.8314 163.96 72.6948 164.55 73.7873C166.003 76.1545 166.821 78.8403 167.82 81.4351C173.814 98.5515 179.899 115.668 186.029 132.784C187.028 134.605 187.164 136.836 188.39 138.475C189.616 137.61 189.253 135.789 189.889 134.56C192.568 127.549 194.748 120.357 197.154 113.255C199.016 107.793 200.742 102.284 202.513 96.7761C203.92 92.3149 205.328 87.7172 208.28 83.9388C211.413 79.8873 215.636 76.6552 220.359 74.6978C226.398 71.8299 233.21 71.2381 239.794 71.4202C240.021 72.103 240.384 72.7858 240.203 73.5597C239.567 76.7918 238.159 79.7963 237.115 82.8918C235.253 87.5806 233.618 92.3149 231.711 97.0037ZM336.108 170.522C336.381 165.378 335.654 160.28 335.791 155.136C335.881 148.717 335.7 142.344 335.836 135.925C336.199 131.828 336.063 127.731 336.063 123.634C335.473 115.713 335.972 107.793 335.791 99.8717C335.836 92.1784 335.881 84.4396 335.836 76.7463C335.836 75.9269 335.881 75.062 336.108 74.197C336.517 72.6493 337.97 71.6023 339.56 71.8299C340.876 72.012 342.829 72.3306 345.599 73.0135C349.504 74.7433 353.818 76.5187 356.27 80.0694C358.087 82.6642 359.858 87.444 361.265 91.7232C363.036 97.1403 363.945 102.785 363.945 108.521C363.945 119.173 363.945 129.825 363.99 140.432C364.081 144.484 363.854 148.581 364.217 152.632C375.842 152.587 387.467 152.541 399.092 152.632C400.954 152.632 402.815 152.723 404.632 153.042C405.767 153.269 405.994 154.908 406.13 155.955C406.267 162.192 406.176 168.383 406.13 174.619C406.221 176.668 404.45 178.807 402.271 178.489C381.2 178.534 360.176 178.534 339.105 178.489C339.151 178.489 335.7 178.716 336.108 170.522ZM382.835 79.1135C381.972 77.2926 381.291 75.3806 381.654 73.3776C382.381 73.15 383.108 72.8769 383.88 72.8314C390.146 72.3761 396.413 72.6037 402.725 72.5582C404.405 72.6493 406.13 72.5582 407.765 73.0135C408.9 73.9239 409.354 75.3806 410.036 76.6097C411.852 80.8888 413.169 85.35 414.758 89.7202C418.073 98.9612 421.297 108.248 424.658 117.443C425.202 119.082 425.929 120.675 426.247 122.405C427.791 125.364 428.608 128.687 429.88 131.783C430.879 134.196 431.242 136.927 432.831 139.021C434.784 131.464 437.599 124.135 440.006 116.715C442.367 109.659 444.592 102.557 446.954 95.5015C447.862 92.7246 448.679 89.9023 450.223 87.3985C453.084 82.209 457.852 78.3851 462.983 75.6537C466.071 74.3791 469.25 73.1045 472.565 72.5127C479.649 71.5567 486.824 72.012 493.998 71.8754C513.525 71.8754 533.051 71.7843 552.577 71.8754C554.076 71.8299 555.937 72.6037 555.892 74.3791C556.119 78.203 554.666 81.9358 552.94 85.259C550.851 89.1739 547.4 92.2694 543.495 94.3634C540.18 95.7746 536.593 96.6851 533.005 96.5485C524.241 96.503 515.477 96.6851 506.759 96.503C506.214 98.6426 506.577 100.919 506.486 103.104C506.622 106.746 506.35 110.433 506.804 114.075C513.116 114.348 519.428 114.075 525.74 114.166C531.643 114.257 537.546 114.029 543.404 114.302C543.995 114.348 544.494 114.803 544.63 115.395C545.402 119.902 545.039 124.499 545.13 129.052C545.175 130.599 545.13 132.147 544.812 133.649C544.676 134.332 544.085 134.878 543.404 135.06C541.815 135.425 540.089 135.243 538.455 135.288C527.92 135.243 517.384 135.379 506.849 135.243C506.214 137.246 506.486 139.34 506.441 141.343C506.486 144.984 506.395 148.626 506.531 152.268C506.486 153.087 507.258 153.588 507.985 153.406C523.288 153.406 538.591 153.315 553.894 153.452C554.484 153.406 555.075 153.497 555.62 153.679C556.573 153.998 557.209 154.908 557.3 155.955C557.345 156.547 557.345 157.139 557.345 157.731C557.391 162.738 557.345 167.746 557.345 172.753C557.345 174.301 557.436 175.985 556.664 177.396C555.256 178.534 553.304 178.398 551.578 178.443C530.372 178.443 509.211 178.443 488.004 178.398C485.552 178.398 483.009 178.534 480.648 177.806C480.058 177.533 479.558 177.123 479.195 176.577C478.604 174.119 478.832 171.569 478.786 169.066C478.741 142.799 478.922 116.533 478.695 90.312C478.241 90.6306 477.56 90.8127 477.424 91.45C476.606 94.7276 475.108 97.8232 474.109 101.055C466.571 120.357 458.942 139.613 451.495 158.96C449.361 164.104 447.68 169.475 445.228 174.483C444.365 176.44 442.731 178.534 440.369 178.398C434.602 178.443 428.835 178.443 423.068 178.352C421.206 178.352 420.434 176.213 419.662 174.802C416.211 167.29 413.623 159.415 410.49 151.767L385.06 84.5761C384.47 82.8008 383.698 80.9343 382.835 79.1135ZM600.712 143.027C601.62 143.072 602.21 143.801 602.573 144.484C607.886 154.271 612.836 164.149 618.149 173.937C619.33 176.076 621.101 178.58 623.825 178.489C628.048 178.534 632.317 178.534 636.54 178.534C640.899 178.398 645.349 178.899 649.618 177.669C649.936 174.938 648.483 172.525 647.302 170.204C645.849 167.245 644.396 164.331 642.897 161.418C638.765 153.087 633.952 145.121 629.774 136.836C631.545 135.015 634.088 134.059 635.541 131.919C637.993 130.326 639.719 127.822 641.49 125.501C645.985 119.355 647.892 111.434 647.03 103.878C646.803 102.375 646.666 100.828 646.031 99.4164C645.985 97.6866 645.304 96.0933 644.714 94.5455C642.307 88.309 638.084 82.7552 632.725 78.7948C626.913 74.8343 620.056 71.9209 612.927 71.9664C597.351 71.8754 581.73 71.9664 566.155 72.012C564.247 71.8299 562.476 73.5142 562.749 75.4261C562.84 109.113 562.749 142.799 562.794 176.531C562.749 177.169 562.976 177.624 563.521 177.988C574.328 179.991 586.044 172.935 589.404 162.419C589.404 162.419 590.04 160.781 590.494 156.046C590.494 152.086 590.631 148.08 590.403 144.074C590.403 143.664 590.676 143.254 591.085 143.209C593.628 142.708 600.712 143.027 600.712 143.027ZM608.84 119.674C603.118 120.311 597.397 120.129 591.675 120.084C591.402 120.084 591.085 119.947 590.903 119.765C590.721 119.583 590.631 119.355 590.631 119.128C590.449 111.025 590.449 102.876 590.54 94.7732C590.54 94.5 590.767 94.3179 590.994 94.3179C595.126 94.2269 599.304 94.2269 603.436 94.2269C607.205 94.1814 611.156 95.0008 614.062 97.5045C616.741 99.9627 618.512 103.559 618.331 107.246C618.648 112.891 614.562 118.763 608.84 119.674Z" fill="#FE1B20"/>
</svg>
