<svg width="800" height="250" viewBox="0 0 800 250" fill="none" xmlns="http://www.w3.org/2000/svg">
<g clip-path="url(#clip0_13_505)">
<path d="M225.161 103.453H205.712V127.875C205.712 134.853 201.39 139.307 194.758 139.307C188.125 139.307 183.803 134.853 183.803 127.875V103.453H164.429V127.875C164.429 136.561 167.41 143.984 173.073 149.403C178.513 154.599 186.263 157.42 194.758 157.42C198.632 157.42 202.284 156.826 205.712 155.713V156.455C205.712 163.359 201.39 168.555 194.758 168.555H186.71L169.571 185.926H193.863C196.471 185.926 197.291 185.852 197.291 185.852C204.743 185.332 211.524 182.585 216.368 177.909C221.584 173.009 224.564 166.402 225.086 158.756V130.845V103.453H225.161ZM632.845 109.763V90.165H618.463V69.0828H598.716V134.111C598.716 143.836 602.517 153.04 609.372 159.87L623.381 145.988C620.177 142.871 618.463 138.639 618.463 134.111V109.837L632.845 109.763ZM572.113 96.4748C570.4 93.0601 568.09 89.7939 565.258 86.973L551.323 100.855C554.453 104.047 556.241 108.204 556.241 112.658V157.643H575.988V126.465C575.988 122.011 577.777 117.78 580.907 114.662C584.036 111.47 588.209 109.763 592.755 109.763V90.165C585.229 90.165 578.149 92.392 572.113 96.4748ZM461.455 97.811C454.525 90.9074 445.434 87.1957 435.672 87.1957C427.55 87.1957 420.024 89.8681 413.913 94.3963C412.348 91.7239 410.485 89.2 408.25 86.973L394.315 100.855C397.445 104.047 399.233 108.204 399.233 112.658V123.347V123.421V186H418.98V155.787C423.973 158.385 429.711 159.944 435.747 159.944C455.866 159.944 472.26 143.613 472.26 123.57C472.111 113.771 468.385 104.64 461.455 97.811ZM435.672 140.198C426.432 140.198 418.98 132.701 418.906 123.496C418.906 114.291 426.432 106.793 435.672 106.793C440.143 106.793 444.391 108.501 447.52 111.618C450.65 114.81 452.439 118.967 452.439 123.421C452.439 132.701 444.912 140.198 435.672 140.198ZM376.505 105.754L368.308 101.3C362.72 98.3307 357.205 95.5098 357.205 90.462C357.205 85.4141 362.273 83.9294 367.638 83.9294H368.085C371.662 84.0779 375.164 85.1914 379.859 88.3092L393.793 74.5018C387.087 67.9693 377.474 65 368.085 65V65.0742L366.147 65C352.809 65 336.415 75.6896 336.415 90.5362C336.415 103.601 344.91 110.876 353.48 115.404L361.602 119.858C368.308 123.57 373.525 126.539 373.525 131.661C373.525 137.452 368.159 140.569 363.092 140.569C357.131 140.569 351.244 136.858 347.518 131.661L334.85 147.25C342.302 156.901 353.107 159.87 363.092 159.87C379.113 159.87 394.315 147.696 394.315 131.661C394.39 119.933 387.087 111.396 376.505 105.754ZM539.698 97.811C532.768 90.9074 523.677 87.1957 513.915 87.1957C493.796 87.1957 477.402 103.527 477.402 123.496C477.402 143.539 493.796 159.87 513.915 159.87C534.035 159.87 550.429 143.539 550.429 123.496C550.429 113.771 546.554 104.64 539.698 97.811ZM513.915 140.198C504.675 140.198 497.149 132.701 497.149 123.496C497.149 114.291 504.675 106.793 513.915 106.793C518.386 106.793 522.559 108.501 525.764 111.618C528.968 114.81 530.682 118.967 530.682 123.421C530.682 132.701 523.156 140.198 513.915 140.198ZM657.734 129.434C650.953 126.91 638.21 122.753 638.21 107.758C638.21 95.0644 651.698 86.1564 665.186 86.1564C676.438 86.1564 683.144 89.9423 689.478 95.881L678.673 109.317C675.693 105.902 670.476 104.121 666.676 104.121C661.609 104.121 657.659 105.309 657.659 109.02C657.659 111.693 661.385 112.806 664.366 113.771L670.402 115.998C679.12 119.264 689.925 122.753 689.925 137.6C689.925 151.036 676.587 160.761 662.95 160.761C651.698 160.761 642.756 157.791 635.975 150.368L633.888 147.993L646.035 135.15L646.705 135.893C649.835 139.456 656.244 143.019 661.46 143.019C666.676 143.019 670.476 141.534 670.476 137.303C670.476 134.037 666.676 132.998 663.695 131.81L657.734 129.434ZM278.962 139.53C263.984 139.53 251.763 127.356 251.763 112.361C251.763 97.4399 263.984 85.2656 278.962 85.2656C286.265 85.2656 293.046 88.0865 298.188 93.2086L312.569 78.9558C303.627 70.0479 291.705 65.0742 279.037 65.0742C252.881 65.0742 231.569 86.2307 231.495 112.361C231.495 138.491 252.732 159.721 278.962 159.796M278.962 159.796C291.63 159.796 303.627 154.896 312.495 145.988L298.188 131.661C293.046 136.783 286.265 139.604 278.962 139.604M176.352 86.3049V66.6331H111V86.3049H133.802V157.717H153.549V86.3049H176.352Z" fill="white"/>
</g>
<defs>
<clipPath id="clip0_13_505">
<rect width="579" height="121" fill="white" transform="translate(111 65)"/>
</clipPath>
</defs>
</svg>
