<svg width="800" height="250" viewBox="0 0 800 250" fill="none" xmlns="http://www.w3.org/2000/svg">
<path d="M420.047 191.025C383.74 191.025 354.153 161.361 354.153 124.959C354.153 88.5566 383.74 58.8925 420.047 58.8925C456.354 58.8925 485.941 88.5566 485.941 124.959C485.941 161.443 456.354 191.025 420.047 191.025ZM420.047 22.2437C363.414 22.2437 317.6 68.2601 317.6 124.959C317.6 128.492 317.764 131.944 318.092 135.395C319.157 135.313 320.222 135.313 321.288 135.313C346.777 135.313 367.348 156.02 367.348 181.493C367.348 191.19 364.316 200.229 359.234 207.624C376.282 220.196 397.263 227.674 420.047 227.674C476.68 227.674 522.494 181.658 522.494 124.959C522.494 68.2601 476.68 22.2437 420.047 22.2437Z" fill="#2497FF"/>
<path fill-rule="evenodd" clip-rule="evenodd" d="M318.092 135.477C319.157 135.395 320.222 135.395 321.288 135.395C346.695 135.395 367.348 156.102 367.348 181.576C367.348 191.272 364.398 200.311 359.234 207.706C336.614 190.943 321.124 165.059 318.092 135.477Z" fill="#123B80"/>
<path fill-rule="evenodd" clip-rule="evenodd" d="M318.092 135.477C294.078 137.12 275.146 157.088 275.146 181.576C275.146 207.131 295.799 227.756 321.206 227.756C336.942 227.756 350.875 219.786 359.152 207.706C336.614 190.943 321.042 165.059 318.092 135.477Z" fill="#F9CF1C"/>
</svg>
