<svg width="800" height="250" viewBox="0 0 800 250" fill="none" xmlns="http://www.w3.org/2000/svg">
<g clip-path="url(#clip0_17_1625)">
<path d="M217 120.078V216.924H249.276V182.199H278.795V216.924H311.063V120.078H278.795V154.248H249.276V120.078H217Z" fill="#00B5E2"/>
<path d="M368.255 118.011C360.622 118.011 353.568 119.278 347.085 121.814C340.603 124.349 334.971 127.88 330.189 132.398C325.407 136.917 321.678 142.262 319.011 148.441C316.344 154.62 315.015 161.307 315.015 168.501V168.778C315.015 176.248 316.411 183.071 319.216 189.25C322.021 195.429 325.885 200.731 330.805 205.158C335.724 209.586 341.474 213.005 348.049 215.403C354.624 217.801 361.678 219 369.218 219C378.047 219 386.052 217.658 393.225 214.983C400.397 212.307 406.6 208.804 411.843 204.469V159.652H365.079V180.401H381.636V190.082C380.351 190.82 378.876 191.369 377.22 191.737C375.565 192.106 373.359 192.292 370.601 192.292C367.2 192.292 364.101 191.743 361.296 190.637C358.492 189.531 356.076 187.96 354.053 185.93C352.029 183.901 350.438 181.462 349.289 178.603C348.14 175.743 347.567 172.601 347.567 169.19V168.922C347.567 165.6 348.098 162.553 349.155 159.786C350.212 157.02 351.701 154.622 353.633 152.593C355.565 150.563 357.863 148.976 360.529 147.824C363.195 146.671 366.092 146.088 369.218 146.088C373.265 146.088 377.036 146.832 380.53 148.307C384.024 149.782 387.383 151.858 390.602 154.534L408.667 132.667C403.425 128.057 397.473 124.468 390.807 121.885C384.141 119.303 376.623 118.011 368.255 118.011Z" fill="#00B5E2"/>
<path d="M412.075 120.078V147.475H438.667V216.924H468.875V147.475H495.468V120.078H412.075Z" fill="#00B5E2"/>
<path d="M473.754 120.078L512.926 217.613H543.828L583 120.078H547.414L528.654 174.451L509.893 120.078H473.754Z" fill="#00B5E2"/>
<path d="M344.671 31L218.812 113.657L468.599 114.092L344.671 31Z" fill="#00B5E2"/>
</g>
<defs>
<clipPath id="clip0_17_1625">
<rect width="366" height="188" fill="white" transform="translate(217 31)"/>
</clipPath>
</defs>
</svg>
