<svg width="800" height="250" viewBox="0 0 800 250" fill="none" xmlns="http://www.w3.org/2000/svg">
<path d="M399.886 239.771C463.335 239.771 514.771 188.335 514.771 124.886C514.771 61.436 463.335 10 399.886 10C336.436 10 285 61.436 285 124.886C285 188.335 336.436 239.771 399.886 239.771Z" fill="white"/>
<path d="M424.864 107.661C424.542 107.21 424.188 106.856 423.77 106.502C423.383 106.18 422.901 105.89 422.418 105.665C421.935 105.44 421.388 105.279 420.776 105.15C420.197 105.021 419.553 104.989 418.844 104.989C418.168 104.989 417.525 105.053 416.881 105.15C416.269 105.246 415.69 105.44 415.11 105.665C414.563 105.89 414.016 106.18 413.501 106.502C412.986 106.824 412.503 107.242 411.988 107.661C411.086 108.466 410.346 109.399 409.702 110.461C409.058 111.524 408.511 112.683 408.028 113.97C407.545 115.226 407.159 116.61 406.805 118.059C406.451 119.507 406.129 121.052 405.839 122.694C405.517 124.304 405.227 125.849 405.034 127.33C404.841 128.778 404.68 130.195 404.648 131.482C404.616 132.77 404.68 133.961 404.906 135.024C405.131 136.086 405.485 137.019 406.032 137.856C406.354 138.307 406.708 138.693 407.127 139.015C407.513 139.369 407.996 139.627 408.479 139.884C408.994 140.11 409.541 140.271 410.121 140.367C410.7 140.496 411.376 140.528 412.052 140.528C412.76 140.496 413.404 140.432 414.048 140.335C414.692 140.206 415.271 140.013 415.851 139.788C416.43 139.53 416.977 139.241 417.492 138.886C418.007 138.532 418.523 138.146 419.005 137.663C419.907 136.858 420.647 135.893 421.259 134.798C421.903 133.704 422.418 132.545 422.901 131.225C423.158 130.517 423.383 129.808 423.609 129.036C423.802 128.392 423.963 127.748 424.124 127.072C424.478 125.624 424.8 124.078 425.09 122.469C425.218 121.728 425.379 120.988 425.476 120.28C425.637 119.475 425.766 118.67 425.862 117.898C426.055 116.449 426.184 115.097 426.216 113.842C426.249 112.586 426.152 111.427 425.927 110.397C425.798 109.367 425.444 108.466 424.864 107.661Z" fill="#C5093D"/>
<path d="M373.905 107.661C373.583 107.21 373.229 106.856 372.811 106.502C372.424 106.18 371.941 105.89 371.459 105.665C370.944 105.44 370.428 105.279 369.817 105.15C369.237 105.053 368.594 104.989 367.918 104.989C367.242 104.989 366.565 105.053 365.954 105.15C365.342 105.246 364.763 105.44 364.216 105.665C363.668 105.89 363.121 106.18 362.606 106.502C362.091 106.824 361.608 107.242 361.093 107.661C360.192 108.466 359.451 109.399 358.807 110.461C358.164 111.524 357.616 112.683 357.166 113.97C356.683 115.226 356.296 116.61 355.942 118.091C355.588 119.539 355.266 121.085 354.977 122.726C354.655 124.336 354.365 125.881 354.172 127.362C353.979 128.843 353.818 130.227 353.785 131.547C353.753 132.834 353.818 134.026 354.043 135.088C354.268 136.15 354.622 137.116 355.17 137.921C355.492 138.371 355.846 138.758 356.264 139.08C356.651 139.434 357.133 139.691 357.616 139.949C358.099 140.174 358.646 140.335 359.258 140.464C359.837 140.593 360.514 140.625 361.19 140.625C361.866 140.593 362.542 140.528 363.185 140.432C363.797 140.303 364.409 140.11 364.988 139.884C365.568 139.627 366.115 139.337 366.63 138.983C367.145 138.629 367.66 138.243 368.143 137.76C369.044 136.955 369.785 135.989 370.428 134.895C371.072 133.8 371.587 132.641 372.07 131.354C372.328 130.645 372.553 129.905 372.778 129.132C372.939 128.521 373.133 127.877 373.294 127.201C373.648 125.752 373.97 124.207 374.259 122.598C374.388 121.857 374.549 121.117 374.646 120.409C374.774 119.604 374.935 118.799 375.032 117.994C375.225 116.546 375.354 115.194 375.386 113.938C375.418 112.683 375.322 111.524 375.096 110.494C374.807 109.399 374.452 108.466 373.905 107.661Z" fill="#C5093D"/>
<path d="M475.437 107.532C475.115 107.081 474.761 106.695 474.343 106.341C473.924 106.019 473.473 105.729 472.958 105.504C472.443 105.279 471.896 105.118 471.317 104.989C470.705 104.86 470.093 104.828 469.385 104.828C468.677 104.828 468.033 104.892 467.389 104.989C466.778 105.118 466.166 105.279 465.619 105.504C465.071 105.729 464.524 106.019 464.009 106.373C463.494 106.695 463.011 107.113 462.496 107.564C461.595 108.369 460.822 109.335 460.178 110.397C459.502 111.459 458.987 112.65 458.504 113.938C458.021 115.226 457.635 116.61 457.281 118.091C456.927 119.572 456.605 121.117 456.283 122.759C455.961 124.368 455.671 125.946 455.478 127.459C455.253 128.939 455.124 130.356 455.092 131.676C455.06 132.995 455.124 134.187 455.35 135.249C455.575 136.311 455.929 137.277 456.476 138.114C456.798 138.565 457.184 138.951 457.571 139.305C457.957 139.659 458.44 139.949 458.923 140.174C459.438 140.399 459.985 140.56 460.565 140.689C461.176 140.786 461.82 140.85 462.528 140.85C463.236 140.818 463.88 140.754 464.524 140.625C465.168 140.496 465.78 140.303 466.359 140.078C466.938 139.82 467.518 139.53 468.033 139.176C468.58 138.822 469.063 138.404 469.578 137.953C470.48 137.116 471.22 136.15 471.864 135.088C472.508 133.993 473.055 132.802 473.506 131.482C473.763 130.774 473.988 130.034 474.214 129.293C474.503 128.424 474.729 127.555 474.954 126.654C475.276 125.366 475.534 123.982 475.791 122.565C475.92 121.825 476.049 121.149 476.145 120.441C476.306 119.636 476.435 118.799 476.532 118.026C476.725 116.578 476.853 115.194 476.886 113.906C476.918 112.618 476.821 111.459 476.596 110.397C476.371 109.27 476.016 108.337 475.437 107.532Z" fill="#C5093D"/>
<path d="M424.188 127.137C424.027 127.813 423.866 128.456 423.673 129.1C423.931 128.263 424.188 127.394 424.381 126.461C424.671 125.173 424.961 123.821 425.186 122.404C425.315 121.696 425.444 120.988 425.54 120.312C425.411 121.02 425.283 121.761 425.154 122.501C424.864 124.143 424.542 125.688 424.188 127.137Z" fill="#C5093D"/>
<path d="M373.197 127.137C373.036 127.813 372.875 128.456 372.682 129.068C372.939 128.231 373.197 127.394 373.39 126.461C373.68 125.173 373.937 123.821 374.195 122.404C374.324 121.696 374.452 120.988 374.549 120.344C374.42 121.052 374.291 121.793 374.163 122.533C373.873 124.143 373.551 125.688 373.197 127.137Z" fill="#C5093D"/>
<path d="M373.662 168.728C372.503 168.728 371.763 169.308 371.408 170.112C371.215 170.627 371.119 170.981 371.086 171.561H376.237C376.205 170.981 376.141 170.595 375.915 170.112C375.561 169.308 374.789 168.728 373.662 168.728Z" fill="#C5093D"/>
<path d="M427.196 168.953C426.52 168.953 426.037 169.146 425.651 169.533C424.943 170.241 424.878 171.4 424.878 172.816C424.878 174.201 424.943 175.424 425.651 176.132C426.037 176.518 426.52 176.711 427.196 176.711C427.872 176.711 428.387 176.518 428.774 176.132C429.482 175.424 429.546 174.233 429.546 172.816C429.546 171.4 429.45 170.241 428.774 169.533C428.387 169.146 427.872 168.953 427.196 168.953Z" fill="#C5093D"/>
<path d="M461.963 179.609L458.615 173.975L457.199 175.585V179.609H453.819V161.099H457.199V171.593L461.705 166.056H465.794L460.965 171.496L466.18 179.577L461.963 179.609ZM446.028 169.758C445.513 169.243 445.062 168.953 444.225 168.953C443.195 168.953 442.036 169.726 442.036 171.464V179.609H438.656V166.088H441.94V167.376C442.584 166.603 443.904 165.927 445.352 165.927C446.672 165.927 447.606 166.249 448.539 167.215L446.028 169.758ZM437.208 129.132C436.66 131.193 436.049 133.06 435.276 134.766C434.536 136.472 433.634 138.05 432.572 139.53C431.51 141.011 430.287 142.395 428.838 143.683C427.84 144.584 426.713 145.454 425.458 146.291C424.202 147.095 422.818 147.868 421.305 148.512C419.792 149.156 418.15 149.671 416.348 150.089C414.577 150.475 412.646 150.701 410.618 150.701C408.59 150.733 406.722 150.572 405.081 150.218C403.439 149.896 401.958 149.381 400.638 148.769C399.351 148.158 398.192 147.449 397.226 146.645C396.26 145.84 395.423 144.971 394.747 144.069C393.749 142.749 392.977 141.397 392.429 139.917C391.882 138.436 391.56 136.858 391.399 135.12C391.238 133.382 391.27 131.482 391.464 129.422C391.657 127.33 391.979 125.076 392.429 122.565C392.88 120.087 393.395 117.833 394.007 115.773C394.586 113.713 395.262 111.846 396.035 110.14C396.84 108.433 397.741 106.888 398.835 105.407C399.93 103.959 401.185 102.607 402.666 101.351C403.664 100.482 404.791 99.6129 406.046 98.8403C407.302 98.0677 408.686 97.3595 410.167 96.7479C411.68 96.1684 413.289 95.6534 415.06 95.3314C416.798 95.0095 418.698 94.8164 420.661 94.8486C422.625 94.8486 424.428 95.0739 426.037 95.428C427.647 95.7821 429.095 96.2972 430.351 96.9088C431.639 97.5205 432.733 98.2287 433.699 99.0335C434.665 99.8382 435.469 100.643 436.113 101.544C437.111 102.8 437.852 104.152 438.399 105.568C438.946 107.017 439.3 108.53 439.429 110.236C439.59 111.91 439.59 113.745 439.429 115.773C439.268 117.801 438.946 119.99 438.528 122.437C438.206 124.851 437.755 127.072 437.208 129.132ZM431.413 178.096C430.576 178.965 429.192 179.77 427.196 179.77C425.2 179.77 423.848 178.997 423.011 178.096C421.788 176.808 421.466 175.295 421.466 172.816C421.466 170.37 421.788 168.825 423.011 167.569C423.848 166.668 425.2 165.895 427.196 165.895C429.192 165.895 430.576 166.668 431.413 167.569C432.637 168.825 432.958 170.37 432.958 172.816C432.926 175.295 432.637 176.84 431.413 178.096ZM412.549 179.609H409.781L406.948 171.11L404.115 179.609H401.314L397.162 166.088H400.767L402.956 174.458L405.724 166.088H408.203L410.972 174.458L413.161 166.088H416.734L412.549 179.609ZM391.786 169.018H389.403V175.52C389.403 176.293 389.757 176.744 390.562 176.744H391.786V179.609H389.951C387.214 179.609 386.023 177.645 386.023 175.746V169.05H384.607V166.475H386.023V162.483H389.403V166.475H391.786V169.018ZM381.613 139.53C380.551 141.011 379.327 142.395 377.879 143.683C376.881 144.584 375.754 145.454 374.499 146.291C373.243 147.095 371.859 147.868 370.346 148.512C368.833 149.156 367.191 149.671 365.389 150.089C363.618 150.443 361.687 150.701 359.658 150.733C357.63 150.765 355.763 150.572 354.122 150.25C352.48 149.928 350.999 149.413 349.679 148.801C348.359 148.19 347.233 147.482 346.267 146.677C345.301 145.872 344.464 145.003 343.788 144.102C342.79 142.814 342.018 141.43 341.47 139.949C340.923 138.468 340.601 136.891 340.44 135.152C340.311 133.414 340.311 131.515 340.505 129.454C340.698 127.362 341.02 125.109 341.502 122.598C341.953 120.119 342.468 117.865 343.048 115.805C343.627 113.745 344.303 111.878 345.076 110.172C345.881 108.466 346.782 106.92 347.876 105.44C348.971 103.991 350.226 102.639 351.675 101.383C352.673 100.514 353.832 99.6451 355.087 98.8725C356.343 98.0999 357.727 97.3917 359.208 96.7801C360.721 96.2006 362.33 95.6855 364.101 95.3636C365.839 95.0417 367.706 94.8486 369.702 94.8808C371.666 94.8808 373.469 95.0739 375.078 95.4602C376.688 95.8143 378.136 96.3294 379.424 96.941C380.712 97.5527 381.806 98.2931 382.772 99.0657C383.705 99.8382 384.51 100.675 385.186 101.577C386.152 102.832 386.925 104.184 387.472 105.601C388.019 107.049 388.373 108.594 388.502 110.268C388.663 111.942 388.663 113.777 388.502 115.805C388.341 117.833 388.051 120.022 387.601 122.469C387.214 124.915 386.732 127.169 386.216 129.197C385.669 131.257 385.058 133.124 384.285 134.83C383.577 136.472 382.675 138.05 381.613 139.53ZM379.553 173.879H371.086C371.086 175.617 372.149 176.905 374.048 176.905C375.529 176.905 376.269 176.486 377.106 175.617L379.166 177.613C377.782 178.997 376.462 179.737 374.016 179.737C370.829 179.737 367.739 178.289 367.739 172.784C367.739 168.374 370.121 165.863 373.63 165.863C377.396 165.863 379.521 168.631 379.521 172.333L379.553 173.879ZM361.751 179.609H358.371V171.432C358.371 169.597 357.212 168.953 356.15 168.953C355.087 168.953 353.896 169.565 353.896 171.432V179.609H350.516V166.088H353.832V167.344C354.733 166.41 355.956 165.927 357.212 165.927C358.564 165.927 359.658 166.378 360.399 167.118C361.493 168.213 361.783 169.501 361.783 170.949L361.751 179.609ZM505.55 79.4289C504.906 79.5576 504.295 79.7186 503.715 79.9761C503.136 80.2336 502.556 80.5234 502.041 80.8775C501.494 81.2316 500.979 81.6501 500.464 82.1008C499.53 82.9377 498.726 83.9357 498.05 85.0302C497.374 86.1247 496.794 87.3802 496.311 88.7C495.828 90.0199 495.41 91.4685 495.024 93.0137C494.67 94.5588 494.315 96.1684 493.994 97.8746C493.8 98.9047 492.126 108.659 490.807 116.578L489.004 126.847C489.004 126.847 488.972 127.104 488.907 127.491C488.875 127.684 488.843 127.877 488.811 128.07C488.682 128.907 488.585 129.68 488.489 130.452C488.457 130.806 488.424 131.096 488.392 131.322C488.36 131.643 488.328 132.223 488.328 132.223C488.328 132.255 488.36 132.319 488.36 132.352C488.36 133.156 488.392 133.929 488.521 134.605C488.682 135.506 488.972 136.343 489.422 137.019C489.68 137.406 489.97 137.728 490.324 138.05C490.646 138.339 491.032 138.597 491.45 138.79C491.869 138.983 492.32 139.144 492.835 139.241C492.899 139.273 492.996 139.273 493.092 139.273L489.455 150.926C489.068 150.926 488.714 150.958 488.328 150.958C486.976 150.894 485.688 150.765 484.561 150.475C483.435 150.218 482.372 149.832 481.407 149.349C481.246 149.252 481.053 149.156 480.892 149.027C480.216 148.673 479.572 148.319 478.992 147.9C478.091 147.256 477.318 146.516 476.707 145.711C475.677 144.391 474.968 142.878 474.485 141.236C473.906 142.267 473.198 143.297 472.329 144.262C471.942 144.681 471.588 145.067 471.17 145.454L471.138 145.518C471.041 145.582 470.977 145.647 470.912 145.711C470.719 145.904 470.526 146.065 470.333 146.226C470.333 146.226 470.333 146.226 470.301 146.258C470.107 146.419 469.882 146.612 469.689 146.773C469.077 147.256 468.466 147.707 467.822 148.125C466.727 148.834 465.601 149.413 464.442 149.832C463.283 150.25 462.092 150.54 460.836 150.733C459.549 150.894 458.229 150.958 456.812 150.926C455.492 150.862 454.237 150.733 453.046 150.443C451.855 150.154 450.696 149.767 449.666 149.317C448.604 148.834 447.67 148.254 446.801 147.61C445.964 146.967 445.223 146.226 444.644 145.421C443.549 143.973 442.873 142.267 442.455 140.432C442.036 138.597 441.94 136.569 441.972 134.508C442.036 132.416 442.294 130.259 442.648 128.102C443.002 125.946 443.421 123.821 443.871 121.728C444.29 119.668 444.741 117.544 445.288 115.419C445.835 113.294 446.447 111.202 447.219 109.206C447.992 107.21 448.893 105.279 450.02 103.572C451.147 101.834 452.499 100.289 454.108 99.0335C455.01 98.3252 455.975 97.6814 457.038 97.1342C458.1 96.5869 459.227 96.1362 460.418 95.7821C461.609 95.428 462.832 95.1705 464.088 95.0095C465.343 94.8486 466.631 94.8164 467.918 94.8808C469.238 94.9451 470.494 95.1061 471.653 95.3958C472.812 95.6534 473.842 96.0397 474.84 96.5225C475.805 97.0054 476.674 97.617 477.479 98.3574C478.187 99.0335 478.831 99.8061 479.443 100.707C479.54 99.9348 479.668 99.1622 479.797 98.3574C480.151 96.3616 480.634 94.2369 481.149 92.0801C481.664 89.8911 482.179 87.7986 482.726 85.835C483.306 83.8713 483.918 82.0042 484.594 80.298C484.851 79.7186 485.109 79.1391 485.366 78.5919C485.431 78.4309 485.559 78.2056 485.72 77.8837C485.752 77.8515 485.785 77.7871 485.785 77.7549C485.881 77.5618 486.01 77.3686 486.139 77.1111C486.429 76.596 486.718 76.0809 487.04 75.5981C487.62 74.6967 488.263 73.9241 489.004 73.1515C491.289 70.6406 494.67 68.0331 499.434 67.1961C479.411 33.1053 442.487 10.2494 400.22 10.2172C336.77 10.1528 285.264 61.5304 285.2 125.012C285.167 143.458 289.513 160.905 297.239 176.357C299.525 175.327 301.488 173.589 302.873 171.368L302.937 171.271C302.969 171.207 303.001 171.175 303.034 171.11C303.71 170.08 304.257 168.921 304.708 167.634C305.158 166.442 305.512 165.123 305.899 163.513C305.963 163.255 314.655 115.805 315.202 112.972H307.605L311.339 100.321L317.294 100.289L317.906 97.0054C317.971 96.5547 318.035 96.104 318.131 95.6534L318.325 94.591C318.679 92.563 319.097 90.2774 319.484 88.6356C319.805 87.2836 320.127 86.1569 320.481 85.1267C320.964 83.5816 321.479 82.1973 322.059 80.9419C322.96 78.9782 323.958 77.2398 325.117 75.6625C326.34 73.9885 327.725 72.4755 329.334 71.0591C330.493 70.0611 331.748 69.0954 333.101 68.2262C334.517 67.2927 336.062 66.5201 337.704 65.8441C339.474 65.1358 341.309 64.5886 343.144 64.2023C345.172 63.7838 347.233 63.5907 349.325 63.5907H349.583C351.643 63.5907 353.606 63.7838 355.409 64.1701C356.117 64.2989 356.793 64.5242 357.405 64.7174L357.502 64.7495L353.349 78.109L353.188 78.0124C353.091 77.948 353.027 77.9159 352.93 77.8837C352.319 77.5939 351.611 77.3364 350.87 77.2076C350.098 77.0467 349.261 76.9501 348.391 76.9501H348.295C347.361 76.9501 346.46 77.0467 345.623 77.2076C344.85 77.3686 344.11 77.5939 343.337 77.8837L343.241 77.9159C343.209 77.948 343.144 77.948 343.112 77.948C342.533 78.1734 341.985 78.4309 341.406 78.785C340.859 79.1391 340.344 79.5254 339.829 79.9439C338.927 80.7165 338.155 81.5857 337.446 82.6802C336.803 83.7103 336.255 84.837 335.805 86.0925C335.386 87.2514 335 88.539 334.646 90.1164C334.613 90.3096 334.388 91.4685 334.227 92.4664C334.098 93.3034 333.937 94.076 333.905 94.2369L333.036 100.289L342.146 100.257L338.38 112.972L330.944 112.94L324.055 151.184L322.284 160.455C321.866 162.644 321.512 164.511 320.997 166.41C320.32 168.825 319.58 170.949 318.743 172.849C317.842 174.844 316.812 176.615 315.621 178.257C314.365 179.963 312.981 181.476 311.339 182.957C310.148 184.019 308.86 184.985 307.508 185.822C306.349 186.562 305.126 187.238 303.838 187.818C324.28 219.204 359.691 239.968 399.994 240C463.444 240.064 514.95 188.687 515.015 125.205C515.015 108.948 511.634 93.4643 505.55 79.4289Z" fill="#C5093D"/>
</svg>
