<svg width="800" height="250" viewBox="0 0 800 250" fill="none" xmlns="http://www.w3.org/2000/svg">
<g clip-path="url(#clip0_17_1291)">
<path d="M309.728 17C300.535 17 293 24.5493 293 33.7596V216.24C293 225.451 300.534 233 309.726 233H491.273C500.465 233 508 225.451 508 216.24V33.7596C508 24.5495 500.466 17 491.274 17H309.728Z" fill="url(#paint0_linear_17_1291)"/>
<path opacity="0.872" fill-rule="evenodd" clip-rule="evenodd" d="M309.728 18.6172C301.416 18.6172 294.616 25.4304 294.616 33.7575V71.2836C294.616 71.2852 294.616 71.2865 294.616 71.2879V216.243C294.616 224.57 301.416 231.383 309.726 231.383H491.272C499.584 231.383 506.384 224.57 506.384 216.243V171.673C500.138 134.059 441.638 129.293 390.218 123.397C342.924 117.974 296.825 109.076 294.693 73.8644C296.828 109.072 342.926 117.97 390.218 123.393C441.638 129.289 500.138 134.055 506.384 171.668V33.7575C506.384 25.4304 499.585 18.6172 491.274 18.6172H309.728Z" fill="url(#paint1_radial_17_1291)"/>
<path fill-rule="evenodd" clip-rule="evenodd" d="M309.728 18.6172C301.416 18.6172 294.616 25.4304 294.616 33.7575V71.2836C294.616 71.2852 294.616 71.2865 294.616 71.2879V216.243C294.616 224.57 301.416 231.383 309.726 231.383H491.272C499.584 231.383 506.384 224.57 506.384 216.243V171.673C500.138 134.059 441.638 129.293 390.218 123.397C342.924 117.974 296.825 109.076 294.693 73.8644C296.828 109.072 342.926 117.97 390.218 123.393C441.638 129.289 500.138 134.055 506.384 171.668V33.7575C506.384 25.4304 499.585 18.6172 491.274 18.6172H309.728Z" fill="url(#paint2_linear_17_1291)"/>
<path fill-rule="evenodd" clip-rule="evenodd" d="M390.218 123.38C441.638 129.276 500.139 134.041 506.384 171.655V33.7442C506.384 25.4171 499.585 18.604 491.274 18.604H309.728C301.416 18.604 294.616 25.4171 294.616 33.7442V71.2706C294.616 108.63 341.791 117.827 390.218 123.38Z" fill="url(#paint3_linear_17_1291)"/>
<path fill-rule="evenodd" clip-rule="evenodd" d="M411.807 70.1032C411.807 71.7411 412.699 71.8766 413.442 71.8766H416.711V75.2675H401.908V72.0254H405.083C406.42 71.8764 406.569 70.9965 406.569 70.252V55.8275C406.716 54.7857 406.716 53.4601 404.786 53.4601H401.76V50.0685H414.429L431.033 65.1828C431.033 65.1828 431.033 57.1813 431.033 55.3947C431.033 53.6086 430.141 53.6086 429.399 53.4603H425.853V50.0688H440.831V53.4603H437.454C436.712 53.4603 436.414 54.3523 436.265 55.0973V75.2675H431.187L411.807 57.957C411.807 57.957 411.807 68.3178 411.807 70.1032Z" fill="white"/>
<path fill-rule="evenodd" clip-rule="evenodd" d="M476.298 54.5343C475.555 55.2787 466.582 65.6165 466.582 65.6165V70.5479C466.582 71.1433 466.785 71.8695 467.527 71.8695C468.272 71.8695 471.556 71.7603 471.556 71.7603V75.2563L454.096 75.3724V71.8764C454.096 71.8764 457.345 71.8764 457.94 71.8764C458.682 71.8764 458.831 71.0551 458.831 70.6087V65.6786C458.831 65.6786 449.348 54.9531 449.2 54.8039C448.903 54.2085 448.011 53.4648 446.378 53.4648L443.454 53.4923V50.2175L461.038 50.1816V53.4564L459.271 53.4923C458.055 53.4923 458.38 54.236 458.975 54.9805L464.167 61.0844L469.724 54.8314C470.169 54.3849 470.623 53.4923 469.278 53.4923C468.089 53.4923 467.499 53.4923 467.499 53.4923V50.2175L481.863 50.1734V53.4478L478.229 53.4923C477.189 53.4925 476.447 54.3852 476.298 54.5343Z" fill="white"/>
<path fill-rule="evenodd" clip-rule="evenodd" d="M379.866 48.5154C384.038 48.5154 388.302 49.4152 391.761 51.4928C395.689 53.8544 398.513 57.7045 398.437 62.8988C398.369 67.4441 395.903 70.9935 392.515 73.2877C388.931 75.715 384.333 76.8312 379.903 76.8312C376.605 76.8312 373.208 76.3143 370.107 75.0967C364.967 73.0784 360.795 69.1196 360.703 62.9358C360.634 58.2268 362.831 54.6552 366.165 52.3069C369.958 49.6362 375.202 48.5154 379.866 48.5154ZM389.967 62.7111C389.967 60.2458 389.487 58.374 388.334 56.7632C386.397 54.0557 382.962 52.4209 379.681 52.4209C375.866 52.4209 372.415 54.1542 370.539 57.1949C369.603 58.7123 369.059 60.4734 369.059 62.6742C369.059 65.4827 370.112 68.0613 371.793 69.7478C373.776 71.737 377.005 72.7734 379.668 72.7059C382.544 72.557 385 71.6488 386.792 70.1683C388.794 68.5153 389.967 66.1198 389.967 62.7111Z" fill="white"/>
<path fill-rule="evenodd" clip-rule="evenodd" d="M350.117 49.8151H353.683V58.5206H350.342C349.391 56.264 347.675 52.9991 338.79 52.5259C332.703 52.3352 329.867 54.0515 329.851 55.9315C329.838 57.3592 331.775 57.7159 332.878 57.8865C337.604 58.6174 344.367 58.7564 349.039 60.271C353.015 61.5703 355.368 63.8249 355.427 67.7275C355.461 69.9506 354.393 72.0818 351.971 73.7001C348.996 75.6041 344.385 76.6336 340.144 76.5672C336.764 76.5145 333.556 75.8668 330.657 74.8105C329.468 74.3647 327.797 73.0719 327.797 74.7804V75.7083L323.675 75.7383V65.773H327.386C327.458 67.2863 328.169 68.4941 329.14 69.4484C330.885 71.2345 335.984 72.5719 339.778 72.6575C344.201 72.7565 348.352 71.4721 348.352 69.0822C348.352 67.9383 347.415 66.8068 345.078 66.5517C343.229 66.2771 341.253 66.07 338.975 65.8173C334.61 65.3333 329.826 64.7502 327.453 63.6375C324.179 62.1024 322.864 59.6471 322.861 57.0297C322.859 54.4506 324.471 52.0972 327.464 50.7028C330.741 49.2703 334.346 48.5712 337.585 48.5742C342.425 48.5794 346.506 49.9948 348.305 50.9681C349.348 51.3955 349.971 51.1953 350.117 49.8151Z" fill="white"/>
<path fill-rule="evenodd" clip-rule="evenodd" d="M294.616 71.301V216.256C294.616 224.583 301.415 231.396 309.726 231.396H491.272C499.584 231.396 506.384 224.583 506.384 216.256V171.686C500.138 134.072 441.638 129.306 390.218 123.41C341.79 117.857 294.616 108.661 294.616 71.301Z" fill="url(#paint4_linear_17_1291)"/>
<path d="M368.507 203.912C375.778 203.912 381.063 198.187 381.063 191.197V191.127C381.063 184.137 375.845 178.482 368.574 178.482C361.303 178.482 356.018 184.207 356.018 191.197V191.267C356.018 198.257 361.235 203.912 368.507 203.912ZM368.574 198.924C364.4 198.924 361.437 195.412 361.437 191.197V191.127C361.437 186.912 364.332 183.469 368.507 183.469C372.681 183.469 375.643 186.982 375.643 191.197V191.267C375.643 195.482 372.748 198.924 368.574 198.924Z" fill="white"/>
<path d="M396.524 203.666H402.542L411.449 178.903H405.844L399.665 197.648L393.486 178.903H387.746L396.524 203.666Z" fill="white"/>
<path d="M420.405 203.49H425.804V178.903H420.405V203.49Z" fill="white"/>
<path d="M437.638 203.49H453.273V198.678H443.002V193.515H451.52V188.703H443.002V183.715H453.098V178.903H437.638V203.49Z" fill="white"/>
<path d="M471.797 203.842C477.09 203.842 480.806 201.102 480.806 196.22V196.149C480.806 191.864 478.002 190.073 473.024 188.773C468.782 187.684 467.73 187.158 467.73 185.542V185.472C467.73 184.277 468.817 183.329 470.885 183.329C472.953 183.329 475.092 184.242 477.265 185.753L480.07 181.678C477.581 179.676 474.531 178.552 470.955 178.552C465.942 178.552 462.366 181.503 462.366 185.963V186.034C462.366 190.916 465.556 192.286 470.499 193.55C474.601 194.604 475.442 195.306 475.442 196.676V196.747C475.442 198.187 474.11 199.065 471.902 199.065C469.097 199.065 466.783 197.906 464.575 196.079L461.385 199.908C464.33 202.542 468.081 203.842 471.797 203.842Z" fill="white"/>
<path d="M320.613 178.903V203.49H326.074V188.382L332.095 198.664H334.448L340.469 188.382V203.49H345.93V178.903H339.926L333.271 190.3L326.617 178.903H320.613Z" fill="white"/>
</g>
<defs>
<linearGradient id="paint0_linear_17_1291" x1="251.834" y1="40.9088" x2="542.471" y2="223.147" gradientUnits="userSpaceOnUse">
<stop stop-color="#328FFF"/>
<stop offset="0.331801" stop-color="#003B97"/>
<stop offset="1" stop-color="#20ECFF"/>
</linearGradient>
<radialGradient id="paint1_radial_17_1291" cx="0" cy="0" r="1" gradientTransform="matrix(120.508 26.205 -17.8029 82.1937 294.616 71.2879)" gradientUnits="userSpaceOnUse">
<stop stop-color="#4FDBFF"/>
<stop offset="0.670646" stop-color="#0DE2FF" stop-opacity="0.207237"/>
<stop offset="1" stop-color="#0CE3FF" stop-opacity="0"/>
</radialGradient>
<linearGradient id="paint2_linear_17_1291" x1="506.384" y1="171.668" x2="294.477" y2="72.4745" gradientUnits="userSpaceOnUse">
<stop stop-color="#58E6F3"/>
<stop offset="0.44609" stop-color="#38BDF3"/>
<stop offset="1" stop-color="#1854F4"/>
</linearGradient>
<linearGradient id="paint3_linear_17_1291" x1="392.986" y1="71.2037" x2="353.691" y2="202.395" gradientUnits="userSpaceOnUse">
<stop/>
<stop offset="1" stop-opacity="0"/>
</linearGradient>
<linearGradient id="paint4_linear_17_1291" x1="317.195" y1="216.063" x2="341.758" y2="114.298" gradientUnits="userSpaceOnUse">
<stop/>
<stop offset="0.601965" stop-color="#0001AB" stop-opacity="0.529412"/>
<stop offset="1" stop-opacity="0"/>
</linearGradient>
<clipPath id="clip0_17_1291">
<rect width="215" height="216" fill="white" transform="translate(293 17)"/>
</clipPath>
</defs>
</svg>
