<svg width="800" height="250" viewBox="0 0 800 250" fill="none" xmlns="http://www.w3.org/2000/svg">
<path d="M395.793 166.333C395.497 165.479 394.438 163.054 393.519 160.91C393.145 162.946 392.117 168.571 392.117 170C392.117 170.171 392.117 170.373 392.117 170.544C391.961 171.694 390.84 171.803 389.952 171.989C389.532 172.083 388.613 172.145 388.223 172.16H388.145C387.896 172.704 387.678 173.264 387.476 173.854C386.494 176.76 385.015 179.743 386.043 182.665C390.186 179.433 394.578 176.558 399.219 174.072C398.503 172.766 397.833 171.414 397.272 170.031C396.758 168.804 396.307 167.576 395.871 166.318" fill="white"/>
<path d="M357.291 121.457C360.889 126.056 364.144 130.935 367.041 136.001V135.908C367.088 135.519 367.337 135.193 367.711 135.053C368.007 135.007 368.334 135.146 368.458 135.442C368.676 135.815 368.848 136.203 369.128 136.529C369.393 136.996 369.798 137.368 370.281 137.586C370.779 137.757 371.418 137.928 371.932 138.083L373.271 138.472C374.128 138.674 374.953 139.14 375.561 139.808C375.888 140.259 376.199 140.663 376.542 141.067C377.009 141.486 377.523 141.828 378.068 142.154C380.685 143.553 383.597 144.268 386.557 144.19C387.896 141.704 390.559 140.197 393.363 140.352C395.466 140.43 397.428 141.409 398.799 143.009C403.222 141.999 407.24 139.668 410.293 136.312C410.76 135.846 411.399 135.162 412.193 134.463L410.511 132.225C409.546 132.225 408.814 132.225 407.848 132.225C407.038 132.225 406.213 132.054 405.48 131.728C404.811 131.464 404.344 130.889 404.172 130.205C404.172 129.817 404.172 129.413 404.172 129.055C404.172 128.682 403.534 128.558 403.362 128.294C403.207 128.045 403.207 127.75 403.362 127.501C403.362 127.501 403.627 127.128 403.689 127.159L403.596 127.066C403.269 126.818 402.926 126.6 403.051 126.103C403.175 125.605 403.767 125.59 403.44 125.124C403.316 124.953 403.175 124.797 403.02 124.673C402.568 124.409 402.225 123.958 402.085 123.461C402.085 122.669 403.425 121.783 404.125 121.099C404.577 120.726 404.811 120.167 404.764 119.576C404.608 118.862 404.499 118.147 404.39 117.432C404.39 117.059 404.39 116.671 404.39 116.298C404.001 116.888 403.331 117.261 402.615 117.308C403.378 116.391 403.705 115.21 403.534 114.06C403.565 112.957 404.032 111.916 404.873 111.201C403.643 110.564 402.973 111.962 402.926 111.916C402.957 110.067 404.484 108.59 406.353 108.621C406.477 108.621 406.617 108.652 406.742 108.652C405.761 108.031 405.138 106.974 405.091 105.824C405.48 106.337 406.026 106.741 406.617 106.959C407.303 107.207 408.019 107.332 408.767 107.378C409.514 107.409 410.246 107.301 410.963 107.161C411.944 106.99 412.91 106.772 413.907 106.57C416.773 105.529 419.981 105.98 422.442 107.751C422.053 107.238 421.881 106.57 422.021 105.949C422.239 106.539 422.691 106.788 423.174 107.347C424.326 108.28 425.541 109.165 426.772 109.958C427.66 110.797 428.298 111.853 428.625 113.034C429.84 112.786 431.039 113.532 431.366 114.713C429.84 113.749 430.089 116.686 430.089 117.354C430.167 118.66 430.089 119.965 429.825 121.239C429.061 124.176 427.114 126.662 424.451 128.138C423.813 128.403 423.267 128.884 422.925 129.475C422.878 129.63 422.878 129.801 422.925 129.941C423.189 129.785 423.485 129.677 423.781 129.599C424.451 129.428 426.195 129.009 426.445 130.019C426.569 130.764 426.787 131.464 427.068 132.178C427.239 132.396 427.784 132.847 428.298 133.453C428.625 133.779 428.921 134.136 429.217 134.494C429.98 135.457 430.65 136.483 431.195 137.57C431.989 139.14 432.628 140.803 433.126 142.465C433.796 144.75 434.232 147.096 434.513 149.458C434.731 151.26 434.855 153.094 434.902 154.928C434.902 155.767 434.902 156.575 434.902 157.383C439.372 152.457 443.126 146.972 446.101 141.036C451.474 130.003 454.293 117.914 454.293 105.669C454.636 58.819 418.61 16.9725 361.372 27.0729C350.936 28.9997 340.921 32.7291 331.763 38.1211C321.951 43.7617 313.478 51.4846 306.967 60.7458C303.634 65.5474 300.706 70.5975 298.152 75.8342C308.509 80.7134 318.415 86.5405 327.667 93.2844C338.803 101.225 348.771 110.719 357.291 121.457Z" fill="white"/>
<path d="M374.081 147.795H372.85C373.302 148.883 373.738 149.955 374.159 151.043C374.237 150.748 374.408 150.499 374.657 150.328C375.498 149.955 376.479 150.126 377.149 150.748C379.018 152.099 381.339 152.69 383.644 152.379C383.893 151.493 384.111 150.577 384.361 149.691C383.301 149.396 382.242 149.054 381.183 148.712C379.968 148.261 378.722 147.919 377.461 147.702C376.355 147.609 375.218 147.609 374.112 147.702" fill="white"/>
<path d="M399.92 237.408C462.314 237.439 512.918 187.016 512.949 124.766C512.98 62.5173 462.439 12.0312 400.045 12.0001C376.277 11.969 353.148 19.4277 333.866 33.3196C333.866 33.3196 334.068 33.475 334.582 33.1486C339.862 29.8699 345.438 27.0884 351.217 24.8042C352.945 24.0894 354.674 23.4212 356.45 22.7841C373.567 16.6307 392.008 14.9836 409.966 18.0292C416.944 19.2568 423.813 21.2302 430.37 23.934C449.512 31.8123 466.489 45.7507 476.457 64.0401C487.313 84.0543 490.895 108.621 485.023 130.733C481.441 143.755 474.977 155.813 466.068 165.991C456.956 176.48 445.742 184.964 433.158 190.885C420.246 196.96 406.197 200.161 391.93 200.27C391.478 201.498 391.089 202.756 390.778 204.031C390.684 204.373 390.622 204.745 390.513 205.118C390.17 206.082 389.08 205.926 388.239 205.911C387.849 205.911 387.149 205.833 386.712 205.787C385.7 206.936 384.843 208.242 384.127 209.625V209.78C383.037 212.111 382.398 213.494 383.161 215.467C383.426 216.151 383.504 216.912 383.426 217.627C383.426 218.373 383.099 219.057 382.585 219.554C381.962 219.943 381.199 220.098 380.482 220.02C379.003 219.974 377.523 220.238 376.137 220.782C374.486 221.699 372.788 222.475 371.028 223.19C369.33 223.936 367.399 223.905 365.717 223.113C365.452 222.942 365.203 222.724 364.907 222.569C364.642 222.475 364.362 222.413 364.066 222.398C363.209 222.367 362.431 221.885 362.041 221.124C361.886 220.657 361.948 220.16 362.213 219.741C362.477 219.274 362.929 219.274 363.427 219.321C363.77 219.399 364.113 219.414 364.471 219.445C365.11 219.445 365.733 219.29 366.293 219.057C367.43 218.544 368.458 217.798 369.377 216.912C370.218 216.151 371.309 215.219 372.259 214.395C373.224 213.587 373.785 213.09 374.252 212.67C375.732 211.287 377.009 209.671 378.006 207.9C378.676 206.517 379.221 205.072 379.657 203.596L379.112 203.223C378.442 202.71 377.585 202.166 377.835 201.187C378.037 200.597 378.302 200.006 378.582 199.416C355.406 196.339 341.716 186.13 341.825 186.145C349.503 187.917 357.369 188.709 365.234 188.43C365.063 188.274 364.938 188.088 364.845 187.886C364.72 187.59 364.642 187.295 364.673 186.969C364.673 186.627 364.829 186.332 365.063 186.114C365.11 186.068 365.187 186.037 365.234 186.021C365.39 185.974 365.561 185.974 365.701 186.021C366.418 186.145 367.15 186.176 367.898 186.114C368.412 186.068 368.941 185.99 369.424 185.897L370.218 185.695L371.495 185.306C371.916 185.135 372.29 184.933 372.648 184.685C373.614 184.125 374.501 183.457 375.311 182.665C376.713 181.453 377.959 180.054 378.956 178.5C378.956 178.407 379.112 178.236 379.158 178.081C379.953 175.89 380.591 173.652 381.027 171.368L381.292 170.016L381.136 169.938C380.28 169.394 379.267 168.602 379.61 167.374C379.875 166.582 379.999 166.535 380.295 165.743C380.591 164.95 380.965 163.427 381.277 162.215L382.367 158.004C381.853 158.051 381.323 158.175 380.841 158.393C379.61 158.937 378.551 159.698 377.305 160.288C377.601 161.33 377.897 162.386 378.146 163.443C378.271 163.862 378.193 164.298 377.975 164.67C377.757 165.043 377.383 165.308 376.931 165.432H376.542C375.794 165.401 375.187 164.888 375.015 164.204C374.688 162.899 374.33 161.594 373.925 160.288C373.754 160.133 373.583 159.947 373.458 159.745C372.57 159.838 371.729 159.232 371.558 158.346C370.701 158.02 370.172 157.165 370.249 156.248C369.782 156.171 369.502 155.705 369.33 155.269C368.832 154.042 369.953 153.125 370.857 152.752C371.013 152.705 371.153 152.659 371.324 152.659C370.732 151.058 370.063 149.489 369.393 147.904C368.116 147.562 367.991 146.816 368.007 146.863C366.87 146.863 366.48 145.526 366.558 145.48C365.032 145.356 365.032 143.444 365.032 143.444C364.393 143.273 363.941 142.652 364.019 141.999C364.019 141.611 364.44 141.284 364.985 141.036C365.312 140.88 365.655 140.74 365.966 140.647C362.789 134.634 359.051 128.931 354.892 123.57C346.606 112.988 336.95 103.525 326.172 95.4754C317.169 88.6538 307.419 82.8423 297.124 78.1495C290.613 92.4298 287.156 107.907 287 123.585C287 124.005 287 124.393 287 124.813C286.969 186.938 337.542 237.408 399.92 237.408Z" fill="white"/>
<path d="M412.334 150.918C410.293 151.68 408.191 152.317 406.072 152.845C408.315 155.922 410.683 158.968 412.988 161.951L414.514 163.629C414.717 162.231 414.841 160.817 414.888 159.418C414.935 156.419 414.078 153.482 412.427 150.996V150.918" fill="white"/>
</svg>
