<svg width="800" height="250" viewBox="0 0 800 250" fill="none" xmlns="http://www.w3.org/2000/svg">
<path fill-rule="evenodd" clip-rule="evenodd" d="M489.141 45.2325C472.101 47.2401 457.496 55.4183 446.543 69.085C443.39 73.0192 440.371 77.6945 438.247 81.934C437.873 82.6791 437.547 83.3109 437.523 83.3382C437.498 83.3654 436.717 82.7237 435.787 81.9121C427.027 74.27 420.621 70.3206 413.082 67.916C409.338 66.7218 406.102 66.2109 402.288 66.2114C399.064 66.212 397.19 66.4801 394.684 67.2989C391.471 68.3486 389.255 69.683 386.97 71.9441C384.159 74.7253 382.561 77.8834 381.985 81.7951C381.7 83.7326 381.862 87.0899 382.326 88.847C383.337 92.6812 385.86 96.0297 389.618 98.5239C393.471 101.081 397.963 102.845 409.436 106.305C425.552 111.166 434.095 115.301 441.214 121.688C447.156 127.018 451.68 134.447 454.085 142.826C456.494 151.214 456.979 160.777 455.454 169.778C454.824 173.5 453.391 178.502 452.1 181.492C451.817 182.147 451.463 182.99 451.313 183.365L451.041 184.046L451.648 184.707C452.592 185.734 455.508 188.352 457.402 189.871C465.428 196.308 475.593 200.883 486.102 202.787C496.725 204.713 507.524 203.886 516.972 200.424C523.667 197.971 529.126 194.696 534.14 190.125L535.677 188.724V195.151V201.579H558.411H581.144L581.108 132.594C581.088 94.6525 581.054 59.8714 581.033 55.3026L580.994 46.996H558.336H535.677V53.4228V59.8497L534.569 58.8471C531.165 55.7665 526.288 52.5542 521.835 50.4591C516.081 47.7523 509.771 45.9629 503.366 45.223C500.814 44.9279 491.673 44.9342 489.141 45.2325ZM217.001 91.3097C217.002 120.404 217.055 138.359 217.146 140.116C217.841 153.466 220.076 162.964 224.681 172.13C227.355 177.454 230.259 181.469 234.429 185.61C239.808 190.95 246.03 194.941 253.6 197.906C263.048 201.606 275.212 203.491 288.055 203.245C292.797 203.154 295.04 203.015 298.993 202.566C320.704 200.101 336.472 191.018 345.704 175.659C347.78 172.204 349.61 168.361 350.718 165.127C350.97 164.391 351.22 163.805 351.273 163.824C351.326 163.844 352.355 164.768 353.56 165.879C356.262 168.368 357.831 169.708 360.013 171.392C367.933 177.503 375.853 181.09 383.709 182.123C386.387 182.475 390.864 182.34 393.265 181.835C399.905 180.436 404.735 176.642 407.086 170.979C408.634 167.249 408.852 162.572 407.645 158.986C406.094 154.377 402.603 150.766 396.98 147.951C393.733 146.325 390.474 145.157 381.863 142.529C373.882 140.093 372.729 139.717 369.333 138.445C361.335 135.448 355.351 132.18 350.318 128.062C348.651 126.697 345.732 123.74 344.34 122.006C341.404 118.348 338.706 113.409 337.054 108.671C333.714 99.0867 333.017 87.3059 335.174 76.8715C337.328 66.4539 342.214 57.2967 349.725 49.6042C350.814 48.4889 352.245 47.1135 352.906 46.5478C353.566 45.982 354.107 45.4665 354.107 45.4021C354.107 45.302 308.537 45.2204 308.479 45.3204C308.468 45.34 308.411 65.4739 308.352 90.0624C308.28 120.113 308.195 135.283 308.092 136.337C307.803 139.283 307.48 141.613 307.074 143.69C304.503 156.847 297.771 163.076 286.125 163.076C277.616 163.076 271.67 159.594 268.115 152.532C266.097 148.521 265.076 144.362 264.299 136.979C264.17 135.752 264.106 124.009 264.046 90.3476L263.965 45.356L240.483 45.3199L217 45.2839L217.001 91.3097ZM502.838 85.9259C492.791 86.9848 484.114 93.169 478.526 103.253C475.826 108.126 474.032 114.144 473.474 120.195C473.229 122.848 473.379 128.236 473.768 130.776C475.784 143.946 483.176 154.887 493.43 159.877C500.299 163.22 507.713 163.676 514.929 161.198C522.513 158.594 529.138 152.635 533.309 144.664C536.541 138.488 538.15 131.791 538.152 124.501C538.154 119.146 537.495 114.944 535.895 110.098C531.584 97.0501 521.661 87.9554 509.76 86.1431C507.97 85.8704 504.42 85.7592 502.838 85.9259Z" fill="#F83837"/>
</svg>
