<svg width="800" height="250" viewBox="0 0 800 250" fill="none" xmlns="http://www.w3.org/2000/svg">
<g clip-path="url(#clip0_17_1383)">
<path d="M155.29 112.197C155.38 106.516 157 103.18 162.49 103.18C166.9 103.18 168.7 105.795 168.7 109.762C168.7 114.811 167.62 115.713 161.68 117.336C156.19 118.779 148.9 120.041 144.04 122.656C139.18 125.361 136.03 131.762 136.03 139.426C136.03 153.582 142.51 159.443 153.49 159.443C160.06 159.443 166.27 156.016 168.88 150.156H169.15C169.24 152.68 169.51 155.385 170.23 157.729H189.13C186.88 154.844 186.88 148.443 186.88 143.484V109.762C186.88 95.877 179.68 90.2869 163.57 90.2869C155.47 90.2869 149.89 91.3688 145.3 94.5246C140.71 97.6803 138.01 103.18 137.92 112.197H155.29ZM154.93 137.533C154.93 133.836 155.92 131.762 157.99 130.229C159.79 128.787 162.49 128.607 168.7 125.361C168.7 128.066 168.61 131.492 168.61 136.902C168.61 143.484 164.83 145.918 160.69 145.918C156.91 145.918 154.93 142.762 154.93 137.533Z" fill="white"/>
<path d="M228.37 157.82H247.36V70.9918H227.65V99.2131H227.38C224.14 92.1803 218.11 90.3771 212.71 90.3771C196.51 90.3771 193.63 105.074 193.63 125.541C193.63 150.066 200.65 159.623 213.88 159.623C222.61 159.623 226.66 154.393 228.1 149.885H228.37V157.82ZM228.01 125.361C228.01 138.164 226.75 145.197 220.99 145.197C213.61 145.197 213.34 135.098 213.34 124.549C213.34 112.648 213.7 104.713 220.9 104.713C227.47 104.713 228.01 113.639 228.01 125.361Z" fill="white"/>
<path d="M308.11 157.82H289.21V150.066H288.94C286.15 155.926 280.48 159.533 273.19 159.533C262.03 159.533 256 153.943 256 141.23V92H275.71V136.902C275.71 141.68 277.78 144.385 281.38 144.385C285.16 144.385 288.4 141.5 288.4 135.098V92H308.02V157.82H308.11Z" fill="white"/>
<path d="M317.29 70.9918H337V157.82H317.29V70.9918Z" fill="white"/>
<path d="M350.95 105.615H342.85V92H350.95V72.7049H370.66V92H379.75V105.615H370.66V138.795C370.66 143.393 372.37 144.836 376.96 144.836C377.77 144.836 378.94 144.746 379.75 144.656V157.82C375.97 158.27 372.19 158.541 368.5 158.541C354.91 158.541 351.04 156.107 351.04 140.779V105.615H350.95Z" fill="white"/>
<path d="M420.61 136.902C420.79 139.787 420.97 142.402 421.96 144.295C423.04 146.098 424.84 147.361 428.08 147.361C432.67 147.361 435.1 144.385 435.1 140.689C435.1 137.623 433.66 134.738 427.54 132.664C411.34 127.164 403.6 124.008 403.6 110.123C403.6 96.959 412.87 90.2869 428.62 90.2869C447.07 90.2869 452.38 99.3033 452.38 108.77V111.025H434.92V109.762C434.92 104.082 432.58 102.459 428.44 102.459C423.22 102.459 421.78 104.984 421.78 108.5C421.78 120.131 453.19 112.377 453.19 137.984C453.19 151.238 444.28 159.533 428.08 159.533C410.44 159.533 403.06 152.951 403.06 139.877V136.992L420.61 136.902Z" fill="white"/>
<path d="M455.62 92H475.24L481.63 140.508H481.81L489.19 92H510.34L517.27 140.508H517.45L524.38 92H543.28L529.06 157.82H506.83L499.72 109.311H499.45L491.8 157.82H469.3L455.62 92Z" fill="white"/>
<path d="M549.22 70H568.93V85.0574H549.22V70ZM549.22 92H568.93V157.82H549.22V92Z" fill="white"/>
<path d="M577.84 92H596.74V99.7541H597.01C599.8 93.8934 605.47 90.2869 612.76 90.2869C618.43 90.2869 625.99 91.3688 628.87 100.385C633.55 92.7213 637.87 90.2869 645.16 90.2869C656.32 90.2869 662.26 95.877 662.26 108.5V157.729H642.55V112.918C642.55 108.139 640.48 105.344 636.88 105.344C633.1 105.344 629.86 108.32 629.86 114.721V157.729H610.24V112.918C610.24 108.139 608.17 105.344 604.57 105.344C600.79 105.344 597.55 108.32 597.55 114.721V157.729H577.93V92H577.84Z" fill="white"/>
<path d="M103 70.8115H133.69V84.4262H121.18V166.385H133.69V180H103V70.8115Z" fill="white"/>
<path d="M666.85 166.385H679.36V84.4262H666.85V70.8115H697.54V180H666.85V166.385Z" fill="white"/>
</g>
<defs>
<clipPath id="clip0_17_1383">
<rect width="594" height="110" fill="white" transform="translate(103 70)"/>
</clipPath>
</defs>
</svg>
