<svg width="800" height="250" viewBox="0 0 800 250" fill="none" xmlns="http://www.w3.org/2000/svg">
<path d="M244.1 33.2965C257.295 32.3031 270.662 34.0159 283.135 38.4349C300.316 44.464 315.642 55.563 326.741 69.9505C334.403 79.8505 340.073 91.3263 343.269 103.419C347.392 119.142 347.392 135.893 343.2 151.617C337.564 172.993 324.026 192.176 305.814 204.782C295.025 212.319 282.654 217.56 269.734 220.061C254.89 222.938 239.358 222.287 224.823 218.108C212.281 214.511 200.529 208.242 190.496 199.918C176.476 188.305 165.893 172.547 160.532 155.145C156.924 143.43 155.618 130.995 156.752 118.8C158.196 102.425 164.106 86.4619 173.658 73.0678C183.726 58.783 197.884 47.41 213.999 40.5931C223.518 36.5166 233.757 34.0501 244.1 33.2965ZM244.856 41.6893C224.755 43.128 205.306 51.8633 190.942 65.9425C179.603 76.9045 171.391 91.0522 167.542 106.296C164.037 120.136 164.037 134.866 167.576 148.739C172.112 166.45 182.524 182.55 196.75 194.06C207.264 202.624 219.841 208.653 233.104 211.462C247.365 214.511 262.381 213.929 276.332 209.715C288.152 206.187 299.148 200.089 308.426 191.971C318.081 183.544 325.813 172.958 330.864 161.209C336.843 147.403 338.973 132.022 337.187 117.087C335.743 104.789 331.517 92.8678 324.988 82.3512C315.71 67.347 301.725 55.3232 285.472 48.4034C272.724 42.9225 258.67 40.6616 244.856 41.6893ZM235.51 62.4142C243.138 60.5643 251.11 59.982 258.91 60.9412C255.955 61.9346 253.103 63.065 250.217 64.2297C244.41 66.3879 238.705 68.8886 233.173 71.7661C223.346 76.9387 214.721 84.2353 207.677 92.7993C204.309 97.0128 201.423 101.637 198.949 106.433C197.54 108.934 196.269 111.537 195.547 114.312C192.661 122.945 191.217 132.022 190.839 141.1C190.393 146.239 190.668 151.411 191.63 156.481C190.358 154.118 188.812 151.857 188.022 149.288C183.761 136.716 183.314 122.91 186.785 110.099C189.671 99.2737 195.375 89.2709 203.107 81.1865C211.834 72.0059 223.208 65.3944 235.51 62.4142ZM249.014 66.8675C253.825 64.8121 258.773 62.928 263.858 61.6605C281.933 64.8806 298.323 76.1166 308.082 91.6003C310.831 96.0194 313.305 100.712 314.817 105.68C301.553 105.68 288.29 105.645 275.026 105.68C270.009 99.9245 262.931 95.9166 255.302 94.9574C251.11 94.4093 246.746 94.6149 242.691 95.8823C232.898 98.4515 224.617 106.193 221.25 115.682C217.298 125.788 218.982 137.846 225.407 146.581C229.737 152.473 236.094 156.995 243.276 158.708C248.808 160.215 254.752 160.044 260.216 158.331C266.195 156.55 271.521 152.884 275.438 148.089C264.683 148.054 253.962 148.123 243.207 148.054C248.945 138.394 254.718 128.734 260.491 119.074C279.63 119.074 298.77 119.074 317.91 119.074C318.425 121.677 318.391 124.349 318.459 126.987C318.631 137.812 316.02 148.637 311.072 158.263C305.333 169.396 296.433 178.885 285.644 185.291C274.545 191.936 261.419 195.191 248.499 194.608C235.097 194.06 221.903 189.299 211.216 181.214C210.288 179.844 209.841 178.234 209.154 176.727C207.952 173.404 206.543 170.184 205.478 166.827C203.759 161.688 202.557 156.379 202.007 150.966C201.182 144.012 201.492 137.024 201.973 130.07C202.454 124.657 203.038 119.245 204.618 114.038C206.543 107.803 209.257 101.809 213.14 96.5332C217.092 90.5726 221.971 85.263 227.263 80.5014C233.689 74.8491 241.18 70.3958 249.014 66.8675ZM386.874 107.803C391.41 104.789 397.114 104.241 402.405 104.549C407.113 104.755 411.683 106.467 415.463 109.242C414.157 111.229 412.783 113.182 411.511 115.203C408.762 113.182 405.498 111.846 402.096 111.64C398.832 111.503 395.224 111.606 392.44 113.593C389.829 115.477 389.073 118.868 389.004 121.917C389.004 127.398 389.004 132.879 389.004 138.36C389.073 141.066 389.623 144.012 391.616 146.033C393.746 148.054 396.839 148.534 399.656 148.534C402.989 148.568 406.288 147.712 409.278 146.273C409.278 142.025 409.278 137.812 409.278 133.564C405.601 133.564 401.89 133.564 398.213 133.564C399.759 131.2 401.374 128.871 402.955 126.507C407.697 126.473 412.439 126.507 417.181 126.507C417.181 134.455 417.181 142.368 417.181 150.281C412.508 153.672 406.769 155.522 401.031 155.659C396.083 155.83 390.825 155.214 386.668 152.336C383.128 149.938 381.17 145.691 380.998 141.477C380.998 133.941 380.998 126.37 380.998 118.834C381.101 114.518 383.266 110.236 386.874 107.803ZM440.753 104.686C445.598 104.138 450.752 104.446 455.219 106.604C458.621 108.215 461.302 111.229 462.401 114.826C463.398 117.772 463.088 120.924 463.157 123.972C463.157 129.556 463.157 135.174 463.157 140.758C463.088 144.492 461.714 148.26 458.999 150.898C455.872 153.981 451.405 155.282 447.11 155.591C442.196 155.933 436.939 155.419 432.644 152.816C429.448 150.898 427.18 147.575 426.459 143.944C425.874 141.443 426.046 138.874 426.012 136.339C426.012 130.961 426.012 125.582 426.012 120.238C426.046 116.642 427.008 112.908 429.414 110.133C432.231 106.776 436.527 105.166 440.753 104.686ZM441.062 111.914C438.966 112.291 436.802 113.216 435.668 115.1C434.121 117.532 434.053 120.547 434.121 123.321C434.121 128.563 434.121 133.804 434.121 139.079C434.224 141.58 434.705 144.32 436.561 146.17C438.588 148.123 441.612 148.5 444.292 148.568C447.282 148.568 450.649 148.191 452.814 145.896C455.013 143.361 454.979 139.833 455.048 136.681C454.979 131.2 455.185 125.685 454.91 120.204C454.773 117.429 453.776 114.381 451.165 112.976C448.107 111.332 444.43 111.435 441.062 111.914ZM634.691 109.379C637.269 107.803 639.777 106.193 642.354 104.618C642.388 119.519 642.354 134.42 642.354 149.322C642.285 149.836 642.457 150.452 642.079 150.863C641.048 152.234 639.949 153.57 638.884 154.906C637.612 154.906 636.306 154.906 635.035 154.906C627.819 142.882 620.603 130.824 613.284 118.834C613.284 129.419 613.284 139.97 613.284 150.555C612.15 151.994 611.016 153.432 609.917 154.906C608.439 154.94 606.996 154.94 605.518 154.94C605.518 139.49 605.518 124.075 605.518 108.626C606.721 107.495 607.924 106.399 609.126 105.268C610.844 105.268 612.528 105.234 614.246 105.268C621.05 116.573 627.819 127.912 634.691 139.182C634.726 129.248 634.657 119.313 634.691 109.379ZM522.156 105.337C525.524 105.131 528.926 105.303 532.327 105.234C536.898 105.097 541.674 105.851 545.557 108.42C549.165 110.886 551.158 115.203 551.433 119.485C551.708 123.835 551.501 128.186 551.57 132.536C551.501 137.092 552.017 141.854 550.127 146.136C548.478 150.041 544.766 152.816 540.746 153.946C536.588 155.214 532.19 154.871 527.895 154.906C523.771 154.906 519.648 154.906 515.525 154.906C515.525 140.004 515.525 125.103 515.525 110.201C517.689 108.591 519.888 106.913 522.156 105.337ZM523.462 112.325C523.462 124.178 523.462 135.996 523.462 147.849C527.757 147.746 532.121 148.157 536.348 147.369C538.994 146.924 541.571 145.28 542.499 142.676C543.839 138.976 543.255 135.003 543.358 131.166C543.22 127.158 543.701 123.116 542.98 119.142C542.533 116.539 540.746 114.141 538.169 113.319C533.461 111.709 528.376 112.531 523.462 112.325ZM561.844 105.234C573.218 105.234 584.557 105.234 595.931 105.234C594.454 107.598 592.976 109.962 591.499 112.325C584.317 112.325 577.17 112.325 569.988 112.325C569.988 116.95 569.988 121.609 569.988 126.233C577.616 126.233 585.21 126.233 592.839 126.233C591.395 128.563 589.918 130.824 588.543 133.153C582.358 133.221 576.173 133.153 569.988 133.187C569.988 138.052 569.988 142.916 569.988 147.78C578.682 147.815 587.341 147.78 596.034 147.78C594.591 150.144 593.079 152.473 591.636 154.837C581.705 154.871 571.775 154.837 561.844 154.837C561.844 138.36 561.844 121.814 561.844 105.234ZM473.534 110.989C476.215 109.071 478.86 107.118 481.541 105.2C481.575 119.416 481.541 133.598 481.541 147.815C489.994 147.815 498.447 147.815 506.9 147.815C505.182 150.178 503.464 152.542 501.745 154.906C492.33 154.906 482.915 154.906 473.5 154.906C473.534 140.278 473.534 125.651 473.534 110.989Z" fill="white"/>
</svg>
