<svg width="800" height="250" viewBox="0 0 800 250" fill="none" xmlns="http://www.w3.org/2000/svg">
<path d="M276.096 191.623H284.896C284.896 194.982 284.896 198.518 284.896 201.878C286.656 201.878 288.592 201.878 290.352 201.878C290.352 203.999 290.352 206.298 290.352 208.419C288.416 208.419 286.656 208.419 284.72 208.419C284.72 213.546 284.544 218.85 284.72 223.978C284.72 225.215 285.6 226.453 286.832 226.63C287.888 226.806 289.12 226.806 290.176 226.806C290.176 229.282 290.176 231.934 290.176 234.409C287.888 234.409 285.6 234.409 283.312 234.409C279.44 234.232 275.744 230.696 275.92 226.806C275.92 220.795 275.744 214.607 275.744 208.596C274.688 208.596 273.632 208.596 272.576 208.419V201.878C273.632 201.878 274.688 201.878 275.744 201.878C276.096 198.342 276.096 194.982 276.096 191.623ZM295.808 191.623H304.608C304.784 202.762 304.608 213.9 304.784 225.038C304.96 225.922 305.84 226.453 306.544 226.806C307.776 226.983 309.008 226.983 310.064 226.983C310.064 229.458 310.064 232.11 310.064 234.586C307.776 234.586 305.312 234.586 303.024 234.586C299.68 234.409 296.512 231.934 295.808 228.574C295.456 226.276 295.632 223.801 295.632 221.502C295.808 211.425 295.808 201.524 295.808 191.623ZM446.816 191.623H455.792C455.792 202.054 455.792 212.486 455.792 222.917C455.968 223.978 455.616 225.215 456.496 225.922C457.728 227.16 459.664 226.63 461.248 226.806C461.248 229.282 461.248 231.934 461.248 234.409C459.312 234.409 457.376 234.409 455.616 234.409C454.208 234.409 452.976 234.232 451.744 233.702C448.928 232.464 446.816 229.458 446.816 226.453C446.816 214.784 446.816 203.115 446.816 191.623ZM328.896 201.347C331.536 200.463 334.352 200.64 336.816 201.524C339.456 202.408 341.568 204.53 342.448 207.182C343.504 209.657 343.328 212.309 343.328 214.784C343.328 221.326 343.328 227.867 343.328 234.586C340.336 234.586 337.344 234.586 334.352 234.586C334.352 227.16 334.352 219.734 334.352 212.309C334 211.248 333.296 210.364 332.416 209.834C329.6 208.242 325.552 209.303 323.968 212.309C323.616 212.839 323.792 213.546 323.792 214.254C323.792 221.149 323.792 227.867 323.792 234.762C320.8 234.762 317.808 234.762 314.816 234.762C314.816 223.801 314.816 212.662 314.816 201.701C317.808 201.701 320.8 201.701 323.792 201.701C323.792 203.115 323.792 204.353 323.792 205.767C324.848 203.646 326.608 201.878 328.896 201.347ZM360.048 200.994C364.448 200.463 369.552 200.817 373.072 203.822C376.416 206.298 377.648 210.541 378 214.607C378.176 219.027 378.352 223.624 376.416 227.69C375.36 230.342 373.072 232.464 370.608 233.525C367.44 234.939 364.096 234.939 360.752 234.762C357.056 234.409 353.184 232.994 351.072 229.812C348.432 226.276 348.08 221.502 348.08 217.259C348.08 213.193 348.784 208.596 351.424 205.237C353.36 202.762 356.704 201.347 360.048 200.994ZM361.104 208.773C359.872 208.95 358.64 209.834 358.112 211.071C357.232 213.016 357.232 214.961 357.232 217.082C357.232 219.381 357.232 221.679 357.936 223.801C358.464 225.392 359.872 226.806 361.632 226.983C363.392 227.16 365.152 227.16 366.736 226.276C368.144 225.392 368.848 223.801 369.024 222.21C369.376 219.381 369.376 216.375 369.024 213.546C368.848 211.955 368.144 210.187 366.56 209.48C364.624 208.596 362.864 208.419 361.104 208.773ZM415.664 204.883C418.128 202.231 421.648 200.994 425.168 200.817C427.984 200.64 430.8 200.817 433.44 201.701C436.432 202.938 438.72 205.237 439.952 208.242C441.536 212.132 441.712 216.375 441.712 220.618C434.848 220.618 427.984 220.618 420.944 220.618C420.944 222.033 421.296 223.624 422 224.862C422.704 226.099 423.936 226.63 425.168 226.806C427.28 226.983 429.568 226.983 431.68 226.453C433.44 225.922 434.672 224.685 435.904 223.447C437.488 225.392 439.424 227.16 441.008 229.105C439.248 231.05 436.784 232.641 434.32 233.525C430.976 234.762 427.456 234.939 423.936 234.586C420.416 234.232 416.896 232.641 414.608 229.812C411.792 226.099 411.616 221.149 411.616 216.729C411.968 212.662 412.672 208.066 415.664 204.883ZM423.408 208.95C421.648 210.187 421.296 212.486 421.12 214.43C424.992 214.43 429.04 214.43 432.912 214.43C432.736 213.193 432.56 211.955 432.032 210.894C431.328 209.657 430.272 208.596 429.04 208.419C427.28 207.889 424.992 207.889 423.408 208.95ZM470.048 202.408C473.04 201.17 476.208 200.64 479.376 200.64C482.544 200.64 485.888 201.347 488.704 203.115C491.344 204.706 493.104 207.712 493.104 210.894C493.28 218.497 493.104 226.276 493.28 233.878C490.288 233.878 487.296 233.878 484.304 233.878C484.304 232.994 484.304 232.11 484.304 231.403C482.016 234.232 478.144 234.762 474.8 234.762C470.576 234.939 466.352 231.934 465.12 227.69C464.416 225.215 464.592 222.21 466 219.911C467.76 216.906 471.104 215.138 474.448 214.607C477.792 214.43 480.96 214.43 484.304 214.43C484.304 212.662 484.128 210.718 482.72 209.48C480.96 208.066 478.496 208.066 476.384 208.242C474.096 208.419 471.984 209.303 470.048 210.364C468.64 208.419 467.408 206.474 466.176 204.53C467.056 203.469 468.64 203.115 470.048 202.408ZM474.448 221.502C472.512 222.74 472.688 225.922 474.448 227.337C475.504 228.221 477.088 228.044 478.496 228.221C479.728 228.221 481.136 228.398 482.192 227.69C483.072 227.16 483.776 226.276 483.952 225.215C484.128 223.801 483.952 222.386 483.952 220.972C481.488 220.972 478.848 220.972 476.384 220.972C475.68 220.795 474.976 220.972 474.448 221.502ZM503.488 203.115C505.776 201.524 508.768 200.817 511.584 200.64C516.688 200.463 521.792 201.878 525.84 205.06C524.608 207.182 523.024 209.126 521.616 211.071C520.208 210.01 518.624 208.95 516.864 208.596C514.928 208.242 512.992 207.712 511.056 208.066C510.176 208.242 509.12 208.419 508.416 209.126C507.536 210.187 507.888 211.778 508.944 212.486C510.352 213.37 511.936 213.37 513.52 213.546C517.04 213.9 520.736 214.254 523.552 216.375C525.664 217.966 526.72 220.795 526.896 223.447V225.215C526.896 228.044 525.136 230.342 523.024 232.11C520.384 234.232 516.864 235.293 513.52 235.116H511.232C506.128 235.116 501.2 232.994 497.328 229.635C498.912 227.69 500.672 225.746 502.432 223.978C505.072 226.099 508.24 227.337 511.584 227.867C513.344 228.044 515.104 228.044 516.512 227.16C517.568 226.453 518.272 225.038 517.744 223.801C517.216 222.74 515.984 222.21 514.928 222.033C512.464 221.502 509.824 221.679 507.36 220.972C504.72 220.442 501.904 219.381 500.32 217.259C498.736 215.314 498.56 212.486 498.912 210.01C499.616 207.182 501.2 204.53 503.488 203.115ZM378.88 201.878C382.048 201.878 385.216 201.701 388.384 201.701C390.496 208.066 392.784 214.43 395.072 220.618C397.536 214.43 399.472 207.889 401.76 201.701C404.928 201.701 408.096 201.701 411.264 201.701C407.216 212.662 403.168 223.624 399.12 234.409C396.48 234.409 393.84 234.409 391.2 234.409C390.848 233.348 390.32 232.11 389.968 231.05C388.384 227.337 387.152 223.624 385.744 219.734C383.456 213.9 381.168 207.889 378.88 201.878Z" fill="#FF80B2"/>
<path d="M283.136 18.0056H315.52C315.696 30.3816 315.696 42.9344 315.696 55.3104C322.384 55.4872 329.072 55.4872 335.76 55.4872C335.76 63.62 335.76 71.576 335.76 79.7088C329.072 79.7088 322.208 79.7088 315.52 79.7088C315.696 98.6264 315.168 117.544 315.872 136.462C315.696 141.058 319.04 145.302 323.44 146.362C327.488 147.07 331.712 146.893 335.936 146.893C335.936 156.263 335.936 165.457 335.936 174.827C327.488 174.65 319.04 175.004 310.592 174.474C296.336 173.943 282.96 161.214 283.488 146.539C283.136 124.439 282.96 102.162 282.96 80.0624C279.088 79.8856 275.392 79.8856 271.52 79.7088V55.4872C275.216 55.4872 279.088 55.3104 282.784 55.3104C282.96 42.9344 282.96 30.3816 283.136 18.0056ZM354.768 18.0056H387.152C387.504 58.6696 387.504 99.1568 388.032 139.821C388.912 142.826 391.728 145.125 394.368 146.186C398.592 147.07 403.168 146.716 407.568 146.893C407.568 156.263 407.568 165.634 407.568 174.827C399.12 174.65 390.496 175.004 382.048 174.474C369.904 173.766 358.464 164.75 355.824 152.727C354.768 144.241 355.12 135.578 354.944 127.091C354.592 90.6704 354.768 54.4264 354.768 18.0056ZM475.504 53.5424C484.832 50.36 495.216 51.244 504.544 54.2496C514.048 57.432 521.616 65.388 524.96 74.7584C528.656 83.5984 528.128 93.3224 528.48 102.87C528.656 126.914 528.48 150.959 528.656 175.004C517.744 175.004 506.832 175.004 495.92 175.004C495.744 147.954 495.92 120.726 495.568 93.676C494.16 90.14 491.872 86.604 488.528 84.4824C478.32 78.648 463.184 82.5376 457.904 93.3224C456.672 95.444 457.2 97.9192 457.024 100.218C457.024 125.146 456.848 150.075 456.848 175.004C445.936 175.004 435.024 175.004 424.288 175.004C424.288 134.694 424.288 94.56 424.288 54.2496C435.2 54.2496 446.112 54.2496 457.024 54.2496C457.024 59.2 457.024 64.1504 457.024 69.1008C461.072 61.852 467.584 56.0176 475.504 53.5424Z" fill="#FF80B2"/>
</svg>
