<svg width="800" height="250" viewBox="0 0 800 250" fill="none" xmlns="http://www.w3.org/2000/svg">
<path d="M453.032 33.7248C455.467 31.0434 460.289 31.5797 462.091 34.6998C465.598 40.0137 468.909 45.4252 472.465 50.6903C472.66 51.0804 473.39 51.6654 473.682 51.0316C477.189 45.8152 480.988 40.7938 484.543 35.5773C485.809 33.676 487.709 31.8234 490.144 32.0672C494.284 31.6772 497.498 36.8449 495.258 40.4037C491.215 46.6927 486.491 52.5917 482.4 58.8806C510.161 59.0269 537.873 58.9294 565.633 58.9781C573.913 59.0269 582.192 58.8319 590.472 59.0756C595.683 59.9532 600.943 61.172 605.667 63.6095C617.697 69.3622 627.145 80.4776 630.506 93.3968C632.259 99.247 632.064 105.39 632.064 111.386C632.016 125.183 631.967 139.028 632.016 152.874C631.967 160.333 632.259 167.792 631.918 175.251C631.285 190.705 621.691 205.136 608.249 212.595C602.112 216.105 595.099 218.055 588.037 218.445C579.124 218.737 570.212 218.835 561.299 218.64C555.942 218.786 550.584 218.737 545.227 218.737C541.136 218.786 537.094 218.396 533.051 218.737C504.803 218.884 476.556 218.786 448.308 218.786C440.516 218.737 432.674 218.981 424.931 217.86C407.641 215.276 392.641 201.821 387.819 185.05C386.748 182.564 386.991 179.639 385.579 177.298C387.916 179.444 390.644 181.004 393.469 182.417C395.66 183.49 397.803 184.709 400.141 185.44C403.55 192.753 409.005 199.383 416.359 202.942C419.671 204.697 423.226 205.916 426.928 206.501C432.918 207.329 438.957 207.086 444.948 207.086C486.004 207.086 527.109 207.086 568.166 207.086C574.497 207.037 580.829 207.281 587.16 206.793C592.079 206.842 596.949 205.331 601.284 203.039C612.973 197.482 620.814 184.757 620.619 171.838C620.668 151.704 620.619 131.521 620.619 111.386C620.522 106.462 621.009 101.441 619.499 96.7119C617.648 89.4967 613.265 83.0127 607.518 78.3325C602.258 74.4324 596.121 71.3123 589.547 70.776C579.027 70.191 568.458 70.2398 557.938 70.4835C517.661 70.581 477.432 70.5323 437.155 70.4835C432.285 70.4835 427.317 70.386 422.593 71.8973C418.112 73.3599 413.875 75.6512 410.174 78.5275C405.303 82.7202 401.651 88.2291 399.313 94.2256C399.459 94.4206 399.8 94.7619 399.946 94.9081C396.001 96.2244 392.348 98.272 388.939 100.612C388.014 101.051 387.04 101.441 386.114 101.782C386.553 99.1495 387.089 96.4682 387.381 93.7868C391.667 76.87 406.229 62.9758 423.372 59.7582C427.171 58.6369 431.213 58.8806 435.11 58.8319C444.655 58.8319 454.201 58.8319 463.747 58.8319C460.289 52.7379 456.101 47.034 452.448 40.9888C450.987 38.7949 450.938 35.5286 453.032 33.7248Z" fill="#2760EF"/>
<path d="M170.068 97.5407C172.698 94.0793 177.13 92.2268 181.416 92.4705C186.189 92.2755 191.254 94.3231 193.689 98.5645C195.686 101.636 196.027 105.39 196.124 108.949C196.222 114.506 196.076 120.113 196.27 125.67C203.917 117.724 211.222 109.485 218.723 101.392C221.693 98.1745 224.713 94.7131 228.804 92.958C232.165 92.0317 236.012 92.373 239.032 94.2743C242.003 95.9806 243.951 99.0032 245.071 102.172C245.753 104.415 245.558 106.95 244.389 109.046C242.879 112.556 239.86 114.994 237.424 117.773C233.772 121.868 229.973 125.865 226.369 130.009C226.369 130.838 226.905 131.569 227.343 132.252C234.015 142.782 240.785 153.264 247.506 163.745C249.649 167.012 251.5 170.814 251.207 174.812C250.769 177.591 249.162 180.077 247.262 182.125C242.83 186.708 235.476 188.121 229.681 185.44C227.002 184.221 225.103 181.784 223.544 179.346C217.213 169.596 211.027 159.699 204.501 150.046C204.355 149.997 204.063 149.949 203.917 149.9C201.384 152.874 198.559 155.653 196.173 158.724C195.93 164.184 196.465 169.693 195.735 175.105C195.053 179.882 191.741 184.221 187.163 185.781C181.27 187.829 173.624 186.707 169.873 181.296C167.584 178.322 167.049 174.422 167.049 170.766C167.049 149.997 167.097 129.181 167 108.412C167 104.658 167.584 100.563 170.068 97.5407Z" fill="#2760EF"/>
<path d="M265.477 88.3753C268.448 87.839 271.711 87.7903 274.439 89.2528C277.897 90.9592 280.283 94.4693 281.111 98.1744C282.036 102.026 280.234 105.926 277.702 108.754C275.608 111.045 272.588 112.117 269.568 112.556C264.698 112.849 259.925 110.07 257.831 105.682C254.13 99.1982 258.318 90.1304 265.477 88.3753Z" fill="#7F4BE7"/>
<path d="M385.822 103.147C385.92 100.027 386.553 96.9069 387.381 93.8843C387.088 96.5656 386.553 99.1982 386.114 101.88C387.04 101.49 388.014 101.1 388.939 100.71C387.868 101.441 386.845 102.318 385.822 103.147Z" fill="#7F4BE7"/>
<path d="M263.87 117.968C267.425 117.09 271.322 117.09 274.828 118.309C278.286 119.43 280.721 122.696 281.452 126.207C281.988 128.352 282.036 130.594 281.988 132.837C281.89 146.146 281.89 159.504 281.939 172.813C281.988 176.518 281.403 180.565 278.578 183.246C275.9 185.684 272.198 186.951 268.546 186.805C264.406 186.951 260.071 185.147 257.782 181.637C255.98 179.102 255.737 175.836 255.737 172.813C255.737 158.821 255.737 144.83 255.737 130.838C255.785 127.718 256.175 124.403 258.074 121.868C259.536 119.966 261.581 118.601 263.87 117.968Z" fill="#7F4BE7"/>
<path d="M518.489 133.909C520.291 132.886 522.629 134.348 522.97 136.25C523.603 138.931 519.804 141.222 517.758 139.321C515.762 138.005 516.395 134.787 518.489 133.909Z" fill="#7F4BE7"/>
<path d="M453.714 188.17C453.373 187.634 453.276 187 453.422 186.415C453.763 184.855 454.834 183.392 456.588 183.344C459.12 182.954 460.24 185.684 462.091 186.854C464.526 188.804 467.838 188.999 470.809 188.658C473.488 188.268 475.777 186.61 477.481 184.514C478.212 183.636 479.283 183.197 480.403 183.344C481.085 183.441 481.767 183.636 482.351 184.075C483.423 185.05 484.202 186.854 483.228 188.17C480.939 191.875 476.848 194.069 472.757 195.337C467.4 196.945 461.458 195.239 457.172 191.729C455.906 190.705 454.591 189.584 453.714 188.17Z" fill="#7F4BE7"/>
<path d="M423.129 130.351C428.212 130.351 432.334 126.225 432.334 121.137C432.334 116.048 428.212 111.922 423.129 111.922C418.045 111.922 413.924 116.048 413.924 121.137C413.924 126.225 418.045 130.351 423.129 130.351Z" fill="#7F4BE7"/>
<path d="M411.684 140.052C413.486 140.052 414.947 138.59 414.947 136.786C414.947 134.982 413.486 133.519 411.684 133.519C409.881 133.519 408.42 134.982 408.42 136.786C408.42 138.59 409.881 140.052 411.684 140.052Z" fill="#7F4BE7"/>
<path d="M362.834 114.799C362.786 110.752 362.932 106.657 362.688 102.611C362.445 98.3207 359.425 94.2255 355.286 93.0068C351.097 91.7392 346.324 91.9342 342.525 94.1768C338.921 96.4194 337.363 100.856 337.412 104.951C337.46 112.459 337.217 119.918 337.558 127.425C334.83 123.672 331.324 120.454 326.989 118.699C323.142 117.139 318.856 117.139 314.813 117.48C308.092 118.309 301.956 122.16 297.816 127.425C291.923 135.957 288.855 146.536 290.218 156.871C290.852 164.574 293.433 172.374 298.741 178.176C307.751 187.878 324.018 189.73 334.782 181.979C337.071 180.418 338.337 177.932 339.506 175.543C340.041 177.883 340.431 180.37 341.892 182.32C345.448 187.39 353.143 188.073 358.208 185.001C361.666 182.905 362.883 178.566 362.834 174.763C362.834 154.775 362.786 134.787 362.834 114.799ZM334.538 164.72C330.252 169.596 321.145 168.426 318.223 162.575C315.885 157.749 315.398 152.094 316.713 146.926C317.638 143.075 320.219 139.37 324.213 138.346C327.233 137.663 330.691 137.712 333.223 139.711C336.194 142.197 337.606 146.097 337.606 149.851C337.801 154.921 337.899 160.577 334.538 164.72Z" fill="#E0427B"/>
<path d="M449.039 102.903C435.645 91.7392 416.213 89.1066 399.946 94.9568C396.001 96.2731 392.348 98.3207 388.939 100.661C387.868 101.49 386.845 102.318 385.822 103.147C381.634 106.901 377.932 111.289 375.302 116.261C367.9 131.179 367.997 149.51 375.302 164.428C377.884 169.303 381.488 173.593 385.53 177.298C387.868 179.443 390.595 181.004 393.42 182.417C395.611 183.49 397.754 184.709 400.092 185.44C408.713 188.073 417.966 189.194 426.879 187.39C435.499 185.83 443.876 182.32 450.354 176.372C454.152 172.813 457.61 168.718 459.948 164.038C466.085 150.729 467.01 134.982 461.847 121.185C459.461 114.019 454.639 107.876 449.039 102.903ZM442.756 155.555C440.856 158.724 438.519 161.698 435.45 163.794C431.944 166.037 428.096 167.841 423.957 168.377C419.963 169.352 415.726 169.547 411.683 168.523C404.962 167.451 398.388 164.233 394.345 158.578C390.887 154.19 389.475 148.535 388.842 143.075C388.355 135.713 389.767 127.815 394.394 121.868C398.777 115.725 406.083 112.166 413.485 111.289C420.401 110.314 427.658 111.679 433.6 115.384C439.054 118.748 443.243 124.159 444.899 130.399C447.431 138.638 446.555 147.852 442.756 155.555Z" fill="#E0427B"/>
<path d="M567.679 131.179C566.218 124.354 564.221 117.383 560.033 111.679C555.357 104.902 548.831 99.4907 541.282 96.2731C532.905 92.4217 523.457 91.3979 514.349 92.3729C502.076 93.738 490.193 99.8319 482.692 109.777C477.676 115.92 474.949 123.623 473.731 131.423C472.708 135.908 472.854 140.54 473.049 145.122C474.072 152.142 475.533 159.26 478.991 165.549C483.131 172.716 489.17 178.81 496.573 182.612C505.437 187 515.518 188.901 525.356 188.121C534.366 187.097 543.376 184.27 550.682 178.761C555.455 175.105 559.546 170.473 562.468 165.257C564.854 160.82 566.218 155.945 567.338 151.07C568.604 144.44 568.458 137.712 567.679 131.179ZM500.956 162.38C500.274 161.795 499.641 161.162 499.057 160.528C493.748 154.824 491.8 146.78 491.897 139.175C492.189 132.544 493.943 125.67 498.472 120.649C498.716 120.308 499.008 120.015 499.3 119.674C501.005 117.87 502.904 116.31 505.096 115.042C507.287 113.775 509.674 112.8 512.158 112.117C517.271 110.947 522.775 110.362 527.889 112.069C528.376 112.02 528.863 112.069 529.35 112.117C538.603 114.896 545.665 122.16 548.344 131.423C549.221 134.884 549.513 138.541 549.318 142.1C549.318 144.44 548.928 146.78 548.295 149.022C546.445 155.458 542.646 160.869 537.434 164.525C535.145 165.89 532.662 166.963 530.129 167.792C526.282 168.621 522.385 169.644 518.489 169.206C512.352 168.377 505.875 166.622 501.102 162.527C501.005 162.478 501.005 162.429 500.956 162.38Z" fill="#E0427B"/>
<path d="M519.707 121.088C519.707 126.158 523.895 130.302 529.106 130.302C534.317 130.302 538.506 126.207 538.506 121.088C538.506 118.943 537.775 116.993 536.509 115.433C534.123 113.873 531.444 112.703 528.619 111.922C523.652 112.166 519.707 116.164 519.707 121.088Z" fill="#7F4BE7"/>
</svg>
